0
SECTION
2
HEADER
9
$INSUNITS
70
4
0
ENDSEC
0
SECTION
2
TABLES
0
TABLE
2
LTYPE
0
LTYPE
72
65
70
64
2
CONTINUOUS
3
______
73
0
40
0
0
ENDTAB
0
TABLE
2
LAYER
0
ENDTAB
0
ENDSEC
0
SECTION
2
ENTITIES
0
LINE
8
0
10
-6.363961
20
11.0227038
11
11.0227038
21
6.363961
0
LINE
8
0
10
11.0227038
20
6.363961
11
6.363961
21
-11.0227038
0
LINE
8
0
10
6.363961
20
-11.0227038
11
-11.0227038
21
-6.363961
0
LINE
8
0
10
-11.0227038
20
-6.363961
11
-6.363961
21
11.0227038
0
LINE
8
0
10
-1.4463991
20
29.3752945
11
15.9402657
21
24.7165517
0
LINE
8
0
10
15.9402657
20
24.7165517
11
11.2815229
21
7.3298869
0
LINE
8
0
10
11.2815229
20
7.3298869
11
-6.1051419
21
11.9886297
0
LINE
8
0
10
-6.1051419
20
11.9886297
11
-1.4463991
21
29.3752945
0
LINE
8
0
10
3.4711627
20
47.7278852
11
20.8578275
21
43.0691424
0
LINE
8
0
10
20.8578275
20
43.0691424
11
16.1990847
21
25.6824776
0
LINE
8
0
10
16.1990847
20
25.6824776
11
-1.1875801
21
30.3412204
0
LINE
8
0
10
-1.1875801
20
30.3412204
11
3.4711627
21
47.7278852
0
LINE
8
0
10
15.8709154
20
20.5940294
11
33.2575802
21
15.9352866
0
LINE
8
0
10
33.2575802
20
15.9352866
11
28.5988374
21
-1.4513782
0
LINE
8
0
10
28.5988374
20
-1.4513782
11
11.2121726
21
3.2073646
0
LINE
8
0
10
11.2121726
20
3.2073646
11
15.8709154
21
20.5940294
0
LINE
8
0
10
20.7884772
20
38.94662
11
38.175142
21
34.2878772
0
LINE
8
0
10
38.175142
20
34.2878772
11
33.5163992
21
16.9012124
0
LINE
8
0
10
33.5163992
20
16.9012124
11
16.1297344
21
21.5599552
0
LINE
8
0
10
16.1297344
20
21.5599552
11
20.7884772
21
38.94662
0
LINE
8
0
10
25.7060391
20
57.2992107
11
43.0927039
21
52.6404679
0
LINE
8
0
10
43.0927039
20
52.6404679
11
38.4339611
21
35.2538031
0
LINE
8
0
10
38.4339611
20
35.2538031
11
21.0472963
21
39.9125459
0
LINE
8
0
10
21.0472963
20
39.9125459
11
25.7060391
21
57.2992107
0
LINE
8
0
10
35.5176013
20
20.5060966
11
52.9042661
21
15.8473538
0
LINE
8
0
10
52.9042661
20
15.8473538
11
48.2455233
21
-1.539311
0
LINE
8
0
10
48.2455233
20
-1.539311
11
30.8588585
21
3.1194318
0
LINE
8
0
10
30.8588585
20
3.1194318
11
35.5176013
21
20.5060966
0
LINE
8
0
10
40.4351632
20
38.8586873
11
57.821828
21
34.1999445
0
LINE
8
0
10
57.821828
20
34.1999445
11
53.1630852
21
16.8132797
0
LINE
8
0
10
53.1630852
20
16.8132797
11
35.7764204
21
21.4720225
0
LINE
8
0
10
35.7764204
20
21.4720225
11
40.4351632
21
38.8586873
0
LINE
8
0
10
45.352725
20
57.211278
11
62.7393898
21
52.5525352
0
LINE
8
0
10
62.7393898
20
52.5525352
11
58.080647
21
35.1658704
0
LINE
8
0
10
58.080647
20
35.1658704
11
40.6939822
21
39.8246132
0
LINE
8
0
10
40.6939822
20
39.8246132
11
45.352725
21
57.211278
0
LINE
8
0
10
52.3172777
20
9.7929798
11
69.7039425
21
5.134237
0
LINE
8
0
10
69.7039425
20
5.134237
11
65.0451997
21
-12.2524278
0
LINE
8
0
10
65.0451997
20
-12.2524278
11
47.6585349
21
-7.593685
0
LINE
8
0
10
47.6585349
20
-7.593685
11
52.3172777
21
9.7929798
0
LINE
8
0
10
57.2348396
20
28.1455705
11
74.6215044
21
23.4868277
0
LINE
8
0
10
74.6215044
20
23.4868277
11
69.9627616
21
6.1001629
0
LINE
8
0
10
69.9627616
20
6.1001629
11
52.5760968
21
10.7589057
0
LINE
8
0
10
52.5760968
20
10.7589057
11
57.2348396
21
28.1455705
0
LINE
8
0
10
62.1524015
20
46.4981612
11
79.5390663
21
41.8394184
0
LINE
8
0
10
79.5390663
20
41.8394184
11
74.8803235
21
24.4527536
0
LINE
8
0
10
74.8803235
20
24.4527536
11
57.4936587
21
29.1114964
0
LINE
8
0
10
57.4936587
20
29.1114964
11
62.1524015
21
46.4981612
0
LINE
8
0
10
70.1522303
20
2.9435663
11
87.5388951
21
-1.7151765
0
LINE
8
0
10
87.5388951
20
-1.7151765
11
82.8801523
21
-19.1018413
0
LINE
8
0
10
82.8801523
20
-19.1018413
11
65.4934875
21
-14.4430985
0
LINE
8
0
10
65.4934875
20
-14.4430985
11
70.1522303
21
2.9435663
0
LINE
8
0
10
75.0697922
20
21.296157
11
92.456457
21
16.6374142
0
LINE
8
0
10
92.456457
20
16.6374142
11
87.7977142
21
-0.7492506
0
LINE
8
0
10
87.7977142
20
-0.7492506
11
70.4110494
21
3.9094922
0
LINE
8
0
10
70.4110494
20
3.9094922
11
75.0697922
21
21.296157
0
LINE
8
0
10
79.9873541
20
39.6487477
11
97.3740189
21
34.9900049
0
LINE
8
0
10
97.3740189
20
34.9900049
11
92.7152761
21
17.6033401
0
LINE
8
0
10
92.7152761
20
17.6033401
11
75.3286113
21
22.2620829
0
LINE
8
0
10
75.3286113
20
22.2620829
11
79.9873541
21
39.6487477
0
LINE
8
0
10
59.5763932
20
-13.8693894
11
75.1648504
21
-22.8693894
0
LINE
8
0
10
75.1648504
20
-22.8693894
11
66.1648504
21
-38.4578466
0
LINE
8
0
10
66.1648504
20
-38.4578466
11
50.5763932
21
-29.4578466
0
LINE
8
0
10
50.5763932
20
-29.4578466
11
59.5763932
21
-13.8693894
0
LINE
8
0
10
80.7030579
20
-27.2843037
11
93.8674246
21
-39.5602742
0
LINE
8
0
10
93.8674246
20
-39.5602742
11
81.5914541
21
-52.7246409
0
LINE
8
0
10
81.5914541
20
-52.7246409
11
68.4270874
21
-40.4486704
0
LINE
8
0
10
68.4270874
20
-40.4486704
11
80.7030579
21
-27.2843037
0
LINE
8
0
10
100.5212751
20
-48.8068833
11
106.3815019
21
-65.8262177
0
LINE
8
0
10
106.3815019
20
-65.8262177
11
89.3621675
21
-71.6864445
0
LINE
8
0
10
89.3621675
20
-71.6864445
11
83.5019407
21
-54.6671101
0
LINE
8
0
10
83.5019407
20
-54.6671101
11
100.5212751
21
-48.8068833
0
ENDSEC
0
EOF