  0
SECTION
  2
HEADER
  9
$ACADVER
  1
AC1014
  9
$HANDSEED
  5
FFFF
  9
$MEASUREMENT
 70
     1
  0
ENDSEC
  0
SECTION
  2
TABLES
  0
TABLE
  2
VPORT
  5
8
330
0
100
AcDbSymbolTable
 70
     4
  0
VPORT
  5
2E
330
8
100
AcDbSymbolTableRecord
100
AcDbViewportTableRecord
  2
*ACTIVE
 70
     0
 10
0.0
 20
0.0
 11
1.0
 21
1.0
 12
210.0
 22
148.5
 13
0.0
 23
0.0
 14
10.0
 24
10.0
 15
10.0
 25
10.0
 16
0.0
 26
0.0
 36
1.0
 17
0.0
 27
0.0
 37
0.0
 40
341.0
 41
1.24
 42
50.0
 43
0.0
 44
0.0
 50
0.0
 51
0.0
 71
     0
 72
   100
 73
     1
 74
     3
 75
     0
 76
     0
 77
     0
 78
     0
  0
ENDTAB
  0
TABLE
  2
LTYPE
  5
5
330
0
100
AcDbSymbolTable
 70
     1
  0
LTYPE
  5
14
330
5
100
AcDbSymbolTableRecord
100
AcDbLinetypeTableRecord
  2
BYBLOCK
 70
     0
  3

 72
    65
 73
     0
 40
0.0
  0
LTYPE
  5
15
330
5
100
AcDbSymbolTableRecord
100
AcDbLinetypeTableRecord
  2
BYLAYER
 70
     0
  3

 72
    65
 73
     0
 40
0.0
  0
LTYPE
  5
16
330
5
100
AcDbSymbolTableRecord
100
AcDbLinetypeTableRecord
  2
CONTINUOUS
 70
     0
  3
Solid line
 72
    65
 73
     0
 40
0.0
  0
ENDTAB
  0
TABLE
  2
LAYER
  5
2
100
AcDbSymbolTable
 70
2
  0
LAYER
  5
50
100
AcDbSymbolTableRecord
100
AcDbLayerTableRecord
  2
0
 70
0
  6
CONTINUOUS
  0
LAYER
  5
51
100
AcDbSymbolTableRecord
100
AcDbLayerTableRecord
  2
Layer_1
 70
0
  6
CONTINUOUS
  0
ENDTAB
  0
TABLE
  2
STYLE
  5
3
330
0
100
AcDbSymbolTable
 70
     1
  0
STYLE
  5
11
330
3
100
AcDbSymbolTableRecord
100
AcDbTextStyleTableRecord
  2
STANDARD
 70
     0
 40
0.0
 41
1.0
 50
0.0
 71
     0
 42
2.5
  3
txt
  4

  0
ENDTAB
  0
TABLE
  2
VIEW
  5
6
330
0
100
AcDbSymbolTable
 70
     0
  0
ENDTAB
  0
TABLE
  2
UCS
  5
7
330
0
100
AcDbSymbolTable
 70
     0
  0
ENDTAB
  0
TABLE
  2
APPID
  5
9
330
0
100
AcDbSymbolTable
 70
     2
  0
APPID
  5
12
330
9
100
AcDbSymbolTableRecord
100
AcDbRegAppTableRecord
  2
ACAD
 70
     0
  0
ENDTAB
  0
TABLE
  2
DIMSTYLE
  5
A
330
0
100
AcDbSymbolTable
 70
     1
  0
DIMSTYLE
105
27
330
A
100
AcDbSymbolTableRecord
100
AcDbDimStyleTableRecord
  2
ISO-25
 70
     0
  3

  4

  5

  6

  7

 40
1.0
 41
2.5
 42
0.625
 43
3.75
 44
1.25
 45
0.0
 46
0.0
 47
0.0
 48
0.0
140
2.5
141
2.5
142
0.0
143
0.03937007874016
144
1.0
145
0.0
146
1.0
147
0.625
 71
     0
 72
     0
 73
     0
 74
     0
 75
     0
 76
     0
 77
     1
 78
     8
170
     0
171
     3
172
     1
173
     0
174
     0
175
     0
176
     0
177
     0
178
     0
270
     2
271
     2
272
     2
273
     2
274
     3
340
11
275
     0
280
     0
281
     0
282
     0
283
     0
284
     8
285
     0
286
     0
287
     3
288
     0
  0
ENDTAB
  0
TABLE
  2
BLOCK_RECORD
  5
1
330
0
100
AcDbSymbolTable
 70
     1
  0
BLOCK_RECORD
  5
1F
330
1
100
AcDbSymbolTableRecord
100
AcDbBlockTableRecord
  2
*MODEL_SPACE
  0
BLOCK_RECORD
  5
1B
330
1
100
AcDbSymbolTableRecord
100
AcDbBlockTableRecord
  2
*PAPER_SPACE
  0
ENDTAB
  0
ENDSEC
  0
SECTION
  2
BLOCKS
  0
BLOCK
  5
20
330
1F
100
AcDbEntity
  8
0
100
AcDbBlockBegin
  2
*MODEL_SPACE
 70
     0
 10
0.0
 20
0.0
 30
0.0
  3
*MODEL_SPACE
  1

  0
ENDBLK
  5
21
330
1F
100
AcDbEntity
  8
0
100
AcDbBlockEnd
  0
BLOCK
  5
1C
330
1B
100
AcDbEntity
 67
     1
  8
0
100
AcDbBlockBegin
  2
*PAPER_SPACE
  1

  0
ENDBLK
  5
1D
330
1B
100
AcDbEntity
 67
     1
  8
0
100
AcDbBlockEnd
  0
ENDSEC
  0
SECTION
  2
ENTITIES
  0
LINE
  5
100
100
AcDbEntity
  8
Layer_1
 62
7
100
AcDbLine
 10
35.831392
 20
256.453461
 30
0.0
 11
35.831392
 21
225.973461
 31
0.0
  0
LINE
  5
101
100
AcDbEntity
  8
Layer_1
 62
7
100
AcDbLine
 10
53.611392
 20
256.453461
 30
0.0
 11
53.611392
 21
225.973461
 31
0.0
  0
LINE
  5
102
100
AcDbEntity
  8
Layer_1
 62
7
100
AcDbLine
 10
53.611392
 20
225.973461
 30
0.0
 11
35.831392
 21
225.973461
 31
0.0
  0
LINE
  5
103
100
AcDbEntity
  8
Layer_1
 62
7
100
AcDbLine
 10
66.987032
 20
193.989780
 30
0.0
 11
70.017252
 21
180.322040
 31
0.0
  0
LINE
  5
104
100
AcDbEntity
  8
Layer_1
 62
7
100
AcDbLine
 10
70.017252
 20
180.322040
 30
0.0
 11
83.684992
 21
183.352260
 31
0.0
  0
LINE
  5
105
100
AcDbEntity
  8
Layer_1
 62
7
100
AcDbLine
 10
83.684992
 20
183.352260
 30
0.0
 11
80.654772
 21
197.020001
 31
0.0
  0
LINE
  5
106
100
AcDbEntity
  8
Layer_1
 62
7
100
AcDbLine
 10
80.654772
 20
197.020001
 30
0.0
 11
66.987032
 21
193.989780
 31
0.0
  0
LINE
  5
107
100
AcDbEntity
  8
Layer_1
 62
7
100
AcDbLine
 10
116.636410
 20
239.163681
 30
0.0
 11
116.636410
 21
225.163201
 31
0.0
  0
LINE
  5
108
100
AcDbEntity
  8
Layer_1
 62
7
100
AcDbLine
 10
116.636410
 20
225.163201
 30
0.0
 11
130.634350
 21
225.163201
 31
0.0
  0
LINE
  5
109
100
AcDbEntity
  8
Layer_1
 62
7
100
AcDbLine
 10
130.634350
 20
225.163201
 30
0.0
 11
130.634350
 21
239.163681
 31
0.0
  0
LINE
  5
10a
100
AcDbEntity
  8
Layer_1
 62
7
100
AcDbLine
 10
130.634350
 20
239.163681
 30
0.0
 11
116.636410
 21
239.163681
 31
0.0
  0
LINE
  5
10b
100
AcDbEntity
  8
Layer_1
 62
7
100
AcDbLine
 10
135.714350
 20
224.825381
 30
0.0
 11
135.714350
 21
210.824901
 31
0.0
  0
LINE
  5
10c
100
AcDbEntity
  8
Layer_1
 62
7
100
AcDbLine
 10
135.714350
 20
210.824901
 30
0.0
 11
149.712290
 21
210.824901
 31
0.0
  0
LINE
  5
10d
100
AcDbEntity
  8
Layer_1
 62
7
100
AcDbLine
 10
149.712290
 20
210.824901
 30
0.0
 11
149.712290
 21
224.825381
 31
0.0
  0
LINE
  5
10e
100
AcDbEntity
  8
Layer_1
 62
7
100
AcDbLine
 10
149.712290
 20
224.825381
 30
0.0
 11
135.714350
 21
224.825381
 31
0.0
  0
LINE
  5
10f
100
AcDbEntity
  8
Layer_1
 62
7
100
AcDbLine
 10
135.668630
 20
243.860141
 30
0.0
 11
135.668630
 21
229.859661
 31
0.0
  0
LINE
  5
110
100
AcDbEntity
  8
Layer_1
 62
7
100
AcDbLine
 10
135.668630
 20
229.859661
 30
0.0
 11
149.669110
 21
229.859661
 31
0.0
  0
LINE
  5
111
100
AcDbEntity
  8
Layer_1
 62
7
100
AcDbLine
 10
149.669110
 20
229.859661
 30
0.0
 11
149.669110
 21
243.860141
 31
0.0
  0
LINE
  5
112
100
AcDbEntity
  8
Layer_1
 62
7
100
AcDbLine
 10
149.669110
 20
243.860141
 30
0.0
 11
135.668630
 21
243.860141
 31
0.0
  0
LINE
  5
113
100
AcDbEntity
  8
Layer_1
 62
7
100
AcDbLine
 10
116.682130
 20
258.175581
 30
0.0
 11
116.682130
 21
244.175101
 31
0.0
  0
LINE
  5
114
100
AcDbEntity
  8
Layer_1
 62
7
100
AcDbLine
 10
116.682130
 20
244.175101
 30
0.0
 11
130.682610
 21
244.175101
 31
0.0
  0
LINE
  5
115
100
AcDbEntity
  8
Layer_1
 62
7
100
AcDbLine
 10
130.682610
 20
244.175101
 30
0.0
 11
130.682610
 21
258.175581
 31
0.0
  0
LINE
  5
116
100
AcDbEntity
  8
Layer_1
 62
7
100
AcDbLine
 10
130.682610
 20
258.175581
 30
0.0
 11
116.682130
 21
258.175581
 31
0.0
  0
LINE
  5
117
100
AcDbEntity
  8
Layer_1
 62
7
100
AcDbLine
 10
78.604992
 20
256.245181
 30
0.0
 11
78.604992
 21
242.244701
 31
0.0
  0
LINE
  5
118
100
AcDbEntity
  8
Layer_1
 62
7
100
AcDbLine
 10
78.604992
 20
242.244701
 30
0.0
 11
92.605472
 21
242.244701
 31
0.0
  0
LINE
  5
119
100
AcDbEntity
  8
Layer_1
 62
7
100
AcDbLine
 10
92.605472
 20
242.244701
 30
0.0
 11
92.605472
 21
256.245181
 31
0.0
  0
LINE
  5
11a
100
AcDbEntity
  8
Layer_1
 62
7
100
AcDbLine
 10
92.605472
 20
256.245181
 30
0.0
 11
78.604992
 21
256.245181
 31
0.0
  0
LINE
  5
11b
100
AcDbEntity
  8
Layer_1
 62
7
100
AcDbLine
 10
59.471172
 20
254.383361
 30
0.0
 11
59.471172
 21
240.382881
 31
0.0
  0
LINE
  5
11c
100
AcDbEntity
  8
Layer_1
 62
7
100
AcDbLine
 10
59.471172
 20
240.382881
 30
0.0
 11
73.471652
 21
240.382881
 31
0.0
  0
LINE
  5
11d
100
AcDbEntity
  8
Layer_1
 62
7
100
AcDbLine
 10
73.471652
 20
240.382881
 30
0.0
 11
73.471652
 21
254.383361
 31
0.0
  0
LINE
  5
11e
100
AcDbEntity
  8
Layer_1
 62
7
100
AcDbLine
 10
73.471652
 20
254.383361
 30
0.0
 11
59.471172
 21
254.383361
 31
0.0
  0
LINE
  5
11f
100
AcDbEntity
  8
Layer_1
 62
7
100
AcDbLine
 10
59.534672
 20
216.222401
 30
0.0
 11
59.534672
 21
202.224461
 31
0.0
  0
LINE
  5
120
100
AcDbEntity
  8
Layer_1
 62
7
100
AcDbLine
 10
59.534672
 20
202.224461
 30
0.0
 11
73.532612
 21
202.224461
 31
0.0
  0
LINE
  5
121
100
AcDbEntity
  8
Layer_1
 62
7
100
AcDbLine
 10
73.532612
 20
202.224461
 30
0.0
 11
73.532612
 21
216.222401
 31
0.0
  0
LINE
  5
122
100
AcDbEntity
  8
Layer_1
 62
7
100
AcDbLine
 10
73.532612
 20
216.222401
 30
0.0
 11
59.534672
 21
216.222401
 31
0.0
  0
LINE
  5
123
100
AcDbEntity
  8
Layer_1
 62
7
100
AcDbLine
 10
59.514352
 20
235.348601
 30
0.0
 11
59.514352
 21
221.348121
 31
0.0
  0
LINE
  5
124
100
AcDbEntity
  8
Layer_1
 62
7
100
AcDbLine
 10
59.514352
 20
221.348121
 30
0.0
 11
73.514832
 21
221.348121
 31
0.0
  0
LINE
  5
125
100
AcDbEntity
  8
Layer_1
 62
7
100
AcDbLine
 10
73.514832
 20
221.348121
 30
0.0
 11
73.514832
 21
235.348601
 31
0.0
  0
LINE
  5
126
100
AcDbEntity
  8
Layer_1
 62
7
100
AcDbLine
 10
73.514832
 20
235.348601
 30
0.0
 11
59.514352
 21
235.348601
 31
0.0
  0
LINE
  5
127
100
AcDbEntity
  8
Layer_1
 62
7
100
AcDbLine
 10
78.599912
 20
218.198521
 30
0.0
 11
78.599912
 21
204.200581
 31
0.0
  0
LINE
  5
128
100
AcDbEntity
  8
Layer_1
 62
7
100
AcDbLine
 10
78.599912
 20
204.200581
 30
0.0
 11
92.600392
 21
204.200581
 31
0.0
  0
LINE
  5
129
100
AcDbEntity
  8
Layer_1
 62
7
100
AcDbLine
 10
92.600392
 20
204.200581
 30
0.0
 11
92.600392
 21
218.198521
 31
0.0
  0
LINE
  5
12a
100
AcDbEntity
  8
Layer_1
 62
7
100
AcDbLine
 10
92.600392
 20
218.198521
 30
0.0
 11
78.599912
 21
218.198521
 31
0.0
  0
LINE
  5
12b
100
AcDbEntity
  8
Layer_1
 62
7
100
AcDbLine
 10
78.556732
 20
237.235821
 30
0.0
 11
78.556732
 21
223.235341
 31
0.0
  0
LINE
  5
12c
100
AcDbEntity
  8
Layer_1
 62
7
100
AcDbLine
 10
78.556732
 20
223.235341
 30
0.0
 11
92.557212
 21
223.235341
 31
0.0
  0
LINE
  5
12d
100
AcDbEntity
  8
Layer_1
 62
7
100
AcDbLine
 10
92.557212
 20
223.235341
 30
0.0
 11
92.557212
 21
237.235821
 31
0.0
  0
LINE
  5
12e
100
AcDbEntity
  8
Layer_1
 62
7
100
AcDbLine
 10
92.557212
 20
237.235821
 30
0.0
 11
78.556732
 21
237.235821
 31
0.0
  0
LINE
  5
12f
100
AcDbEntity
  8
Layer_1
 62
7
100
AcDbLine
 10
28.686372
 20
172.752840
 30
0.0
 11
37.208072
 21
161.645420
 31
0.0
  0
LINE
  5
130
100
AcDbEntity
  8
Layer_1
 62
7
100
AcDbLine
 10
37.208072
 20
161.645420
 30
0.0
 11
48.315492
 21
170.169660
 31
0.0
  0
LINE
  5
131
100
AcDbEntity
  8
Layer_1
 62
7
100
AcDbLine
 10
48.315492
 20
170.169660
 30
0.0
 11
39.793792
 21
181.274540
 31
0.0
  0
LINE
  5
132
100
AcDbEntity
  8
Layer_1
 62
7
100
AcDbLine
 10
39.793792
 20
181.274540
 30
0.0
 11
28.686372
 21
172.752840
 31
0.0
  0
LINE
  5
133
100
AcDbEntity
  8
Layer_1
 62
7
100
AcDbLine
 10
97.594032
 20
223.883041
 30
0.0
 11
97.594032
 21
209.882561
 31
0.0
  0
LINE
  5
134
100
AcDbEntity
  8
Layer_1
 62
7
100
AcDbLine
 10
97.594032
 20
209.882561
 30
0.0
 11
111.594510
 21
209.882561
 31
0.0
  0
LINE
  5
135
100
AcDbEntity
  8
Layer_1
 62
7
100
AcDbLine
 10
111.594510
 20
209.882561
 30
0.0
 11
111.594510
 21
223.883041
 31
0.0
  0
LINE
  5
136
100
AcDbEntity
  8
Layer_1
 62
7
100
AcDbLine
 10
111.594510
 20
223.883041
 30
0.0
 11
97.594032
 21
223.883041
 31
0.0
  0
LINE
  5
137
100
AcDbEntity
  8
Layer_1
 62
7
100
AcDbLine
 10
97.642292
 20
242.894941
 30
0.0
 11
97.642292
 21
228.894461
 31
0.0
  0
LINE
  5
138
100
AcDbEntity
  8
Layer_1
 62
7
100
AcDbLine
 10
97.642292
 20
228.894461
 30
0.0
 11
111.640230
 21
228.894461
 31
0.0
  0
LINE
  5
139
100
AcDbEntity
  8
Layer_1
 62
7
100
AcDbLine
 10
111.640230
 20
228.894461
 30
0.0
 11
111.640230
 21
242.894941
 31
0.0
  0
LINE
  5
13a
100
AcDbEntity
  8
Layer_1
 62
7
100
AcDbLine
 10
111.640230
 20
242.894941
 30
0.0
 11
97.642292
 21
242.894941
 31
0.0
  0
LINE
  5
13b
100
AcDbEntity
  8
Layer_1
 62
7
100
AcDbLine
 10
97.621972
 20
262.018601
 30
0.0
 11
97.621972
 21
248.020661
 31
0.0
  0
LINE
  5
13c
100
AcDbEntity
  8
Layer_1
 62
7
100
AcDbLine
 10
97.621972
 20
248.020661
 30
0.0
 11
111.622450
 21
248.020661
 31
0.0
  0
LINE
  5
13d
100
AcDbEntity
  8
Layer_1
 62
7
100
AcDbLine
 10
111.622450
 20
248.020661
 30
0.0
 11
111.622450
 21
262.018601
 31
0.0
  0
LINE
  5
13e
100
AcDbEntity
  8
Layer_1
 62
7
100
AcDbLine
 10
111.622450
 20
262.018601
 30
0.0
 11
97.621972
 21
262.018601
 31
0.0
  0
LINE
  5
13f
100
AcDbEntity
  8
Layer_1
 62
7
100
AcDbLine
 10
46.682272
 20
185.399500
 30
0.0
 11
52.597932
 21
172.712200
 31
0.0
  0
LINE
  5
140
100
AcDbEntity
  8
Layer_1
 62
7
100
AcDbLine
 10
52.597932
 20
172.712200
 30
0.0
 11
65.287772
 21
178.627860
 31
0.0
  0
LINE
  5
141
100
AcDbEntity
  8
Layer_1
 62
7
100
AcDbLine
 10
65.287772
 20
178.627860
 30
0.0
 11
59.369572
 21
191.317700
 31
0.0
  0
LINE
  5
142
100
AcDbEntity
  8
Layer_1
 62
7
100
AcDbLine
 10
59.369572
 20
191.317700
 30
0.0
 11
46.682272
 21
185.399500
 31
0.0
  0
LINE
  5
143
100
AcDbEntity
  8
Layer_1
 62
7
100
AcDbLine
 10
116.654190
 20
220.037481
 30
0.0
 11
116.654190
 21
206.039541
 31
0.0
  0
LINE
  5
144
100
AcDbEntity
  8
Layer_1
 62
7
100
AcDbLine
 10
116.654190
 20
206.039541
 30
0.0
 11
130.654670
 21
206.039541
 31
0.0
  0
LINE
  5
145
100
AcDbEntity
  8
Layer_1
 62
7
100
AcDbLine
 10
130.654670
 20
206.039541
 30
0.0
 11
130.654670
 21
220.037481
 31
0.0
  0
LINE
  5
146
100
AcDbEntity
  8
Layer_1
 62
7
100
AcDbLine
 10
130.654670
 20
220.037481
 30
0.0
 11
116.654190
 21
220.037481
 31
0.0
  0
LINE
  5
147
100
AcDbEntity
  8
Layer_1
 62
7
100
AcDbLine
 10
135.757530
 20
205.790621
 30
0.0
 11
135.757530
 21
191.790140
 31
0.0
  0
LINE
  5
148
100
AcDbEntity
  8
Layer_1
 62
7
100
AcDbLine
 10
135.757530
 20
191.790140
 30
0.0
 11
149.758010
 21
191.790140
 31
0.0
  0
LINE
  5
149
100
AcDbEntity
  8
Layer_1
 62
7
100
AcDbLine
 10
149.758010
 20
191.790140
 30
0.0
 11
149.758010
 21
205.790621
 31
0.0
  0
LINE
  5
14a
100
AcDbEntity
  8
Layer_1
 62
7
100
AcDbLine
 10
149.758010
 20
205.790621
 30
0.0
 11
135.757530
 21
205.790621
 31
0.0
  0
SPLINE
  5
14b
100
AcDbEntity
  8
Layer_1
 62
7
100
AcDbSpline
 70
8
 71
3
 72
8
 73
4
 74
0
 40
0
 40
0
 40
0
 40
0
 40
1
 40
1
 40
1
 40
1
 10
125.856200
 20
198.959801
 30
0.0
 10
125.856200
 20
197.744774
 30
0.0
 10
124.871227
 20
196.759800
 30
0.0
 10
123.656200
 20
196.759800
 30
0.0
  0
SPLINE
  5
14c
100
AcDbEntity
  8
Layer_1
 62
7
100
AcDbSpline
 70
8
 71
3
 72
8
 73
4
 74
0
 40
0
 40
0
 40
0
 40
0
 40
1
 40
1
 40
1
 40
1
 10
123.656200
 20
196.759800
 30
0.0
 10
122.441173
 20
196.759800
 30
0.0
 10
121.456200
 20
197.744774
 30
0.0
 10
121.456200
 20
198.959801
 30
0.0
  0
SPLINE
  5
14d
100
AcDbEntity
  8
Layer_1
 62
7
100
AcDbSpline
 70
8
 71
3
 72
8
 73
4
 74
0
 40
0
 40
0
 40
0
 40
0
 40
1
 40
1
 40
1
 40
1
 10
121.456200
 20
198.959801
 30
0.0
 10
121.456200
 20
200.174827
 30
0.0
 10
122.441174
 20
201.159801
 30
0.0
 10
123.656200
 20
201.159801
 30
0.0
  0
SPLINE
  5
14e
100
AcDbEntity
  8
Layer_1
 62
7
100
AcDbSpline
 70
8
 71
3
 72
8
 73
4
 74
0
 40
0
 40
0
 40
0
 40
0
 40
1
 40
1
 40
1
 40
1
 10
123.656200
 20
201.159801
 30
0.0
 10
124.871226
 20
201.159801
 30
0.0
 10
125.856200
 20
200.174827
 30
0.0
 10
125.856200
 20
198.959801
 30
0.0
  0
LINE
  5
14f
100
AcDbEntity
  8
Layer_1
 62
7
100
AcDbLine
 10
125.856200
 20
198.959801
 30
0.0
 11
125.856200
 21
198.959801
 31
0.0
  0
SPLINE
  5
150
100
AcDbEntity
  8
Layer_1
 62
7
100
AcDbSpline
 70
8
 71
3
 72
8
 73
4
 74
0
 40
0
 40
0
 40
0
 40
0
 40
1
 40
1
 40
1
 40
1
 10
125.856200
 20
241.809574
 30
0.0
 10
125.856200
 20
240.594547
 30
0.0
 10
124.871227
 20
239.609573
 30
0.0
 10
123.656200
 20
239.609573
 30
0.0
  0
SPLINE
  5
151
100
AcDbEntity
  8
Layer_1
 62
7
100
AcDbSpline
 70
8
 71
3
 72
8
 73
4
 74
0
 40
0
 40
0
 40
0
 40
0
 40
1
 40
1
 40
1
 40
1
 10
123.656200
 20
239.609573
 30
0.0
 10
122.441173
 20
239.609573
 30
0.0
 10
121.456200
 20
240.594547
 30
0.0
 10
121.456200
 20
241.809574
 30
0.0
  0
SPLINE
  5
152
100
AcDbEntity
  8
Layer_1
 62
7
100
AcDbSpline
 70
8
 71
3
 72
8
 73
4
 74
0
 40
0
 40
0
 40
0
 40
0
 40
1
 40
1
 40
1
 40
1
 10
121.456200
 20
241.809574
 30
0.0
 10
121.456200
 20
243.024601
 30
0.0
 10
122.441173
 20
244.009575
 30
0.0
 10
123.656200
 20
244.009575
 30
0.0
  0
SPLINE
  5
153
100
AcDbEntity
  8
Layer_1
 62
7
100
AcDbSpline
 70
8
 71
3
 72
8
 73
4
 74
0
 40
0
 40
0
 40
0
 40
0
 40
1
 40
1
 40
1
 40
1
 10
123.656200
 20
244.009575
 30
0.0
 10
124.871227
 20
244.009575
 30
0.0
 10
125.856200
 20
243.024601
 30
0.0
 10
125.856200
 20
241.809574
 30
0.0
  0
LINE
  5
154
100
AcDbEntity
  8
Layer_1
 62
7
100
AcDbLine
 10
125.856200
 20
241.809574
 30
0.0
 11
125.856200
 21
241.809574
 31
0.0
  0
SPLINE
  5
155
100
AcDbEntity
  8
Layer_1
 62
7
100
AcDbSpline
 70
8
 71
3
 72
8
 73
4
 74
0
 40
0
 40
0
 40
0
 40
0
 40
1
 40
1
 40
1
 40
1
 10
87.758747
 20
198.959801
 30
0.0
 10
87.758747
 20
198.376324
 30
0.0
 10
87.526962
 20
197.816746
 30
0.0
 10
87.114382
 20
197.404165
 30
0.0
  0
SPLINE
  5
156
100
AcDbEntity
  8
Layer_1
 62
7
100
AcDbSpline
 70
8
 71
3
 72
8
 73
4
 74
0
 40
0
 40
0
 40
0
 40
0
 40
1
 40
1
 40
1
 40
1
 10
87.114382
 20
197.404165
 30
0.0
 10
86.701801
 20
196.991585
 30
0.0
 10
86.142223
 20
196.759800
 30
0.0
 10
85.558746
 20
196.759800
 30
0.0
  0
SPLINE
  5
157
100
AcDbEntity
  8
Layer_1
 62
7
100
AcDbSpline
 70
8
 71
3
 72
8
 73
4
 74
0
 40
0
 40
0
 40
0
 40
0
 40
1
 40
1
 40
1
 40
1
 10
85.558746
 20
196.759800
 30
0.0
 10
84.343719
 20
196.759800
 30
0.0
 10
83.358746
 20
197.744774
 30
0.0
 10
83.358746
 20
198.959801
 30
0.0
  0
SPLINE
  5
158
100
AcDbEntity
  8
Layer_1
 62
7
100
AcDbSpline
 70
8
 71
3
 72
8
 73
4
 74
0
 40
0
 40
0
 40
0
 40
0
 40
1
 40
1
 40
1
 40
1
 10
83.358746
 20
198.959801
 30
0.0
 10
83.358746
 20
200.174827
 30
0.0
 10
84.343720
 20
201.159801
 30
0.0
 10
85.558746
 20
201.159801
 30
0.0
  0
SPLINE
  5
159
100
AcDbEntity
  8
Layer_1
 62
7
100
AcDbSpline
 70
8
 71
3
 72
8
 73
4
 74
0
 40
0
 40
0
 40
0
 40
0
 40
1
 40
1
 40
1
 40
1
 10
85.558746
 20
201.159801
 30
0.0
 10
86.773773
 20
201.159801
 30
0.0
 10
87.758747
 20
200.174828
 30
0.0
 10
87.758747
 20
198.959801
 30
0.0
  0
LINE
  5
15a
100
AcDbEntity
  8
Layer_1
 62
7
100
AcDbLine
 10
87.758747
 20
198.959801
 30
0.0
 11
87.758747
 21
198.959801
 31
0.0
  0
SPLINE
  5
15b
100
AcDbEntity
  8
Layer_1
 62
7
100
AcDbSpline
 70
8
 71
3
 72
8
 73
4
 74
0
 40
0
 40
0
 40
0
 40
0
 40
1
 40
1
 40
1
 40
1
 10
49.588924
 20
246.508572
 30
0.0
 10
49.588924
 20
245.293545
 30
0.0
 10
48.603951
 20
244.308571
 30
0.0
 10
47.388924
 20
244.308571
 30
0.0
  0
SPLINE
  5
15c
100
AcDbEntity
  8
Layer_1
 62
7
100
AcDbSpline
 70
8
 71
3
 72
8
 73
4
 74
0
 40
0
 40
0
 40
0
 40
0
 40
1
 40
1
 40
1
 40
1
 10
47.388924
 20
244.308571
 30
0.0
 10
46.805447
 20
244.308571
 30
0.0
 10
46.245869
 20
244.540356
 30
0.0
 10
45.833288
 20
244.952936
 30
0.0
  0
SPLINE
  5
15d
100
AcDbEntity
  8
Layer_1
 62
7
100
AcDbSpline
 70
8
 71
3
 72
8
 73
4
 74
0
 40
0
 40
0
 40
0
 40
0
 40
1
 40
1
 40
1
 40
1
 10
45.833288
 20
244.952936
 30
0.0
 10
45.420708
 20
245.365517
 30
0.0
 10
45.188923
 20
245.925095
 30
0.0
 10
45.188923
 20
246.508572
 30
0.0
  0
SPLINE
  5
15e
100
AcDbEntity
  8
Layer_1
 62
7
100
AcDbSpline
 70
8
 71
3
 72
8
 73
4
 74
0
 40
0
 40
0
 40
0
 40
0
 40
1
 40
1
 40
1
 40
1
 10
45.188923
 20
246.508572
 30
0.0
 10
45.188923
 20
247.723599
 30
0.0
 10
46.173897
 20
248.708572
 30
0.0
 10
47.388924
 20
248.708572
 30
0.0
  0
SPLINE
  5
15f
100
AcDbEntity
  8
Layer_1
 62
7
100
AcDbSpline
 70
8
 71
3
 72
8
 73
4
 74
0
 40
0
 40
0
 40
0
 40
0
 40
1
 40
1
 40
1
 40
1
 10
47.388924
 20
248.708572
 30
0.0
 10
48.603950
 20
248.708572
 30
0.0
 10
49.588924
 20
247.723598
 30
0.0
 10
49.588924
 20
246.508572
 30
0.0
  0
LINE
  5
160
100
AcDbEntity
  8
Layer_1
 62
7
100
AcDbLine
 10
49.588924
 20
246.508572
 30
0.0
 11
49.588924
 21
246.508572
 31
0.0
  0
SPLINE
  5
161
100
AcDbEntity
  8
Layer_1
 62
7
100
AcDbSpline
 70
8
 71
3
 72
8
 73
4
 74
0
 40
0
 40
0
 40
0
 40
0
 40
1
 40
1
 40
1
 40
1
 10
87.758747
 20
239.828373
 30
0.0
 10
87.758747
 20
239.244896
 30
0.0
 10
87.526962
 20
238.685318
 30
0.0
 10
87.114382
 20
238.272737
 30
0.0
  0
SPLINE
  5
162
100
AcDbEntity
  8
Layer_1
 62
7
100
AcDbSpline
 70
8
 71
3
 72
8
 73
4
 74
0
 40
0
 40
0
 40
0
 40
0
 40
1
 40
1
 40
1
 40
1
 10
87.114382
 20
238.272737
 30
0.0
 10
86.701801
 20
237.860157
 30
0.0
 10
86.142223
 20
237.628372
 30
0.0
 10
85.558746
 20
237.628372
 30
0.0
  0
SPLINE
  5
163
100
AcDbEntity
  8
Layer_1
 62
7
100
AcDbSpline
 70
8
 71
3
 72
8
 73
4
 74
0
 40
0
 40
0
 40
0
 40
0
 40
1
 40
1
 40
1
 40
1
 10
85.558746
 20
237.628372
 30
0.0
 10
84.343719
 20
237.628372
 30
0.0
 10
83.358746
 20
238.613346
 30
0.0
 10
83.358746
 20
239.828373
 30
0.0
  0
SPLINE
  5
164
100
AcDbEntity
  8
Layer_1
 62
7
100
AcDbSpline
 70
8
 71
3
 72
8
 73
4
 74
0
 40
0
 40
0
 40
0
 40
0
 40
1
 40
1
 40
1
 40
1
 10
83.358746
 20
239.828373
 30
0.0
 10
83.358746
 20
241.043400
 30
0.0
 10
84.343719
 20
242.028374
 30
0.0
 10
85.558746
 20
242.028374
 30
0.0
  0
SPLINE
  5
165
100
AcDbEntity
  8
Layer_1
 62
7
100
AcDbSpline
 70
8
 71
3
 72
8
 73
4
 74
0
 40
0
 40
0
 40
0
 40
0
 40
1
 40
1
 40
1
 40
1
 10
85.558746
 20
242.028374
 30
0.0
 10
86.142223
 20
242.028374
 30
0.0
 10
86.701801
 20
241.796589
 30
0.0
 10
87.114382
 20
241.384009
 30
0.0
  0
SPLINE
  5
166
100
AcDbEntity
  8
Layer_1
 62
7
100
AcDbSpline
 70
8
 71
3
 72
8
 73
4
 74
0
 40
0
 40
0
 40
0
 40
0
 40
1
 40
1
 40
1
 40
1
 10
87.114382
 20
241.384009
 30
0.0
 10
87.526962
 20
240.971428
 30
0.0
 10
87.758747
 20
240.411850
 30
0.0
 10
87.758747
 20
239.828373
 30
0.0
  0
LINE
  5
167
100
AcDbEntity
  8
Layer_1
 62
7
100
AcDbLine
 10
87.758747
 20
239.828373
 30
0.0
 11
87.758747
 21
239.828373
 31
0.0
  0
SPLINE
  5
168
100
AcDbEntity
  8
Layer_1
 62
7
100
AcDbSpline
 70
8
 71
3
 72
8
 73
4
 74
0
 40
0
 40
0
 40
0
 40
0
 40
1
 40
1
 40
1
 40
1
 10
42.874664
 20
187.828760
 30
0.0
 10
42.874664
 20
186.613734
 30
0.0
 10
41.889690
 20
185.628760
 30
0.0
 10
40.674664
 20
185.628760
 30
0.0
  0
SPLINE
  5
169
100
AcDbEntity
  8
Layer_1
 62
7
100
AcDbSpline
 70
8
 71
3
 72
8
 73
4
 74
0
 40
0
 40
0
 40
0
 40
0
 40
1
 40
1
 40
1
 40
1
 10
40.674664
 20
185.628760
 30
0.0
 10
39.459637
 20
185.628760
 30
0.0
 10
38.474663
 20
186.613733
 30
0.0
 10
38.474663
 20
187.828760
 30
0.0
  0
SPLINE
  5
16a
100
AcDbEntity
  8
Layer_1
 62
7
100
AcDbSpline
 70
8
 71
3
 72
8
 73
4
 74
0
 40
0
 40
0
 40
0
 40
0
 40
1
 40
1
 40
1
 40
1
 10
38.474663
 20
187.828760
 30
0.0
 10
38.474663
 20
189.043787
 30
0.0
 10
39.459637
 20
190.028760
 30
0.0
 10
40.674664
 20
190.028760
 30
0.0
  0
SPLINE
  5
16b
100
AcDbEntity
  8
Layer_1
 62
7
100
AcDbSpline
 70
8
 71
3
 72
8
 73
4
 74
0
 40
0
 40
0
 40
0
 40
0
 40
1
 40
1
 40
1
 40
1
 10
40.674664
 20
190.028760
 30
0.0
 10
41.889690
 20
190.028760
 30
0.0
 10
42.874664
 20
189.043786
 30
0.0
 10
42.874664
 20
187.828760
 30
0.0
  0
LINE
  5
16c
100
AcDbEntity
  8
Layer_1
 62
7
100
AcDbLine
 10
42.874664
 20
187.828760
 30
0.0
 11
42.874664
 21
187.828760
 31
0.0
  0
LINE
  5
16d
100
AcDbEntity
  8
Layer_1
 62
7
100
AcDbLine
 10
27.746572
 20
256.339161
 30
0.0
 11
27.746572
 21
258.340681
 31
0.0
  0
LINE
  5
16e
100
AcDbEntity
  8
Layer_1
 62
7
100
AcDbLine
 10
27.497652
 20
256.339161
 30
0.0
 11
27.497652
 21
244.238601
 31
0.0
  0
LINE
  5
16f
100
AcDbEntity
  8
Layer_1
 62
7
100
AcDbLine
 10
33.347272
 20
256.339161
 30
0.0
 11
33.347272
 21
258.340681
 31
0.0
  0
LINE
  5
170
100
AcDbEntity
  8
Layer_1
 62
7
100
AcDbLine
 10
27.497652
 20
244.238601
 30
0.0
 11
33.596192
 21
244.238601
 31
0.0
  0
LINE
  5
171
100
AcDbEntity
  8
Layer_1
 62
7
100
AcDbLine
 10
27.746572
 20
258.340681
 30
0.0
 11
33.347272
 21
258.340681
 31
0.0
  0
LINE
  5
172
100
AcDbEntity
  8
Layer_1
 62
7
100
AcDbLine
 10
33.596192
 20
256.339161
 30
0.0
 11
33.596192
 21
244.238601
 31
0.0
  0
LINE
  5
173
100
AcDbEntity
  8
Layer_1
 62
7
100
AcDbLine
 10
27.497652
 20
256.339161
 30
0.0
 11
33.596192
 21
256.339161
 31
0.0
  0
LINE
  5
174
100
AcDbEntity
  8
Layer_1
 62
7
100
AcDbLine
 10
31.587052
 20
208.742101
 30
0.0
 11
49.087652
 21
208.742101
 31
0.0
  0
LINE
  5
175
100
AcDbEntity
  8
Layer_1
 62
7
100
AcDbLine
 10
31.587052
 20
208.742101
 30
0.0
 11
31.587052
 21
194.543500
 31
0.0
  0
LINE
  5
176
100
AcDbEntity
  8
Layer_1
 62
7
100
AcDbLine
 10
49.087652
 20
194.543500
 30
0.0
 11
49.087652
 21
208.742101
 31
0.0
  0
LINE
  5
177
100
AcDbEntity
  8
Layer_1
 62
7
100
AcDbLine
 10
49.087652
 20
194.543500
 30
0.0
 11
31.587052
 21
194.543500
 31
0.0
  0
LINE
  5
178
100
AcDbEntity
  8
Layer_1
 62
7
100
AcDbLine
 10
45.013492
 20
176.009120
 30
0.0
 11
41.843572
 21
180.141700
 31
0.0
  0
LINE
  5
179
100
AcDbEntity
  8
Layer_1
 62
7
100
AcDbLine
 10
26.834712
 20
199.717481
 30
0.0
 11
31.175572
 21
194.076140
 31
0.0
  0
LINE
  5
17a
100
AcDbEntity
  8
Layer_1
 62
7
100
AcDbLine
 10
26.834712
 20
255.287601
 30
0.0
 11
26.834712
 21
199.717481
 31
0.0
  0
LINE
  5
17b
100
AcDbEntity
  8
Layer_1
 62
7
100
AcDbLine
 10
39.651552
 20
183.006820
 30
0.0
 11
31.175572
 21
194.076140
 31
0.0
  0
LINE
  5
17c
100
AcDbEntity
  8
Layer_1
 62
7
100
AcDbLine
 10
87.952192
 20
181.472660
 30
0.0
 11
87.952192
 21
187.817580
 31
0.0
  0
LINE
  5
17d
100
AcDbEntity
  8
Layer_1
 62
7
100
AcDbLine
 10
50.647212
 20
168.737100
 30
0.0
 11
50.578632
 21
168.754900
 31
0.0
  0
LINE
  5
17e
100
AcDbEntity
  8
Layer_1
 62
7
100
AcDbLine
 10
39.651552
 20
183.006820
 30
0.0
 11
41.223812
 21
180.946880
 31
0.0
  0
LINE
  5
17f
100
AcDbEntity
  8
Layer_1
 62
7
100
AcDbLine
 10
36.722932
 20
158.442480
 30
0.0
 11
36.181912
 21
159.148600
 31
0.0
  0
SPLINE
  5
180
100
AcDbEntity
  8
Layer_1
 62
7
100
AcDbSpline
 70
8
 71
3
 72
8
 73
4
 74
0
 40
0
 40
0
 40
0
 40
0
 40
1
 40
1
 40
1
 40
1
 10
36.723161
 20
158.441470
 30
0.0
 10
36.764153
 20
158.388010
 30
0.0
 10
36.824705
 20
158.353024
 30
0.0
 10
36.891493
 20
158.344209
 30
0.0
  0
SPLINE
  5
181
100
AcDbEntity
  8
Layer_1
 62
7
100
AcDbSpline
 70
8
 71
3
 72
8
 73
4
 74
0
 40
0
 40
0
 40
0
 40
0
 40
1
 40
1
 40
1
 40
1
 10
36.891493
 20
158.344209
 30
0.0
 10
36.958282
 20
158.335395
 30
0.0
 10
37.025836
 20
158.353474
 30
0.0
 10
37.079294
 20
158.394470
 30
0.0
  0
LINE
  5
182
100
AcDbEntity
  8
Layer_1
 62
7
100
AcDbLine
 10
50.377972
 20
168.599940
 30
0.0
 11
37.078532
 21
158.396760
 31
0.0
  0
LINE
  5
183
100
AcDbEntity
  8
Layer_1
 62
7
100
AcDbLine
 10
35.948232
 20
159.450860
 30
0.0
 11
36.181912
 21
159.148600
 31
0.0
  0
LINE
  5
184
100
AcDbEntity
  8
Layer_1
 62
7
100
AcDbLine
 10
26.207332
 20
172.145780
 30
0.0
 11
35.948232
 21
159.450860
 31
0.0
  0
SPLINE
  5
185
100
AcDbEntity
  8
Layer_1
 62
7
100
AcDbSpline
 70
8
 71
3
 72
8
 73
4
 74
0
 40
0
 40
0
 40
0
 40
0
 40
1
 40
1
 40
1
 40
1
 10
26.255507
 20
172.500360
 30
0.0
 10
26.144238
 20
172.414966
 30
0.0
 10
26.123246
 20
172.255547
 30
0.0
 10
26.208617
 20
172.144260
 30
0.0
  0
LINE
  5
186
100
AcDbEntity
  8
Layer_1
 62
7
100
AcDbLine
 10
31.292412
 20
176.367260
 30
0.0
 11
26.253052
 21
172.501380
 31
0.0
  0
LINE
  5
187
100
AcDbEntity
  8
Layer_1
 62
7
100
AcDbLine
 10
39.707432
 20
182.506440
 30
0.0
 11
39.941112
 21
182.204180
 31
0.0
  0
LINE
  5
188
100
AcDbEntity
  8
Layer_1
 62
7
100
AcDbLine
 10
39.151172
 20
182.397220
 30
0.0
 11
39.351832
 21
182.552160
 31
0.0
  0
SPLINE
  5
189
100
AcDbEntity
  8
Layer_1
 62
7
100
AcDbSpline
 70
8
 71
3
 72
8
 73
4
 74
0
 40
0
 40
0
 40
0
 40
0
 40
1
 40
1
 40
1
 40
1
 10
39.709921
 20
182.504150
 30
0.0
 10
39.668928
 20
182.557618
 30
0.0
 10
39.608372
 20
182.592609
 30
0.0
 10
39.541577
 20
182.601424
 30
0.0
  0
SPLINE
  5
18a
100
AcDbEntity
  8
Layer_1
 62
7
100
AcDbSpline
 70
8
 71
3
 72
8
 73
4
 74
0
 40
0
 40
0
 40
0
 40
0
 40
1
 40
1
 40
1
 40
1
 10
39.541577
 20
182.601424
 30
0.0
 10
39.474782
 20
182.610238
 30
0.0
 10
39.407222
 20
182.592154
 30
0.0
 10
39.353762
 20
182.551150
 30
0.0
  0
LINE
  5
18b
100
AcDbEntity
  8
Layer_1
 62
7
100
AcDbLine
 10
31.292412
 20
176.367260
 30
0.0
 11
39.151172
 21
182.397220
 31
0.0
  0
LINE
  5
18c
100
AcDbEntity
  8
Layer_1
 62
7
100
AcDbLine
 10
41.023152
 20
180.791940
 30
0.0
 11
39.941112
 21
182.204180
 31
0.0
  0
SPLINE
  5
18d
100
AcDbEntity
  8
Layer_1
 62
7
100
AcDbSpline
 70
8
 71
3
 72
8
 73
4
 74
0
 40
0
 40
0
 40
0
 40
0
 40
1
 40
1
 40
1
 40
1
 10
41.024219
 20
180.791430
 30
0.0
 10
41.067583
 20
180.738165
 30
0.0
 10
41.145438
 20
180.729028
 30
0.0
 10
41.199956
 20
180.770806
 30
0.0
  0
SPLINE
  5
18e
100
AcDbEntity
  8
Layer_1
 62
7
100
AcDbSpline
 70
8
 71
3
 72
8
 73
4
 74
0
 40
0
 40
0
 40
0
 40
0
 40
1
 40
1
 40
1
 40
1
 10
41.199956
 20
180.770806
 30
0.0
 10
41.254474
 20
180.812584
 30
0.0
 10
41.265898
 20
180.890136
 30
0.0
 10
41.225742
 20
180.945860
 30
0.0
  0
SPLINE
  5
18f
100
AcDbEntity
  8
Layer_1
 62
7
100
AcDbSpline
 70
8
 71
3
 72
8
 73
4
 74
0
 40
0
 40
0
 40
0
 40
0
 40
1
 40
1
 40
1
 40
1
 10
41.844232
 20
180.139920
 30
0.0
 10
41.816698
 20
180.176197
 30
0.0
 10
41.771848
 20
180.194956
 30
0.0
 10
41.726685
 20
180.189085
 30
0.0
  0
SPLINE
  5
190
100
AcDbEntity
  8
Layer_1
 62
7
100
AcDbSpline
 70
8
 71
3
 72
8
 73
4
 74
0
 40
0
 40
0
 40
0
 40
0
 40
1
 40
1
 40
1
 40
1
 10
41.726685
 20
180.189085
 30
0.0
 10
41.681522
 20
180.183213
 30
0.0
 10
41.642960
 20
180.153611
 30
0.0
 10
41.625617
 20
180.111499
 30
0.0
  0
SPLINE
  5
191
100
AcDbEntity
  8
Layer_1
 62
7
100
AcDbSpline
 70
8
 71
3
 72
8
 73
4
 74
0
 40
0
 40
0
 40
0
 40
0
 40
1
 40
1
 40
1
 40
1
 10
41.625617
 20
180.111499
 30
0.0
 10
41.608273
 20
180.069388
 30
0.0
 10
41.614804
 20
180.021214
 30
0.0
 10
41.642734
 20
179.985240
 30
0.0
  0
LINE
  5
192
100
AcDbEntity
  8
Layer_1
 62
7
100
AcDbLine
 10
44.810292
 20
175.856720
 30
0.0
 11
41.640372
 21
179.986760
 31
0.0
  0
LINE
  5
193
100
AcDbEntity
  8
Layer_1
 62
7
100
AcDbLine
 10
48.599972
 20
170.918960
 30
0.0
 11
50.377972
 21
168.599940
 31
0.0
  0
LINE
  5
194
100
AcDbEntity
  8
Layer_1
 62
7
100
AcDbLine
 10
45.630712
 20
175.203940
 30
0.0
 11
47.949732
 21
172.181340
 31
0.0
  0
LINE
  5
195
100
AcDbEntity
  8
Layer_1
 62
7
100
AcDbLine
 10
45.430052
 20
175.049000
 30
0.0
 11
47.749072
 21
172.026400
 31
0.0
  0
SPLINE
  5
196
100
AcDbEntity
  8
Layer_1
 62
7
100
AcDbSpline
 70
8
 71
3
 72
8
 73
4
 74
0
 40
0
 40
0
 40
0
 40
0
 40
1
 40
1
 40
1
 40
1
 10
44.812553
 20
175.854180
 30
0.0
 10
44.855269
 20
175.798538
 30
0.0
 10
44.935005
 20
175.788060
 30
0.0
 10
44.990647
 20
175.830776
 30
0.0
  0
SPLINE
  5
197
100
AcDbEntity
  8
Layer_1
 62
7
100
AcDbSpline
 70
8
 71
3
 72
8
 73
4
 74
0
 40
0
 40
0
 40
0
 40
0
 40
1
 40
1
 40
1
 40
1
 10
44.990647
 20
175.830776
 30
0.0
 10
45.046289
 20
175.873492
 30
0.0
 10
45.056767
 20
175.953228
 30
0.0
 10
45.014051
 20
176.008870
 30
0.0
  0
SPLINE
  5
198
100
AcDbEntity
  8
Layer_1
 62
7
100
AcDbSpline
 70
8
 71
3
 72
8
 73
4
 74
0
 40
0
 40
0
 40
0
 40
0
 40
1
 40
1
 40
1
 40
1
 10
45.632566
 20
175.202920
 30
0.0
 10
45.589708
 20
175.258102
 30
0.0
 10
45.510330
 20
175.268310
 30
0.0
 10
45.454904
 20
175.225768
 30
0.0
  0
SPLINE
  5
199
100
AcDbEntity
  8
Layer_1
 62
7
100
AcDbSpline
 70
8
 71
3
 72
8
 73
4
 74
0
 40
0
 40
0
 40
0
 40
0
 40
1
 40
1
 40
1
 40
1
 10
45.454904
 20
175.225768
 30
0.0
 10
45.399479
 20
175.183226
 30
0.0
 10
45.388818
 20
175.103907
 30
0.0
 10
45.431043
 20
175.048240
 30
0.0
  0
SPLINE
  5
19a
100
AcDbEntity
  8
Layer_1
 62
7
100
AcDbSpline
 70
8
 71
3
 72
8
 73
4
 74
0
 40
0
 40
0
 40
0
 40
0
 40
1
 40
1
 40
1
 40
1
 10
47.750418
 20
172.025640
 30
0.0
 10
47.777478
 20
171.988141
 30
0.0
 10
47.822783
 20
171.968314
 30
0.0
 10
47.868690
 20
171.973881
 30
0.0
  0
SPLINE
  5
19b
100
AcDbEntity
  8
Layer_1
 62
7
100
AcDbSpline
 70
8
 71
3
 72
8
 73
4
 74
0
 40
0
 40
0
 40
0
 40
0
 40
1
 40
1
 40
1
 40
1
 10
47.868690
 20
171.973881
 30
0.0
 10
47.914597
 20
171.979447
 30
0.0
 10
47.953850
 20
172.009527
 30
0.0
 10
47.971163
 20
172.052407
 30
0.0
  0
SPLINE
  5
19c
100
AcDbEntity
  8
Layer_1
 62
7
100
AcDbSpline
 70
8
 71
3
 72
8
 73
4
 74
0
 40
0
 40
0
 40
0
 40
0
 40
1
 40
1
 40
1
 40
1
 10
47.971163
 20
172.052407
 30
0.0
 10
47.988477
 20
172.095287
 30
0.0
 10
47.981114
 20
172.144189
 30
0.0
 10
47.951942
 20
172.180070
 30
0.0
  0
SPLINE
  5
19d
100
AcDbEntity
  8
Layer_1
 62
7
100
AcDbSpline
 70
8
 71
3
 72
8
 73
4
 74
0
 40
0
 40
0
 40
0
 40
0
 40
1
 40
1
 40
1
 40
1
 10
48.802385
 20
171.071870
 30
0.0
 10
48.759669
 20
171.127519
 30
0.0
 10
48.679927
 20
171.138003
 30
0.0
 10
48.624278
 20
171.095287
 30
0.0
  0
SPLINE
  5
19e
100
AcDbEntity
  8
Layer_1
 62
7
100
AcDbSpline
 70
8
 71
3
 72
8
 73
4
 74
0
 40
0
 40
0
 40
0
 40
0
 40
1
 40
1
 40
1
 40
1
 10
48.624278
 20
171.095287
 30
0.0
 10
48.568629
 20
171.052571
 30
0.0
 10
48.558145
 20
170.972829
 30
0.0
 10
48.600861
 20
170.917180
 30
0.0
  0
LINE
  5
19f
100
AcDbEntity
  8
Layer_1
 62
7
100
AcDbLine
 10
50.578632
 20
168.754880
 30
0.0
 11
48.800632
 21
171.073900
 31
0.0
  0
SPLINE
  5
1a0
100
AcDbEntity
  8
Layer_1
 62
7
100
AcDbSpline
 70
8
 71
3
 72
8
 73
4
 74
0
 40
0
 40
0
 40
0
 40
0
 40
1
 40
1
 40
1
 40
1
 10
51.445026
 20
169.232400
 30
0.0
 10
51.178453
 20
169.068507
 30
0.0
 10
50.912782
 20
168.903151
 30
0.0
 10
50.648025
 20
168.736340
 30
0.0
  0
SPLINE
  5
1a1
100
AcDbEntity
  8
Layer_1
 62
7
100
AcDbSpline
 70
8
 71
3
 72
8
 73
4
 74
0
 40
0
 40
0
 40
0
 40
0
 40
1
 40
1
 40
1
 40
1
 10
87.953462
 20
181.471640
 30
0.0
 10
75.010428
 20
180.226727
 30
0.0
 10
62.523063
 20
176.040411
 30
0.0
 10
51.445026
 20
169.232400
 30
0.0
  0
SPLINE
  5
1a2
100
AcDbEntity
  8
Layer_1
 62
7
100
AcDbSpline
 70
8
 71
3
 72
8
 73
4
 74
0
 40
0
 40
0
 40
0
 40
0
 40
1
 40
1
 40
1
 40
1
 10
28.423464
 20
256.872967
 30
0.0
 10
28.002433
 20
256.872967
 30
0.0
 10
27.598646
 20
256.705713
 30
0.0
 10
27.300932
 20
256.407999
 30
0.0
  0
SPLINE
  5
1a3
100
AcDbEntity
  8
Layer_1
 62
7
100
AcDbSpline
 70
8
 71
3
 72
8
 73
4
 74
0
 40
0
 40
0
 40
0
 40
0
 40
1
 40
1
 40
1
 40
1
 10
27.300932
 20
256.407999
 30
0.0
 10
27.003218
 20
256.110285
 30
0.0
 10
26.835964
 20
255.706498
 30
0.0
 10
26.835964
 20
255.285467
 30
0.0
  0
LINE
  5
1a4
100
AcDbEntity
  8
Layer_1
 62
7
100
AcDbLine
 10
75.252192
 20
256.875101
 30
0.0
 11
28.422212
 21
256.875101
 31
0.0
  0
SPLINE
  5
1a5
100
AcDbEntity
  8
Layer_1
 62
7
100
AcDbSpline
 70
8
 71
3
 72
8
 73
4
 74
0
 40
0
 40
0
 40
0
 40
0
 40
1
 40
1
 40
1
 40
1
 10
75.254732
 20
256.872967
 30
0.0
 10
75.465248
 20
256.872966
 30
0.0
 10
75.667142
 20
256.956593
 30
0.0
 10
75.815999
 20
257.105450
 30
0.0
  0
SPLINE
  5
1a6
100
AcDbEntity
  8
Layer_1
 62
7
100
AcDbSpline
 70
8
 71
3
 72
8
 73
4
 74
0
 40
0
 40
0
 40
0
 40
0
 40
1
 40
1
 40
1
 40
1
 10
75.815999
 20
257.105450
 30
0.0
 10
75.964856
 20
257.254307
 30
0.0
 10
76.048483
 20
257.456201
 30
0.0
 10
76.048482
 20
257.666717
 30
0.0
  0
LINE
  5
1a7
100
AcDbEntity
  8
Layer_1
 62
7
100
AcDbLine
 10
133.197210
 20
259.255081
 30
0.0
 11
133.197210
 21
248.142581
 31
0.0
  0
LINE
  5
1a8
100
AcDbEntity
  8
Layer_1
 62
7
100
AcDbLine
 10
115.734710
 20
260.842581
 30
0.0
 11
131.609710
 21
260.842581
 31
0.0
  0
LINE
  5
1a9
100
AcDbEntity
  8
Layer_1
 62
7
100
AcDbLine
 10
114.147210
 20
263.225101
 30
0.0
 11
114.147210
 21
262.430081
 31
0.0
  0
LINE
  5
1aa
100
AcDbEntity
  8
Layer_1
 62
7
100
AcDbLine
 10
96.684712
 20
264.812601
 30
0.0
 11
112.559710
 21
264.812601
 31
0.0
  0
LINE
  5
1ab
100
AcDbEntity
  8
Layer_1
 62
7
100
AcDbLine
 10
95.097212
 20
263.225101
 30
0.0
 11
95.097212
 21
260.842581
 31
0.0
  0
LINE
  5
1ac
100
AcDbEntity
  8
Layer_1
 62
7
100
AcDbLine
 10
77.634712
 20
259.255081
 30
0.0
 11
93.509712
 21
259.255081
 31
0.0
  0
SPLINE
  5
1ad
100
AcDbEntity
  8
Layer_1
 62
7
100
AcDbSpline
 70
8
 71
3
 72
8
 73
4
 74
0
 40
0
 40
0
 40
0
 40
0
 40
1
 40
1
 40
1
 40
1
 10
77.635982
 20
259.254217
 30
0.0
 10
77.214951
 20
259.254217
 30
0.0
 10
76.811164
 20
259.086963
 30
0.0
 10
76.513450
 20
258.789249
 30
0.0
  0
SPLINE
  5
1ae
100
AcDbEntity
  8
Layer_1
 62
7
100
AcDbSpline
 70
8
 71
3
 72
8
 73
4
 74
0
 40
0
 40
0
 40
0
 40
0
 40
1
 40
1
 40
1
 40
1
 10
76.513450
 20
258.789249
 30
0.0
 10
76.215736
 20
258.491535
 30
0.0
 10
76.048482
 20
258.087748
 30
0.0
 10
76.048482
 20
257.666717
 30
0.0
  0
SPLINE
  5
1af
100
AcDbEntity
  8
Layer_1
 62
7
100
AcDbSpline
 70
8
 71
3
 72
8
 73
4
 74
0
 40
0
 40
0
 40
0
 40
0
 40
1
 40
1
 40
1
 40
1
 10
93.510982
 20
259.254217
 30
0.0
 10
93.932013
 20
259.254217
 30
0.0
 10
94.335800
 20
259.421471
 30
0.0
 10
94.633514
 20
259.719185
 30
0.0
  0
SPLINE
  5
1b0
100
AcDbEntity
  8
Layer_1
 62
7
100
AcDbSpline
 70
8
 71
3
 72
8
 73
4
 74
0
 40
0
 40
0
 40
0
 40
0
 40
1
 40
1
 40
1
 40
1
 10
94.633514
 20
259.719185
 30
0.0
 10
94.931228
 20
260.016899
 30
0.0
 10
95.098482
 20
260.420686
 30
0.0
 10
95.098482
 20
260.841717
 30
0.0
  0
SPLINE
  5
1b1
100
AcDbEntity
  8
Layer_1
 62
7
100
AcDbSpline
 70
8
 71
3
 72
8
 73
4
 74
0
 40
0
 40
0
 40
0
 40
0
 40
1
 40
1
 40
1
 40
1
 10
96.685982
 20
264.810460
 30
0.0
 10
95.809229
 20
264.810459
 30
0.0
 10
95.098482
 20
264.099710
 30
0.0
 10
95.098482
 20
263.222957
 30
0.0
  0
SPLINE
  5
1b2
100
AcDbEntity
  8
Layer_1
 62
7
100
AcDbSpline
 70
8
 71
3
 72
8
 73
4
 74
0
 40
0
 40
0
 40
0
 40
0
 40
1
 40
1
 40
1
 40
1
 10
114.148480
 20
263.222960
 30
0.0
 10
114.148480
 20
263.643991
 30
0.0
 10
113.981225
 20
264.047777
 30
0.0
 10
113.683511
 20
264.345490
 30
0.0
  0
SPLINE
  5
1b3
100
AcDbEntity
  8
Layer_1
 62
7
100
AcDbSpline
 70
8
 71
3
 72
8
 73
4
 74
0
 40
0
 40
0
 40
0
 40
0
 40
1
 40
1
 40
1
 40
1
 10
113.683511
 20
264.345490
 30
0.0
 10
113.385797
 20
264.643203
 30
0.0
 10
112.982011
 20
264.810457
 30
0.0
 10
112.560980
 20
264.810456
 30
0.0
  0
SPLINE
  5
1b4
100
AcDbEntity
  8
Layer_1
 62
7
100
AcDbSpline
 70
8
 71
3
 72
8
 73
4
 74
0
 40
0
 40
0
 40
0
 40
0
 40
1
 40
1
 40
1
 40
1
 10
114.148480
 20
262.429210
 30
0.0
 10
114.148484
 20
261.552461
 30
0.0
 10
114.859231
 20
260.841717
 30
0.0
 10
115.735980
 20
260.841717
 30
0.0
  0
SPLINE
  5
1b5
100
AcDbEntity
  8
Layer_1
 62
7
100
AcDbSpline
 70
8
 71
3
 72
8
 73
4
 74
0
 40
0
 40
0
 40
0
 40
0
 40
1
 40
1
 40
1
 40
1
 10
133.198480
 20
259.254217
 30
0.0
 10
133.198480
 20
259.675248
 30
0.0
 10
133.031226
 20
260.079035
 30
0.0
 10
132.733512
 20
260.376749
 30
0.0
  0
SPLINE
  5
1b6
100
AcDbEntity
  8
Layer_1
 62
7
100
AcDbSpline
 70
8
 71
3
 72
8
 73
4
 74
0
 40
0
 40
0
 40
0
 40
0
 40
1
 40
1
 40
1
 40
1
 10
132.733512
 20
260.376749
 30
0.0
 10
132.435798
 20
260.674463
 30
0.0
 10
132.032011
 20
260.841717
 30
0.0
 10
131.610980
 20
260.841717
 30
0.0
  0
SPLINE
  5
1b7
100
AcDbEntity
  8
Layer_1
 62
7
100
AcDbSpline
 70
8
 71
3
 72
8
 73
4
 74
0
 40
0
 40
0
 40
0
 40
0
 40
1
 40
1
 40
1
 40
1
 10
133.198480
 20
248.141717
 30
0.0
 10
133.198479
 20
247.720686
 30
0.0
 10
133.365733
 20
247.316898
 30
0.0
 10
133.663447
 20
247.019184
 30
0.0
  0
SPLINE
  5
1b8
100
AcDbEntity
  8
Layer_1
 62
7
100
AcDbSpline
 70
8
 71
3
 72
8
 73
4
 74
0
 40
0
 40
0
 40
0
 40
0
 40
1
 40
1
 40
1
 40
1
 10
133.663447
 20
247.019184
 30
0.0
 10
133.961161
 20
246.721470
 30
0.0
 10
134.364949
 20
246.554216
 30
0.0
 10
134.785980
 20
246.554217
 30
0.0
  0
LINE
  5
1b9
100
AcDbEntity
  8
Layer_1
 62
7
100
AcDbLine
 10
134.784710
 20
246.555081
 30
0.0
 11
150.659710
 21
246.555081
 31
0.0
  0
LINE
  5
1ba
100
AcDbEntity
  8
Layer_1
 62
7
100
AcDbLine
 10
152.247210
 20
244.967581
 30
0.0
 11
152.247210
 21
190.992580
 31
0.0
  0
SPLINE
  5
1bb
100
AcDbEntity
  8
Layer_1
 62
7
100
AcDbSpline
 70
8
 71
3
 72
8
 73
4
 74
0
 40
0
 40
0
 40
0
 40
0
 40
1
 40
1
 40
1
 40
1
 10
152.248480
 20
244.966717
 30
0.0
 10
152.248479
 20
245.843468
 30
0.0
 10
151.537731
 20
246.554216
 30
0.0
 10
150.660980
 20
246.554217
 30
0.0
  0
SPLINE
  5
1bc
100
AcDbEntity
  8
Layer_1
 62
7
100
AcDbSpline
 70
8
 71
3
 72
8
 73
4
 74
0
 40
0
 40
0
 40
0
 40
0
 40
1
 40
1
 40
1
 40
1
 10
150.660980
 20
189.404320
 30
0.0
 10
151.537731
 20
189.404321
 30
0.0
 10
152.248479
 20
190.115069
 30
0.0
 10
152.248480
 20
190.991820
 30
0.0
  0
SPLINE
  5
1bd
100
AcDbEntity
  8
Layer_1
 62
7
100
AcDbSpline
 70
8
 71
3
 72
8
 73
4
 74
0
 40
0
 40
0
 40
0
 40
0
 40
1
 40
1
 40
1
 40
1
 10
89.542232
 20
189.404320
 30
0.0
 10
89.121201
 20
189.404320
 30
0.0
 10
88.717414
 20
189.237066
 30
0.0
 10
88.419700
 20
188.939352
 30
0.0
  0
SPLINE
  5
1be
100
AcDbEntity
  8
Layer_1
 62
7
100
AcDbSpline
 70
8
 71
3
 72
8
 73
4
 74
0
 40
0
 40
0
 40
0
 40
0
 40
1
 40
1
 40
1
 40
1
 10
88.419700
 20
188.939352
 30
0.0
 10
88.121986
 20
188.641638
 30
0.0
 10
87.954732
 20
188.237851
 30
0.0
 10
87.954732
 20
187.816820
 30
0.0
  0
LINE
  5
1bf
100
AcDbEntity
  8
Layer_1
 62
7
100
AcDbLine
 10
150.659710
 20
189.405080
 30
0.0
 11
89.539692
 21
189.405080
 31
0.0
  0
ENDSEC
  0
SECTION
  2
OBJECTS
  0
DICTIONARY
  5
C
330
0
100
AcDbDictionary
  3
ACAD_GROUP
350
D
  3
ACAD_MLINESTYLE
350
17
  0
DICTIONARY
  5
D
330
C
100
AcDbDictionary
  0
DICTIONARY
  5
1A
330
C
100
AcDbDictionary
  0
DICTIONARY
  5
17
330
C
100
AcDbDictionary
  3
STANDARD
350
18
  0
DICTIONARY
  5
19
330
C
100
AcDbDictionary
  0
ENDSEC
  0
EOF
