<?xml version="1.0" standalone="no"?>
 <!DOCTYPE svg PUBLIC "-//W3C//DTD SVG 1.1//EN" 
 "http://www.w3.org/Graphics/SVG/1.1/DTD/svg11.dtd"> 
<svg
  xmlns:svg="http://www.w3.org/2000/svg"
  xmlns="http://www.w3.org/2000/svg"
  xmlns:xlink="http://www.w3.org/1999/xlink"
  version="1.1"
  width="12.613640cm" height="10.650220cm" viewBox="0 0 49660 41930">
<title>SVG Picture created as Pankh-brd.svg date 2021/07/11 12:56:20 </title>
  <desc>Picture generated by PCBNEW </desc>
<g style="fill:#000000; fill-opacity:1;stroke:#000000; stroke-opacity:1;
stroke-linecap:round; stroke-linejoin:round;"
 transform="translate(0 0) scale(1 1)">
</g>
<g style="fill:#000000; fill-opacity:0.0; 
stroke:#000000; stroke-width:-0.000393701; stroke-opacity:1; 
stroke-linecap:round; stroke-linejoin:round;">
</g>
<g style="fill:#000000; fill-opacity:0.0; 
stroke:#000000; stroke-width:59.0551; stroke-opacity:1; 
stroke-linecap:round; stroke-linejoin:round;">
<circle cx="38395.7" cy="25935.3" r="866.142" /> 
<circle cx="38395.7" cy="9065.31" r="866.142" /> 
<circle cx="23396.7" cy="25935.3" r="866.142" /> 
<circle cx="8369.21" cy="7215.31" r="866.142" /> 
<circle cx="23396.7" cy="9845.31" r="866.142" /> 
<circle cx="5725.8" cy="30317.6" r="866.142" /> 
<g >
</g>
<g >
</g>
<g >
</g>
<g >
</g>
<g >
</g>
<g >
</g>
<g >
</g>
<g >
</g>
<g >
</g>
<g >
</g>
<g >
</g>
<g >
</g>
<g >
</g>
<g >
</g>
<g >
</g>
<g >
</g>
<g >
</g>
<g >
</g>
<g >
</g>
<g >
</g>
<g >
</g>
<g >
</g>
<g >
</g>
<g >
</g>
<g >
</g>
<g >
</g>
<g >
</g>
<g >
</g>
<g >
</g>
<g >
</g>
<g >
</g>
<g >
</g>
<g >
</g>
<g >
</g>
<g >
</g>
<g >
</g>
<g >
</g>
<g >
</g>
<g >
</g>
<g >
</g>
<g >
</g>
<g >
</g>
<g >
</g>
<g >
</g>
<g >
</g>
<g >
</g>
<g >
</g>
<g >
</g>
<g >
</g>
<g >
</g>
<g >
</g>
<g >
</g>
<g >
</g>
<g >
</g>
<g >
</g>
<g >
</g>
<g >
</g>
<g >
</g>
<g >
</g>
<g >
</g>
<g >
</g>
<g >
</g>
<g >
</g>
</g>
<g style="fill:#000000; fill-opacity:0.0; 
stroke:#000000; stroke-width:59.0551; stroke-opacity:1; 
stroke-linecap:round; stroke-linejoin:round;">
<path d="M3819 3300
L3819 15300
" />
<path d="M10819 3300
L10819 15300
" />
<path d="M10819 15300
L3819 15300
" />
</g>
<g style="fill:#000000; fill-opacity:0.0; 
stroke:#000000; stroke-width:47.2441; stroke-opacity:1; 
stroke-linecap:round; stroke-linejoin:round;">
<path d="M16085 27892
L17278 33273
" />
<path d="M17278 33273
L22659 32080
" />
<path d="M22659 32080
L21466 26699
" />
<path d="M21466 26699
L16085 27892
" />
<path d="M35632 10107
L35632 15619
" />
<path d="M35632 15619
L41143 15619
" />
<path d="M41143 15619
L41143 10107
" />
<path d="M41143 10107
L35632 10107
" />
<path d="M43143 15752
L43143 21264
" />
<path d="M43143 21264
L48654 21264
" />
<path d="M48654 21264
L48654 15752
" />
<path d="M48654 15752
L43143 15752
" />
<path d="M43125 8258
L43125 13770
" />
<path d="M43125 13770
L48637 13770
" />
<path d="M48637 13770
L48637 8258
" />
<path d="M48637 8258
L43125 8258
" />
<path d="M35650 2622
L35650 8134
" />
<path d="M35650 8134
L41162 8134
" />
<path d="M41162 8134
L41162 2622
" />
<path d="M41162 2622
L35650 2622
" />
<path d="M20659 3382
L20659 8894
" />
<path d="M20659 8894
L26171 8894
" />
<path d="M26171 8894
L26171 3382
" />
<path d="M26171 3382
L20659 3382
" />
<path d="M13126 4115
L13126 9627
" />
<path d="M13126 9627
L18638 9627
" />
<path d="M18638 9627
L18638 4115
" />
<path d="M18638 4115
L13126 4115
" />
<path d="M13151 19139
L13151 24650
" />
<path d="M13151 24650
L18662 24650
" />
<path d="M18662 24650
L18662 19139
" />
<path d="M18662 19139
L13151 19139
" />
<path d="M13143 11609
L13143 17121
" />
<path d="M13143 17121
L18655 17121
" />
<path d="M18655 17121
L18655 11609
" />
<path d="M18655 11609
L13143 11609
" />
<path d="M20657 18361
L20657 23872
" />
<path d="M20657 23872
L26169 23872
" />
<path d="M26169 23872
L26169 18361
" />
<path d="M26169 18361
L20657 18361
" />
<path d="M20640 10866
L20640 16378
" />
<path d="M20640 16378
L26152 16378
" />
<path d="M26152 16378
L26152 10866
" />
<path d="M26152 10866
L20640 10866
" />
<path d="M1006 36253
L4361 40626
" />
<path d="M4361 40626
L8734 37270
" />
<path d="M8734 37270
L5379 32898
" />
<path d="M5379 32898
L1006 36253
" />
<path d="M28135 16123
L28135 21635
" />
<path d="M28135 21635
L33647 21635
" />
<path d="M33647 21635
L33647 16123
" />
<path d="M33647 16123
L28135 16123
" />
<path d="M28154 8638
L28154 14150
" />
<path d="M28154 14150
L33665 14150
" />
<path d="M33665 14150
L33665 8638
" />
<path d="M33665 8638
L28154 8638
" />
<path d="M28146 1109
L28146 6620
" />
<path d="M28146 6620
L33658 6620
" />
<path d="M33658 6620
L33658 1109
" />
<path d="M33658 1109
L28146 1109
" />
<path d="M8091 31274
L10420 36269
" />
<path d="M10420 36269
L15416 33940
" />
<path d="M15416 33940
L13086 28944
" />
<path d="M13086 28944
L8091 31274
" />
<path d="M35639 17637
L35639 23148
" />
<path d="M35639 23148
L41151 23148
" />
<path d="M41151 23148
L41151 17637
" />
<path d="M41151 17637
L35639 17637
" />
<path d="M43160 23246
L43160 28758
" />
<path d="M43160 28758
L48672 28758
" />
<path d="M48672 28758
L48672 23246
" />
<path d="M48672 23246
L43160 23246
" />
</g>
<g style="fill:#000000; fill-opacity:0.0; 
stroke:#000000; stroke-width:59.0551; stroke-opacity:1; 
stroke-linecap:round; stroke-linejoin:round;">
<path d="M636 3345
L636 2557
" />
<path d="M538 3345
L538 8109
" />
<path d="M2841 3345
L2841 2557
" />
<path d="M538 8109
L2939 8109
" />
<path d="M636 2557
L2841 2557
" />
<path d="M2939 3345
L2939 8109
" />
<path d="M538 3345
L2939 3345
" />
</g>
<g style="fill:#000000; fill-opacity:0.0; 
stroke:#000000; stroke-width:19.685; stroke-opacity:1; 
stroke-linecap:round; stroke-linejoin:round;">
<path d="M2148 22084
L9038 22084
" />
<path d="M2148 22084
L2148 27674
" />
<path d="M9038 27674
L9038 22084
" />
<path d="M9038 27674
L2148 27674
" />
<g >
</g>
<g >
</g>
<g >
</g>
<g >
</g>
<g >
</g>
<g >
</g>
<g >
</g>
<g >
</g>
<g >
</g>
<g >
</g>
<g >
</g>
<g >
</g>
<g >
</g>
<g >
</g>
<g >
</g>
<g >
</g>
<g >
</g>
<g >
</g>
<g >
</g>
<g >
</g>
<g >
</g>
<g >
</g>
<g >
</g>
<g >
</g>
<g >
</g>
<g >
</g>
<g >
</g>
<g >
</g>
<g >
</g>
<g >
</g>
<g >
</g>
<g >
</g>
<g >
</g>
<g >
</g>
<g >
</g>
<g >
</g>
<g >
</g>
<g >
</g>
<g >
</g>
<g >
</g>
<g >
</g>
<g >
</g>
<g >
</g>
<g >
</g>
<g >
</g>
<g >
</g>
<g >
</g>
<g >
</g>
<g >
</g>
<g >
</g>
<g >
</g>
<g >
</g>
<g >
</g>
<g >
</g>
<g >
</g>
<g >
</g>
<g >
</g>
<g >
</g>
<g >
</g>
<g >
</g>
<g >
</g>
<g >
</g>
<g >
</g>
</g>
<g style="fill:#000000; fill-opacity:0.0; 
stroke:#000000; stroke-width:19.685; stroke-opacity:1; 
stroke-linecap:round; stroke-linejoin:round;">
<path d="M7434 34971
L6186 33344
" />
<path d="M277 25637
L1986 27858
" />
<path d="M277 3759
L277 25637
" />
<path d="M5323 32216
L1986 27858
" />
<path d="M24339 32820
L24339 30322
" />
<path d="M9652 37834
L9625 37827
" />
<path d="M5323 32216
L5942 33027
" />
<path d="M4170 41887
L3957 41609
" />
<path d="M4170.09 41887.4 A100 100 0.0 0 0 4310.3 41905.9" />
<path d="M9546 37888
L4310 41905
" />
<path d="M3865 41490
L3957 41609
" />
<path d="M30 36492
L3865 41490
" />
<path d="M48.9666 36352.4 A100 100 0.0 0 0 30.5079 36492.6" />
<path d="M2032 34830
L48 36352
" />
<path d="M5345 32413
L5437 32532
" />
<path d="M5126 32456
L5205 32395
" />
<path d="M5345.98 32413.9 A100 100 0.0 0 0 5205.76 32395.4" />
<path d="M2032 34830
L5126 32456
" />
<path d="M5863 33088
L5437 32532
" />
<path d="M5863.42 33088.2 A50 50 0.0 0 0 5942.76 33027.4" />
<path d="M6186.26 33344.7 A49.9996 49.9996 0.0 1 0 6106.93 33405.6" />
<path d="M7354 35031
L6106 33405
" />
<path d="M8846 36975
L9546 37888
" />
<path d="M7677 35288
L8590 36478
" />
<path d="M7598 35349
L8511 36539
" />
<path d="M7354.89 35032 A50 50 0.0 0 0 7434.22 34971.1" />
<path d="M7677.73 35288.4 A49.9992 49.9992 0.0 0 0 7598.39 35349.3" />
<path d="M8511.53 36539.3 A49.9992 49.9992 0.0 1 0 8590.87 36478.5" />
<path d="M8925.69 36914.8 A50.0008 50.0008 0.0 0 0 8846.35 36975.7" />
<path d="M9625 37827
L8925 36914
" />
<path d="M9966.1 37639 A33645.3 33645.3 0.0 0 0 9652.32 37834.3" />
<path d="M24339.5 32820.4 A33595.3 33595.3 0.0 0 0 9966.1 37639" />
<path d="M902.493 3134.84 A625 625 0.0 0 0 277.493 3759.84" />
<path d="M19339 3134
L902 3134
" />
<path d="M19340 3134.84 A312.499 312.499 0.0 0 0 19652.5 2822.34" />
<path d="M42152 2197
L42152 6572
" />
<path d="M35277 1572
L41527 1572
" />
<path d="M34652 634
L34652 947
" />
<path d="M27777 9
L34027 9
" />
<path d="M27152 634
L27152 1572
" />
<path d="M20277 2197
L26527 2197
" />
<path d="M20277.5 2197.34 A625 625 0.0 0 0 19652.5 2822.34" />
<path d="M26527.5 2197.34 A625 625 0.0 0 0 27152.5 1572.34" />
<path d="M27777.5 9.84291 A625.001 625.001 0.0 0 0 27152.5 634.844" />
<path d="M34652.5 634.843 A624.999 624.999 0.0 0 0 34027.5 9.84449" />
<path d="M34652.5 947.343 A625 625 0.0 0 0 35277.5 1572.34" />
<path d="M42152.5 2197.34 A625 625 0.0 0 0 41527.5 1572.34" />
<path d="M42152.5 6572.34 A624.999 624.999 0.0 0 0 42777.5 7197.34" />
<path d="M42777 7197
L49027 7197
" />
<path d="M49652 7822
L49652 29072
" />
<path d="M49652.5 7822.34 A625.001 625.001 0.0 0 0 49027.5 7197.34" />
<path d="M49027.5 29697.3 A625.001 625.001 0.0 0 0 49652.5 29072.3" />
<path d="M24965 29697.3 A625 625 0.0 0 0 24340 30322.3" />
<path d="M49027 29697
L24964 29697
" />
<g >
</g>
<g >
</g>
<g >
</g>
<g >
</g>
<g >
</g>
<g >
</g>
<g >
</g>
<g >
</g>
<g >
</g>
<g >
</g>
<g >
</g>
<g >
</g>
<g >
</g>
<g >
</g>
<g >
</g>
<g >
</g>
<g >
</g>
<g >
</g>
<g >
</g>
<g >
</g>
<g >
</g>
<g >
</g>
<g >
</g>
<g >
</g>
<g >
</g>
<g >
</g>
<g >
</g>
<g >
</g>
<g >
</g>
<g >
</g>
<g >
</g>
<g >
</g>
<g >
</g>
<g >
</g>
<g >
</g>
<g >
</g>
<g >
</g>
<g >
</g>
<g >
</g>
<g >
</g>
<g >
</g>
<g >
</g>
<g >
</g>
<g >
</g>
<g >
</g>
<g >
</g>
<g >
</g>
<g >
</g>
<g >
</g>
<g >
</g>
<g >
</g>
<g >
</g>
<g >
</g>
<g >
</g>
<g >
</g>
<g >
</g>
<g >
</g>
<g >
</g>
<g >
</g>
<g >
</g>
<g >
</g>
<g >
</g>
<g >
</g>
</g> 
</svg>
