%TF.GenerationSoftware,KiCad,Pcbnew,(5.1.7)-1*%
%TF.CreationDate,2021-07-11T14:26:08+05:30*%
%TF.ProjectId,Pankh,50616e6b-682e-46b6-9963-61645f706362,rev?*%
%TF.SameCoordinates,Original*%
%TF.FileFunction,Legend,Top*%
%TF.FilePolarity,Positive*%
%FSLAX46Y46*%
G04 Gerber Fmt 4.6, Leading zero omitted, Abs format (unit mm)*
G04 Created by KiCad (PCBNEW (5.1.7)-1) date 2021-07-11 14:26:08*
%MOMM*%
%LPD*%
G01*
G04 APERTURE LIST*
%ADD10C,0.125000*%
%ADD11C,0.010000*%
%ADD12C,0.150000*%
%ADD13C,0.120000*%
%ADD14C,0.066040*%
%ADD15C,0.203200*%
%ADD16C,0.100000*%
G04 APERTURE END LIST*
D10*
X123865167Y-68150892D02*
X124365167Y-67984226D01*
X123865167Y-67817559D01*
X124317548Y-67365178D02*
X124341357Y-67388987D01*
X124365167Y-67460416D01*
X124365167Y-67508035D01*
X124341357Y-67579464D01*
X124293738Y-67627083D01*
X124246119Y-67650892D01*
X124150881Y-67674702D01*
X124079453Y-67674702D01*
X123984215Y-67650892D01*
X123936596Y-67627083D01*
X123888977Y-67579464D01*
X123865167Y-67508035D01*
X123865167Y-67460416D01*
X123888977Y-67388987D01*
X123912786Y-67365178D01*
X124317548Y-66865178D02*
X124341357Y-66888987D01*
X124365167Y-66960416D01*
X124365167Y-67008035D01*
X124341357Y-67079464D01*
X124293738Y-67127083D01*
X124246119Y-67150892D01*
X124150881Y-67174702D01*
X124079453Y-67174702D01*
X123984215Y-67150892D01*
X123936596Y-67127083D01*
X123888977Y-67079464D01*
X123865167Y-67008035D01*
X123865167Y-66960416D01*
X123888977Y-66888987D01*
X123912786Y-66865178D01*
X123785787Y-64114848D02*
X124285787Y-64114848D01*
X124285787Y-64305324D01*
X124261978Y-64352943D01*
X124238168Y-64376752D01*
X124190549Y-64400562D01*
X124119120Y-64400562D01*
X124071501Y-64376752D01*
X124047692Y-64352943D01*
X124023882Y-64305324D01*
X124023882Y-64114848D01*
X124285787Y-64567229D02*
X123785787Y-64686276D01*
X124142930Y-64781514D01*
X123785787Y-64876752D01*
X124285787Y-64995800D01*
X123785787Y-65186276D02*
X124285787Y-65186276D01*
X123928644Y-65352943D01*
X124285787Y-65519609D01*
X123785787Y-65519609D01*
X123761977Y-62658179D02*
X123738167Y-62705798D01*
X123738167Y-62777227D01*
X123761977Y-62848655D01*
X123809596Y-62896274D01*
X123857215Y-62920084D01*
X123952453Y-62943893D01*
X124023881Y-62943893D01*
X124119119Y-62920084D01*
X124166738Y-62896274D01*
X124214357Y-62848655D01*
X124238167Y-62777227D01*
X124238167Y-62729607D01*
X124214357Y-62658179D01*
X124190548Y-62634369D01*
X124023881Y-62634369D01*
X124023881Y-62729607D01*
X124238167Y-62420084D02*
X123738167Y-62420084D01*
X124238167Y-62134369D01*
X123738167Y-62134369D01*
X124238167Y-61896274D02*
X123738167Y-61896274D01*
X123738167Y-61777227D01*
X123761977Y-61705798D01*
X123809596Y-61658179D01*
X123857215Y-61634369D01*
X123952453Y-61610560D01*
X124023881Y-61610560D01*
X124119119Y-61634369D01*
X124166738Y-61658179D01*
X124214357Y-61705798D01*
X124238167Y-61777227D01*
X124238167Y-61896274D01*
X104100835Y-89403608D02*
X104172263Y-89427418D01*
X104291311Y-89427418D01*
X104338930Y-89403608D01*
X104362739Y-89379799D01*
X104386549Y-89332180D01*
X104386549Y-89284561D01*
X104362739Y-89236942D01*
X104338930Y-89213132D01*
X104291311Y-89189323D01*
X104196073Y-89165513D01*
X104148454Y-89141704D01*
X104124644Y-89117894D01*
X104100835Y-89070275D01*
X104100835Y-89022656D01*
X104124644Y-88975037D01*
X104148454Y-88951228D01*
X104196073Y-88927418D01*
X104315120Y-88927418D01*
X104386549Y-88951228D01*
X104600835Y-89427418D02*
X104600835Y-88927418D01*
X104719882Y-88927418D01*
X104791311Y-88951228D01*
X104838930Y-88998847D01*
X104862739Y-89046466D01*
X104886549Y-89141704D01*
X104886549Y-89213132D01*
X104862739Y-89308370D01*
X104838930Y-89355989D01*
X104791311Y-89403608D01*
X104719882Y-89427418D01*
X104600835Y-89427418D01*
X105077025Y-89284561D02*
X105315120Y-89284561D01*
X105029406Y-89427418D02*
X105196073Y-88927418D01*
X105362739Y-89427418D01*
D11*
%TO.C,LOGO1*%
G36*
X132821030Y-66292968D02*
G01*
X133345781Y-66391404D01*
X133840152Y-66604632D01*
X134070996Y-66734445D01*
X134887151Y-67364617D01*
X135402924Y-68131687D01*
X135625508Y-69053658D01*
X135562097Y-70148528D01*
X135521291Y-70363310D01*
X135169281Y-71309637D01*
X134578172Y-72060199D01*
X133799593Y-72592933D01*
X132885172Y-72885776D01*
X131886540Y-72916664D01*
X130855324Y-72663533D01*
X130503797Y-72507521D01*
X129647479Y-71917052D01*
X129042746Y-71162009D01*
X128692988Y-70300414D01*
X128601595Y-69390287D01*
X128771957Y-68489648D01*
X129207464Y-67656518D01*
X129911505Y-66948918D01*
X130168809Y-66773979D01*
X130688357Y-66490926D01*
X131179913Y-66339277D01*
X131795139Y-66279981D01*
X132113115Y-66273344D01*
X132821030Y-66292968D01*
G37*
X132821030Y-66292968D02*
X133345781Y-66391404D01*
X133840152Y-66604632D01*
X134070996Y-66734445D01*
X134887151Y-67364617D01*
X135402924Y-68131687D01*
X135625508Y-69053658D01*
X135562097Y-70148528D01*
X135521291Y-70363310D01*
X135169281Y-71309637D01*
X134578172Y-72060199D01*
X133799593Y-72592933D01*
X132885172Y-72885776D01*
X131886540Y-72916664D01*
X130855324Y-72663533D01*
X130503797Y-72507521D01*
X129647479Y-71917052D01*
X129042746Y-71162009D01*
X128692988Y-70300414D01*
X128601595Y-69390287D01*
X128771957Y-68489648D01*
X129207464Y-67656518D01*
X129911505Y-66948918D01*
X130168809Y-66773979D01*
X130688357Y-66490926D01*
X131179913Y-66339277D01*
X131795139Y-66279981D01*
X132113115Y-66273344D01*
X132821030Y-66292968D01*
G36*
X199952193Y-83647057D02*
G01*
X199905736Y-84431068D01*
X199857652Y-85098697D01*
X199814085Y-85572104D01*
X199785169Y-85763723D01*
X199675034Y-85840301D01*
X199376172Y-85897585D01*
X198855499Y-85937601D01*
X198079933Y-85962374D01*
X197016391Y-85973931D01*
X196327912Y-85975390D01*
X192935931Y-85975390D01*
X192924728Y-86441057D01*
X192910605Y-86687898D01*
X192873650Y-87242623D01*
X192815993Y-88075369D01*
X192739768Y-89156274D01*
X192647108Y-90455477D01*
X192540143Y-91943116D01*
X192421007Y-93589328D01*
X192291833Y-95364252D01*
X192154752Y-97238026D01*
X192117613Y-97744057D01*
X191930867Y-100326465D01*
X191774177Y-102580254D01*
X191647053Y-104514090D01*
X191549007Y-106136639D01*
X191479551Y-107456568D01*
X191438195Y-108482543D01*
X191424450Y-109223232D01*
X191437830Y-109687301D01*
X191441806Y-109730368D01*
X191758865Y-111168154D01*
X192392471Y-112503897D01*
X193331393Y-113720732D01*
X194564399Y-114801794D01*
X195036517Y-115127569D01*
X195489802Y-115438936D01*
X195765979Y-115662135D01*
X195813581Y-115754797D01*
X195798517Y-115754888D01*
X195509670Y-115723079D01*
X195007036Y-115664602D01*
X194544598Y-115609522D01*
X192694278Y-115230045D01*
X190966389Y-114544071D01*
X189643795Y-113764056D01*
X189035671Y-113284791D01*
X188353364Y-112645227D01*
X187690699Y-111943013D01*
X187141501Y-111275793D01*
X186875517Y-110883043D01*
X186698896Y-110580727D01*
X186547832Y-110302367D01*
X186422110Y-110021609D01*
X186321509Y-109712102D01*
X186245813Y-109347493D01*
X186194804Y-108901429D01*
X186168263Y-108347558D01*
X186165973Y-107659526D01*
X186187716Y-106810982D01*
X186233274Y-105775573D01*
X186302428Y-104526947D01*
X186394961Y-103038750D01*
X186510656Y-101284630D01*
X186649293Y-99238234D01*
X186765167Y-97540168D01*
X186894624Y-95638958D01*
X187017042Y-93833187D01*
X187130484Y-92151940D01*
X187233014Y-90624300D01*
X187322694Y-89279351D01*
X187397588Y-88146178D01*
X187455758Y-87253864D01*
X187495269Y-86631493D01*
X187514183Y-86308148D01*
X187515577Y-86271723D01*
X187500490Y-86210135D01*
X187437751Y-86157697D01*
X187302276Y-86113677D01*
X187068981Y-86077344D01*
X186712781Y-86047965D01*
X186208592Y-86024809D01*
X185531330Y-86007142D01*
X184655912Y-85994233D01*
X183557253Y-85985351D01*
X182210268Y-85979761D01*
X180589875Y-85976734D01*
X178670988Y-85975535D01*
X177362480Y-85975390D01*
X167207695Y-85975390D01*
X165678480Y-83950297D01*
X165144465Y-83237323D01*
X164691725Y-82621813D01*
X164355894Y-82153089D01*
X164172601Y-81880469D01*
X164149264Y-81833630D01*
X164314928Y-81821211D01*
X164797240Y-81809288D01*
X165574184Y-81797973D01*
X166623741Y-81787380D01*
X167923893Y-81777619D01*
X169452624Y-81768804D01*
X171187915Y-81761047D01*
X173107749Y-81754460D01*
X175190108Y-81749155D01*
X177412975Y-81745245D01*
X179754331Y-81742842D01*
X182101603Y-81742057D01*
X200053942Y-81742057D01*
X199952193Y-83647057D01*
G37*
X199952193Y-83647057D02*
X199905736Y-84431068D01*
X199857652Y-85098697D01*
X199814085Y-85572104D01*
X199785169Y-85763723D01*
X199675034Y-85840301D01*
X199376172Y-85897585D01*
X198855499Y-85937601D01*
X198079933Y-85962374D01*
X197016391Y-85973931D01*
X196327912Y-85975390D01*
X192935931Y-85975390D01*
X192924728Y-86441057D01*
X192910605Y-86687898D01*
X192873650Y-87242623D01*
X192815993Y-88075369D01*
X192739768Y-89156274D01*
X192647108Y-90455477D01*
X192540143Y-91943116D01*
X192421007Y-93589328D01*
X192291833Y-95364252D01*
X192154752Y-97238026D01*
X192117613Y-97744057D01*
X191930867Y-100326465D01*
X191774177Y-102580254D01*
X191647053Y-104514090D01*
X191549007Y-106136639D01*
X191479551Y-107456568D01*
X191438195Y-108482543D01*
X191424450Y-109223232D01*
X191437830Y-109687301D01*
X191441806Y-109730368D01*
X191758865Y-111168154D01*
X192392471Y-112503897D01*
X193331393Y-113720732D01*
X194564399Y-114801794D01*
X195036517Y-115127569D01*
X195489802Y-115438936D01*
X195765979Y-115662135D01*
X195813581Y-115754797D01*
X195798517Y-115754888D01*
X195509670Y-115723079D01*
X195007036Y-115664602D01*
X194544598Y-115609522D01*
X192694278Y-115230045D01*
X190966389Y-114544071D01*
X189643795Y-113764056D01*
X189035671Y-113284791D01*
X188353364Y-112645227D01*
X187690699Y-111943013D01*
X187141501Y-111275793D01*
X186875517Y-110883043D01*
X186698896Y-110580727D01*
X186547832Y-110302367D01*
X186422110Y-110021609D01*
X186321509Y-109712102D01*
X186245813Y-109347493D01*
X186194804Y-108901429D01*
X186168263Y-108347558D01*
X186165973Y-107659526D01*
X186187716Y-106810982D01*
X186233274Y-105775573D01*
X186302428Y-104526947D01*
X186394961Y-103038750D01*
X186510656Y-101284630D01*
X186649293Y-99238234D01*
X186765167Y-97540168D01*
X186894624Y-95638958D01*
X187017042Y-93833187D01*
X187130484Y-92151940D01*
X187233014Y-90624300D01*
X187322694Y-89279351D01*
X187397588Y-88146178D01*
X187455758Y-87253864D01*
X187495269Y-86631493D01*
X187514183Y-86308148D01*
X187515577Y-86271723D01*
X187500490Y-86210135D01*
X187437751Y-86157697D01*
X187302276Y-86113677D01*
X187068981Y-86077344D01*
X186712781Y-86047965D01*
X186208592Y-86024809D01*
X185531330Y-86007142D01*
X184655912Y-85994233D01*
X183557253Y-85985351D01*
X182210268Y-85979761D01*
X180589875Y-85976734D01*
X178670988Y-85975535D01*
X177362480Y-85975390D01*
X167207695Y-85975390D01*
X165678480Y-83950297D01*
X165144465Y-83237323D01*
X164691725Y-82621813D01*
X164355894Y-82153089D01*
X164172601Y-81880469D01*
X164149264Y-81833630D01*
X164314928Y-81821211D01*
X164797240Y-81809288D01*
X165574184Y-81797973D01*
X166623741Y-81787380D01*
X167923893Y-81777619D01*
X169452624Y-81768804D01*
X171187915Y-81761047D01*
X173107749Y-81754460D01*
X175190108Y-81749155D01*
X177412975Y-81745245D01*
X179754331Y-81742842D01*
X182101603Y-81742057D01*
X200053942Y-81742057D01*
X199952193Y-83647057D01*
G36*
X153710590Y-80597129D02*
G01*
X155521505Y-80766918D01*
X157118823Y-81131706D01*
X158580970Y-81714985D01*
X159814534Y-82425294D01*
X161375578Y-83621367D01*
X162632846Y-84957803D01*
X163587530Y-86438266D01*
X164240819Y-88066418D01*
X164593905Y-89845923D01*
X164647978Y-91780443D01*
X164404229Y-93873642D01*
X164051052Y-95458057D01*
X164064526Y-95528188D01*
X164199943Y-95335429D01*
X164429865Y-94920830D01*
X164497449Y-94790162D01*
X164928843Y-94083290D01*
X165536094Y-93271073D01*
X166234974Y-92465082D01*
X166323113Y-92371866D01*
X167911680Y-90920006D01*
X169649376Y-89716001D01*
X171497296Y-88773868D01*
X173416535Y-88107623D01*
X175368189Y-87731282D01*
X177313354Y-87658861D01*
X178900485Y-87840629D01*
X180242830Y-88241419D01*
X181598219Y-88914512D01*
X182887439Y-89806353D01*
X184031279Y-90863384D01*
X184827424Y-91847900D01*
X185125248Y-92348739D01*
X185272352Y-92834371D01*
X185315514Y-93469479D01*
X185315931Y-93567648D01*
X185315931Y-94579554D01*
X184523766Y-94849472D01*
X184050946Y-95005594D01*
X183727614Y-95103061D01*
X183652743Y-95119390D01*
X183510702Y-95004893D01*
X183186346Y-94694606D01*
X182730552Y-94238333D01*
X182285908Y-93781360D01*
X181700269Y-93183700D01*
X181267055Y-92784521D01*
X180909965Y-92532541D01*
X180552702Y-92376480D01*
X180118964Y-92265058D01*
X179989896Y-92238220D01*
X178725848Y-92140849D01*
X177337298Y-92319796D01*
X175866579Y-92756661D01*
X174356025Y-93433040D01*
X172847972Y-94330532D01*
X171384754Y-95430735D01*
X170245264Y-96474057D01*
X169337032Y-97466319D01*
X168699589Y-98375087D01*
X168298510Y-99263637D01*
X168099374Y-100195244D01*
X168075798Y-100461851D01*
X168054791Y-101066836D01*
X168111242Y-101466108D01*
X168276970Y-101789532D01*
X168457468Y-102019533D01*
X169281878Y-102740986D01*
X170324861Y-103218895D01*
X171569495Y-103453102D01*
X172998856Y-103443451D01*
X174596024Y-103189784D01*
X176344076Y-102691943D01*
X177865264Y-102106919D01*
X179537268Y-101315176D01*
X180971831Y-100471655D01*
X182145375Y-99594576D01*
X183034319Y-98702154D01*
X183615083Y-97812609D01*
X183709885Y-97591426D01*
X183927818Y-97106338D01*
X184143286Y-96872958D01*
X184428218Y-96812723D01*
X184849162Y-96812723D01*
X184736289Y-99987723D01*
X184623415Y-103162723D01*
X183447588Y-104289050D01*
X182268750Y-105273201D01*
X181006868Y-106022742D01*
X180915807Y-106067050D01*
X180264503Y-106389630D01*
X179819979Y-106659584D01*
X179490242Y-106962565D01*
X179183302Y-107384223D01*
X178807165Y-108010211D01*
X178781458Y-108054302D01*
X177625268Y-109712517D01*
X176180162Y-111236246D01*
X174475669Y-112606273D01*
X172541321Y-113803380D01*
X170406646Y-114808353D01*
X168101175Y-115601975D01*
X166604598Y-115978227D01*
X165644581Y-116139593D01*
X164466905Y-116264565D01*
X163158767Y-116350703D01*
X161807367Y-116395572D01*
X160499904Y-116396735D01*
X159323576Y-116351753D01*
X158365583Y-116258190D01*
X158109214Y-116215666D01*
X155940682Y-115655603D01*
X153715676Y-114805494D01*
X151485345Y-113696406D01*
X149300837Y-112359403D01*
X147213300Y-110825551D01*
X145273883Y-109125917D01*
X143664126Y-107442215D01*
X142306696Y-105727977D01*
X141263129Y-104045208D01*
X140930645Y-103294673D01*
X147450870Y-103294673D01*
X147511243Y-103447160D01*
X147710554Y-103800456D01*
X147947427Y-104185301D01*
X149452705Y-106255070D01*
X151176999Y-108077051D01*
X153100268Y-109637885D01*
X155202474Y-110924211D01*
X157463578Y-111922670D01*
X159863540Y-112619901D01*
X160895595Y-112817656D01*
X162197630Y-112953699D01*
X163688454Y-112983850D01*
X165236481Y-112912007D01*
X166710123Y-112742071D01*
X167354989Y-112626274D01*
X169332092Y-112056661D01*
X171228704Y-111192269D01*
X172971503Y-110071130D01*
X174074948Y-109140464D01*
X174515979Y-108708222D01*
X174839676Y-108362133D01*
X174984186Y-108168866D01*
X174986598Y-108157812D01*
X174829160Y-108099802D01*
X174404002Y-108038252D01*
X173781855Y-107981681D01*
X173250344Y-107948747D01*
X171319429Y-107703198D01*
X169562168Y-107169434D01*
X167966135Y-106342205D01*
X166518904Y-105216260D01*
X166308040Y-105015576D01*
X165450161Y-104104528D01*
X164815476Y-103236589D01*
X164328158Y-102295867D01*
X164040052Y-101549101D01*
X163772895Y-100501660D01*
X163615977Y-99291398D01*
X163579781Y-98066427D01*
X163674789Y-96974860D01*
X163704843Y-96812723D01*
X163739007Y-96567220D01*
X163683387Y-96556487D01*
X163517968Y-96802734D01*
X163222736Y-97328170D01*
X163195836Y-97377553D01*
X162268880Y-98786133D01*
X161089597Y-100114641D01*
X159728452Y-101303754D01*
X158255911Y-102294151D01*
X156742440Y-103026513D01*
X156297366Y-103184954D01*
X155240797Y-103444077D01*
X153959359Y-103627558D01*
X152559342Y-103730685D01*
X151147033Y-103748744D01*
X149828720Y-103677021D01*
X148751373Y-103519568D01*
X148146593Y-103397525D01*
X147688581Y-103316779D01*
X147461172Y-103291829D01*
X147450870Y-103294673D01*
X140930645Y-103294673D01*
X140515491Y-102357527D01*
X140045845Y-100628559D01*
X139924084Y-99856867D01*
X139846057Y-98977241D01*
X139890475Y-98317326D01*
X140089494Y-97770424D01*
X140475270Y-97229836D01*
X140833434Y-96839548D01*
X141210764Y-96481767D01*
X141705013Y-96057574D01*
X142252852Y-95615511D01*
X142790953Y-95204119D01*
X143255989Y-94871941D01*
X143584632Y-94667520D01*
X143711698Y-94633297D01*
X143797015Y-94805347D01*
X143989763Y-95203321D01*
X144251393Y-95747554D01*
X144303709Y-95856743D01*
X145128678Y-97233519D01*
X146146810Y-98349638D01*
X147331314Y-99190859D01*
X148655401Y-99742943D01*
X150092280Y-99991650D01*
X151615163Y-99922740D01*
X151872598Y-99879901D01*
X153367296Y-99439344D01*
X154792083Y-98700722D01*
X156116120Y-97702375D01*
X157308573Y-96482642D01*
X157625721Y-96050723D01*
X163810598Y-96050723D01*
X163895264Y-96135390D01*
X163979931Y-96050723D01*
X163895264Y-95966057D01*
X163810598Y-96050723D01*
X157625721Y-96050723D01*
X158338603Y-95079863D01*
X159175375Y-93532378D01*
X159788051Y-91878527D01*
X160145796Y-90156648D01*
X160206877Y-89517730D01*
X160243745Y-88734395D01*
X160224222Y-88165374D01*
X160134081Y-87688950D01*
X159959094Y-87183404D01*
X159923710Y-87095224D01*
X159378170Y-86145082D01*
X158567510Y-85256937D01*
X157565136Y-84502523D01*
X156904857Y-84145134D01*
X156438856Y-83942311D01*
X156023431Y-83812684D01*
X155562437Y-83741776D01*
X154959733Y-83715108D01*
X154119176Y-83718201D01*
X154073931Y-83718812D01*
X151837869Y-83909636D01*
X149656620Y-84422128D01*
X147522899Y-85259664D01*
X145429419Y-86425619D01*
X143368895Y-87923371D01*
X141594061Y-89502146D01*
X139765264Y-91268992D01*
X139765264Y-85967575D01*
X136762619Y-86013816D01*
X133759973Y-86060057D01*
X132950737Y-97490057D01*
X132813820Y-99457553D01*
X132686673Y-101350467D01*
X132571098Y-103137678D01*
X132468896Y-104788066D01*
X132381867Y-106270510D01*
X132311813Y-107553890D01*
X132260534Y-108607085D01*
X132229831Y-109398974D01*
X132221505Y-109898438D01*
X132225628Y-110020690D01*
X132400931Y-111084418D01*
X132775347Y-112077322D01*
X133376906Y-113041672D01*
X134233638Y-114019742D01*
X135373571Y-115053804D01*
X135785931Y-115390020D01*
X136463264Y-115930900D01*
X135277931Y-115584219D01*
X133392672Y-114969805D01*
X131707172Y-114292544D01*
X130254785Y-113569350D01*
X129068862Y-112817136D01*
X128182757Y-112052815D01*
X128069489Y-111928774D01*
X127607797Y-111360992D01*
X127273727Y-110821837D01*
X127048909Y-110241131D01*
X126914974Y-109548696D01*
X126853552Y-108674354D01*
X126846276Y-107547927D01*
X126849955Y-107269664D01*
X126888647Y-104772605D01*
X126003289Y-105265633D01*
X124479482Y-105947611D01*
X122789554Y-106414754D01*
X121015490Y-106660141D01*
X119239272Y-106676849D01*
X117542881Y-106457957D01*
X116246251Y-106089431D01*
X114688274Y-105339961D01*
X113214467Y-104303193D01*
X111857337Y-103026532D01*
X110649396Y-101557384D01*
X109623150Y-99943153D01*
X108811110Y-98231245D01*
X108563454Y-97459273D01*
X112859228Y-97459273D01*
X112891996Y-97983566D01*
X112965952Y-98409916D01*
X113087977Y-98818354D01*
X113168445Y-99038964D01*
X113780964Y-100202552D01*
X114645833Y-101181086D01*
X115710943Y-101928366D01*
X116924184Y-102398192D01*
X116970064Y-102409372D01*
X117888819Y-102531784D01*
X119005713Y-102528116D01*
X120205896Y-102401648D01*
X120764736Y-102300999D01*
X122220595Y-101880808D01*
X123690012Y-101239989D01*
X125078830Y-100431427D01*
X126292891Y-99508007D01*
X127016736Y-98789456D01*
X127185244Y-98588744D01*
X127313273Y-98389211D01*
X127410319Y-98139026D01*
X127485876Y-97786361D01*
X127549441Y-97279388D01*
X127610509Y-96566278D01*
X127678577Y-95595201D01*
X127721899Y-94940555D01*
X127807713Y-93650838D01*
X127904155Y-92225154D01*
X128002250Y-90794722D01*
X128093022Y-89490761D01*
X128141092Y-88811723D01*
X128343648Y-85975390D01*
X116062846Y-85975390D01*
X115607486Y-86695057D01*
X114474586Y-88800681D01*
X113640372Y-91059922D01*
X113108773Y-93459626D01*
X112889739Y-95796723D01*
X112860769Y-96757003D01*
X112859228Y-97459273D01*
X108563454Y-97459273D01*
X108245784Y-96469065D01*
X107959682Y-94704019D01*
X107930597Y-93963376D01*
X108020082Y-92638021D01*
X108278895Y-91090266D01*
X108692578Y-89382170D01*
X109246671Y-87575792D01*
X109733437Y-86225721D01*
X109729488Y-86107977D01*
X109572505Y-86033171D01*
X109208470Y-85992374D01*
X108583362Y-85976659D01*
X108218727Y-85975390D01*
X106607955Y-85975390D01*
X106683895Y-84578390D01*
X106731618Y-83812711D01*
X106787645Y-83078408D01*
X106840893Y-82518770D01*
X106847592Y-82461723D01*
X106935349Y-81742057D01*
X140152324Y-81742057D01*
X140058932Y-83104617D01*
X140023329Y-83798669D01*
X140035985Y-84195827D01*
X140100199Y-84334869D01*
X140161735Y-84313020D01*
X142083170Y-83018494D01*
X144204073Y-81997654D01*
X146524434Y-81250505D01*
X149044243Y-80777049D01*
X151763489Y-80577289D01*
X153710590Y-80597129D01*
G37*
X153710590Y-80597129D02*
X155521505Y-80766918D01*
X157118823Y-81131706D01*
X158580970Y-81714985D01*
X159814534Y-82425294D01*
X161375578Y-83621367D01*
X162632846Y-84957803D01*
X163587530Y-86438266D01*
X164240819Y-88066418D01*
X164593905Y-89845923D01*
X164647978Y-91780443D01*
X164404229Y-93873642D01*
X164051052Y-95458057D01*
X164064526Y-95528188D01*
X164199943Y-95335429D01*
X164429865Y-94920830D01*
X164497449Y-94790162D01*
X164928843Y-94083290D01*
X165536094Y-93271073D01*
X166234974Y-92465082D01*
X166323113Y-92371866D01*
X167911680Y-90920006D01*
X169649376Y-89716001D01*
X171497296Y-88773868D01*
X173416535Y-88107623D01*
X175368189Y-87731282D01*
X177313354Y-87658861D01*
X178900485Y-87840629D01*
X180242830Y-88241419D01*
X181598219Y-88914512D01*
X182887439Y-89806353D01*
X184031279Y-90863384D01*
X184827424Y-91847900D01*
X185125248Y-92348739D01*
X185272352Y-92834371D01*
X185315514Y-93469479D01*
X185315931Y-93567648D01*
X185315931Y-94579554D01*
X184523766Y-94849472D01*
X184050946Y-95005594D01*
X183727614Y-95103061D01*
X183652743Y-95119390D01*
X183510702Y-95004893D01*
X183186346Y-94694606D01*
X182730552Y-94238333D01*
X182285908Y-93781360D01*
X181700269Y-93183700D01*
X181267055Y-92784521D01*
X180909965Y-92532541D01*
X180552702Y-92376480D01*
X180118964Y-92265058D01*
X179989896Y-92238220D01*
X178725848Y-92140849D01*
X177337298Y-92319796D01*
X175866579Y-92756661D01*
X174356025Y-93433040D01*
X172847972Y-94330532D01*
X171384754Y-95430735D01*
X170245264Y-96474057D01*
X169337032Y-97466319D01*
X168699589Y-98375087D01*
X168298510Y-99263637D01*
X168099374Y-100195244D01*
X168075798Y-100461851D01*
X168054791Y-101066836D01*
X168111242Y-101466108D01*
X168276970Y-101789532D01*
X168457468Y-102019533D01*
X169281878Y-102740986D01*
X170324861Y-103218895D01*
X171569495Y-103453102D01*
X172998856Y-103443451D01*
X174596024Y-103189784D01*
X176344076Y-102691943D01*
X177865264Y-102106919D01*
X179537268Y-101315176D01*
X180971831Y-100471655D01*
X182145375Y-99594576D01*
X183034319Y-98702154D01*
X183615083Y-97812609D01*
X183709885Y-97591426D01*
X183927818Y-97106338D01*
X184143286Y-96872958D01*
X184428218Y-96812723D01*
X184849162Y-96812723D01*
X184736289Y-99987723D01*
X184623415Y-103162723D01*
X183447588Y-104289050D01*
X182268750Y-105273201D01*
X181006868Y-106022742D01*
X180915807Y-106067050D01*
X180264503Y-106389630D01*
X179819979Y-106659584D01*
X179490242Y-106962565D01*
X179183302Y-107384223D01*
X178807165Y-108010211D01*
X178781458Y-108054302D01*
X177625268Y-109712517D01*
X176180162Y-111236246D01*
X174475669Y-112606273D01*
X172541321Y-113803380D01*
X170406646Y-114808353D01*
X168101175Y-115601975D01*
X166604598Y-115978227D01*
X165644581Y-116139593D01*
X164466905Y-116264565D01*
X163158767Y-116350703D01*
X161807367Y-116395572D01*
X160499904Y-116396735D01*
X159323576Y-116351753D01*
X158365583Y-116258190D01*
X158109214Y-116215666D01*
X155940682Y-115655603D01*
X153715676Y-114805494D01*
X151485345Y-113696406D01*
X149300837Y-112359403D01*
X147213300Y-110825551D01*
X145273883Y-109125917D01*
X143664126Y-107442215D01*
X142306696Y-105727977D01*
X141263129Y-104045208D01*
X140930645Y-103294673D01*
X147450870Y-103294673D01*
X147511243Y-103447160D01*
X147710554Y-103800456D01*
X147947427Y-104185301D01*
X149452705Y-106255070D01*
X151176999Y-108077051D01*
X153100268Y-109637885D01*
X155202474Y-110924211D01*
X157463578Y-111922670D01*
X159863540Y-112619901D01*
X160895595Y-112817656D01*
X162197630Y-112953699D01*
X163688454Y-112983850D01*
X165236481Y-112912007D01*
X166710123Y-112742071D01*
X167354989Y-112626274D01*
X169332092Y-112056661D01*
X171228704Y-111192269D01*
X172971503Y-110071130D01*
X174074948Y-109140464D01*
X174515979Y-108708222D01*
X174839676Y-108362133D01*
X174984186Y-108168866D01*
X174986598Y-108157812D01*
X174829160Y-108099802D01*
X174404002Y-108038252D01*
X173781855Y-107981681D01*
X173250344Y-107948747D01*
X171319429Y-107703198D01*
X169562168Y-107169434D01*
X167966135Y-106342205D01*
X166518904Y-105216260D01*
X166308040Y-105015576D01*
X165450161Y-104104528D01*
X164815476Y-103236589D01*
X164328158Y-102295867D01*
X164040052Y-101549101D01*
X163772895Y-100501660D01*
X163615977Y-99291398D01*
X163579781Y-98066427D01*
X163674789Y-96974860D01*
X163704843Y-96812723D01*
X163739007Y-96567220D01*
X163683387Y-96556487D01*
X163517968Y-96802734D01*
X163222736Y-97328170D01*
X163195836Y-97377553D01*
X162268880Y-98786133D01*
X161089597Y-100114641D01*
X159728452Y-101303754D01*
X158255911Y-102294151D01*
X156742440Y-103026513D01*
X156297366Y-103184954D01*
X155240797Y-103444077D01*
X153959359Y-103627558D01*
X152559342Y-103730685D01*
X151147033Y-103748744D01*
X149828720Y-103677021D01*
X148751373Y-103519568D01*
X148146593Y-103397525D01*
X147688581Y-103316779D01*
X147461172Y-103291829D01*
X147450870Y-103294673D01*
X140930645Y-103294673D01*
X140515491Y-102357527D01*
X140045845Y-100628559D01*
X139924084Y-99856867D01*
X139846057Y-98977241D01*
X139890475Y-98317326D01*
X140089494Y-97770424D01*
X140475270Y-97229836D01*
X140833434Y-96839548D01*
X141210764Y-96481767D01*
X141705013Y-96057574D01*
X142252852Y-95615511D01*
X142790953Y-95204119D01*
X143255989Y-94871941D01*
X143584632Y-94667520D01*
X143711698Y-94633297D01*
X143797015Y-94805347D01*
X143989763Y-95203321D01*
X144251393Y-95747554D01*
X144303709Y-95856743D01*
X145128678Y-97233519D01*
X146146810Y-98349638D01*
X147331314Y-99190859D01*
X148655401Y-99742943D01*
X150092280Y-99991650D01*
X151615163Y-99922740D01*
X151872598Y-99879901D01*
X153367296Y-99439344D01*
X154792083Y-98700722D01*
X156116120Y-97702375D01*
X157308573Y-96482642D01*
X157625721Y-96050723D01*
X163810598Y-96050723D01*
X163895264Y-96135390D01*
X163979931Y-96050723D01*
X163895264Y-95966057D01*
X163810598Y-96050723D01*
X157625721Y-96050723D01*
X158338603Y-95079863D01*
X159175375Y-93532378D01*
X159788051Y-91878527D01*
X160145796Y-90156648D01*
X160206877Y-89517730D01*
X160243745Y-88734395D01*
X160224222Y-88165374D01*
X160134081Y-87688950D01*
X159959094Y-87183404D01*
X159923710Y-87095224D01*
X159378170Y-86145082D01*
X158567510Y-85256937D01*
X157565136Y-84502523D01*
X156904857Y-84145134D01*
X156438856Y-83942311D01*
X156023431Y-83812684D01*
X155562437Y-83741776D01*
X154959733Y-83715108D01*
X154119176Y-83718201D01*
X154073931Y-83718812D01*
X151837869Y-83909636D01*
X149656620Y-84422128D01*
X147522899Y-85259664D01*
X145429419Y-86425619D01*
X143368895Y-87923371D01*
X141594061Y-89502146D01*
X139765264Y-91268992D01*
X139765264Y-85967575D01*
X136762619Y-86013816D01*
X133759973Y-86060057D01*
X132950737Y-97490057D01*
X132813820Y-99457553D01*
X132686673Y-101350467D01*
X132571098Y-103137678D01*
X132468896Y-104788066D01*
X132381867Y-106270510D01*
X132311813Y-107553890D01*
X132260534Y-108607085D01*
X132229831Y-109398974D01*
X132221505Y-109898438D01*
X132225628Y-110020690D01*
X132400931Y-111084418D01*
X132775347Y-112077322D01*
X133376906Y-113041672D01*
X134233638Y-114019742D01*
X135373571Y-115053804D01*
X135785931Y-115390020D01*
X136463264Y-115930900D01*
X135277931Y-115584219D01*
X133392672Y-114969805D01*
X131707172Y-114292544D01*
X130254785Y-113569350D01*
X129068862Y-112817136D01*
X128182757Y-112052815D01*
X128069489Y-111928774D01*
X127607797Y-111360992D01*
X127273727Y-110821837D01*
X127048909Y-110241131D01*
X126914974Y-109548696D01*
X126853552Y-108674354D01*
X126846276Y-107547927D01*
X126849955Y-107269664D01*
X126888647Y-104772605D01*
X126003289Y-105265633D01*
X124479482Y-105947611D01*
X122789554Y-106414754D01*
X121015490Y-106660141D01*
X119239272Y-106676849D01*
X117542881Y-106457957D01*
X116246251Y-106089431D01*
X114688274Y-105339961D01*
X113214467Y-104303193D01*
X111857337Y-103026532D01*
X110649396Y-101557384D01*
X109623150Y-99943153D01*
X108811110Y-98231245D01*
X108563454Y-97459273D01*
X112859228Y-97459273D01*
X112891996Y-97983566D01*
X112965952Y-98409916D01*
X113087977Y-98818354D01*
X113168445Y-99038964D01*
X113780964Y-100202552D01*
X114645833Y-101181086D01*
X115710943Y-101928366D01*
X116924184Y-102398192D01*
X116970064Y-102409372D01*
X117888819Y-102531784D01*
X119005713Y-102528116D01*
X120205896Y-102401648D01*
X120764736Y-102300999D01*
X122220595Y-101880808D01*
X123690012Y-101239989D01*
X125078830Y-100431427D01*
X126292891Y-99508007D01*
X127016736Y-98789456D01*
X127185244Y-98588744D01*
X127313273Y-98389211D01*
X127410319Y-98139026D01*
X127485876Y-97786361D01*
X127549441Y-97279388D01*
X127610509Y-96566278D01*
X127678577Y-95595201D01*
X127721899Y-94940555D01*
X127807713Y-93650838D01*
X127904155Y-92225154D01*
X128002250Y-90794722D01*
X128093022Y-89490761D01*
X128141092Y-88811723D01*
X128343648Y-85975390D01*
X116062846Y-85975390D01*
X115607486Y-86695057D01*
X114474586Y-88800681D01*
X113640372Y-91059922D01*
X113108773Y-93459626D01*
X112889739Y-95796723D01*
X112860769Y-96757003D01*
X112859228Y-97459273D01*
X108563454Y-97459273D01*
X108245784Y-96469065D01*
X107959682Y-94704019D01*
X107930597Y-93963376D01*
X108020082Y-92638021D01*
X108278895Y-91090266D01*
X108692578Y-89382170D01*
X109246671Y-87575792D01*
X109733437Y-86225721D01*
X109729488Y-86107977D01*
X109572505Y-86033171D01*
X109208470Y-85992374D01*
X108583362Y-85976659D01*
X108218727Y-85975390D01*
X106607955Y-85975390D01*
X106683895Y-84578390D01*
X106731618Y-83812711D01*
X106787645Y-83078408D01*
X106840893Y-82518770D01*
X106847592Y-82461723D01*
X106935349Y-81742057D01*
X140152324Y-81742057D01*
X140058932Y-83104617D01*
X140023329Y-83798669D01*
X140035985Y-84195827D01*
X140100199Y-84334869D01*
X140161735Y-84313020D01*
X142083170Y-83018494D01*
X144204073Y-81997654D01*
X146524434Y-81250505D01*
X149044243Y-80777049D01*
X151763489Y-80577289D01*
X153710590Y-80597129D01*
D12*
%TO.C,U1*%
X112277177Y-50732930D02*
X117357177Y-50732930D01*
X112277177Y-48192930D02*
X112277177Y-50732930D01*
X104657177Y-48192930D02*
X112277177Y-48192930D01*
X104657177Y-50732930D02*
X104657177Y-48192930D01*
X99577177Y-50732930D02*
X104657177Y-50732930D01*
D13*
%TO.C,RE1*%
X107333977Y-105544227D02*
G75*
G03*
X107333977Y-105544227I-3000000J0D01*
G01*
X106333977Y-99644227D02*
X110433977Y-99644227D01*
X110433977Y-111444227D02*
X106333977Y-111444227D01*
X102333977Y-111444227D02*
X98233977Y-111444227D01*
X102333977Y-99644227D02*
X98233977Y-99644227D01*
X98233977Y-99644227D02*
X98233977Y-111444227D01*
X96833977Y-101744227D02*
X96533977Y-101444227D01*
X96533977Y-101444227D02*
X97133977Y-101444227D01*
X97133977Y-101444227D02*
X96833977Y-101744227D01*
X110433977Y-99644227D02*
X110433977Y-102044227D01*
X110433977Y-104244227D02*
X110433977Y-106844227D01*
X110433977Y-109044227D02*
X110433977Y-111444227D01*
X104333977Y-105044227D02*
X104333977Y-106044227D01*
X103833977Y-105544227D02*
X104833977Y-105544227D01*
D12*
%TO.C,D_RE1*%
X106993978Y-113966228D02*
X101913978Y-113966228D01*
X101913978Y-113966228D02*
X101913978Y-115490228D01*
X101913978Y-115490228D02*
X106993978Y-115490228D01*
X106993978Y-115490228D02*
X106993978Y-113966228D01*
X106993978Y-113966228D02*
X106485978Y-113966228D01*
X102294978Y-113966228D02*
X102294978Y-115490228D01*
X102167978Y-115490228D02*
X102167978Y-113966228D01*
X102040978Y-113966228D02*
X102040978Y-115490228D01*
X102421978Y-115490228D02*
X102421978Y-113966228D01*
X102548978Y-113966228D02*
X102548978Y-115490228D01*
X102675978Y-113966228D02*
X102675978Y-115490228D01*
D14*
%TO.C,PWM_PAD2*%
X120328978Y-67103228D02*
X120328978Y-67611228D01*
X120328978Y-67611228D02*
X120836978Y-67611228D01*
X120836978Y-67103228D02*
X120836978Y-67611228D01*
X120328978Y-67103228D02*
X120836978Y-67103228D01*
X120328978Y-64563228D02*
X120328978Y-65071228D01*
X120328978Y-65071228D02*
X120836978Y-65071228D01*
X120836978Y-64563228D02*
X120836978Y-65071228D01*
X120328978Y-64563228D02*
X120836978Y-64563228D01*
X120328978Y-62023228D02*
X120328978Y-62531228D01*
X120328978Y-62531228D02*
X120836978Y-62531228D01*
X120836978Y-62023228D02*
X120836978Y-62531228D01*
X120328978Y-62023228D02*
X120836978Y-62023228D01*
D13*
%TO.C,RST1*%
X95460978Y-73125228D02*
X93380978Y-73125228D01*
X91700978Y-68955228D02*
X92190978Y-68465228D01*
X95460978Y-67685228D02*
X93380978Y-67685228D01*
X91700978Y-71855228D02*
X92190978Y-72345228D01*
X91700978Y-71855228D02*
X91700978Y-68955228D01*
X97140978Y-71855228D02*
X96650978Y-72345228D01*
X97140978Y-71855228D02*
X97140978Y-68955228D01*
X97140978Y-68955228D02*
X96650978Y-68465228D01*
D15*
%TO.C,PWM_PAD1*%
X119947978Y-61007228D02*
X121217978Y-61007228D01*
X119947978Y-68627228D02*
X121217978Y-68627228D01*
D12*
%TO.C,J1*%
X97343978Y-50847228D02*
X91243978Y-50847228D01*
X97343978Y-62947228D02*
X91243978Y-62947228D01*
X97343978Y-50847228D02*
X97343978Y-62947228D01*
X91243978Y-50847228D02*
X91243978Y-62947228D01*
X97093978Y-50847228D02*
X97093978Y-48847228D01*
X91493978Y-50847228D02*
X91493978Y-48847228D01*
X97093978Y-48847228D02*
X91493978Y-48847228D01*
%TO.C,D8*%
X197808398Y-91902120D02*
X197808398Y-86822120D01*
X197808398Y-86822120D02*
X196284398Y-86822120D01*
X196284398Y-86822120D02*
X196284398Y-91902120D01*
X196284398Y-91902120D02*
X197808398Y-91902120D01*
X197808398Y-91902120D02*
X197808398Y-91394120D01*
X197808398Y-87203120D02*
X196284398Y-87203120D01*
X196284398Y-87076120D02*
X197808398Y-87076120D01*
X197808398Y-86949120D02*
X196284398Y-86949120D01*
X196284398Y-87330120D02*
X197808398Y-87330120D01*
X197808398Y-87457120D02*
X196284398Y-87457120D01*
X197808398Y-87584120D02*
X196284398Y-87584120D01*
%TO.C,D28*%
X121580223Y-104664868D02*
X121580223Y-99584868D01*
X121580223Y-99584868D02*
X120056223Y-99584868D01*
X120056223Y-99584868D02*
X120056223Y-104664868D01*
X120056223Y-104664868D02*
X121580223Y-104664868D01*
X121580223Y-104664868D02*
X121580223Y-104156868D01*
X121580223Y-99965868D02*
X120056223Y-99965868D01*
X120056223Y-99838868D02*
X121580223Y-99838868D01*
X121580223Y-99711868D02*
X120056223Y-99711868D01*
X120056223Y-100092868D02*
X121580223Y-100092868D01*
X121580223Y-100219868D02*
X120056223Y-100219868D01*
X121580223Y-100346868D02*
X120056223Y-100346868D01*
%TO.C,D27*%
X121488056Y-85811088D02*
X121488056Y-80731088D01*
X121488056Y-80731088D02*
X119964056Y-80731088D01*
X119964056Y-80731088D02*
X119964056Y-85811088D01*
X119964056Y-85811088D02*
X121488056Y-85811088D01*
X121488056Y-85811088D02*
X121488056Y-85303088D01*
X121488056Y-81112088D02*
X119964056Y-81112088D01*
X119964056Y-80985088D02*
X121488056Y-80985088D01*
X121488056Y-80858088D02*
X119964056Y-80858088D01*
X119964056Y-81239088D02*
X121488056Y-81239088D01*
X121488056Y-81366088D02*
X119964056Y-81366088D01*
X121488056Y-81493088D02*
X119964056Y-81493088D01*
%TO.C,D26*%
X133384578Y-67154029D02*
X128304578Y-67154029D01*
X128304578Y-67154029D02*
X128304578Y-68678029D01*
X128304578Y-68678029D02*
X133384578Y-68678029D01*
X133384578Y-68678029D02*
X133384578Y-67154029D01*
X133384578Y-67154029D02*
X132876578Y-67154029D01*
X128685578Y-67154029D02*
X128685578Y-68678029D01*
X128558578Y-68678029D02*
X128558578Y-67154029D01*
X128431578Y-67154029D02*
X128431578Y-68678029D01*
X128812578Y-68678029D02*
X128812578Y-67154029D01*
X128939578Y-67154029D02*
X128939578Y-68678029D01*
X129066578Y-67154029D02*
X129066578Y-68678029D01*
%TO.C,D24*%
X140592586Y-103256388D02*
X140592586Y-98176388D01*
X140592586Y-98176388D02*
X139068586Y-98176388D01*
X139068586Y-98176388D02*
X139068586Y-103256388D01*
X139068586Y-103256388D02*
X140592586Y-103256388D01*
X140592586Y-103256388D02*
X140592586Y-102748388D01*
X140592586Y-98557388D02*
X139068586Y-98557388D01*
X139068586Y-98430388D02*
X140592586Y-98430388D01*
X140592586Y-98303388D02*
X139068586Y-98303388D01*
X139068586Y-98684388D02*
X140592586Y-98684388D01*
X140592586Y-98811388D02*
X139068586Y-98811388D01*
X140592586Y-98938388D02*
X139068586Y-98938388D01*
%TO.C,D23*%
X140754325Y-84179468D02*
X140754325Y-79099468D01*
X140754325Y-79099468D02*
X139230325Y-79099468D01*
X139230325Y-79099468D02*
X139230325Y-84179468D01*
X139230325Y-84179468D02*
X140754325Y-84179468D01*
X140754325Y-84179468D02*
X140754325Y-83671468D01*
X140754325Y-79480468D02*
X139230325Y-79480468D01*
X139230325Y-79353468D02*
X140754325Y-79353468D01*
X140754325Y-79226468D02*
X139230325Y-79226468D01*
X139230325Y-79607468D02*
X140754325Y-79607468D01*
X140754325Y-79734468D02*
X139230325Y-79734468D01*
X140754325Y-79861468D02*
X139230325Y-79861468D01*
%TO.C,D22*%
X140602369Y-64824384D02*
X140602369Y-59744384D01*
X140602369Y-59744384D02*
X139078369Y-59744384D01*
X139078369Y-59744384D02*
X139078369Y-64824384D01*
X139078369Y-64824384D02*
X140602369Y-64824384D01*
X140602369Y-64824384D02*
X140602369Y-64316384D01*
X140602369Y-60125384D02*
X139078369Y-60125384D01*
X139078369Y-59998384D02*
X140602369Y-59998384D01*
X140602369Y-59871384D02*
X139078369Y-59871384D01*
X139078369Y-60252384D02*
X140602369Y-60252384D01*
X140602369Y-60379384D02*
X139078369Y-60379384D01*
X140602369Y-60506384D02*
X139078369Y-60506384D01*
%TO.C,D20*%
X95235196Y-138840504D02*
X94026126Y-139768256D01*
X96886696Y-143496224D02*
X98095766Y-142568471D01*
X98095766Y-142568471D02*
X95003258Y-138538236D01*
X98095766Y-142568471D02*
X97786515Y-142165448D01*
X93948813Y-139667500D02*
X95157884Y-138739748D01*
X94103439Y-139869012D02*
X95312509Y-138941260D01*
X95003258Y-138538236D02*
X93794188Y-139465989D01*
X93794188Y-139465989D02*
X96886696Y-143496224D01*
X95467134Y-139142772D02*
X94258064Y-140070524D01*
X95080571Y-138638992D02*
X93871500Y-139566745D01*
X95389822Y-139042016D02*
X94180751Y-139969768D01*
%TO.C,D19*%
X159777380Y-97384215D02*
X159777380Y-92304215D01*
X159777380Y-92304215D02*
X158253380Y-92304215D01*
X158253380Y-92304215D02*
X158253380Y-97384215D01*
X158253380Y-97384215D02*
X159777380Y-97384215D01*
X159777380Y-97384215D02*
X159777380Y-96876215D01*
X159777380Y-92685215D02*
X158253380Y-92685215D01*
X158253380Y-92558215D02*
X159777380Y-92558215D01*
X159777380Y-92431215D02*
X158253380Y-92431215D01*
X158253380Y-92812215D02*
X159777380Y-92812215D01*
X159777380Y-92939215D02*
X158253380Y-92939215D01*
X159777380Y-93066215D02*
X158253380Y-93066215D01*
%TO.C,D18*%
X159571978Y-78279226D02*
X159571978Y-73199226D01*
X159571978Y-73199226D02*
X158047978Y-73199226D01*
X158047978Y-73199226D02*
X158047978Y-78279226D01*
X158047978Y-78279226D02*
X159571978Y-78279226D01*
X159571978Y-78279226D02*
X159571978Y-77771226D01*
X159571978Y-73580226D02*
X158047978Y-73580226D01*
X158047978Y-73453226D02*
X159571978Y-73453226D01*
X159571978Y-73326226D02*
X158047978Y-73326226D01*
X158047978Y-73707226D02*
X159571978Y-73707226D01*
X159571978Y-73834226D02*
X158047978Y-73834226D01*
X159571978Y-73961226D02*
X158047978Y-73961226D01*
%TO.C,D17*%
X159571976Y-61642229D02*
X159571976Y-56562229D01*
X159571976Y-56562229D02*
X158047976Y-56562229D01*
X158047976Y-56562229D02*
X158047976Y-61642229D01*
X158047976Y-61642229D02*
X159571976Y-61642229D01*
X159571976Y-61642229D02*
X159571976Y-61134229D01*
X159571976Y-56943229D02*
X158047976Y-56943229D01*
X158047976Y-56816229D02*
X159571976Y-56816229D01*
X159571976Y-56689229D02*
X158047976Y-56689229D01*
X158047976Y-57070229D02*
X159571976Y-57070229D01*
X159571976Y-57197229D02*
X158047976Y-57197229D01*
X159571976Y-57324229D02*
X158047976Y-57324229D01*
%TO.C,D15*%
X111217149Y-127562474D02*
X109835936Y-128206545D01*
X111821819Y-132465285D02*
X113203032Y-131821215D01*
X113203032Y-131821215D02*
X111056131Y-127217171D01*
X113203032Y-131821215D02*
X112988342Y-131360810D01*
X109782263Y-128091444D02*
X111163476Y-127447373D01*
X109889608Y-128321646D02*
X111270821Y-127677575D01*
X111056131Y-127217171D02*
X109674918Y-127861241D01*
X109674918Y-127861241D02*
X111821819Y-132465285D01*
X111378166Y-127907778D02*
X109996953Y-128551848D01*
X111109804Y-127332272D02*
X109728591Y-127976342D01*
X111324494Y-127792677D02*
X109943281Y-128436747D01*
%TO.C,D14*%
X178701387Y-100850187D02*
X178701387Y-95770187D01*
X178701387Y-95770187D02*
X177177387Y-95770187D01*
X177177387Y-95770187D02*
X177177387Y-100850187D01*
X177177387Y-100850187D02*
X178701387Y-100850187D01*
X178701387Y-100850187D02*
X178701387Y-100342187D01*
X178701387Y-96151187D02*
X177177387Y-96151187D01*
X177177387Y-96024187D02*
X178701387Y-96024187D01*
X178701387Y-95897187D02*
X177177387Y-95897187D01*
X177177387Y-96278187D02*
X178701387Y-96278187D01*
X178701387Y-96405187D02*
X177177387Y-96405187D01*
X178701387Y-96532187D02*
X177177387Y-96532187D01*
%TO.C,D13*%
X178730541Y-81543627D02*
X178730541Y-76463627D01*
X178730541Y-76463627D02*
X177206541Y-76463627D01*
X177206541Y-76463627D02*
X177206541Y-81543627D01*
X177206541Y-81543627D02*
X178730541Y-81543627D01*
X178730541Y-81543627D02*
X178730541Y-81035627D01*
X178730541Y-76844627D02*
X177206541Y-76844627D01*
X177206541Y-76717627D02*
X178730541Y-76717627D01*
X178730541Y-76590627D02*
X177206541Y-76590627D01*
X177206541Y-76971627D02*
X178730541Y-76971627D01*
X178730541Y-77098627D02*
X177206541Y-77098627D01*
X178730541Y-77225627D02*
X177206541Y-77225627D01*
%TO.C,D12*%
X178730541Y-62201029D02*
X178730541Y-57121029D01*
X178730541Y-57121029D02*
X177206541Y-57121029D01*
X177206541Y-57121029D02*
X177206541Y-62201029D01*
X177206541Y-62201029D02*
X178730541Y-62201029D01*
X178730541Y-62201029D02*
X178730541Y-61693029D01*
X178730541Y-57502029D02*
X177206541Y-57502029D01*
X177206541Y-57375029D02*
X178730541Y-57375029D01*
X178730541Y-57248029D02*
X177206541Y-57248029D01*
X177206541Y-57629029D02*
X178730541Y-57629029D01*
X178730541Y-57756029D02*
X177206541Y-57756029D01*
X178730541Y-57883029D02*
X177206541Y-57883029D01*
%TO.C,D10*%
X130257621Y-118805476D02*
X128769746Y-119135330D01*
X129786796Y-123722945D02*
X131274671Y-123393091D01*
X131274671Y-123393091D02*
X130175158Y-118433507D01*
X131274671Y-123393091D02*
X131164720Y-122897133D01*
X128742258Y-119011340D02*
X130230134Y-118681486D01*
X128797234Y-119259319D02*
X130285109Y-118929466D01*
X130175158Y-118433507D02*
X128687283Y-118763361D01*
X128687283Y-118763361D02*
X129786796Y-123722945D01*
X130340085Y-119177445D02*
X128852210Y-119507299D01*
X130202646Y-118557497D02*
X128714771Y-118887351D01*
X130312597Y-119053455D02*
X128824722Y-119383309D01*
%TO.C,D9*%
X197808397Y-110937019D02*
X197808397Y-105857019D01*
X197808397Y-105857019D02*
X196284397Y-105857019D01*
X196284397Y-105857019D02*
X196284397Y-110937019D01*
X196284397Y-110937019D02*
X197808397Y-110937019D01*
X197808397Y-110937019D02*
X197808397Y-110429019D01*
X197808397Y-106238019D02*
X196284397Y-106238019D01*
X196284397Y-106111019D02*
X197808397Y-106111019D01*
X197808397Y-105984019D02*
X196284397Y-105984019D01*
X196284397Y-106365019D02*
X197808397Y-106365019D01*
X197808397Y-106492019D02*
X196284397Y-106492019D01*
X197808397Y-106619019D02*
X196284397Y-106619019D01*
%TO.C,D7*%
X197808398Y-75597700D02*
X197808398Y-70517700D01*
X197808398Y-70517700D02*
X196284398Y-70517700D01*
X196284398Y-70517700D02*
X196284398Y-75597700D01*
X196284398Y-75597700D02*
X197808398Y-75597700D01*
X197808398Y-75597700D02*
X197808398Y-75089700D01*
X197808398Y-70898700D02*
X196284398Y-70898700D01*
X196284398Y-70771700D02*
X197808398Y-70771700D01*
X197808398Y-70644700D02*
X196284398Y-70644700D01*
X196284398Y-71025700D02*
X197808398Y-71025700D01*
X197808398Y-71152700D02*
X196284398Y-71152700D01*
X197808398Y-71279700D02*
X196284398Y-71279700D01*
%TD*%
D16*
%TO.C,SW10*%
X145536921Y-121487446D02*
G75*
G03*
X145536921Y-121487446I-450000J0D01*
G01*
X135344390Y-123747076D02*
G75*
G03*
X135344390Y-123747076I-450000J0D01*
G01*
%TD*%
%TO.C,SW13*%
X193052028Y-79223131D02*
G75*
G03*
X193052028Y-79223131I-450000J0D01*
G01*
X182612028Y-79223131D02*
G75*
G03*
X182612028Y-79223131I-450000J0D01*
G01*
%TD*%
%TO.C,SW8*%
X212129757Y-93562119D02*
G75*
G03*
X212129757Y-93562119I-450000J0D01*
G01*
X201689757Y-93562119D02*
G75*
G03*
X201689757Y-93562119I-450000J0D01*
G01*
%TD*%
%TO.C,SW7*%
X212086110Y-74527218D02*
G75*
G03*
X212086110Y-74527218I-450000J0D01*
G01*
X201646110Y-74527218D02*
G75*
G03*
X201646110Y-74527218I-450000J0D01*
G01*
%TD*%
%TO.C,SW12*%
X193098938Y-60212502D02*
G75*
G03*
X193098938Y-60212502I-450000J0D01*
G01*
X182658938Y-60212502D02*
G75*
G03*
X182658938Y-60212502I-450000J0D01*
G01*
%TD*%
%TO.C,SW22*%
X155020904Y-62141666D02*
G75*
G03*
X155020904Y-62141666I-450000J0D01*
G01*
X144580904Y-62141666D02*
G75*
G03*
X144580904Y-62141666I-450000J0D01*
G01*
%TD*%
%TO.C,SW26*%
X135887209Y-64002919D02*
G75*
G03*
X135887209Y-64002919I-450000J0D01*
G01*
X125447209Y-64002919D02*
G75*
G03*
X125447209Y-64002919I-450000J0D01*
G01*
%TD*%
%TO.C,SW28*%
X135950231Y-102163263D02*
G75*
G03*
X135950231Y-102163263I-450000J0D01*
G01*
X125510231Y-102163263D02*
G75*
G03*
X125510231Y-102163263I-450000J0D01*
G01*
%TD*%
%TO.C,SW27*%
X135930853Y-83037813D02*
G75*
G03*
X135930853Y-83037813I-450000J0D01*
G01*
X125490853Y-83037813D02*
G75*
G03*
X125490853Y-83037813I-450000J0D01*
G01*
%TD*%
%TO.C,SW24*%
X155017636Y-100187188D02*
G75*
G03*
X155017636Y-100187188I-450000J0D01*
G01*
X144577636Y-100187188D02*
G75*
G03*
X144577636Y-100187188I-450000J0D01*
G01*
%TD*%
%TO.C,SW23*%
X154973992Y-81152291D02*
G75*
G03*
X154973992Y-81152291I-450000J0D01*
G01*
X144533992Y-81152291D02*
G75*
G03*
X144533992Y-81152291I-450000J0D01*
G01*
%TD*%
%TO.C,SW20*%
X109395534Y-135880426D02*
G75*
G03*
X109395534Y-135880426I-450000J0D01*
G01*
X101112926Y-142235896D02*
G75*
G03*
X101112926Y-142235896I-450000J0D01*
G01*
%TD*%
%TO.C,SW19*%
X174010969Y-94503093D02*
G75*
G03*
X174010969Y-94503093I-450000J0D01*
G01*
X163570969Y-94503093D02*
G75*
G03*
X163570969Y-94503093I-450000J0D01*
G01*
%TD*%
%TO.C,SW18*%
X174057883Y-75492465D02*
G75*
G03*
X174057883Y-75492465I-450000J0D01*
G01*
X163617883Y-75492465D02*
G75*
G03*
X163617883Y-75492465I-450000J0D01*
G01*
%TD*%
%TO.C,SW17*%
X174038502Y-56367014D02*
G75*
G03*
X174038502Y-56367014I-450000J0D01*
G01*
X163598502Y-56367014D02*
G75*
G03*
X163598502Y-56367014I-450000J0D01*
G01*
%TD*%
%TO.C,SW15*%
X126686740Y-126773182D02*
G75*
G03*
X126686740Y-126773182I-450000J0D01*
G01*
X117224887Y-131185317D02*
G75*
G03*
X117224887Y-131185317I-450000J0D01*
G01*
%TD*%
%TO.C,SW14*%
X193071400Y-98348575D02*
G75*
G03*
X193071400Y-98348575I-450000J0D01*
G01*
X182631400Y-98348575D02*
G75*
G03*
X182631400Y-98348575I-450000J0D01*
G01*
%TD*%
%TO.C,SW9*%
X212173400Y-112597020D02*
G75*
G03*
X212173400Y-112597020I-450000J0D01*
G01*
X201733400Y-112597020D02*
G75*
G03*
X201733400Y-112597020I-450000J0D01*
G01*
%TD*%
%TO.C,J3*%
X105356477Y-87042227D02*
G75*
G03*
X105356477Y-87042227I-648500J0D01*
G01*
X107896477Y-87042227D02*
G75*
G03*
X107896477Y-87042227I-648500J0D01*
G01*
X110436477Y-87042227D02*
G75*
G03*
X110436477Y-87042227I-648500J0D01*
G01*
X112976477Y-87042227D02*
G75*
G03*
X112976477Y-87042227I-648500J0D01*
G01*
%TD*%
%TO.C,H1*%
D12*
X186639497Y-105478207D02*
X186639497Y-104478207D01*
X186639497Y-104954398D02*
X187210925Y-104954398D01*
X187210925Y-105478207D02*
X187210925Y-104478207D01*
X188210925Y-105478207D02*
X187639497Y-105478207D01*
X187925211Y-105478207D02*
X187925211Y-104478207D01*
X187829973Y-104621065D01*
X187734735Y-104716303D01*
X187639497Y-104763922D01*
%TO.C,H2*%
X186639496Y-62628408D02*
X186639496Y-61628408D01*
X186639496Y-62104599D02*
X187210924Y-62104599D01*
X187210924Y-62628408D02*
X187210924Y-61628408D01*
X187639496Y-61723647D02*
X187687115Y-61676028D01*
X187782353Y-61628408D01*
X188020448Y-61628408D01*
X188115686Y-61676028D01*
X188163305Y-61723647D01*
X188210924Y-61818885D01*
X188210924Y-61914123D01*
X188163305Y-62056980D01*
X187591877Y-62628408D01*
X188210924Y-62628408D01*
%TO.C,H3*%
X148542087Y-105478208D02*
X148542087Y-104478208D01*
X148542087Y-104954399D02*
X149113515Y-104954399D01*
X149113515Y-105478208D02*
X149113515Y-104478208D01*
X149494468Y-104478208D02*
X150113515Y-104478208D01*
X149780182Y-104859161D01*
X149923039Y-104859161D01*
X150018277Y-104906780D01*
X150065896Y-104954399D01*
X150113515Y-105049637D01*
X150113515Y-105287732D01*
X150065896Y-105382970D01*
X150018277Y-105430589D01*
X149923039Y-105478208D01*
X149637325Y-105478208D01*
X149542087Y-105430589D01*
X149494468Y-105382970D01*
%TO.C,H4*%
X110372273Y-57929408D02*
X110372273Y-56929408D01*
X110372273Y-57405599D02*
X110943701Y-57405599D01*
X110943701Y-57929408D02*
X110943701Y-56929408D01*
X111848463Y-57262742D02*
X111848463Y-57929408D01*
X111610368Y-56881789D02*
X111372273Y-57596075D01*
X111991320Y-57596075D01*
%TO.C,H5*%
X148542086Y-64609608D02*
X148542086Y-63609608D01*
X148542086Y-64085799D02*
X149113514Y-64085799D01*
X149113514Y-64609608D02*
X149113514Y-63609608D01*
X150065895Y-63609608D02*
X149589705Y-63609608D01*
X149542086Y-64085799D01*
X149589705Y-64038180D01*
X149684943Y-63990561D01*
X149923038Y-63990561D01*
X150018276Y-64038180D01*
X150065895Y-64085799D01*
X150113514Y-64181037D01*
X150113514Y-64419132D01*
X150065895Y-64514370D01*
X150018276Y-64561989D01*
X149923038Y-64609608D01*
X149684943Y-64609608D01*
X149589705Y-64561989D01*
X149542086Y-64514370D01*
%TO.C,H6*%
X103658026Y-116609104D02*
X103658026Y-115609104D01*
X103658026Y-116085295D02*
X104229454Y-116085295D01*
X104229454Y-116609104D02*
X104229454Y-115609104D01*
X105134216Y-115609104D02*
X104943740Y-115609104D01*
X104848502Y-115656724D01*
X104800883Y-115704343D01*
X104705645Y-115847200D01*
X104658026Y-116037676D01*
X104658026Y-116418628D01*
X104705645Y-116513866D01*
X104753264Y-116561485D01*
X104848502Y-116609104D01*
X105038978Y-116609104D01*
X105134216Y-116561485D01*
X105181835Y-116513866D01*
X105229454Y-116418628D01*
X105229454Y-116180533D01*
X105181835Y-116085295D01*
X105134216Y-116037676D01*
X105038978Y-115990057D01*
X104848502Y-115990057D01*
X104753264Y-116037676D01*
X104705645Y-116085295D01*
X104658026Y-116180533D01*
%TO.C,RE1*%
X99014929Y-98796607D02*
X98681596Y-98320417D01*
X98443500Y-98796607D02*
X98443500Y-97796607D01*
X98824453Y-97796607D01*
X98919691Y-97844227D01*
X98967310Y-97891846D01*
X99014929Y-97987084D01*
X99014929Y-98129941D01*
X98967310Y-98225179D01*
X98919691Y-98272798D01*
X98824453Y-98320417D01*
X98443500Y-98320417D01*
X99443500Y-98272798D02*
X99776834Y-98272798D01*
X99919691Y-98796607D02*
X99443500Y-98796607D01*
X99443500Y-97796607D01*
X99919691Y-97796607D01*
X100872072Y-98796607D02*
X100300643Y-98796607D01*
X100586357Y-98796607D02*
X100586357Y-97796607D01*
X100491119Y-97939465D01*
X100395881Y-98034703D01*
X100300643Y-98082322D01*
%TO.C,D_RE1*%
X102822235Y-113690132D02*
X102822235Y-112890132D01*
X103012711Y-112890132D01*
X103126997Y-112928228D01*
X103203187Y-113004418D01*
X103241282Y-113080608D01*
X103279378Y-113232989D01*
X103279378Y-113347275D01*
X103241282Y-113499656D01*
X103203187Y-113575847D01*
X103126997Y-113652037D01*
X103012711Y-113690132D01*
X102822235Y-113690132D01*
X103431758Y-113766323D02*
X104041282Y-113766323D01*
X104688901Y-113690132D02*
X104422235Y-113309180D01*
X104231758Y-113690132D02*
X104231758Y-112890132D01*
X104536520Y-112890132D01*
X104612711Y-112928228D01*
X104650806Y-112966323D01*
X104688901Y-113042513D01*
X104688901Y-113156799D01*
X104650806Y-113232989D01*
X104612711Y-113271085D01*
X104536520Y-113309180D01*
X104231758Y-113309180D01*
X105031758Y-113271085D02*
X105298425Y-113271085D01*
X105412711Y-113690132D02*
X105031758Y-113690132D01*
X105031758Y-112890132D01*
X105412711Y-112890132D01*
X106174616Y-113690132D02*
X105717473Y-113690132D01*
X105946044Y-113690132D02*
X105946044Y-112890132D01*
X105869854Y-113004418D01*
X105793663Y-113080608D01*
X105717473Y-113118704D01*
%TO.C,RST1*%
X94737644Y-71021894D02*
X94404311Y-71255228D01*
X94737644Y-71421894D02*
X94037644Y-71421894D01*
X94037644Y-71155228D01*
X94070978Y-71088561D01*
X94104311Y-71055228D01*
X94170978Y-71021894D01*
X94270978Y-71021894D01*
X94337644Y-71055228D01*
X94370978Y-71088561D01*
X94404311Y-71155228D01*
X94404311Y-71421894D01*
X94704311Y-70755228D02*
X94737644Y-70655228D01*
X94737644Y-70488561D01*
X94704311Y-70421894D01*
X94670978Y-70388561D01*
X94604311Y-70355228D01*
X94537644Y-70355228D01*
X94470978Y-70388561D01*
X94437644Y-70421894D01*
X94404311Y-70488561D01*
X94370978Y-70621894D01*
X94337644Y-70688561D01*
X94304311Y-70721894D01*
X94237644Y-70755228D01*
X94170978Y-70755228D01*
X94104311Y-70721894D01*
X94070978Y-70688561D01*
X94037644Y-70621894D01*
X94037644Y-70455228D01*
X94070978Y-70355228D01*
X94037644Y-70155228D02*
X94037644Y-69755228D01*
X94737644Y-69955228D02*
X94037644Y-69955228D01*
X94737644Y-69155228D02*
X94737644Y-69555228D01*
X94737644Y-69355228D02*
X94037644Y-69355228D01*
X94137644Y-69421894D01*
X94204311Y-69488561D01*
X94237644Y-69555228D01*
%TO.C,D8*%
X198808302Y-89977996D02*
X198008302Y-89977996D01*
X198008302Y-89787520D01*
X198046398Y-89673234D01*
X198122588Y-89597043D01*
X198198778Y-89558948D01*
X198351159Y-89520853D01*
X198465445Y-89520853D01*
X198617826Y-89558948D01*
X198694017Y-89597043D01*
X198770207Y-89673234D01*
X198808302Y-89787520D01*
X198808302Y-89977996D01*
X198351159Y-89063710D02*
X198313064Y-89139900D01*
X198274969Y-89177996D01*
X198198778Y-89216091D01*
X198160683Y-89216091D01*
X198084493Y-89177996D01*
X198046398Y-89139900D01*
X198008302Y-89063710D01*
X198008302Y-88911329D01*
X198046398Y-88835139D01*
X198084493Y-88797043D01*
X198160683Y-88758948D01*
X198198778Y-88758948D01*
X198274969Y-88797043D01*
X198313064Y-88835139D01*
X198351159Y-88911329D01*
X198351159Y-89063710D01*
X198389255Y-89139900D01*
X198427350Y-89177996D01*
X198503540Y-89216091D01*
X198655921Y-89216091D01*
X198732112Y-89177996D01*
X198770207Y-89139900D01*
X198808302Y-89063710D01*
X198808302Y-88911329D01*
X198770207Y-88835139D01*
X198732112Y-88797043D01*
X198655921Y-88758948D01*
X198503540Y-88758948D01*
X198427350Y-88797043D01*
X198389255Y-88835139D01*
X198351159Y-88911329D01*
%TO.C,D28*%
X122580127Y-103121696D02*
X121780127Y-103121696D01*
X121780127Y-102931220D01*
X121818223Y-102816934D01*
X121894413Y-102740744D01*
X121970603Y-102702648D01*
X122122984Y-102664553D01*
X122237270Y-102664553D01*
X122389651Y-102702648D01*
X122465842Y-102740744D01*
X122542032Y-102816934D01*
X122580127Y-102931220D01*
X122580127Y-103121696D01*
X121856318Y-102359791D02*
X121818223Y-102321696D01*
X121780127Y-102245506D01*
X121780127Y-102055029D01*
X121818223Y-101978839D01*
X121856318Y-101940744D01*
X121932508Y-101902648D01*
X122008699Y-101902648D01*
X122122984Y-101940744D01*
X122580127Y-102397887D01*
X122580127Y-101902648D01*
X122122984Y-101445506D02*
X122084889Y-101521696D01*
X122046794Y-101559791D01*
X121970603Y-101597887D01*
X121932508Y-101597887D01*
X121856318Y-101559791D01*
X121818223Y-101521696D01*
X121780127Y-101445506D01*
X121780127Y-101293125D01*
X121818223Y-101216934D01*
X121856318Y-101178839D01*
X121932508Y-101140744D01*
X121970603Y-101140744D01*
X122046794Y-101178839D01*
X122084889Y-101216934D01*
X122122984Y-101293125D01*
X122122984Y-101445506D01*
X122161080Y-101521696D01*
X122199175Y-101559791D01*
X122275365Y-101597887D01*
X122427746Y-101597887D01*
X122503937Y-101559791D01*
X122542032Y-101521696D01*
X122580127Y-101445506D01*
X122580127Y-101293125D01*
X122542032Y-101216934D01*
X122503937Y-101178839D01*
X122427746Y-101140744D01*
X122275365Y-101140744D01*
X122199175Y-101178839D01*
X122161080Y-101216934D01*
X122122984Y-101293125D01*
%TO.C,D27*%
X122487960Y-84267916D02*
X121687960Y-84267916D01*
X121687960Y-84077440D01*
X121726056Y-83963154D01*
X121802246Y-83886964D01*
X121878436Y-83848868D01*
X122030817Y-83810773D01*
X122145103Y-83810773D01*
X122297484Y-83848868D01*
X122373675Y-83886964D01*
X122449865Y-83963154D01*
X122487960Y-84077440D01*
X122487960Y-84267916D01*
X121764151Y-83506011D02*
X121726056Y-83467916D01*
X121687960Y-83391726D01*
X121687960Y-83201249D01*
X121726056Y-83125059D01*
X121764151Y-83086964D01*
X121840341Y-83048868D01*
X121916532Y-83048868D01*
X122030817Y-83086964D01*
X122487960Y-83544107D01*
X122487960Y-83048868D01*
X121687960Y-82782202D02*
X121687960Y-82248868D01*
X122487960Y-82591726D01*
%TO.C,D26*%
X129898549Y-66877933D02*
X129898549Y-66077933D01*
X130089025Y-66077933D01*
X130203311Y-66116029D01*
X130279501Y-66192219D01*
X130317597Y-66268409D01*
X130355692Y-66420790D01*
X130355692Y-66535076D01*
X130317597Y-66687457D01*
X130279501Y-66763648D01*
X130203311Y-66839838D01*
X130089025Y-66877933D01*
X129898549Y-66877933D01*
X130660454Y-66154124D02*
X130698549Y-66116029D01*
X130774739Y-66077933D01*
X130965216Y-66077933D01*
X131041406Y-66116029D01*
X131079501Y-66154124D01*
X131117597Y-66230314D01*
X131117597Y-66306505D01*
X131079501Y-66420790D01*
X130622358Y-66877933D01*
X131117597Y-66877933D01*
X131803311Y-66077933D02*
X131650930Y-66077933D01*
X131574739Y-66116029D01*
X131536644Y-66154124D01*
X131460454Y-66268409D01*
X131422358Y-66420790D01*
X131422358Y-66725552D01*
X131460454Y-66801743D01*
X131498549Y-66839838D01*
X131574739Y-66877933D01*
X131727120Y-66877933D01*
X131803311Y-66839838D01*
X131841406Y-66801743D01*
X131879501Y-66725552D01*
X131879501Y-66535076D01*
X131841406Y-66458886D01*
X131803311Y-66420790D01*
X131727120Y-66382695D01*
X131574739Y-66382695D01*
X131498549Y-66420790D01*
X131460454Y-66458886D01*
X131422358Y-66535076D01*
%TO.C,D24*%
X141592490Y-101713216D02*
X140792490Y-101713216D01*
X140792490Y-101522740D01*
X140830586Y-101408454D01*
X140906776Y-101332264D01*
X140982966Y-101294168D01*
X141135347Y-101256073D01*
X141249633Y-101256073D01*
X141402014Y-101294168D01*
X141478205Y-101332264D01*
X141554395Y-101408454D01*
X141592490Y-101522740D01*
X141592490Y-101713216D01*
X140868681Y-100951311D02*
X140830586Y-100913216D01*
X140792490Y-100837026D01*
X140792490Y-100646549D01*
X140830586Y-100570359D01*
X140868681Y-100532264D01*
X140944871Y-100494168D01*
X141021062Y-100494168D01*
X141135347Y-100532264D01*
X141592490Y-100989407D01*
X141592490Y-100494168D01*
X141059157Y-99808454D02*
X141592490Y-99808454D01*
X140754395Y-99998930D02*
X141325824Y-100189407D01*
X141325824Y-99694168D01*
%TO.C,D23*%
X141754229Y-82636296D02*
X140954229Y-82636296D01*
X140954229Y-82445820D01*
X140992325Y-82331534D01*
X141068515Y-82255344D01*
X141144705Y-82217248D01*
X141297086Y-82179153D01*
X141411372Y-82179153D01*
X141563753Y-82217248D01*
X141639944Y-82255344D01*
X141716134Y-82331534D01*
X141754229Y-82445820D01*
X141754229Y-82636296D01*
X141030420Y-81874391D02*
X140992325Y-81836296D01*
X140954229Y-81760106D01*
X140954229Y-81569629D01*
X140992325Y-81493439D01*
X141030420Y-81455344D01*
X141106610Y-81417248D01*
X141182801Y-81417248D01*
X141297086Y-81455344D01*
X141754229Y-81912487D01*
X141754229Y-81417248D01*
X140954229Y-81150582D02*
X140954229Y-80655344D01*
X141258991Y-80922010D01*
X141258991Y-80807725D01*
X141297086Y-80731534D01*
X141335182Y-80693439D01*
X141411372Y-80655344D01*
X141601848Y-80655344D01*
X141678039Y-80693439D01*
X141716134Y-80731534D01*
X141754229Y-80807725D01*
X141754229Y-81036296D01*
X141716134Y-81112487D01*
X141678039Y-81150582D01*
%TO.C,D22*%
X141602273Y-63281212D02*
X140802273Y-63281212D01*
X140802273Y-63090736D01*
X140840369Y-62976450D01*
X140916559Y-62900260D01*
X140992749Y-62862164D01*
X141145130Y-62824069D01*
X141259416Y-62824069D01*
X141411797Y-62862164D01*
X141487988Y-62900260D01*
X141564178Y-62976450D01*
X141602273Y-63090736D01*
X141602273Y-63281212D01*
X140878464Y-62519307D02*
X140840369Y-62481212D01*
X140802273Y-62405022D01*
X140802273Y-62214545D01*
X140840369Y-62138355D01*
X140878464Y-62100260D01*
X140954654Y-62062164D01*
X141030845Y-62062164D01*
X141145130Y-62100260D01*
X141602273Y-62557403D01*
X141602273Y-62062164D01*
X140878464Y-61757403D02*
X140840369Y-61719307D01*
X140802273Y-61643117D01*
X140802273Y-61452641D01*
X140840369Y-61376450D01*
X140878464Y-61338355D01*
X140954654Y-61300260D01*
X141030845Y-61300260D01*
X141145130Y-61338355D01*
X141602273Y-61795498D01*
X141602273Y-61300260D01*
%TO.C,D19*%
X160777284Y-95841043D02*
X159977284Y-95841043D01*
X159977284Y-95650567D01*
X160015380Y-95536281D01*
X160091570Y-95460091D01*
X160167760Y-95421995D01*
X160320141Y-95383900D01*
X160434427Y-95383900D01*
X160586808Y-95421995D01*
X160662999Y-95460091D01*
X160739189Y-95536281D01*
X160777284Y-95650567D01*
X160777284Y-95841043D01*
X160777284Y-94621995D02*
X160777284Y-95079138D01*
X160777284Y-94850567D02*
X159977284Y-94850567D01*
X160091570Y-94926757D01*
X160167760Y-95002948D01*
X160205856Y-95079138D01*
X160777284Y-94241043D02*
X160777284Y-94088662D01*
X160739189Y-94012472D01*
X160701094Y-93974376D01*
X160586808Y-93898186D01*
X160434427Y-93860091D01*
X160129665Y-93860091D01*
X160053475Y-93898186D01*
X160015380Y-93936281D01*
X159977284Y-94012472D01*
X159977284Y-94164853D01*
X160015380Y-94241043D01*
X160053475Y-94279138D01*
X160129665Y-94317234D01*
X160320141Y-94317234D01*
X160396332Y-94279138D01*
X160434427Y-94241043D01*
X160472522Y-94164853D01*
X160472522Y-94012472D01*
X160434427Y-93936281D01*
X160396332Y-93898186D01*
X160320141Y-93860091D01*
%TO.C,D18*%
X160571882Y-76736054D02*
X159771882Y-76736054D01*
X159771882Y-76545578D01*
X159809978Y-76431292D01*
X159886168Y-76355102D01*
X159962358Y-76317006D01*
X160114739Y-76278911D01*
X160229025Y-76278911D01*
X160381406Y-76317006D01*
X160457597Y-76355102D01*
X160533787Y-76431292D01*
X160571882Y-76545578D01*
X160571882Y-76736054D01*
X160571882Y-75517006D02*
X160571882Y-75974149D01*
X160571882Y-75745578D02*
X159771882Y-75745578D01*
X159886168Y-75821768D01*
X159962358Y-75897959D01*
X160000454Y-75974149D01*
X160114739Y-75059864D02*
X160076644Y-75136054D01*
X160038549Y-75174149D01*
X159962358Y-75212245D01*
X159924263Y-75212245D01*
X159848073Y-75174149D01*
X159809978Y-75136054D01*
X159771882Y-75059864D01*
X159771882Y-74907483D01*
X159809978Y-74831292D01*
X159848073Y-74793197D01*
X159924263Y-74755102D01*
X159962358Y-74755102D01*
X160038549Y-74793197D01*
X160076644Y-74831292D01*
X160114739Y-74907483D01*
X160114739Y-75059864D01*
X160152835Y-75136054D01*
X160190930Y-75174149D01*
X160267120Y-75212245D01*
X160419501Y-75212245D01*
X160495692Y-75174149D01*
X160533787Y-75136054D01*
X160571882Y-75059864D01*
X160571882Y-74907483D01*
X160533787Y-74831292D01*
X160495692Y-74793197D01*
X160419501Y-74755102D01*
X160267120Y-74755102D01*
X160190930Y-74793197D01*
X160152835Y-74831292D01*
X160114739Y-74907483D01*
%TO.C,D17*%
X160571880Y-60099057D02*
X159771880Y-60099057D01*
X159771880Y-59908581D01*
X159809976Y-59794295D01*
X159886166Y-59718105D01*
X159962356Y-59680009D01*
X160114737Y-59641914D01*
X160229023Y-59641914D01*
X160381404Y-59680009D01*
X160457595Y-59718105D01*
X160533785Y-59794295D01*
X160571880Y-59908581D01*
X160571880Y-60099057D01*
X160571880Y-58880009D02*
X160571880Y-59337152D01*
X160571880Y-59108581D02*
X159771880Y-59108581D01*
X159886166Y-59184771D01*
X159962356Y-59260962D01*
X160000452Y-59337152D01*
X159771880Y-58613343D02*
X159771880Y-58080009D01*
X160571880Y-58422867D01*
%TO.C,D14*%
X179701291Y-99307015D02*
X178901291Y-99307015D01*
X178901291Y-99116539D01*
X178939387Y-99002253D01*
X179015577Y-98926063D01*
X179091767Y-98887967D01*
X179244148Y-98849872D01*
X179358434Y-98849872D01*
X179510815Y-98887967D01*
X179587006Y-98926063D01*
X179663196Y-99002253D01*
X179701291Y-99116539D01*
X179701291Y-99307015D01*
X179701291Y-98087967D02*
X179701291Y-98545110D01*
X179701291Y-98316539D02*
X178901291Y-98316539D01*
X179015577Y-98392729D01*
X179091767Y-98468920D01*
X179129863Y-98545110D01*
X179167958Y-97402253D02*
X179701291Y-97402253D01*
X178863196Y-97592729D02*
X179434625Y-97783206D01*
X179434625Y-97287967D01*
%TO.C,D13*%
X179730445Y-80000455D02*
X178930445Y-80000455D01*
X178930445Y-79809979D01*
X178968541Y-79695693D01*
X179044731Y-79619503D01*
X179120921Y-79581407D01*
X179273302Y-79543312D01*
X179387588Y-79543312D01*
X179539969Y-79581407D01*
X179616160Y-79619503D01*
X179692350Y-79695693D01*
X179730445Y-79809979D01*
X179730445Y-80000455D01*
X179730445Y-78781407D02*
X179730445Y-79238550D01*
X179730445Y-79009979D02*
X178930445Y-79009979D01*
X179044731Y-79086169D01*
X179120921Y-79162360D01*
X179159017Y-79238550D01*
X178930445Y-78514741D02*
X178930445Y-78019503D01*
X179235207Y-78286169D01*
X179235207Y-78171884D01*
X179273302Y-78095693D01*
X179311398Y-78057598D01*
X179387588Y-78019503D01*
X179578064Y-78019503D01*
X179654255Y-78057598D01*
X179692350Y-78095693D01*
X179730445Y-78171884D01*
X179730445Y-78400455D01*
X179692350Y-78476646D01*
X179654255Y-78514741D01*
%TO.C,D12*%
X179730445Y-60657857D02*
X178930445Y-60657857D01*
X178930445Y-60467381D01*
X178968541Y-60353095D01*
X179044731Y-60276905D01*
X179120921Y-60238809D01*
X179273302Y-60200714D01*
X179387588Y-60200714D01*
X179539969Y-60238809D01*
X179616160Y-60276905D01*
X179692350Y-60353095D01*
X179730445Y-60467381D01*
X179730445Y-60657857D01*
X179730445Y-59438809D02*
X179730445Y-59895952D01*
X179730445Y-59667381D02*
X178930445Y-59667381D01*
X179044731Y-59743571D01*
X179120921Y-59819762D01*
X179159017Y-59895952D01*
X179006636Y-59134048D02*
X178968541Y-59095952D01*
X178930445Y-59019762D01*
X178930445Y-58829286D01*
X178968541Y-58753095D01*
X179006636Y-58715000D01*
X179082826Y-58676905D01*
X179159017Y-58676905D01*
X179273302Y-58715000D01*
X179730445Y-59172143D01*
X179730445Y-58676905D01*
%TO.C,D9*%
X198808301Y-109012895D02*
X198008301Y-109012895D01*
X198008301Y-108822419D01*
X198046397Y-108708133D01*
X198122587Y-108631942D01*
X198198777Y-108593847D01*
X198351158Y-108555752D01*
X198465444Y-108555752D01*
X198617825Y-108593847D01*
X198694016Y-108631942D01*
X198770206Y-108708133D01*
X198808301Y-108822419D01*
X198808301Y-109012895D01*
X198808301Y-108174799D02*
X198808301Y-108022419D01*
X198770206Y-107946228D01*
X198732111Y-107908133D01*
X198617825Y-107831942D01*
X198465444Y-107793847D01*
X198160682Y-107793847D01*
X198084492Y-107831942D01*
X198046397Y-107870038D01*
X198008301Y-107946228D01*
X198008301Y-108098609D01*
X198046397Y-108174799D01*
X198084492Y-108212895D01*
X198160682Y-108250990D01*
X198351158Y-108250990D01*
X198427349Y-108212895D01*
X198465444Y-108174799D01*
X198503539Y-108098609D01*
X198503539Y-107946228D01*
X198465444Y-107870038D01*
X198427349Y-107831942D01*
X198351158Y-107793847D01*
%TO.C,D7*%
X198808302Y-73673576D02*
X198008302Y-73673576D01*
X198008302Y-73483100D01*
X198046398Y-73368814D01*
X198122588Y-73292623D01*
X198198778Y-73254528D01*
X198351159Y-73216433D01*
X198465445Y-73216433D01*
X198617826Y-73254528D01*
X198694017Y-73292623D01*
X198770207Y-73368814D01*
X198808302Y-73483100D01*
X198808302Y-73673576D01*
X198008302Y-72949766D02*
X198008302Y-72416433D01*
X198808302Y-72759290D01*
%TO.C,J3*%
X113797872Y-85383160D02*
X114378443Y-85383160D01*
X114494557Y-85421865D01*
X114571967Y-85499274D01*
X114610672Y-85615388D01*
X114610672Y-85692798D01*
X113797872Y-85073522D02*
X113797872Y-84570360D01*
X114107510Y-84841293D01*
X114107510Y-84725179D01*
X114146215Y-84647769D01*
X114184919Y-84609065D01*
X114262329Y-84570360D01*
X114455853Y-84570360D01*
X114533262Y-84609065D01*
X114571967Y-84647769D01*
X114610672Y-84725179D01*
X114610672Y-84957407D01*
X114571967Y-85034817D01*
X114533262Y-85073522D01*
%TD*%
M02*
