%TF.GenerationSoftware,KiCad,Pcbnew,(5.1.7)-1*%
%TF.CreationDate,2021-07-11T14:26:08+05:30*%
%TF.ProjectId,Pankh,50616e6b-682e-46b6-9963-61645f706362,rev?*%
%TF.SameCoordinates,Original*%
%TF.FileFunction,Legend,Bot*%
%TF.FilePolarity,Positive*%
%FSLAX46Y46*%
G04 Gerber Fmt 4.6, Leading zero omitted, Abs format (unit mm)*
G04 Created by KiCad (PCBNEW (5.1.7)-1) date 2021-07-11 14:26:08*
%MOMM*%
%LPD*%
G01*
G04 APERTURE LIST*
%ADD10C,0.125000*%
%ADD11C,0.010000*%
%ADD12C,0.150000*%
%ADD13C,0.120000*%
%ADD14C,0.203200*%
%ADD15C,0.066040*%
G04 APERTURE END LIST*
D10*
X124412787Y-68023893D02*
X123912787Y-67857227D01*
X124412787Y-67690560D01*
X123960406Y-67238179D02*
X123936597Y-67261988D01*
X123912787Y-67333417D01*
X123912787Y-67381036D01*
X123936597Y-67452465D01*
X123984216Y-67500084D01*
X124031835Y-67523893D01*
X124127073Y-67547703D01*
X124198501Y-67547703D01*
X124293739Y-67523893D01*
X124341358Y-67500084D01*
X124388978Y-67452465D01*
X124412787Y-67381036D01*
X124412787Y-67333417D01*
X124388978Y-67261988D01*
X124365168Y-67238179D01*
X123960406Y-66738179D02*
X123936597Y-66761988D01*
X123912787Y-66833417D01*
X123912787Y-66881036D01*
X123936597Y-66952465D01*
X123984216Y-67000084D01*
X124031835Y-67023893D01*
X124127073Y-67047703D01*
X124198501Y-67047703D01*
X124293739Y-67023893D01*
X124341358Y-67000084D01*
X124388978Y-66952465D01*
X124412787Y-66881036D01*
X124412787Y-66833417D01*
X124388978Y-66761988D01*
X124365168Y-66738179D01*
X123785786Y-65392607D02*
X124285786Y-65392607D01*
X124285786Y-65202131D01*
X124261977Y-65154512D01*
X124238167Y-65130703D01*
X124190548Y-65106893D01*
X124119119Y-65106893D01*
X124071500Y-65130703D01*
X124047691Y-65154512D01*
X124023881Y-65202131D01*
X124023881Y-65392607D01*
X124285786Y-64940227D02*
X123785786Y-64821179D01*
X124142929Y-64725941D01*
X123785786Y-64630703D01*
X124285786Y-64511655D01*
X123785786Y-64321179D02*
X124285786Y-64321179D01*
X123928643Y-64154512D01*
X124285786Y-63987846D01*
X123785786Y-63987846D01*
X124261979Y-62912180D02*
X124285788Y-62959799D01*
X124285788Y-63031228D01*
X124261979Y-63102656D01*
X124214359Y-63150275D01*
X124166740Y-63174085D01*
X124071502Y-63197894D01*
X124000074Y-63197894D01*
X123904836Y-63174085D01*
X123857217Y-63150275D01*
X123809598Y-63102656D01*
X123785788Y-63031228D01*
X123785788Y-62983608D01*
X123809598Y-62912180D01*
X123833407Y-62888370D01*
X124000074Y-62888370D01*
X124000074Y-62983608D01*
X123785788Y-62674085D02*
X124285788Y-62674085D01*
X123785788Y-62388370D01*
X124285788Y-62388370D01*
X123785788Y-62150275D02*
X124285788Y-62150275D01*
X124285788Y-62031228D01*
X124261979Y-61959799D01*
X124214359Y-61912180D01*
X124166740Y-61888370D01*
X124071502Y-61864561D01*
X124000074Y-61864561D01*
X123904836Y-61888370D01*
X123857217Y-61912180D01*
X123809598Y-61959799D01*
X123785788Y-62031228D01*
X123785788Y-62150275D01*
X112935118Y-88514608D02*
X112863690Y-88538418D01*
X112744642Y-88538418D01*
X112697023Y-88514608D01*
X112673214Y-88490799D01*
X112649404Y-88443180D01*
X112649404Y-88395561D01*
X112673214Y-88347942D01*
X112697023Y-88324132D01*
X112744642Y-88300323D01*
X112839880Y-88276513D01*
X112887499Y-88252704D01*
X112911309Y-88228894D01*
X112935118Y-88181275D01*
X112935118Y-88133656D01*
X112911309Y-88086037D01*
X112887499Y-88062228D01*
X112839880Y-88038418D01*
X112720833Y-88038418D01*
X112649404Y-88062228D01*
X112435118Y-88538418D02*
X112435118Y-88038418D01*
X112316071Y-88038418D01*
X112244642Y-88062228D01*
X112197023Y-88109847D01*
X112173214Y-88157466D01*
X112149404Y-88252704D01*
X112149404Y-88324132D01*
X112173214Y-88419370D01*
X112197023Y-88466989D01*
X112244642Y-88514608D01*
X112316071Y-88538418D01*
X112435118Y-88538418D01*
X111958928Y-88395561D02*
X111720833Y-88395561D01*
X112006547Y-88538418D02*
X111839880Y-88038418D01*
X111673214Y-88538418D01*
D11*
%TO.C,LOGO2*%
G36*
X176618831Y-55892969D02*
G01*
X176094080Y-55991405D01*
X175599709Y-56204633D01*
X175368865Y-56334446D01*
X174552710Y-56964618D01*
X174036937Y-57731688D01*
X173814353Y-58653659D01*
X173877764Y-59748529D01*
X173918570Y-59963311D01*
X174270580Y-60909638D01*
X174861689Y-61660200D01*
X175640268Y-62192934D01*
X176554689Y-62485777D01*
X177553321Y-62516665D01*
X178584537Y-62263534D01*
X178936064Y-62107522D01*
X179792382Y-61517053D01*
X180397115Y-60762010D01*
X180746873Y-59900415D01*
X180838266Y-58990288D01*
X180667904Y-58089649D01*
X180232397Y-57256519D01*
X179528356Y-56548919D01*
X179271052Y-56373980D01*
X178751504Y-56090927D01*
X178259948Y-55939278D01*
X177644722Y-55879982D01*
X177326746Y-55873345D01*
X176618831Y-55892969D01*
G37*
X176618831Y-55892969D02*
X176094080Y-55991405D01*
X175599709Y-56204633D01*
X175368865Y-56334446D01*
X174552710Y-56964618D01*
X174036937Y-57731688D01*
X173814353Y-58653659D01*
X173877764Y-59748529D01*
X173918570Y-59963311D01*
X174270580Y-60909638D01*
X174861689Y-61660200D01*
X175640268Y-62192934D01*
X176554689Y-62485777D01*
X177553321Y-62516665D01*
X178584537Y-62263534D01*
X178936064Y-62107522D01*
X179792382Y-61517053D01*
X180397115Y-60762010D01*
X180746873Y-59900415D01*
X180838266Y-58990288D01*
X180667904Y-58089649D01*
X180232397Y-57256519D01*
X179528356Y-56548919D01*
X179271052Y-56373980D01*
X178751504Y-56090927D01*
X178259948Y-55939278D01*
X177644722Y-55879982D01*
X177326746Y-55873345D01*
X176618831Y-55892969D01*
G36*
X109487668Y-73247058D02*
G01*
X109534125Y-74031069D01*
X109582209Y-74698698D01*
X109625776Y-75172105D01*
X109654692Y-75363724D01*
X109764827Y-75440302D01*
X110063689Y-75497586D01*
X110584362Y-75537602D01*
X111359928Y-75562375D01*
X112423470Y-75573932D01*
X113111949Y-75575391D01*
X116503930Y-75575391D01*
X116515133Y-76041058D01*
X116529256Y-76287899D01*
X116566211Y-76842624D01*
X116623868Y-77675370D01*
X116700093Y-78756275D01*
X116792753Y-80055478D01*
X116899718Y-81543117D01*
X117018854Y-83189329D01*
X117148028Y-84964253D01*
X117285109Y-86838027D01*
X117322248Y-87344058D01*
X117508994Y-89926466D01*
X117665684Y-92180255D01*
X117792808Y-94114091D01*
X117890854Y-95736640D01*
X117960310Y-97056569D01*
X118001666Y-98082544D01*
X118015411Y-98823233D01*
X118002031Y-99287302D01*
X117998055Y-99330369D01*
X117680996Y-100768155D01*
X117047390Y-102103898D01*
X116108468Y-103320733D01*
X114875462Y-104401795D01*
X114403344Y-104727570D01*
X113950059Y-105038937D01*
X113673882Y-105262136D01*
X113626280Y-105354798D01*
X113641344Y-105354889D01*
X113930191Y-105323080D01*
X114432825Y-105264603D01*
X114895263Y-105209523D01*
X116745583Y-104830046D01*
X118473472Y-104144072D01*
X119796066Y-103364057D01*
X120404190Y-102884792D01*
X121086497Y-102245228D01*
X121749162Y-101543014D01*
X122298360Y-100875794D01*
X122564344Y-100483044D01*
X122740965Y-100180728D01*
X122892029Y-99902368D01*
X123017751Y-99621610D01*
X123118352Y-99312103D01*
X123194048Y-98947494D01*
X123245057Y-98501430D01*
X123271598Y-97947559D01*
X123273888Y-97259527D01*
X123252145Y-96410983D01*
X123206587Y-95375574D01*
X123137433Y-94126948D01*
X123044900Y-92638751D01*
X122929205Y-90884631D01*
X122790568Y-88838235D01*
X122674694Y-87140169D01*
X122545237Y-85238959D01*
X122422819Y-83433188D01*
X122309377Y-81751941D01*
X122206847Y-80224301D01*
X122117167Y-78879352D01*
X122042273Y-77746179D01*
X121984103Y-76853865D01*
X121944592Y-76231494D01*
X121925678Y-75908149D01*
X121924284Y-75871724D01*
X121939371Y-75810136D01*
X122002110Y-75757698D01*
X122137585Y-75713678D01*
X122370880Y-75677345D01*
X122727080Y-75647966D01*
X123231269Y-75624810D01*
X123908531Y-75607143D01*
X124783949Y-75594234D01*
X125882608Y-75585352D01*
X127229593Y-75579762D01*
X128849986Y-75576735D01*
X130768873Y-75575536D01*
X132077381Y-75575391D01*
X142232166Y-75575391D01*
X143761381Y-73550298D01*
X144295396Y-72837324D01*
X144748136Y-72221814D01*
X145083967Y-71753090D01*
X145267260Y-71480470D01*
X145290597Y-71433631D01*
X145124933Y-71421212D01*
X144642621Y-71409289D01*
X143865677Y-71397974D01*
X142816120Y-71387381D01*
X141515968Y-71377620D01*
X139987237Y-71368805D01*
X138251946Y-71361048D01*
X136332112Y-71354461D01*
X134249753Y-71349156D01*
X132026886Y-71345246D01*
X129685530Y-71342843D01*
X127338258Y-71342058D01*
X109385919Y-71342058D01*
X109487668Y-73247058D01*
G37*
X109487668Y-73247058D02*
X109534125Y-74031069D01*
X109582209Y-74698698D01*
X109625776Y-75172105D01*
X109654692Y-75363724D01*
X109764827Y-75440302D01*
X110063689Y-75497586D01*
X110584362Y-75537602D01*
X111359928Y-75562375D01*
X112423470Y-75573932D01*
X113111949Y-75575391D01*
X116503930Y-75575391D01*
X116515133Y-76041058D01*
X116529256Y-76287899D01*
X116566211Y-76842624D01*
X116623868Y-77675370D01*
X116700093Y-78756275D01*
X116792753Y-80055478D01*
X116899718Y-81543117D01*
X117018854Y-83189329D01*
X117148028Y-84964253D01*
X117285109Y-86838027D01*
X117322248Y-87344058D01*
X117508994Y-89926466D01*
X117665684Y-92180255D01*
X117792808Y-94114091D01*
X117890854Y-95736640D01*
X117960310Y-97056569D01*
X118001666Y-98082544D01*
X118015411Y-98823233D01*
X118002031Y-99287302D01*
X117998055Y-99330369D01*
X117680996Y-100768155D01*
X117047390Y-102103898D01*
X116108468Y-103320733D01*
X114875462Y-104401795D01*
X114403344Y-104727570D01*
X113950059Y-105038937D01*
X113673882Y-105262136D01*
X113626280Y-105354798D01*
X113641344Y-105354889D01*
X113930191Y-105323080D01*
X114432825Y-105264603D01*
X114895263Y-105209523D01*
X116745583Y-104830046D01*
X118473472Y-104144072D01*
X119796066Y-103364057D01*
X120404190Y-102884792D01*
X121086497Y-102245228D01*
X121749162Y-101543014D01*
X122298360Y-100875794D01*
X122564344Y-100483044D01*
X122740965Y-100180728D01*
X122892029Y-99902368D01*
X123017751Y-99621610D01*
X123118352Y-99312103D01*
X123194048Y-98947494D01*
X123245057Y-98501430D01*
X123271598Y-97947559D01*
X123273888Y-97259527D01*
X123252145Y-96410983D01*
X123206587Y-95375574D01*
X123137433Y-94126948D01*
X123044900Y-92638751D01*
X122929205Y-90884631D01*
X122790568Y-88838235D01*
X122674694Y-87140169D01*
X122545237Y-85238959D01*
X122422819Y-83433188D01*
X122309377Y-81751941D01*
X122206847Y-80224301D01*
X122117167Y-78879352D01*
X122042273Y-77746179D01*
X121984103Y-76853865D01*
X121944592Y-76231494D01*
X121925678Y-75908149D01*
X121924284Y-75871724D01*
X121939371Y-75810136D01*
X122002110Y-75757698D01*
X122137585Y-75713678D01*
X122370880Y-75677345D01*
X122727080Y-75647966D01*
X123231269Y-75624810D01*
X123908531Y-75607143D01*
X124783949Y-75594234D01*
X125882608Y-75585352D01*
X127229593Y-75579762D01*
X128849986Y-75576735D01*
X130768873Y-75575536D01*
X132077381Y-75575391D01*
X142232166Y-75575391D01*
X143761381Y-73550298D01*
X144295396Y-72837324D01*
X144748136Y-72221814D01*
X145083967Y-71753090D01*
X145267260Y-71480470D01*
X145290597Y-71433631D01*
X145124933Y-71421212D01*
X144642621Y-71409289D01*
X143865677Y-71397974D01*
X142816120Y-71387381D01*
X141515968Y-71377620D01*
X139987237Y-71368805D01*
X138251946Y-71361048D01*
X136332112Y-71354461D01*
X134249753Y-71349156D01*
X132026886Y-71345246D01*
X129685530Y-71342843D01*
X127338258Y-71342058D01*
X109385919Y-71342058D01*
X109487668Y-73247058D01*
G36*
X155729271Y-70197130D02*
G01*
X153918356Y-70366919D01*
X152321038Y-70731707D01*
X150858891Y-71314986D01*
X149625327Y-72025295D01*
X148064283Y-73221368D01*
X146807015Y-74557804D01*
X145852331Y-76038267D01*
X145199042Y-77666419D01*
X144845956Y-79445924D01*
X144791883Y-81380444D01*
X145035632Y-83473643D01*
X145388809Y-85058058D01*
X145375335Y-85128189D01*
X145239918Y-84935430D01*
X145009996Y-84520831D01*
X144942412Y-84390163D01*
X144511018Y-83683291D01*
X143903767Y-82871074D01*
X143204887Y-82065083D01*
X143116748Y-81971867D01*
X141528181Y-80520007D01*
X139790485Y-79316002D01*
X137942565Y-78373869D01*
X136023326Y-77707624D01*
X134071672Y-77331283D01*
X132126507Y-77258862D01*
X130539376Y-77440630D01*
X129197031Y-77841420D01*
X127841642Y-78514513D01*
X126552422Y-79406354D01*
X125408582Y-80463385D01*
X124612437Y-81447901D01*
X124314613Y-81948740D01*
X124167509Y-82434372D01*
X124124347Y-83069480D01*
X124123930Y-83167649D01*
X124123930Y-84179555D01*
X124916095Y-84449473D01*
X125388915Y-84605595D01*
X125712247Y-84703062D01*
X125787118Y-84719391D01*
X125929159Y-84604894D01*
X126253515Y-84294607D01*
X126709309Y-83838334D01*
X127153953Y-83381361D01*
X127739592Y-82783701D01*
X128172806Y-82384522D01*
X128529896Y-82132542D01*
X128887159Y-81976481D01*
X129320897Y-81865059D01*
X129449965Y-81838221D01*
X130714013Y-81740850D01*
X132102563Y-81919797D01*
X133573282Y-82356662D01*
X135083836Y-83033041D01*
X136591889Y-83930533D01*
X138055107Y-85030736D01*
X139194597Y-86074058D01*
X140102829Y-87066320D01*
X140740272Y-87975088D01*
X141141351Y-88863638D01*
X141340487Y-89795245D01*
X141364063Y-90061852D01*
X141385070Y-90666837D01*
X141328619Y-91066109D01*
X141162891Y-91389533D01*
X140982393Y-91619534D01*
X140157983Y-92340987D01*
X139115000Y-92818896D01*
X137870366Y-93053103D01*
X136441005Y-93043452D01*
X134843837Y-92789785D01*
X133095785Y-92291944D01*
X131574597Y-91706920D01*
X129902593Y-90915177D01*
X128468030Y-90071656D01*
X127294486Y-89194577D01*
X126405542Y-88302155D01*
X125824778Y-87412610D01*
X125729976Y-87191427D01*
X125512043Y-86706339D01*
X125296575Y-86472959D01*
X125011643Y-86412724D01*
X124590699Y-86412724D01*
X124703572Y-89587724D01*
X124816446Y-92762724D01*
X125992273Y-93889051D01*
X127171111Y-94873202D01*
X128432993Y-95622743D01*
X128524054Y-95667051D01*
X129175358Y-95989631D01*
X129619882Y-96259585D01*
X129949619Y-96562566D01*
X130256559Y-96984224D01*
X130632696Y-97610212D01*
X130658403Y-97654303D01*
X131814593Y-99312518D01*
X133259699Y-100836247D01*
X134964192Y-102206274D01*
X136898540Y-103403381D01*
X139033215Y-104408354D01*
X141338686Y-105201976D01*
X142835263Y-105578228D01*
X143795280Y-105739594D01*
X144972956Y-105864566D01*
X146281094Y-105950704D01*
X147632494Y-105995573D01*
X148939957Y-105996736D01*
X150116285Y-105951754D01*
X151074278Y-105858191D01*
X151330647Y-105815667D01*
X153499179Y-105255604D01*
X155724185Y-104405495D01*
X157954516Y-103296407D01*
X160139024Y-101959404D01*
X162226561Y-100425552D01*
X164165978Y-98725918D01*
X165775735Y-97042216D01*
X167133165Y-95327978D01*
X168176732Y-93645209D01*
X168509216Y-92894674D01*
X161988991Y-92894674D01*
X161928618Y-93047161D01*
X161729307Y-93400457D01*
X161492434Y-93785302D01*
X159987156Y-95855071D01*
X158262862Y-97677052D01*
X156339593Y-99237886D01*
X154237387Y-100524212D01*
X151976283Y-101522671D01*
X149576321Y-102219902D01*
X148544266Y-102417657D01*
X147242231Y-102553700D01*
X145751407Y-102583851D01*
X144203380Y-102512008D01*
X142729738Y-102342072D01*
X142084872Y-102226275D01*
X140107769Y-101656662D01*
X138211157Y-100792270D01*
X136468358Y-99671131D01*
X135364913Y-98740465D01*
X134923882Y-98308223D01*
X134600185Y-97962134D01*
X134455675Y-97768867D01*
X134453263Y-97757813D01*
X134610701Y-97699803D01*
X135035859Y-97638253D01*
X135658006Y-97581682D01*
X136189517Y-97548748D01*
X138120432Y-97303199D01*
X139877693Y-96769435D01*
X141473726Y-95942206D01*
X142920957Y-94816261D01*
X143131821Y-94615577D01*
X143989700Y-93704529D01*
X144624385Y-92836590D01*
X145111703Y-91895868D01*
X145399809Y-91149102D01*
X145666966Y-90101661D01*
X145823884Y-88891399D01*
X145860080Y-87666428D01*
X145765072Y-86574861D01*
X145735018Y-86412724D01*
X145700854Y-86167221D01*
X145756474Y-86156488D01*
X145921893Y-86402735D01*
X146217125Y-86928171D01*
X146244025Y-86977554D01*
X147170981Y-88386134D01*
X148350264Y-89714642D01*
X149711409Y-90903755D01*
X151183950Y-91894152D01*
X152697421Y-92626514D01*
X153142495Y-92784955D01*
X154199064Y-93044078D01*
X155480502Y-93227559D01*
X156880519Y-93330686D01*
X158292828Y-93348745D01*
X159611141Y-93277022D01*
X160688488Y-93119569D01*
X161293268Y-92997526D01*
X161751280Y-92916780D01*
X161978689Y-92891830D01*
X161988991Y-92894674D01*
X168509216Y-92894674D01*
X168924370Y-91957528D01*
X169394016Y-90228560D01*
X169515777Y-89456868D01*
X169593804Y-88577242D01*
X169549386Y-87917327D01*
X169350367Y-87370425D01*
X168964591Y-86829837D01*
X168606427Y-86439549D01*
X168229097Y-86081768D01*
X167734848Y-85657575D01*
X167187009Y-85215512D01*
X166648908Y-84804120D01*
X166183872Y-84471942D01*
X165855229Y-84267521D01*
X165728163Y-84233298D01*
X165642846Y-84405348D01*
X165450098Y-84803322D01*
X165188468Y-85347555D01*
X165136152Y-85456744D01*
X164311183Y-86833520D01*
X163293051Y-87949639D01*
X162108547Y-88790860D01*
X160784460Y-89342944D01*
X159347581Y-89591651D01*
X157824698Y-89522741D01*
X157567263Y-89479902D01*
X156072565Y-89039345D01*
X154647778Y-88300723D01*
X153323741Y-87302376D01*
X152131288Y-86082643D01*
X151814140Y-85650724D01*
X145629263Y-85650724D01*
X145544597Y-85735391D01*
X145459930Y-85650724D01*
X145544597Y-85566058D01*
X145629263Y-85650724D01*
X151814140Y-85650724D01*
X151101258Y-84679864D01*
X150264486Y-83132379D01*
X149651810Y-81478528D01*
X149294065Y-79756649D01*
X149232984Y-79117731D01*
X149196116Y-78334396D01*
X149215639Y-77765375D01*
X149305780Y-77288951D01*
X149480767Y-76783405D01*
X149516151Y-76695225D01*
X150061691Y-75745083D01*
X150872351Y-74856938D01*
X151874725Y-74102524D01*
X152535004Y-73745135D01*
X153001005Y-73542312D01*
X153416430Y-73412685D01*
X153877424Y-73341777D01*
X154480128Y-73315109D01*
X155320685Y-73318202D01*
X155365930Y-73318813D01*
X157601992Y-73509637D01*
X159783241Y-74022129D01*
X161916962Y-74859665D01*
X164010442Y-76025620D01*
X166070966Y-77523372D01*
X167845800Y-79102147D01*
X169674597Y-80868993D01*
X169674597Y-75567576D01*
X172677242Y-75613817D01*
X175679888Y-75660058D01*
X176489124Y-87090058D01*
X176626041Y-89057554D01*
X176753188Y-90950468D01*
X176868763Y-92737679D01*
X176970965Y-94388067D01*
X177057994Y-95870511D01*
X177128048Y-97153891D01*
X177179327Y-98207086D01*
X177210030Y-98998975D01*
X177218356Y-99498439D01*
X177214233Y-99620691D01*
X177038930Y-100684419D01*
X176664514Y-101677323D01*
X176062955Y-102641673D01*
X175206223Y-103619743D01*
X174066290Y-104653805D01*
X173653930Y-104990021D01*
X172976597Y-105530901D01*
X174161930Y-105184220D01*
X176047189Y-104569806D01*
X177732689Y-103892545D01*
X179185076Y-103169351D01*
X180370999Y-102417137D01*
X181257104Y-101652816D01*
X181370372Y-101528775D01*
X181832064Y-100960993D01*
X182166134Y-100421838D01*
X182390952Y-99841132D01*
X182524887Y-99148697D01*
X182586309Y-98274355D01*
X182593585Y-97147928D01*
X182589906Y-96869665D01*
X182551214Y-94372606D01*
X183436572Y-94865634D01*
X184960379Y-95547612D01*
X186650307Y-96014755D01*
X188424371Y-96260142D01*
X190200589Y-96276850D01*
X191896980Y-96057958D01*
X193193610Y-95689432D01*
X194751587Y-94939962D01*
X196225394Y-93903194D01*
X197582524Y-92626533D01*
X198790465Y-91157385D01*
X199816711Y-89543154D01*
X200628751Y-87831246D01*
X200876407Y-87059274D01*
X196580633Y-87059274D01*
X196547865Y-87583567D01*
X196473909Y-88009917D01*
X196351884Y-88418355D01*
X196271416Y-88638965D01*
X195658897Y-89802553D01*
X194794028Y-90781087D01*
X193728918Y-91528367D01*
X192515677Y-91998193D01*
X192469797Y-92009373D01*
X191551042Y-92131785D01*
X190434148Y-92128117D01*
X189233965Y-92001649D01*
X188675125Y-91901000D01*
X187219266Y-91480809D01*
X185749849Y-90839990D01*
X184361031Y-90031428D01*
X183146970Y-89108008D01*
X182423125Y-88389457D01*
X182254617Y-88188745D01*
X182126588Y-87989212D01*
X182029542Y-87739027D01*
X181953985Y-87386362D01*
X181890420Y-86879389D01*
X181829352Y-86166279D01*
X181761284Y-85195202D01*
X181717962Y-84540556D01*
X181632148Y-83250839D01*
X181535706Y-81825155D01*
X181437611Y-80394723D01*
X181346839Y-79090762D01*
X181298769Y-78411724D01*
X181096213Y-75575391D01*
X193377015Y-75575391D01*
X193832375Y-76295058D01*
X194965275Y-78400682D01*
X195799489Y-80659923D01*
X196331088Y-83059627D01*
X196550122Y-85396724D01*
X196579092Y-86357004D01*
X196580633Y-87059274D01*
X200876407Y-87059274D01*
X201194077Y-86069066D01*
X201480179Y-84304020D01*
X201509264Y-83563377D01*
X201419779Y-82238022D01*
X201160966Y-80690267D01*
X200747283Y-78982171D01*
X200193190Y-77175793D01*
X199706424Y-75825722D01*
X199710373Y-75707978D01*
X199867356Y-75633172D01*
X200231391Y-75592375D01*
X200856499Y-75576660D01*
X201221134Y-75575391D01*
X202831906Y-75575391D01*
X202755966Y-74178391D01*
X202708243Y-73412712D01*
X202652216Y-72678409D01*
X202598968Y-72118771D01*
X202592269Y-72061724D01*
X202504512Y-71342058D01*
X169287537Y-71342058D01*
X169380929Y-72704618D01*
X169416532Y-73398670D01*
X169403876Y-73795828D01*
X169339662Y-73934870D01*
X169278126Y-73913021D01*
X167356691Y-72618495D01*
X165235788Y-71597655D01*
X162915427Y-70850506D01*
X160395618Y-70377050D01*
X157676372Y-70177290D01*
X155729271Y-70197130D01*
G37*
X155729271Y-70197130D02*
X153918356Y-70366919D01*
X152321038Y-70731707D01*
X150858891Y-71314986D01*
X149625327Y-72025295D01*
X148064283Y-73221368D01*
X146807015Y-74557804D01*
X145852331Y-76038267D01*
X145199042Y-77666419D01*
X144845956Y-79445924D01*
X144791883Y-81380444D01*
X145035632Y-83473643D01*
X145388809Y-85058058D01*
X145375335Y-85128189D01*
X145239918Y-84935430D01*
X145009996Y-84520831D01*
X144942412Y-84390163D01*
X144511018Y-83683291D01*
X143903767Y-82871074D01*
X143204887Y-82065083D01*
X143116748Y-81971867D01*
X141528181Y-80520007D01*
X139790485Y-79316002D01*
X137942565Y-78373869D01*
X136023326Y-77707624D01*
X134071672Y-77331283D01*
X132126507Y-77258862D01*
X130539376Y-77440630D01*
X129197031Y-77841420D01*
X127841642Y-78514513D01*
X126552422Y-79406354D01*
X125408582Y-80463385D01*
X124612437Y-81447901D01*
X124314613Y-81948740D01*
X124167509Y-82434372D01*
X124124347Y-83069480D01*
X124123930Y-83167649D01*
X124123930Y-84179555D01*
X124916095Y-84449473D01*
X125388915Y-84605595D01*
X125712247Y-84703062D01*
X125787118Y-84719391D01*
X125929159Y-84604894D01*
X126253515Y-84294607D01*
X126709309Y-83838334D01*
X127153953Y-83381361D01*
X127739592Y-82783701D01*
X128172806Y-82384522D01*
X128529896Y-82132542D01*
X128887159Y-81976481D01*
X129320897Y-81865059D01*
X129449965Y-81838221D01*
X130714013Y-81740850D01*
X132102563Y-81919797D01*
X133573282Y-82356662D01*
X135083836Y-83033041D01*
X136591889Y-83930533D01*
X138055107Y-85030736D01*
X139194597Y-86074058D01*
X140102829Y-87066320D01*
X140740272Y-87975088D01*
X141141351Y-88863638D01*
X141340487Y-89795245D01*
X141364063Y-90061852D01*
X141385070Y-90666837D01*
X141328619Y-91066109D01*
X141162891Y-91389533D01*
X140982393Y-91619534D01*
X140157983Y-92340987D01*
X139115000Y-92818896D01*
X137870366Y-93053103D01*
X136441005Y-93043452D01*
X134843837Y-92789785D01*
X133095785Y-92291944D01*
X131574597Y-91706920D01*
X129902593Y-90915177D01*
X128468030Y-90071656D01*
X127294486Y-89194577D01*
X126405542Y-88302155D01*
X125824778Y-87412610D01*
X125729976Y-87191427D01*
X125512043Y-86706339D01*
X125296575Y-86472959D01*
X125011643Y-86412724D01*
X124590699Y-86412724D01*
X124703572Y-89587724D01*
X124816446Y-92762724D01*
X125992273Y-93889051D01*
X127171111Y-94873202D01*
X128432993Y-95622743D01*
X128524054Y-95667051D01*
X129175358Y-95989631D01*
X129619882Y-96259585D01*
X129949619Y-96562566D01*
X130256559Y-96984224D01*
X130632696Y-97610212D01*
X130658403Y-97654303D01*
X131814593Y-99312518D01*
X133259699Y-100836247D01*
X134964192Y-102206274D01*
X136898540Y-103403381D01*
X139033215Y-104408354D01*
X141338686Y-105201976D01*
X142835263Y-105578228D01*
X143795280Y-105739594D01*
X144972956Y-105864566D01*
X146281094Y-105950704D01*
X147632494Y-105995573D01*
X148939957Y-105996736D01*
X150116285Y-105951754D01*
X151074278Y-105858191D01*
X151330647Y-105815667D01*
X153499179Y-105255604D01*
X155724185Y-104405495D01*
X157954516Y-103296407D01*
X160139024Y-101959404D01*
X162226561Y-100425552D01*
X164165978Y-98725918D01*
X165775735Y-97042216D01*
X167133165Y-95327978D01*
X168176732Y-93645209D01*
X168509216Y-92894674D01*
X161988991Y-92894674D01*
X161928618Y-93047161D01*
X161729307Y-93400457D01*
X161492434Y-93785302D01*
X159987156Y-95855071D01*
X158262862Y-97677052D01*
X156339593Y-99237886D01*
X154237387Y-100524212D01*
X151976283Y-101522671D01*
X149576321Y-102219902D01*
X148544266Y-102417657D01*
X147242231Y-102553700D01*
X145751407Y-102583851D01*
X144203380Y-102512008D01*
X142729738Y-102342072D01*
X142084872Y-102226275D01*
X140107769Y-101656662D01*
X138211157Y-100792270D01*
X136468358Y-99671131D01*
X135364913Y-98740465D01*
X134923882Y-98308223D01*
X134600185Y-97962134D01*
X134455675Y-97768867D01*
X134453263Y-97757813D01*
X134610701Y-97699803D01*
X135035859Y-97638253D01*
X135658006Y-97581682D01*
X136189517Y-97548748D01*
X138120432Y-97303199D01*
X139877693Y-96769435D01*
X141473726Y-95942206D01*
X142920957Y-94816261D01*
X143131821Y-94615577D01*
X143989700Y-93704529D01*
X144624385Y-92836590D01*
X145111703Y-91895868D01*
X145399809Y-91149102D01*
X145666966Y-90101661D01*
X145823884Y-88891399D01*
X145860080Y-87666428D01*
X145765072Y-86574861D01*
X145735018Y-86412724D01*
X145700854Y-86167221D01*
X145756474Y-86156488D01*
X145921893Y-86402735D01*
X146217125Y-86928171D01*
X146244025Y-86977554D01*
X147170981Y-88386134D01*
X148350264Y-89714642D01*
X149711409Y-90903755D01*
X151183950Y-91894152D01*
X152697421Y-92626514D01*
X153142495Y-92784955D01*
X154199064Y-93044078D01*
X155480502Y-93227559D01*
X156880519Y-93330686D01*
X158292828Y-93348745D01*
X159611141Y-93277022D01*
X160688488Y-93119569D01*
X161293268Y-92997526D01*
X161751280Y-92916780D01*
X161978689Y-92891830D01*
X161988991Y-92894674D01*
X168509216Y-92894674D01*
X168924370Y-91957528D01*
X169394016Y-90228560D01*
X169515777Y-89456868D01*
X169593804Y-88577242D01*
X169549386Y-87917327D01*
X169350367Y-87370425D01*
X168964591Y-86829837D01*
X168606427Y-86439549D01*
X168229097Y-86081768D01*
X167734848Y-85657575D01*
X167187009Y-85215512D01*
X166648908Y-84804120D01*
X166183872Y-84471942D01*
X165855229Y-84267521D01*
X165728163Y-84233298D01*
X165642846Y-84405348D01*
X165450098Y-84803322D01*
X165188468Y-85347555D01*
X165136152Y-85456744D01*
X164311183Y-86833520D01*
X163293051Y-87949639D01*
X162108547Y-88790860D01*
X160784460Y-89342944D01*
X159347581Y-89591651D01*
X157824698Y-89522741D01*
X157567263Y-89479902D01*
X156072565Y-89039345D01*
X154647778Y-88300723D01*
X153323741Y-87302376D01*
X152131288Y-86082643D01*
X151814140Y-85650724D01*
X145629263Y-85650724D01*
X145544597Y-85735391D01*
X145459930Y-85650724D01*
X145544597Y-85566058D01*
X145629263Y-85650724D01*
X151814140Y-85650724D01*
X151101258Y-84679864D01*
X150264486Y-83132379D01*
X149651810Y-81478528D01*
X149294065Y-79756649D01*
X149232984Y-79117731D01*
X149196116Y-78334396D01*
X149215639Y-77765375D01*
X149305780Y-77288951D01*
X149480767Y-76783405D01*
X149516151Y-76695225D01*
X150061691Y-75745083D01*
X150872351Y-74856938D01*
X151874725Y-74102524D01*
X152535004Y-73745135D01*
X153001005Y-73542312D01*
X153416430Y-73412685D01*
X153877424Y-73341777D01*
X154480128Y-73315109D01*
X155320685Y-73318202D01*
X155365930Y-73318813D01*
X157601992Y-73509637D01*
X159783241Y-74022129D01*
X161916962Y-74859665D01*
X164010442Y-76025620D01*
X166070966Y-77523372D01*
X167845800Y-79102147D01*
X169674597Y-80868993D01*
X169674597Y-75567576D01*
X172677242Y-75613817D01*
X175679888Y-75660058D01*
X176489124Y-87090058D01*
X176626041Y-89057554D01*
X176753188Y-90950468D01*
X176868763Y-92737679D01*
X176970965Y-94388067D01*
X177057994Y-95870511D01*
X177128048Y-97153891D01*
X177179327Y-98207086D01*
X177210030Y-98998975D01*
X177218356Y-99498439D01*
X177214233Y-99620691D01*
X177038930Y-100684419D01*
X176664514Y-101677323D01*
X176062955Y-102641673D01*
X175206223Y-103619743D01*
X174066290Y-104653805D01*
X173653930Y-104990021D01*
X172976597Y-105530901D01*
X174161930Y-105184220D01*
X176047189Y-104569806D01*
X177732689Y-103892545D01*
X179185076Y-103169351D01*
X180370999Y-102417137D01*
X181257104Y-101652816D01*
X181370372Y-101528775D01*
X181832064Y-100960993D01*
X182166134Y-100421838D01*
X182390952Y-99841132D01*
X182524887Y-99148697D01*
X182586309Y-98274355D01*
X182593585Y-97147928D01*
X182589906Y-96869665D01*
X182551214Y-94372606D01*
X183436572Y-94865634D01*
X184960379Y-95547612D01*
X186650307Y-96014755D01*
X188424371Y-96260142D01*
X190200589Y-96276850D01*
X191896980Y-96057958D01*
X193193610Y-95689432D01*
X194751587Y-94939962D01*
X196225394Y-93903194D01*
X197582524Y-92626533D01*
X198790465Y-91157385D01*
X199816711Y-89543154D01*
X200628751Y-87831246D01*
X200876407Y-87059274D01*
X196580633Y-87059274D01*
X196547865Y-87583567D01*
X196473909Y-88009917D01*
X196351884Y-88418355D01*
X196271416Y-88638965D01*
X195658897Y-89802553D01*
X194794028Y-90781087D01*
X193728918Y-91528367D01*
X192515677Y-91998193D01*
X192469797Y-92009373D01*
X191551042Y-92131785D01*
X190434148Y-92128117D01*
X189233965Y-92001649D01*
X188675125Y-91901000D01*
X187219266Y-91480809D01*
X185749849Y-90839990D01*
X184361031Y-90031428D01*
X183146970Y-89108008D01*
X182423125Y-88389457D01*
X182254617Y-88188745D01*
X182126588Y-87989212D01*
X182029542Y-87739027D01*
X181953985Y-87386362D01*
X181890420Y-86879389D01*
X181829352Y-86166279D01*
X181761284Y-85195202D01*
X181717962Y-84540556D01*
X181632148Y-83250839D01*
X181535706Y-81825155D01*
X181437611Y-80394723D01*
X181346839Y-79090762D01*
X181298769Y-78411724D01*
X181096213Y-75575391D01*
X193377015Y-75575391D01*
X193832375Y-76295058D01*
X194965275Y-78400682D01*
X195799489Y-80659923D01*
X196331088Y-83059627D01*
X196550122Y-85396724D01*
X196579092Y-86357004D01*
X196580633Y-87059274D01*
X200876407Y-87059274D01*
X201194077Y-86069066D01*
X201480179Y-84304020D01*
X201509264Y-83563377D01*
X201419779Y-82238022D01*
X201160966Y-80690267D01*
X200747283Y-78982171D01*
X200193190Y-77175793D01*
X199706424Y-75825722D01*
X199710373Y-75707978D01*
X199867356Y-75633172D01*
X200231391Y-75592375D01*
X200856499Y-75576660D01*
X201221134Y-75575391D01*
X202831906Y-75575391D01*
X202755966Y-74178391D01*
X202708243Y-73412712D01*
X202652216Y-72678409D01*
X202598968Y-72118771D01*
X202592269Y-72061724D01*
X202504512Y-71342058D01*
X169287537Y-71342058D01*
X169380929Y-72704618D01*
X169416532Y-73398670D01*
X169403876Y-73795828D01*
X169339662Y-73934870D01*
X169278126Y-73913021D01*
X167356691Y-72618495D01*
X165235788Y-71597655D01*
X162915427Y-70850506D01*
X160395618Y-70377050D01*
X157676372Y-70177290D01*
X155729271Y-70197130D01*
D12*
%TO.C,U1*%
X117357177Y-50732930D02*
X117357177Y-81212930D01*
X112277177Y-50732930D02*
X117357177Y-50732930D01*
X112277177Y-48192930D02*
X112277177Y-50732930D01*
X104657177Y-48192930D02*
X112277177Y-48192930D01*
X104657177Y-50732930D02*
X104657177Y-48192930D01*
X99577177Y-50732930D02*
X104657177Y-50732930D01*
X99577177Y-81212930D02*
X99577177Y-50732930D01*
X117357177Y-81212930D02*
X99577177Y-81212930D01*
%TO.C,J2*%
X91243977Y-50847227D02*
X97343977Y-50847227D01*
X91243977Y-62947227D02*
X97343977Y-62947227D01*
X91243977Y-50847227D02*
X91243977Y-62947227D01*
X97343977Y-50847227D02*
X97343977Y-62947227D01*
X91493977Y-50847227D02*
X91493977Y-48847227D01*
X97093977Y-50847227D02*
X97093977Y-48847227D01*
X91493977Y-48847227D02*
X97093977Y-48847227D01*
%TO.C,D_RE1*%
X102294978Y-115490228D02*
X102294978Y-113966228D01*
X106993978Y-113966228D02*
X106993978Y-115490228D01*
X106993978Y-115490228D02*
X101913978Y-115490228D01*
X106993978Y-115490228D02*
X106485978Y-115490228D01*
X102167978Y-113966228D02*
X102167978Y-115490228D01*
X102421978Y-113966228D02*
X102421978Y-115490228D01*
X101913978Y-115490228D02*
X101913978Y-113966228D01*
X101913978Y-113966228D02*
X106993978Y-113966228D01*
X102675978Y-115490228D02*
X102675978Y-113966228D01*
X102040978Y-115490228D02*
X102040978Y-113966228D01*
X102548978Y-115490228D02*
X102548978Y-113966228D01*
D13*
%TO.C,RST2*%
X95460978Y-67685228D02*
X93380978Y-67685228D01*
X91700978Y-71855228D02*
X92190978Y-72345228D01*
X95460978Y-73125228D02*
X93380978Y-73125228D01*
X91700978Y-68955228D02*
X92190978Y-68465228D01*
X91700978Y-68955228D02*
X91700978Y-71855228D01*
X97140978Y-68955228D02*
X96650978Y-68465228D01*
X97140978Y-68955228D02*
X97140978Y-71855228D01*
X97140978Y-71855228D02*
X96650978Y-72345228D01*
D14*
%TO.C,PWM_PAD2*%
X121217978Y-61007228D02*
X119947978Y-61007228D01*
X121217978Y-68627228D02*
X119947978Y-68627228D01*
D15*
%TO.C,PWM_PAD1*%
X120836978Y-67103228D02*
X120836978Y-67611228D01*
X120836978Y-67611228D02*
X120328978Y-67611228D01*
X120328978Y-67103228D02*
X120328978Y-67611228D01*
X120836978Y-67103228D02*
X120328978Y-67103228D01*
X120836978Y-64563228D02*
X120836978Y-65071228D01*
X120836978Y-65071228D02*
X120328978Y-65071228D01*
X120328978Y-64563228D02*
X120328978Y-65071228D01*
X120836978Y-64563228D02*
X120328978Y-64563228D01*
X120836978Y-62023228D02*
X120836978Y-62531228D01*
X120836978Y-62531228D02*
X120328978Y-62531228D01*
X120328978Y-62023228D02*
X120328978Y-62531228D01*
X120836978Y-62023228D02*
X120328978Y-62023228D01*
D12*
%TO.C,D8*%
X196284398Y-87203120D02*
X197808398Y-87203120D01*
X197808398Y-91902120D02*
X196284398Y-91902120D01*
X196284398Y-91902120D02*
X196284398Y-86822120D01*
X196284398Y-91902120D02*
X196284398Y-91394120D01*
X197808398Y-87076120D02*
X196284398Y-87076120D01*
X197808398Y-87330120D02*
X196284398Y-87330120D01*
X196284398Y-86822120D02*
X197808398Y-86822120D01*
X197808398Y-86822120D02*
X197808398Y-91902120D01*
X196284398Y-87584120D02*
X197808398Y-87584120D01*
X196284398Y-86949120D02*
X197808398Y-86949120D01*
X196284398Y-87457120D02*
X197808398Y-87457120D01*
%TO.C,D28*%
X120056223Y-99965868D02*
X121580223Y-99965868D01*
X121580223Y-104664868D02*
X120056223Y-104664868D01*
X120056223Y-104664868D02*
X120056223Y-99584868D01*
X120056223Y-104664868D02*
X120056223Y-104156868D01*
X121580223Y-99838868D02*
X120056223Y-99838868D01*
X121580223Y-100092868D02*
X120056223Y-100092868D01*
X120056223Y-99584868D02*
X121580223Y-99584868D01*
X121580223Y-99584868D02*
X121580223Y-104664868D01*
X120056223Y-100346868D02*
X121580223Y-100346868D01*
X120056223Y-99711868D02*
X121580223Y-99711868D01*
X120056223Y-100219868D02*
X121580223Y-100219868D01*
%TO.C,D27*%
X119964056Y-81112088D02*
X121488056Y-81112088D01*
X121488056Y-85811088D02*
X119964056Y-85811088D01*
X119964056Y-85811088D02*
X119964056Y-80731088D01*
X119964056Y-85811088D02*
X119964056Y-85303088D01*
X121488056Y-80985088D02*
X119964056Y-80985088D01*
X121488056Y-81239088D02*
X119964056Y-81239088D01*
X119964056Y-80731088D02*
X121488056Y-80731088D01*
X121488056Y-80731088D02*
X121488056Y-85811088D01*
X119964056Y-81493088D02*
X121488056Y-81493088D01*
X119964056Y-80858088D02*
X121488056Y-80858088D01*
X119964056Y-81366088D02*
X121488056Y-81366088D01*
%TO.C,D26*%
X128685578Y-68678029D02*
X128685578Y-67154029D01*
X133384578Y-67154029D02*
X133384578Y-68678029D01*
X133384578Y-68678029D02*
X128304578Y-68678029D01*
X133384578Y-68678029D02*
X132876578Y-68678029D01*
X128558578Y-67154029D02*
X128558578Y-68678029D01*
X128812578Y-67154029D02*
X128812578Y-68678029D01*
X128304578Y-68678029D02*
X128304578Y-67154029D01*
X128304578Y-67154029D02*
X133384578Y-67154029D01*
X129066578Y-68678029D02*
X129066578Y-67154029D01*
X128431578Y-68678029D02*
X128431578Y-67154029D01*
X128939578Y-68678029D02*
X128939578Y-67154029D01*
%TO.C,D24*%
X139068586Y-98557388D02*
X140592586Y-98557388D01*
X140592586Y-103256388D02*
X139068586Y-103256388D01*
X139068586Y-103256388D02*
X139068586Y-98176388D01*
X139068586Y-103256388D02*
X139068586Y-102748388D01*
X140592586Y-98430388D02*
X139068586Y-98430388D01*
X140592586Y-98684388D02*
X139068586Y-98684388D01*
X139068586Y-98176388D02*
X140592586Y-98176388D01*
X140592586Y-98176388D02*
X140592586Y-103256388D01*
X139068586Y-98938388D02*
X140592586Y-98938388D01*
X139068586Y-98303388D02*
X140592586Y-98303388D01*
X139068586Y-98811388D02*
X140592586Y-98811388D01*
%TO.C,D23*%
X139230325Y-79480468D02*
X140754325Y-79480468D01*
X140754325Y-84179468D02*
X139230325Y-84179468D01*
X139230325Y-84179468D02*
X139230325Y-79099468D01*
X139230325Y-84179468D02*
X139230325Y-83671468D01*
X140754325Y-79353468D02*
X139230325Y-79353468D01*
X140754325Y-79607468D02*
X139230325Y-79607468D01*
X139230325Y-79099468D02*
X140754325Y-79099468D01*
X140754325Y-79099468D02*
X140754325Y-84179468D01*
X139230325Y-79861468D02*
X140754325Y-79861468D01*
X139230325Y-79226468D02*
X140754325Y-79226468D01*
X139230325Y-79734468D02*
X140754325Y-79734468D01*
%TO.C,D22*%
X139078369Y-60125384D02*
X140602369Y-60125384D01*
X140602369Y-64824384D02*
X139078369Y-64824384D01*
X139078369Y-64824384D02*
X139078369Y-59744384D01*
X139078369Y-64824384D02*
X139078369Y-64316384D01*
X140602369Y-59998384D02*
X139078369Y-59998384D01*
X140602369Y-60252384D02*
X139078369Y-60252384D01*
X139078369Y-59744384D02*
X140602369Y-59744384D01*
X140602369Y-59744384D02*
X140602369Y-64824384D01*
X139078369Y-60506384D02*
X140602369Y-60506384D01*
X139078369Y-59871384D02*
X140602369Y-59871384D01*
X139078369Y-60379384D02*
X140602369Y-60379384D01*
%TO.C,D20*%
X96886696Y-143496224D02*
X93794188Y-139465989D01*
X93794188Y-139465989D02*
X95003258Y-138538236D01*
X95003258Y-138538236D02*
X98095766Y-142568471D01*
X98095766Y-142568471D02*
X96886696Y-143496224D01*
X96886696Y-143496224D02*
X96577445Y-143093200D01*
X94026126Y-139768256D02*
X95235196Y-138840504D01*
X95157884Y-138739748D02*
X93948813Y-139667500D01*
X93871500Y-139566745D02*
X95080571Y-138638992D01*
X95312509Y-138941260D02*
X94103439Y-139869012D01*
X94180751Y-139969768D02*
X95389822Y-139042016D01*
X94258064Y-140070524D02*
X95467134Y-139142772D01*
%TO.C,D19*%
X158253380Y-92685215D02*
X159777380Y-92685215D01*
X159777380Y-97384215D02*
X158253380Y-97384215D01*
X158253380Y-97384215D02*
X158253380Y-92304215D01*
X158253380Y-97384215D02*
X158253380Y-96876215D01*
X159777380Y-92558215D02*
X158253380Y-92558215D01*
X159777380Y-92812215D02*
X158253380Y-92812215D01*
X158253380Y-92304215D02*
X159777380Y-92304215D01*
X159777380Y-92304215D02*
X159777380Y-97384215D01*
X158253380Y-93066215D02*
X159777380Y-93066215D01*
X158253380Y-92431215D02*
X159777380Y-92431215D01*
X158253380Y-92939215D02*
X159777380Y-92939215D01*
%TO.C,D18*%
X158047978Y-73580226D02*
X159571978Y-73580226D01*
X159571978Y-78279226D02*
X158047978Y-78279226D01*
X158047978Y-78279226D02*
X158047978Y-73199226D01*
X158047978Y-78279226D02*
X158047978Y-77771226D01*
X159571978Y-73453226D02*
X158047978Y-73453226D01*
X159571978Y-73707226D02*
X158047978Y-73707226D01*
X158047978Y-73199226D02*
X159571978Y-73199226D01*
X159571978Y-73199226D02*
X159571978Y-78279226D01*
X158047978Y-73961226D02*
X159571978Y-73961226D01*
X158047978Y-73326226D02*
X159571978Y-73326226D01*
X158047978Y-73834226D02*
X159571978Y-73834226D01*
%TO.C,D17*%
X158047976Y-56943229D02*
X159571976Y-56943229D01*
X159571976Y-61642229D02*
X158047976Y-61642229D01*
X158047976Y-61642229D02*
X158047976Y-56562229D01*
X158047976Y-61642229D02*
X158047976Y-61134229D01*
X159571976Y-56816229D02*
X158047976Y-56816229D01*
X159571976Y-57070229D02*
X158047976Y-57070229D01*
X158047976Y-56562229D02*
X159571976Y-56562229D01*
X159571976Y-56562229D02*
X159571976Y-61642229D01*
X158047976Y-57324229D02*
X159571976Y-57324229D01*
X158047976Y-56689229D02*
X159571976Y-56689229D01*
X158047976Y-57197229D02*
X159571976Y-57197229D01*
%TO.C,D15*%
X111821819Y-132465285D02*
X109674918Y-127861241D01*
X109674918Y-127861241D02*
X111056131Y-127217171D01*
X111056131Y-127217171D02*
X113203032Y-131821215D01*
X113203032Y-131821215D02*
X111821819Y-132465285D01*
X111821819Y-132465285D02*
X111607129Y-132004881D01*
X109835936Y-128206545D02*
X111217149Y-127562474D01*
X111163476Y-127447373D02*
X109782263Y-128091444D01*
X109728591Y-127976342D02*
X111109804Y-127332272D01*
X111270821Y-127677575D02*
X109889608Y-128321646D01*
X109943281Y-128436747D02*
X111324494Y-127792677D01*
X109996953Y-128551848D02*
X111378166Y-127907778D01*
%TO.C,D14*%
X177177387Y-96151187D02*
X178701387Y-96151187D01*
X178701387Y-100850187D02*
X177177387Y-100850187D01*
X177177387Y-100850187D02*
X177177387Y-95770187D01*
X177177387Y-100850187D02*
X177177387Y-100342187D01*
X178701387Y-96024187D02*
X177177387Y-96024187D01*
X178701387Y-96278187D02*
X177177387Y-96278187D01*
X177177387Y-95770187D02*
X178701387Y-95770187D01*
X178701387Y-95770187D02*
X178701387Y-100850187D01*
X177177387Y-96532187D02*
X178701387Y-96532187D01*
X177177387Y-95897187D02*
X178701387Y-95897187D01*
X177177387Y-96405187D02*
X178701387Y-96405187D01*
%TO.C,D13*%
X177206541Y-76844627D02*
X178730541Y-76844627D01*
X178730541Y-81543627D02*
X177206541Y-81543627D01*
X177206541Y-81543627D02*
X177206541Y-76463627D01*
X177206541Y-81543627D02*
X177206541Y-81035627D01*
X178730541Y-76717627D02*
X177206541Y-76717627D01*
X178730541Y-76971627D02*
X177206541Y-76971627D01*
X177206541Y-76463627D02*
X178730541Y-76463627D01*
X178730541Y-76463627D02*
X178730541Y-81543627D01*
X177206541Y-77225627D02*
X178730541Y-77225627D01*
X177206541Y-76590627D02*
X178730541Y-76590627D01*
X177206541Y-77098627D02*
X178730541Y-77098627D01*
%TO.C,D12*%
X177206541Y-57502029D02*
X178730541Y-57502029D01*
X178730541Y-62201029D02*
X177206541Y-62201029D01*
X177206541Y-62201029D02*
X177206541Y-57121029D01*
X177206541Y-62201029D02*
X177206541Y-61693029D01*
X178730541Y-57375029D02*
X177206541Y-57375029D01*
X178730541Y-57629029D02*
X177206541Y-57629029D01*
X177206541Y-57121029D02*
X178730541Y-57121029D01*
X178730541Y-57121029D02*
X178730541Y-62201029D01*
X177206541Y-57883029D02*
X178730541Y-57883029D01*
X177206541Y-57248029D02*
X178730541Y-57248029D01*
X177206541Y-57756029D02*
X178730541Y-57756029D01*
%TO.C,D10*%
X129786796Y-123722945D02*
X128687283Y-118763361D01*
X128687283Y-118763361D02*
X130175158Y-118433507D01*
X130175158Y-118433507D02*
X131274671Y-123393091D01*
X131274671Y-123393091D02*
X129786796Y-123722945D01*
X129786796Y-123722945D02*
X129676845Y-123226986D01*
X128769746Y-119135330D02*
X130257621Y-118805476D01*
X130230134Y-118681486D02*
X128742258Y-119011340D01*
X128714771Y-118887351D02*
X130202646Y-118557497D01*
X130285109Y-118929466D02*
X128797234Y-119259319D01*
X128824722Y-119383309D02*
X130312597Y-119053455D01*
X128852210Y-119507299D02*
X130340085Y-119177445D01*
%TO.C,D9*%
X196284397Y-106238019D02*
X197808397Y-106238019D01*
X197808397Y-110937019D02*
X196284397Y-110937019D01*
X196284397Y-110937019D02*
X196284397Y-105857019D01*
X196284397Y-110937019D02*
X196284397Y-110429019D01*
X197808397Y-106111019D02*
X196284397Y-106111019D01*
X197808397Y-106365019D02*
X196284397Y-106365019D01*
X196284397Y-105857019D02*
X197808397Y-105857019D01*
X197808397Y-105857019D02*
X197808397Y-110937019D01*
X196284397Y-106619019D02*
X197808397Y-106619019D01*
X196284397Y-105984019D02*
X197808397Y-105984019D01*
X196284397Y-106492019D02*
X197808397Y-106492019D01*
%TO.C,D7*%
X196284398Y-70898700D02*
X197808398Y-70898700D01*
X197808398Y-75597700D02*
X196284398Y-75597700D01*
X196284398Y-75597700D02*
X196284398Y-70517700D01*
X196284398Y-75597700D02*
X196284398Y-75089700D01*
X197808398Y-70771700D02*
X196284398Y-70771700D01*
X197808398Y-71025700D02*
X196284398Y-71025700D01*
X196284398Y-70517700D02*
X197808398Y-70517700D01*
X197808398Y-70517700D02*
X197808398Y-75597700D01*
X196284398Y-71279700D02*
X197808398Y-71279700D01*
X196284398Y-70644700D02*
X197808398Y-70644700D01*
X196284398Y-71152700D02*
X197808398Y-71152700D01*
%TD*%
%TO.C,RST2*%
X94737644Y-69788561D02*
X94404311Y-69555228D01*
X94737644Y-69388561D02*
X94037644Y-69388561D01*
X94037644Y-69655228D01*
X94070978Y-69721894D01*
X94104311Y-69755228D01*
X94170978Y-69788561D01*
X94270978Y-69788561D01*
X94337644Y-69755228D01*
X94370978Y-69721894D01*
X94404311Y-69655228D01*
X94404311Y-69388561D01*
X94704311Y-70055228D02*
X94737644Y-70155228D01*
X94737644Y-70321894D01*
X94704311Y-70388561D01*
X94670978Y-70421894D01*
X94604311Y-70455228D01*
X94537644Y-70455228D01*
X94470978Y-70421894D01*
X94437644Y-70388561D01*
X94404311Y-70321894D01*
X94370978Y-70188561D01*
X94337644Y-70121894D01*
X94304311Y-70088561D01*
X94237644Y-70055228D01*
X94170978Y-70055228D01*
X94104311Y-70088561D01*
X94070978Y-70121894D01*
X94037644Y-70188561D01*
X94037644Y-70355228D01*
X94070978Y-70455228D01*
X94037644Y-70655228D02*
X94037644Y-71055228D01*
X94737644Y-70855228D02*
X94037644Y-70855228D01*
X94104311Y-71255228D02*
X94070978Y-71288561D01*
X94037644Y-71355228D01*
X94037644Y-71521894D01*
X94070978Y-71588561D01*
X94104311Y-71621894D01*
X94170978Y-71655228D01*
X94237644Y-71655228D01*
X94337644Y-71621894D01*
X94737644Y-71221894D01*
X94737644Y-71655228D01*
%TO.C,D20*%
X101503994Y-142880646D02*
X102138677Y-142393637D01*
X102022723Y-142242522D01*
X101922927Y-142175044D01*
X101816099Y-142160980D01*
X101732462Y-142177139D01*
X101588379Y-142239680D01*
X101497710Y-142309252D01*
X101400009Y-142432239D01*
X101362754Y-142508844D01*
X101348690Y-142615671D01*
X101388040Y-142729531D01*
X101503994Y-142880646D01*
X101614413Y-141835559D02*
X101621445Y-141782145D01*
X101605286Y-141698508D01*
X101489332Y-141547394D01*
X101412727Y-141510138D01*
X101359313Y-141503106D01*
X101275676Y-141519265D01*
X101215230Y-141565647D01*
X101147752Y-141665443D01*
X101063367Y-142306410D01*
X100761885Y-141913511D01*
X101095086Y-141033603D02*
X101048704Y-140973157D01*
X100972099Y-140935902D01*
X100918686Y-140928870D01*
X100835049Y-140945029D01*
X100690966Y-141007569D01*
X100539851Y-141123524D01*
X100442150Y-141246510D01*
X100404895Y-141323115D01*
X100397863Y-141376529D01*
X100414022Y-141460166D01*
X100460403Y-141520612D01*
X100537008Y-141557867D01*
X100590422Y-141564899D01*
X100674059Y-141548740D01*
X100818142Y-141486200D01*
X100969257Y-141370245D01*
X101066958Y-141247258D01*
X101104213Y-141170654D01*
X101111245Y-141117240D01*
X101095086Y-141033603D01*
%TO.C,D15*%
X110263425Y-131489274D02*
X110988471Y-131151180D01*
X110907972Y-130978550D01*
X110825147Y-130891071D01*
X110723896Y-130854219D01*
X110638744Y-130851892D01*
X110484540Y-130881765D01*
X110380962Y-130930065D01*
X110258958Y-131028990D01*
X110206005Y-131095715D01*
X110169153Y-131196967D01*
X110182926Y-131316644D01*
X110263425Y-131489274D01*
X109748233Y-130384442D02*
X109941430Y-130798754D01*
X109844832Y-130591598D02*
X110569878Y-130253503D01*
X110498499Y-130370855D01*
X110461647Y-130472106D01*
X110459320Y-130557258D01*
X110167384Y-129390353D02*
X110328382Y-129735613D01*
X109999221Y-129931137D01*
X110017648Y-129880511D01*
X110019974Y-129795359D01*
X109939475Y-129622729D01*
X109872750Y-129569777D01*
X109822124Y-129551351D01*
X109736972Y-129549024D01*
X109564342Y-129629523D01*
X109511390Y-129696248D01*
X109492964Y-129746874D01*
X109490637Y-129832026D01*
X109571136Y-130004656D01*
X109637861Y-130057608D01*
X109688487Y-130076034D01*
%TO.C,D10*%
X128476589Y-122432771D02*
X129257626Y-122259619D01*
X129216399Y-122073658D01*
X129154471Y-121970327D01*
X129063596Y-121912433D01*
X128980966Y-121891731D01*
X128823952Y-121887520D01*
X128712375Y-121912256D01*
X128571852Y-121982430D01*
X128505712Y-122036113D01*
X128447819Y-122126988D01*
X128435362Y-122246810D01*
X128476589Y-122432771D01*
X128212739Y-121242620D02*
X128311683Y-121688926D01*
X128262211Y-121465773D02*
X129043247Y-121292621D01*
X128948161Y-121391742D01*
X128890268Y-121482617D01*
X128869566Y-121565247D01*
X128886586Y-120585969D02*
X128870096Y-120511584D01*
X128816413Y-120445445D01*
X128770975Y-120416498D01*
X128688346Y-120395797D01*
X128531331Y-120391586D01*
X128345370Y-120432812D01*
X128204847Y-120502986D01*
X128138707Y-120556669D01*
X128109761Y-120602106D01*
X128089059Y-120684736D01*
X128105550Y-120759121D01*
X128159232Y-120825260D01*
X128204670Y-120854207D01*
X128287300Y-120874908D01*
X128444314Y-120879119D01*
X128630275Y-120837893D01*
X128770799Y-120767719D01*
X128836938Y-120714036D01*
X128865885Y-120668599D01*
X128886586Y-120585969D01*
%TD*%
M02*
