%TF.GenerationSoftware,KiCad,Pcbnew,(5.1.7)-1*%
%TF.CreationDate,2021-07-11T14:26:08+05:30*%
%TF.ProjectId,Pankh,50616e6b-682e-46b6-9963-61645f706362,rev?*%
%TF.SameCoordinates,Original*%
%TF.FileFunction,Soldermask,Top*%
%TF.FilePolarity,Negative*%
%FSLAX46Y46*%
G04 Gerber Fmt 4.6, Leading zero omitted, Abs format (unit mm)*
G04 Created by KiCad (PCBNEW (5.1.7)-1) date 2021-07-11 14:26:08*
%MOMM*%
%LPD*%
G01*
G04 APERTURE LIST*
%ADD10C,2.200000*%
%ADD11C,1.600000*%
%ADD12R,1.600000X1.600000*%
%ADD13C,1.000000*%
%ADD14C,1.900000*%
%ADD15C,4.000000*%
%ADD16C,1.700000*%
%ADD17C,2.700000*%
%ADD18O,1.500000X2.500000*%
%ADD19O,1.500000X3.000000*%
%ADD20O,1.600000X2.000000*%
%ADD21C,0.800000*%
%ADD22R,2.000000X2.000000*%
%ADD23C,2.000000*%
%ADD24R,3.200000X2.000000*%
%ADD25R,1.600000X1.200000*%
%ADD26O,3.759200X1.879600*%
%ADD27R,1.100000X1.800000*%
%ADD28R,1.200000X1.600000*%
%ADD29C,0.100000*%
%ADD30R,1.270000X0.635000*%
%ADD31C,1.397000*%
G04 APERTURE END LIST*
D10*
%TO.C,H1*%
X187401402Y-108225827D03*
%TD*%
%TO.C,H2*%
X187401401Y-65376028D03*
%TD*%
%TO.C,H3*%
X149303992Y-108225828D03*
%TD*%
%TO.C,H4*%
X111134178Y-60677028D03*
%TD*%
%TO.C,H5*%
X149303991Y-67357228D03*
%TD*%
%TO.C,H6*%
X104419931Y-119356724D03*
%TD*%
D11*
%TO.C,U1*%
X116087177Y-52002930D03*
X116087177Y-54542930D03*
X116087177Y-57082930D03*
X116087177Y-59622930D03*
X116087177Y-62162930D03*
X116087177Y-64702930D03*
X116087177Y-67242930D03*
X116087177Y-69782930D03*
X116087177Y-72322930D03*
X116087177Y-74862930D03*
X116087177Y-77402930D03*
X116087177Y-79942930D03*
X100847177Y-79942930D03*
X100847177Y-77402930D03*
X100847177Y-74862930D03*
X100847177Y-72322930D03*
X100847177Y-69782930D03*
X100847177Y-67242930D03*
X100847177Y-64702930D03*
X100847177Y-62162930D03*
X100847177Y-59622930D03*
X100847177Y-57082930D03*
X100847177Y-54542930D03*
D12*
X100847177Y-52002930D03*
%TD*%
D13*
%TO.C,SW10*%
X145086921Y-121487446D03*
G36*
G01*
X138075165Y-113977042D02*
X138075165Y-113977042D01*
G75*
G02*
X137180613Y-113407150I-162330J732222D01*
G01*
X136964173Y-112430854D01*
G75*
G02*
X137534065Y-111536302I732222J162330D01*
G01*
X137534065Y-111536302D01*
G75*
G02*
X138428617Y-112106194I162330J-732222D01*
G01*
X138645057Y-113082490D01*
G75*
G02*
X138075165Y-113977042I-732222J-162330D01*
G01*
G37*
G36*
G01*
X142288873Y-113014392D02*
X142288873Y-113014392D01*
G75*
G02*
X143117288Y-112830737I506035J-322380D01*
G01*
X143960680Y-113368037D01*
G75*
G02*
X144144335Y-114196452I-322380J-506035D01*
G01*
X144144335Y-114196452D01*
G75*
G02*
X143315920Y-114380107I-506035J322380D01*
G01*
X142472528Y-113842807D01*
G75*
G02*
X142288873Y-113014392I322380J506035D01*
G01*
G37*
G36*
G01*
X132667355Y-116740837D02*
X132667355Y-116740837D01*
G75*
G02*
X132483700Y-115912422I322380J506035D01*
G01*
X133021000Y-115069030D01*
G75*
G02*
X133849415Y-114885375I506035J-322380D01*
G01*
X133849415Y-114885375D01*
G75*
G02*
X134033070Y-115713790I-322380J-506035D01*
G01*
X133495770Y-116557182D01*
G75*
G02*
X132667355Y-116740837I-506035J322380D01*
G01*
G37*
D14*
X144451237Y-117326400D03*
X133711981Y-119707236D03*
G36*
G01*
X134059945Y-118042409D02*
X134059945Y-118042409D01*
G75*
G02*
X133830376Y-117006890I402975J632544D01*
G01*
X134528866Y-115910482D01*
G75*
G02*
X135564385Y-115680913I632544J-402975D01*
G01*
X135564385Y-115680913D01*
G75*
G02*
X135793954Y-116716432I-402975J-632544D01*
G01*
X135095464Y-117812840D01*
G75*
G02*
X134059945Y-118042409I-632544J402975D01*
G01*
G37*
D15*
X139081609Y-118516818D03*
D16*
X134122025Y-119616331D03*
X144041193Y-117417305D03*
G36*
G01*
X141070792Y-114460171D02*
X141070792Y-114460171D01*
G75*
G02*
X142106311Y-114230602I632544J-402975D01*
G01*
X143202719Y-114929092D01*
G75*
G02*
X143432288Y-115964611I-402975J-632544D01*
G01*
X143432288Y-115964611D01*
G75*
G02*
X142396769Y-116194180I-632544J402975D01*
G01*
X141300361Y-115495690D01*
G75*
G02*
X141070792Y-114460171I402975J632544D01*
G01*
G37*
D17*
X135502304Y-114106991D03*
X140461888Y-113007478D03*
D13*
X134894390Y-123747076D03*
G36*
G01*
X134630104Y-117649170D02*
X132963562Y-116587466D01*
G75*
G02*
X132730320Y-115535380I409422J642664D01*
G01*
X132730320Y-115535380D01*
G75*
G02*
X133782406Y-115302138I642664J-409422D01*
G01*
X135448948Y-116363842D01*
G75*
G02*
X135682190Y-117415928I-409422J-642664D01*
G01*
X135682190Y-117415928D01*
G75*
G02*
X134630104Y-117649170I-642664J409422D01*
G01*
G37*
G36*
G01*
X133481127Y-115861399D02*
X135080131Y-113351467D01*
G75*
G02*
X136132217Y-113118225I642664J-409422D01*
G01*
X136132217Y-113118225D01*
G75*
G02*
X136365459Y-114170311I-409422J-642664D01*
G01*
X134766455Y-116680243D01*
G75*
G02*
X133714369Y-116913485I-642664J409422D01*
G01*
X133714369Y-116913485D01*
G75*
G02*
X133481127Y-115861399I409422J642664D01*
G01*
G37*
G36*
G01*
X140487849Y-113736102D02*
X137537309Y-113347656D01*
G75*
G02*
X136881289Y-112492714I99461J755481D01*
G01*
X136881289Y-112492714D01*
G75*
G02*
X137736231Y-111836694I755481J-99461D01*
G01*
X140686771Y-112225140D01*
G75*
G02*
X141342791Y-113080082I-99461J-755481D01*
G01*
X141342791Y-113080082D01*
G75*
G02*
X140487849Y-113736102I-755481J99461D01*
G01*
G37*
G36*
G01*
X142491174Y-116268550D02*
X139981242Y-114669546D01*
G75*
G02*
X139748000Y-113617460I409422J642664D01*
G01*
X139748000Y-113617460D01*
G75*
G02*
X140800086Y-113384218I642664J-409422D01*
G01*
X143310018Y-114983222D01*
G75*
G02*
X143543260Y-116035308I-409422J-642664D01*
G01*
X143543260Y-116035308D01*
G75*
G02*
X142491174Y-116268550I-642664J409422D01*
G01*
G37*
G36*
G01*
X140001947Y-114397988D02*
X139677287Y-112933544D01*
G75*
G02*
X140247179Y-112038992I732222J162330D01*
G01*
X140247179Y-112038992D01*
G75*
G02*
X141141731Y-112608884I162330J-732222D01*
G01*
X141466391Y-114073328D01*
G75*
G02*
X140896499Y-114967880I-732222J-162330D01*
G01*
X140896499Y-114967880D01*
G75*
G02*
X140001947Y-114397988I-162330J732222D01*
G01*
G37*
%TD*%
%TO.C,SW13*%
X192602028Y-79223131D03*
D18*
X187382028Y-69123131D03*
G36*
G01*
X191704211Y-70345314D02*
X191704211Y-70345314D01*
G75*
G02*
X192552739Y-70345314I424264J-424264D01*
G01*
X193259845Y-71052420D01*
G75*
G02*
X193259845Y-71900948I-424264J-424264D01*
G01*
X193259845Y-71900948D01*
G75*
G02*
X192411317Y-71900948I-424264J424264D01*
G01*
X191704211Y-71193842D01*
G75*
G02*
X191704211Y-70345314I424264J424264D01*
G01*
G37*
G36*
G01*
X181504211Y-71900948D02*
X181504211Y-71900948D01*
G75*
G02*
X181504211Y-71052420I424264J424264D01*
G01*
X182211317Y-70345314D01*
G75*
G02*
X183059845Y-70345314I424264J-424264D01*
G01*
X183059845Y-70345314D01*
G75*
G02*
X183059845Y-71193842I-424264J-424264D01*
G01*
X182352739Y-71900948D01*
G75*
G02*
X181504211Y-71900948I-424264J424264D01*
G01*
G37*
D14*
X192882028Y-75023131D03*
X181882028Y-75023131D03*
G36*
G01*
X182582079Y-73473080D02*
X182582079Y-73473080D01*
G75*
G02*
X182582079Y-72412420I530330J530330D01*
G01*
X183501317Y-71493182D01*
G75*
G02*
X184561977Y-71493182I530330J-530330D01*
G01*
X184561977Y-71493182D01*
G75*
G02*
X184561977Y-72553842I-530330J-530330D01*
G01*
X183642739Y-73473080D01*
G75*
G02*
X182582079Y-73473080I-530330J530330D01*
G01*
G37*
D15*
X187382028Y-75023131D03*
D16*
X182302028Y-75023131D03*
X192462028Y-75023131D03*
G36*
G01*
X190202079Y-71493182D02*
X190202079Y-71493182D01*
G75*
G02*
X191262739Y-71493182I530330J-530330D01*
G01*
X192181977Y-72412420D01*
G75*
G02*
X192181977Y-73473080I-530330J-530330D01*
G01*
X192181977Y-73473080D01*
G75*
G02*
X191121317Y-73473080I-530330J530330D01*
G01*
X190202079Y-72553842D01*
G75*
G02*
X190202079Y-71493182I530330J530330D01*
G01*
G37*
D17*
X184842028Y-69943131D03*
X189922028Y-69943131D03*
D13*
X182162028Y-79223131D03*
G36*
G01*
X183223834Y-73212567D02*
X181826592Y-71815325D01*
G75*
G02*
X181826592Y-70737695I538815J538815D01*
G01*
X181826592Y-70737695D01*
G75*
G02*
X182904222Y-70737695I538815J-538815D01*
G01*
X184301464Y-72134937D01*
G75*
G02*
X184301464Y-73212567I-538815J-538815D01*
G01*
X184301464Y-73212567D01*
G75*
G02*
X183223834Y-73212567I-538815J538815D01*
G01*
G37*
G36*
G01*
X182489038Y-71218491D02*
X184593388Y-69114141D01*
G75*
G02*
X185671018Y-69114141I538815J-538815D01*
G01*
X185671018Y-69114141D01*
G75*
G02*
X185671018Y-70191771I-538815J-538815D01*
G01*
X183566668Y-72296121D01*
G75*
G02*
X182489038Y-72296121I-538815J538815D01*
G01*
X182489038Y-72296121D01*
G75*
G02*
X182489038Y-71218491I538815J538815D01*
G01*
G37*
G36*
G01*
X189789672Y-70660103D02*
X186993146Y-69642251D01*
G75*
G02*
X186537719Y-68665586I260619J716046D01*
G01*
X186537719Y-68665586D01*
G75*
G02*
X187514384Y-68210159I716046J-260619D01*
G01*
X190310910Y-69228011D01*
G75*
G02*
X190766337Y-70204676I-260619J-716046D01*
G01*
X190766337Y-70204676D01*
G75*
G02*
X189789672Y-70660103I-716046J260619D01*
G01*
G37*
G36*
G01*
X191197388Y-73566121D02*
X189093038Y-71461771D01*
G75*
G02*
X189093038Y-70384141I538815J538815D01*
G01*
X189093038Y-70384141D01*
G75*
G02*
X190170668Y-70384141I538815J-538815D01*
G01*
X192275018Y-72488491D01*
G75*
G02*
X192275018Y-73566121I-538815J-538815D01*
G01*
X192275018Y-73566121D01*
G75*
G02*
X191197388Y-73566121I-538815J538815D01*
G01*
G37*
D19*
X189922028Y-70451131D03*
%TD*%
D13*
%TO.C,SW8*%
X211679757Y-93562119D03*
D18*
X206459757Y-83462119D03*
G36*
G01*
X210781940Y-84684302D02*
X210781940Y-84684302D01*
G75*
G02*
X211630468Y-84684302I424264J-424264D01*
G01*
X212337574Y-85391408D01*
G75*
G02*
X212337574Y-86239936I-424264J-424264D01*
G01*
X212337574Y-86239936D01*
G75*
G02*
X211489046Y-86239936I-424264J424264D01*
G01*
X210781940Y-85532830D01*
G75*
G02*
X210781940Y-84684302I424264J424264D01*
G01*
G37*
G36*
G01*
X200581940Y-86239936D02*
X200581940Y-86239936D01*
G75*
G02*
X200581940Y-85391408I424264J424264D01*
G01*
X201289046Y-84684302D01*
G75*
G02*
X202137574Y-84684302I424264J-424264D01*
G01*
X202137574Y-84684302D01*
G75*
G02*
X202137574Y-85532830I-424264J-424264D01*
G01*
X201430468Y-86239936D01*
G75*
G02*
X200581940Y-86239936I-424264J424264D01*
G01*
G37*
D14*
X211959757Y-89362119D03*
X200959757Y-89362119D03*
G36*
G01*
X201659808Y-87812068D02*
X201659808Y-87812068D01*
G75*
G02*
X201659808Y-86751408I530330J530330D01*
G01*
X202579046Y-85832170D01*
G75*
G02*
X203639706Y-85832170I530330J-530330D01*
G01*
X203639706Y-85832170D01*
G75*
G02*
X203639706Y-86892830I-530330J-530330D01*
G01*
X202720468Y-87812068D01*
G75*
G02*
X201659808Y-87812068I-530330J530330D01*
G01*
G37*
D15*
X206459757Y-89362119D03*
D16*
X201379757Y-89362119D03*
X211539757Y-89362119D03*
G36*
G01*
X209279808Y-85832170D02*
X209279808Y-85832170D01*
G75*
G02*
X210340468Y-85832170I530330J-530330D01*
G01*
X211259706Y-86751408D01*
G75*
G02*
X211259706Y-87812068I-530330J-530330D01*
G01*
X211259706Y-87812068D01*
G75*
G02*
X210199046Y-87812068I-530330J530330D01*
G01*
X209279808Y-86892830D01*
G75*
G02*
X209279808Y-85832170I530330J530330D01*
G01*
G37*
D17*
X203919757Y-84282119D03*
X208999757Y-84282119D03*
D13*
X201239757Y-93562119D03*
G36*
G01*
X202301563Y-87551555D02*
X200904321Y-86154313D01*
G75*
G02*
X200904321Y-85076683I538815J538815D01*
G01*
X200904321Y-85076683D01*
G75*
G02*
X201981951Y-85076683I538815J-538815D01*
G01*
X203379193Y-86473925D01*
G75*
G02*
X203379193Y-87551555I-538815J-538815D01*
G01*
X203379193Y-87551555D01*
G75*
G02*
X202301563Y-87551555I-538815J538815D01*
G01*
G37*
G36*
G01*
X201566767Y-85557479D02*
X203671117Y-83453129D01*
G75*
G02*
X204748747Y-83453129I538815J-538815D01*
G01*
X204748747Y-83453129D01*
G75*
G02*
X204748747Y-84530759I-538815J-538815D01*
G01*
X202644397Y-86635109D01*
G75*
G02*
X201566767Y-86635109I-538815J538815D01*
G01*
X201566767Y-86635109D01*
G75*
G02*
X201566767Y-85557479I538815J538815D01*
G01*
G37*
G36*
G01*
X208867401Y-84999091D02*
X206070875Y-83981239D01*
G75*
G02*
X205615448Y-83004574I260619J716046D01*
G01*
X205615448Y-83004574D01*
G75*
G02*
X206592113Y-82549147I716046J-260619D01*
G01*
X209388639Y-83566999D01*
G75*
G02*
X209844066Y-84543664I-260619J-716046D01*
G01*
X209844066Y-84543664D01*
G75*
G02*
X208867401Y-84999091I-716046J260619D01*
G01*
G37*
G36*
G01*
X210275117Y-87905109D02*
X208170767Y-85800759D01*
G75*
G02*
X208170767Y-84723129I538815J538815D01*
G01*
X208170767Y-84723129D01*
G75*
G02*
X209248397Y-84723129I538815J-538815D01*
G01*
X211352747Y-86827479D01*
G75*
G02*
X211352747Y-87905109I-538815J-538815D01*
G01*
X211352747Y-87905109D01*
G75*
G02*
X210275117Y-87905109I-538815J538815D01*
G01*
G37*
D19*
X208999757Y-84790119D03*
%TD*%
D13*
%TO.C,SW7*%
X211636110Y-74527218D03*
D18*
X206416110Y-64427218D03*
G36*
G01*
X210738293Y-65649401D02*
X210738293Y-65649401D01*
G75*
G02*
X211586821Y-65649401I424264J-424264D01*
G01*
X212293927Y-66356507D01*
G75*
G02*
X212293927Y-67205035I-424264J-424264D01*
G01*
X212293927Y-67205035D01*
G75*
G02*
X211445399Y-67205035I-424264J424264D01*
G01*
X210738293Y-66497929D01*
G75*
G02*
X210738293Y-65649401I424264J424264D01*
G01*
G37*
G36*
G01*
X200538293Y-67205035D02*
X200538293Y-67205035D01*
G75*
G02*
X200538293Y-66356507I424264J424264D01*
G01*
X201245399Y-65649401D01*
G75*
G02*
X202093927Y-65649401I424264J-424264D01*
G01*
X202093927Y-65649401D01*
G75*
G02*
X202093927Y-66497929I-424264J-424264D01*
G01*
X201386821Y-67205035D01*
G75*
G02*
X200538293Y-67205035I-424264J424264D01*
G01*
G37*
D14*
X211916110Y-70327218D03*
X200916110Y-70327218D03*
G36*
G01*
X201616161Y-68777167D02*
X201616161Y-68777167D01*
G75*
G02*
X201616161Y-67716507I530330J530330D01*
G01*
X202535399Y-66797269D01*
G75*
G02*
X203596059Y-66797269I530330J-530330D01*
G01*
X203596059Y-66797269D01*
G75*
G02*
X203596059Y-67857929I-530330J-530330D01*
G01*
X202676821Y-68777167D01*
G75*
G02*
X201616161Y-68777167I-530330J530330D01*
G01*
G37*
D15*
X206416110Y-70327218D03*
D16*
X201336110Y-70327218D03*
X211496110Y-70327218D03*
G36*
G01*
X209236161Y-66797269D02*
X209236161Y-66797269D01*
G75*
G02*
X210296821Y-66797269I530330J-530330D01*
G01*
X211216059Y-67716507D01*
G75*
G02*
X211216059Y-68777167I-530330J-530330D01*
G01*
X211216059Y-68777167D01*
G75*
G02*
X210155399Y-68777167I-530330J530330D01*
G01*
X209236161Y-67857929D01*
G75*
G02*
X209236161Y-66797269I530330J530330D01*
G01*
G37*
D17*
X203876110Y-65247218D03*
X208956110Y-65247218D03*
D13*
X201196110Y-74527218D03*
G36*
G01*
X202257916Y-68516654D02*
X200860674Y-67119412D01*
G75*
G02*
X200860674Y-66041782I538815J538815D01*
G01*
X200860674Y-66041782D01*
G75*
G02*
X201938304Y-66041782I538815J-538815D01*
G01*
X203335546Y-67439024D01*
G75*
G02*
X203335546Y-68516654I-538815J-538815D01*
G01*
X203335546Y-68516654D01*
G75*
G02*
X202257916Y-68516654I-538815J538815D01*
G01*
G37*
G36*
G01*
X201523120Y-66522578D02*
X203627470Y-64418228D01*
G75*
G02*
X204705100Y-64418228I538815J-538815D01*
G01*
X204705100Y-64418228D01*
G75*
G02*
X204705100Y-65495858I-538815J-538815D01*
G01*
X202600750Y-67600208D01*
G75*
G02*
X201523120Y-67600208I-538815J538815D01*
G01*
X201523120Y-67600208D01*
G75*
G02*
X201523120Y-66522578I538815J538815D01*
G01*
G37*
G36*
G01*
X208823754Y-65964190D02*
X206027228Y-64946338D01*
G75*
G02*
X205571801Y-63969673I260619J716046D01*
G01*
X205571801Y-63969673D01*
G75*
G02*
X206548466Y-63514246I716046J-260619D01*
G01*
X209344992Y-64532098D01*
G75*
G02*
X209800419Y-65508763I-260619J-716046D01*
G01*
X209800419Y-65508763D01*
G75*
G02*
X208823754Y-65964190I-716046J260619D01*
G01*
G37*
G36*
G01*
X210231470Y-68870208D02*
X208127120Y-66765858D01*
G75*
G02*
X208127120Y-65688228I538815J538815D01*
G01*
X208127120Y-65688228D01*
G75*
G02*
X209204750Y-65688228I538815J-538815D01*
G01*
X211309100Y-67792578D01*
G75*
G02*
X211309100Y-68870208I-538815J-538815D01*
G01*
X211309100Y-68870208D01*
G75*
G02*
X210231470Y-68870208I-538815J538815D01*
G01*
G37*
D19*
X208956110Y-65755218D03*
%TD*%
D13*
%TO.C,SW12*%
X192648938Y-60212502D03*
D18*
X187428938Y-50112502D03*
G36*
G01*
X191751121Y-51334685D02*
X191751121Y-51334685D01*
G75*
G02*
X192599649Y-51334685I424264J-424264D01*
G01*
X193306755Y-52041791D01*
G75*
G02*
X193306755Y-52890319I-424264J-424264D01*
G01*
X193306755Y-52890319D01*
G75*
G02*
X192458227Y-52890319I-424264J424264D01*
G01*
X191751121Y-52183213D01*
G75*
G02*
X191751121Y-51334685I424264J424264D01*
G01*
G37*
G36*
G01*
X181551121Y-52890319D02*
X181551121Y-52890319D01*
G75*
G02*
X181551121Y-52041791I424264J424264D01*
G01*
X182258227Y-51334685D01*
G75*
G02*
X183106755Y-51334685I424264J-424264D01*
G01*
X183106755Y-51334685D01*
G75*
G02*
X183106755Y-52183213I-424264J-424264D01*
G01*
X182399649Y-52890319D01*
G75*
G02*
X181551121Y-52890319I-424264J424264D01*
G01*
G37*
D14*
X192928938Y-56012502D03*
X181928938Y-56012502D03*
G36*
G01*
X182628989Y-54462451D02*
X182628989Y-54462451D01*
G75*
G02*
X182628989Y-53401791I530330J530330D01*
G01*
X183548227Y-52482553D01*
G75*
G02*
X184608887Y-52482553I530330J-530330D01*
G01*
X184608887Y-52482553D01*
G75*
G02*
X184608887Y-53543213I-530330J-530330D01*
G01*
X183689649Y-54462451D01*
G75*
G02*
X182628989Y-54462451I-530330J530330D01*
G01*
G37*
D15*
X187428938Y-56012502D03*
D16*
X182348938Y-56012502D03*
X192508938Y-56012502D03*
G36*
G01*
X190248989Y-52482553D02*
X190248989Y-52482553D01*
G75*
G02*
X191309649Y-52482553I530330J-530330D01*
G01*
X192228887Y-53401791D01*
G75*
G02*
X192228887Y-54462451I-530330J-530330D01*
G01*
X192228887Y-54462451D01*
G75*
G02*
X191168227Y-54462451I-530330J530330D01*
G01*
X190248989Y-53543213D01*
G75*
G02*
X190248989Y-52482553I530330J530330D01*
G01*
G37*
D17*
X184888938Y-50932502D03*
X189968938Y-50932502D03*
D13*
X182208938Y-60212502D03*
G36*
G01*
X183270744Y-54201938D02*
X181873502Y-52804696D01*
G75*
G02*
X181873502Y-51727066I538815J538815D01*
G01*
X181873502Y-51727066D01*
G75*
G02*
X182951132Y-51727066I538815J-538815D01*
G01*
X184348374Y-53124308D01*
G75*
G02*
X184348374Y-54201938I-538815J-538815D01*
G01*
X184348374Y-54201938D01*
G75*
G02*
X183270744Y-54201938I-538815J538815D01*
G01*
G37*
G36*
G01*
X182535948Y-52207862D02*
X184640298Y-50103512D01*
G75*
G02*
X185717928Y-50103512I538815J-538815D01*
G01*
X185717928Y-50103512D01*
G75*
G02*
X185717928Y-51181142I-538815J-538815D01*
G01*
X183613578Y-53285492D01*
G75*
G02*
X182535948Y-53285492I-538815J538815D01*
G01*
X182535948Y-53285492D01*
G75*
G02*
X182535948Y-52207862I538815J538815D01*
G01*
G37*
G36*
G01*
X189836582Y-51649474D02*
X187040056Y-50631622D01*
G75*
G02*
X186584629Y-49654957I260619J716046D01*
G01*
X186584629Y-49654957D01*
G75*
G02*
X187561294Y-49199530I716046J-260619D01*
G01*
X190357820Y-50217382D01*
G75*
G02*
X190813247Y-51194047I-260619J-716046D01*
G01*
X190813247Y-51194047D01*
G75*
G02*
X189836582Y-51649474I-716046J260619D01*
G01*
G37*
G36*
G01*
X191244298Y-54555492D02*
X189139948Y-52451142D01*
G75*
G02*
X189139948Y-51373512I538815J538815D01*
G01*
X189139948Y-51373512D01*
G75*
G02*
X190217578Y-51373512I538815J-538815D01*
G01*
X192321928Y-53477862D01*
G75*
G02*
X192321928Y-54555492I-538815J-538815D01*
G01*
X192321928Y-54555492D01*
G75*
G02*
X191244298Y-54555492I-538815J538815D01*
G01*
G37*
D19*
X189968938Y-51440502D03*
%TD*%
D13*
%TO.C,SW22*%
X154570904Y-62141666D03*
D18*
X149350904Y-52041666D03*
G36*
G01*
X153673087Y-53263849D02*
X153673087Y-53263849D01*
G75*
G02*
X154521615Y-53263849I424264J-424264D01*
G01*
X155228721Y-53970955D01*
G75*
G02*
X155228721Y-54819483I-424264J-424264D01*
G01*
X155228721Y-54819483D01*
G75*
G02*
X154380193Y-54819483I-424264J424264D01*
G01*
X153673087Y-54112377D01*
G75*
G02*
X153673087Y-53263849I424264J424264D01*
G01*
G37*
G36*
G01*
X143473087Y-54819483D02*
X143473087Y-54819483D01*
G75*
G02*
X143473087Y-53970955I424264J424264D01*
G01*
X144180193Y-53263849D01*
G75*
G02*
X145028721Y-53263849I424264J-424264D01*
G01*
X145028721Y-53263849D01*
G75*
G02*
X145028721Y-54112377I-424264J-424264D01*
G01*
X144321615Y-54819483D01*
G75*
G02*
X143473087Y-54819483I-424264J424264D01*
G01*
G37*
D14*
X154850904Y-57941666D03*
X143850904Y-57941666D03*
G36*
G01*
X144550955Y-56391615D02*
X144550955Y-56391615D01*
G75*
G02*
X144550955Y-55330955I530330J530330D01*
G01*
X145470193Y-54411717D01*
G75*
G02*
X146530853Y-54411717I530330J-530330D01*
G01*
X146530853Y-54411717D01*
G75*
G02*
X146530853Y-55472377I-530330J-530330D01*
G01*
X145611615Y-56391615D01*
G75*
G02*
X144550955Y-56391615I-530330J530330D01*
G01*
G37*
D15*
X149350904Y-57941666D03*
D16*
X144270904Y-57941666D03*
X154430904Y-57941666D03*
G36*
G01*
X152170955Y-54411717D02*
X152170955Y-54411717D01*
G75*
G02*
X153231615Y-54411717I530330J-530330D01*
G01*
X154150853Y-55330955D01*
G75*
G02*
X154150853Y-56391615I-530330J-530330D01*
G01*
X154150853Y-56391615D01*
G75*
G02*
X153090193Y-56391615I-530330J530330D01*
G01*
X152170955Y-55472377D01*
G75*
G02*
X152170955Y-54411717I530330J530330D01*
G01*
G37*
D17*
X146810904Y-52861666D03*
X151890904Y-52861666D03*
D13*
X144130904Y-62141666D03*
G36*
G01*
X145192710Y-56131102D02*
X143795468Y-54733860D01*
G75*
G02*
X143795468Y-53656230I538815J538815D01*
G01*
X143795468Y-53656230D01*
G75*
G02*
X144873098Y-53656230I538815J-538815D01*
G01*
X146270340Y-55053472D01*
G75*
G02*
X146270340Y-56131102I-538815J-538815D01*
G01*
X146270340Y-56131102D01*
G75*
G02*
X145192710Y-56131102I-538815J538815D01*
G01*
G37*
G36*
G01*
X144457914Y-54137026D02*
X146562264Y-52032676D01*
G75*
G02*
X147639894Y-52032676I538815J-538815D01*
G01*
X147639894Y-52032676D01*
G75*
G02*
X147639894Y-53110306I-538815J-538815D01*
G01*
X145535544Y-55214656D01*
G75*
G02*
X144457914Y-55214656I-538815J538815D01*
G01*
X144457914Y-55214656D01*
G75*
G02*
X144457914Y-54137026I538815J538815D01*
G01*
G37*
G36*
G01*
X151758548Y-53578638D02*
X148962022Y-52560786D01*
G75*
G02*
X148506595Y-51584121I260619J716046D01*
G01*
X148506595Y-51584121D01*
G75*
G02*
X149483260Y-51128694I716046J-260619D01*
G01*
X152279786Y-52146546D01*
G75*
G02*
X152735213Y-53123211I-260619J-716046D01*
G01*
X152735213Y-53123211D01*
G75*
G02*
X151758548Y-53578638I-716046J260619D01*
G01*
G37*
G36*
G01*
X153166264Y-56484656D02*
X151061914Y-54380306D01*
G75*
G02*
X151061914Y-53302676I538815J538815D01*
G01*
X151061914Y-53302676D01*
G75*
G02*
X152139544Y-53302676I538815J-538815D01*
G01*
X154243894Y-55407026D01*
G75*
G02*
X154243894Y-56484656I-538815J-538815D01*
G01*
X154243894Y-56484656D01*
G75*
G02*
X153166264Y-56484656I-538815J538815D01*
G01*
G37*
D19*
X151890904Y-53369666D03*
%TD*%
D13*
%TO.C,SW26*%
X135437209Y-64002919D03*
D18*
X130217209Y-53902919D03*
G36*
G01*
X134539392Y-55125102D02*
X134539392Y-55125102D01*
G75*
G02*
X135387920Y-55125102I424264J-424264D01*
G01*
X136095026Y-55832208D01*
G75*
G02*
X136095026Y-56680736I-424264J-424264D01*
G01*
X136095026Y-56680736D01*
G75*
G02*
X135246498Y-56680736I-424264J424264D01*
G01*
X134539392Y-55973630D01*
G75*
G02*
X134539392Y-55125102I424264J424264D01*
G01*
G37*
G36*
G01*
X124339392Y-56680736D02*
X124339392Y-56680736D01*
G75*
G02*
X124339392Y-55832208I424264J424264D01*
G01*
X125046498Y-55125102D01*
G75*
G02*
X125895026Y-55125102I424264J-424264D01*
G01*
X125895026Y-55125102D01*
G75*
G02*
X125895026Y-55973630I-424264J-424264D01*
G01*
X125187920Y-56680736D01*
G75*
G02*
X124339392Y-56680736I-424264J424264D01*
G01*
G37*
D14*
X135717209Y-59802919D03*
X124717209Y-59802919D03*
G36*
G01*
X125417260Y-58252868D02*
X125417260Y-58252868D01*
G75*
G02*
X125417260Y-57192208I530330J530330D01*
G01*
X126336498Y-56272970D01*
G75*
G02*
X127397158Y-56272970I530330J-530330D01*
G01*
X127397158Y-56272970D01*
G75*
G02*
X127397158Y-57333630I-530330J-530330D01*
G01*
X126477920Y-58252868D01*
G75*
G02*
X125417260Y-58252868I-530330J530330D01*
G01*
G37*
D15*
X130217209Y-59802919D03*
D16*
X125137209Y-59802919D03*
X135297209Y-59802919D03*
G36*
G01*
X133037260Y-56272970D02*
X133037260Y-56272970D01*
G75*
G02*
X134097920Y-56272970I530330J-530330D01*
G01*
X135017158Y-57192208D01*
G75*
G02*
X135017158Y-58252868I-530330J-530330D01*
G01*
X135017158Y-58252868D01*
G75*
G02*
X133956498Y-58252868I-530330J530330D01*
G01*
X133037260Y-57333630D01*
G75*
G02*
X133037260Y-56272970I530330J530330D01*
G01*
G37*
D17*
X127677209Y-54722919D03*
X132757209Y-54722919D03*
D13*
X124997209Y-64002919D03*
G36*
G01*
X126059015Y-57992355D02*
X124661773Y-56595113D01*
G75*
G02*
X124661773Y-55517483I538815J538815D01*
G01*
X124661773Y-55517483D01*
G75*
G02*
X125739403Y-55517483I538815J-538815D01*
G01*
X127136645Y-56914725D01*
G75*
G02*
X127136645Y-57992355I-538815J-538815D01*
G01*
X127136645Y-57992355D01*
G75*
G02*
X126059015Y-57992355I-538815J538815D01*
G01*
G37*
G36*
G01*
X125324219Y-55998279D02*
X127428569Y-53893929D01*
G75*
G02*
X128506199Y-53893929I538815J-538815D01*
G01*
X128506199Y-53893929D01*
G75*
G02*
X128506199Y-54971559I-538815J-538815D01*
G01*
X126401849Y-57075909D01*
G75*
G02*
X125324219Y-57075909I-538815J538815D01*
G01*
X125324219Y-57075909D01*
G75*
G02*
X125324219Y-55998279I538815J538815D01*
G01*
G37*
G36*
G01*
X132624853Y-55439891D02*
X129828327Y-54422039D01*
G75*
G02*
X129372900Y-53445374I260619J716046D01*
G01*
X129372900Y-53445374D01*
G75*
G02*
X130349565Y-52989947I716046J-260619D01*
G01*
X133146091Y-54007799D01*
G75*
G02*
X133601518Y-54984464I-260619J-716046D01*
G01*
X133601518Y-54984464D01*
G75*
G02*
X132624853Y-55439891I-716046J260619D01*
G01*
G37*
G36*
G01*
X134032569Y-58345909D02*
X131928219Y-56241559D01*
G75*
G02*
X131928219Y-55163929I538815J538815D01*
G01*
X131928219Y-55163929D01*
G75*
G02*
X133005849Y-55163929I538815J-538815D01*
G01*
X135110199Y-57268279D01*
G75*
G02*
X135110199Y-58345909I-538815J-538815D01*
G01*
X135110199Y-58345909D01*
G75*
G02*
X134032569Y-58345909I-538815J538815D01*
G01*
G37*
D19*
X132757209Y-55230919D03*
%TD*%
D13*
%TO.C,SW28*%
X135500231Y-102163263D03*
D18*
X130280231Y-92063263D03*
G36*
G01*
X134602414Y-93285446D02*
X134602414Y-93285446D01*
G75*
G02*
X135450942Y-93285446I424264J-424264D01*
G01*
X136158048Y-93992552D01*
G75*
G02*
X136158048Y-94841080I-424264J-424264D01*
G01*
X136158048Y-94841080D01*
G75*
G02*
X135309520Y-94841080I-424264J424264D01*
G01*
X134602414Y-94133974D01*
G75*
G02*
X134602414Y-93285446I424264J424264D01*
G01*
G37*
G36*
G01*
X124402414Y-94841080D02*
X124402414Y-94841080D01*
G75*
G02*
X124402414Y-93992552I424264J424264D01*
G01*
X125109520Y-93285446D01*
G75*
G02*
X125958048Y-93285446I424264J-424264D01*
G01*
X125958048Y-93285446D01*
G75*
G02*
X125958048Y-94133974I-424264J-424264D01*
G01*
X125250942Y-94841080D01*
G75*
G02*
X124402414Y-94841080I-424264J424264D01*
G01*
G37*
D14*
X135780231Y-97963263D03*
X124780231Y-97963263D03*
G36*
G01*
X125480282Y-96413212D02*
X125480282Y-96413212D01*
G75*
G02*
X125480282Y-95352552I530330J530330D01*
G01*
X126399520Y-94433314D01*
G75*
G02*
X127460180Y-94433314I530330J-530330D01*
G01*
X127460180Y-94433314D01*
G75*
G02*
X127460180Y-95493974I-530330J-530330D01*
G01*
X126540942Y-96413212D01*
G75*
G02*
X125480282Y-96413212I-530330J530330D01*
G01*
G37*
D15*
X130280231Y-97963263D03*
D16*
X125200231Y-97963263D03*
X135360231Y-97963263D03*
G36*
G01*
X133100282Y-94433314D02*
X133100282Y-94433314D01*
G75*
G02*
X134160942Y-94433314I530330J-530330D01*
G01*
X135080180Y-95352552D01*
G75*
G02*
X135080180Y-96413212I-530330J-530330D01*
G01*
X135080180Y-96413212D01*
G75*
G02*
X134019520Y-96413212I-530330J530330D01*
G01*
X133100282Y-95493974D01*
G75*
G02*
X133100282Y-94433314I530330J530330D01*
G01*
G37*
D17*
X127740231Y-92883263D03*
X132820231Y-92883263D03*
D13*
X125060231Y-102163263D03*
G36*
G01*
X126122037Y-96152699D02*
X124724795Y-94755457D01*
G75*
G02*
X124724795Y-93677827I538815J538815D01*
G01*
X124724795Y-93677827D01*
G75*
G02*
X125802425Y-93677827I538815J-538815D01*
G01*
X127199667Y-95075069D01*
G75*
G02*
X127199667Y-96152699I-538815J-538815D01*
G01*
X127199667Y-96152699D01*
G75*
G02*
X126122037Y-96152699I-538815J538815D01*
G01*
G37*
G36*
G01*
X125387241Y-94158623D02*
X127491591Y-92054273D01*
G75*
G02*
X128569221Y-92054273I538815J-538815D01*
G01*
X128569221Y-92054273D01*
G75*
G02*
X128569221Y-93131903I-538815J-538815D01*
G01*
X126464871Y-95236253D01*
G75*
G02*
X125387241Y-95236253I-538815J538815D01*
G01*
X125387241Y-95236253D01*
G75*
G02*
X125387241Y-94158623I538815J538815D01*
G01*
G37*
G36*
G01*
X132687875Y-93600235D02*
X129891349Y-92582383D01*
G75*
G02*
X129435922Y-91605718I260619J716046D01*
G01*
X129435922Y-91605718D01*
G75*
G02*
X130412587Y-91150291I716046J-260619D01*
G01*
X133209113Y-92168143D01*
G75*
G02*
X133664540Y-93144808I-260619J-716046D01*
G01*
X133664540Y-93144808D01*
G75*
G02*
X132687875Y-93600235I-716046J260619D01*
G01*
G37*
G36*
G01*
X134095591Y-96506253D02*
X131991241Y-94401903D01*
G75*
G02*
X131991241Y-93324273I538815J538815D01*
G01*
X131991241Y-93324273D01*
G75*
G02*
X133068871Y-93324273I538815J-538815D01*
G01*
X135173221Y-95428623D01*
G75*
G02*
X135173221Y-96506253I-538815J-538815D01*
G01*
X135173221Y-96506253D01*
G75*
G02*
X134095591Y-96506253I-538815J538815D01*
G01*
G37*
D19*
X132820231Y-93391263D03*
%TD*%
D13*
%TO.C,SW27*%
X135480853Y-83037813D03*
D18*
X130260853Y-72937813D03*
G36*
G01*
X134583036Y-74159996D02*
X134583036Y-74159996D01*
G75*
G02*
X135431564Y-74159996I424264J-424264D01*
G01*
X136138670Y-74867102D01*
G75*
G02*
X136138670Y-75715630I-424264J-424264D01*
G01*
X136138670Y-75715630D01*
G75*
G02*
X135290142Y-75715630I-424264J424264D01*
G01*
X134583036Y-75008524D01*
G75*
G02*
X134583036Y-74159996I424264J424264D01*
G01*
G37*
G36*
G01*
X124383036Y-75715630D02*
X124383036Y-75715630D01*
G75*
G02*
X124383036Y-74867102I424264J424264D01*
G01*
X125090142Y-74159996D01*
G75*
G02*
X125938670Y-74159996I424264J-424264D01*
G01*
X125938670Y-74159996D01*
G75*
G02*
X125938670Y-75008524I-424264J-424264D01*
G01*
X125231564Y-75715630D01*
G75*
G02*
X124383036Y-75715630I-424264J424264D01*
G01*
G37*
D14*
X135760853Y-78837813D03*
X124760853Y-78837813D03*
G36*
G01*
X125460904Y-77287762D02*
X125460904Y-77287762D01*
G75*
G02*
X125460904Y-76227102I530330J530330D01*
G01*
X126380142Y-75307864D01*
G75*
G02*
X127440802Y-75307864I530330J-530330D01*
G01*
X127440802Y-75307864D01*
G75*
G02*
X127440802Y-76368524I-530330J-530330D01*
G01*
X126521564Y-77287762D01*
G75*
G02*
X125460904Y-77287762I-530330J530330D01*
G01*
G37*
D15*
X130260853Y-78837813D03*
D16*
X125180853Y-78837813D03*
X135340853Y-78837813D03*
G36*
G01*
X133080904Y-75307864D02*
X133080904Y-75307864D01*
G75*
G02*
X134141564Y-75307864I530330J-530330D01*
G01*
X135060802Y-76227102D01*
G75*
G02*
X135060802Y-77287762I-530330J-530330D01*
G01*
X135060802Y-77287762D01*
G75*
G02*
X134000142Y-77287762I-530330J530330D01*
G01*
X133080904Y-76368524D01*
G75*
G02*
X133080904Y-75307864I530330J530330D01*
G01*
G37*
D17*
X127720853Y-73757813D03*
X132800853Y-73757813D03*
D13*
X125040853Y-83037813D03*
G36*
G01*
X126102659Y-77027249D02*
X124705417Y-75630007D01*
G75*
G02*
X124705417Y-74552377I538815J538815D01*
G01*
X124705417Y-74552377D01*
G75*
G02*
X125783047Y-74552377I538815J-538815D01*
G01*
X127180289Y-75949619D01*
G75*
G02*
X127180289Y-77027249I-538815J-538815D01*
G01*
X127180289Y-77027249D01*
G75*
G02*
X126102659Y-77027249I-538815J538815D01*
G01*
G37*
G36*
G01*
X125367863Y-75033173D02*
X127472213Y-72928823D01*
G75*
G02*
X128549843Y-72928823I538815J-538815D01*
G01*
X128549843Y-72928823D01*
G75*
G02*
X128549843Y-74006453I-538815J-538815D01*
G01*
X126445493Y-76110803D01*
G75*
G02*
X125367863Y-76110803I-538815J538815D01*
G01*
X125367863Y-76110803D01*
G75*
G02*
X125367863Y-75033173I538815J538815D01*
G01*
G37*
G36*
G01*
X132668497Y-74474785D02*
X129871971Y-73456933D01*
G75*
G02*
X129416544Y-72480268I260619J716046D01*
G01*
X129416544Y-72480268D01*
G75*
G02*
X130393209Y-72024841I716046J-260619D01*
G01*
X133189735Y-73042693D01*
G75*
G02*
X133645162Y-74019358I-260619J-716046D01*
G01*
X133645162Y-74019358D01*
G75*
G02*
X132668497Y-74474785I-716046J260619D01*
G01*
G37*
G36*
G01*
X134076213Y-77380803D02*
X131971863Y-75276453D01*
G75*
G02*
X131971863Y-74198823I538815J538815D01*
G01*
X131971863Y-74198823D01*
G75*
G02*
X133049493Y-74198823I538815J-538815D01*
G01*
X135153843Y-76303173D01*
G75*
G02*
X135153843Y-77380803I-538815J-538815D01*
G01*
X135153843Y-77380803D01*
G75*
G02*
X134076213Y-77380803I-538815J538815D01*
G01*
G37*
D19*
X132800853Y-74265813D03*
%TD*%
D13*
%TO.C,SW24*%
X154567636Y-100187188D03*
D18*
X149347636Y-90087188D03*
G36*
G01*
X153669819Y-91309371D02*
X153669819Y-91309371D01*
G75*
G02*
X154518347Y-91309371I424264J-424264D01*
G01*
X155225453Y-92016477D01*
G75*
G02*
X155225453Y-92865005I-424264J-424264D01*
G01*
X155225453Y-92865005D01*
G75*
G02*
X154376925Y-92865005I-424264J424264D01*
G01*
X153669819Y-92157899D01*
G75*
G02*
X153669819Y-91309371I424264J424264D01*
G01*
G37*
G36*
G01*
X143469819Y-92865005D02*
X143469819Y-92865005D01*
G75*
G02*
X143469819Y-92016477I424264J424264D01*
G01*
X144176925Y-91309371D01*
G75*
G02*
X145025453Y-91309371I424264J-424264D01*
G01*
X145025453Y-91309371D01*
G75*
G02*
X145025453Y-92157899I-424264J-424264D01*
G01*
X144318347Y-92865005D01*
G75*
G02*
X143469819Y-92865005I-424264J424264D01*
G01*
G37*
D14*
X154847636Y-95987188D03*
X143847636Y-95987188D03*
G36*
G01*
X144547687Y-94437137D02*
X144547687Y-94437137D01*
G75*
G02*
X144547687Y-93376477I530330J530330D01*
G01*
X145466925Y-92457239D01*
G75*
G02*
X146527585Y-92457239I530330J-530330D01*
G01*
X146527585Y-92457239D01*
G75*
G02*
X146527585Y-93517899I-530330J-530330D01*
G01*
X145608347Y-94437137D01*
G75*
G02*
X144547687Y-94437137I-530330J530330D01*
G01*
G37*
D15*
X149347636Y-95987188D03*
D16*
X144267636Y-95987188D03*
X154427636Y-95987188D03*
G36*
G01*
X152167687Y-92457239D02*
X152167687Y-92457239D01*
G75*
G02*
X153228347Y-92457239I530330J-530330D01*
G01*
X154147585Y-93376477D01*
G75*
G02*
X154147585Y-94437137I-530330J-530330D01*
G01*
X154147585Y-94437137D01*
G75*
G02*
X153086925Y-94437137I-530330J530330D01*
G01*
X152167687Y-93517899D01*
G75*
G02*
X152167687Y-92457239I530330J530330D01*
G01*
G37*
D17*
X146807636Y-90907188D03*
X151887636Y-90907188D03*
D13*
X144127636Y-100187188D03*
G36*
G01*
X145189442Y-94176624D02*
X143792200Y-92779382D01*
G75*
G02*
X143792200Y-91701752I538815J538815D01*
G01*
X143792200Y-91701752D01*
G75*
G02*
X144869830Y-91701752I538815J-538815D01*
G01*
X146267072Y-93098994D01*
G75*
G02*
X146267072Y-94176624I-538815J-538815D01*
G01*
X146267072Y-94176624D01*
G75*
G02*
X145189442Y-94176624I-538815J538815D01*
G01*
G37*
G36*
G01*
X144454646Y-92182548D02*
X146558996Y-90078198D01*
G75*
G02*
X147636626Y-90078198I538815J-538815D01*
G01*
X147636626Y-90078198D01*
G75*
G02*
X147636626Y-91155828I-538815J-538815D01*
G01*
X145532276Y-93260178D01*
G75*
G02*
X144454646Y-93260178I-538815J538815D01*
G01*
X144454646Y-93260178D01*
G75*
G02*
X144454646Y-92182548I538815J538815D01*
G01*
G37*
G36*
G01*
X151755280Y-91624160D02*
X148958754Y-90606308D01*
G75*
G02*
X148503327Y-89629643I260619J716046D01*
G01*
X148503327Y-89629643D01*
G75*
G02*
X149479992Y-89174216I716046J-260619D01*
G01*
X152276518Y-90192068D01*
G75*
G02*
X152731945Y-91168733I-260619J-716046D01*
G01*
X152731945Y-91168733D01*
G75*
G02*
X151755280Y-91624160I-716046J260619D01*
G01*
G37*
G36*
G01*
X153162996Y-94530178D02*
X151058646Y-92425828D01*
G75*
G02*
X151058646Y-91348198I538815J538815D01*
G01*
X151058646Y-91348198D01*
G75*
G02*
X152136276Y-91348198I538815J-538815D01*
G01*
X154240626Y-93452548D01*
G75*
G02*
X154240626Y-94530178I-538815J-538815D01*
G01*
X154240626Y-94530178D01*
G75*
G02*
X153162996Y-94530178I-538815J538815D01*
G01*
G37*
D19*
X151887636Y-91415188D03*
%TD*%
D13*
%TO.C,SW23*%
X154523992Y-81152291D03*
D18*
X149303992Y-71052291D03*
G36*
G01*
X153626175Y-72274474D02*
X153626175Y-72274474D01*
G75*
G02*
X154474703Y-72274474I424264J-424264D01*
G01*
X155181809Y-72981580D01*
G75*
G02*
X155181809Y-73830108I-424264J-424264D01*
G01*
X155181809Y-73830108D01*
G75*
G02*
X154333281Y-73830108I-424264J424264D01*
G01*
X153626175Y-73123002D01*
G75*
G02*
X153626175Y-72274474I424264J424264D01*
G01*
G37*
G36*
G01*
X143426175Y-73830108D02*
X143426175Y-73830108D01*
G75*
G02*
X143426175Y-72981580I424264J424264D01*
G01*
X144133281Y-72274474D01*
G75*
G02*
X144981809Y-72274474I424264J-424264D01*
G01*
X144981809Y-72274474D01*
G75*
G02*
X144981809Y-73123002I-424264J-424264D01*
G01*
X144274703Y-73830108D01*
G75*
G02*
X143426175Y-73830108I-424264J424264D01*
G01*
G37*
D14*
X154803992Y-76952291D03*
X143803992Y-76952291D03*
G36*
G01*
X144504043Y-75402240D02*
X144504043Y-75402240D01*
G75*
G02*
X144504043Y-74341580I530330J530330D01*
G01*
X145423281Y-73422342D01*
G75*
G02*
X146483941Y-73422342I530330J-530330D01*
G01*
X146483941Y-73422342D01*
G75*
G02*
X146483941Y-74483002I-530330J-530330D01*
G01*
X145564703Y-75402240D01*
G75*
G02*
X144504043Y-75402240I-530330J530330D01*
G01*
G37*
D15*
X149303992Y-76952291D03*
D16*
X144223992Y-76952291D03*
X154383992Y-76952291D03*
G36*
G01*
X152124043Y-73422342D02*
X152124043Y-73422342D01*
G75*
G02*
X153184703Y-73422342I530330J-530330D01*
G01*
X154103941Y-74341580D01*
G75*
G02*
X154103941Y-75402240I-530330J-530330D01*
G01*
X154103941Y-75402240D01*
G75*
G02*
X153043281Y-75402240I-530330J530330D01*
G01*
X152124043Y-74483002D01*
G75*
G02*
X152124043Y-73422342I530330J530330D01*
G01*
G37*
D17*
X146763992Y-71872291D03*
X151843992Y-71872291D03*
D13*
X144083992Y-81152291D03*
G36*
G01*
X145145798Y-75141727D02*
X143748556Y-73744485D01*
G75*
G02*
X143748556Y-72666855I538815J538815D01*
G01*
X143748556Y-72666855D01*
G75*
G02*
X144826186Y-72666855I538815J-538815D01*
G01*
X146223428Y-74064097D01*
G75*
G02*
X146223428Y-75141727I-538815J-538815D01*
G01*
X146223428Y-75141727D01*
G75*
G02*
X145145798Y-75141727I-538815J538815D01*
G01*
G37*
G36*
G01*
X144411002Y-73147651D02*
X146515352Y-71043301D01*
G75*
G02*
X147592982Y-71043301I538815J-538815D01*
G01*
X147592982Y-71043301D01*
G75*
G02*
X147592982Y-72120931I-538815J-538815D01*
G01*
X145488632Y-74225281D01*
G75*
G02*
X144411002Y-74225281I-538815J538815D01*
G01*
X144411002Y-74225281D01*
G75*
G02*
X144411002Y-73147651I538815J538815D01*
G01*
G37*
G36*
G01*
X151711636Y-72589263D02*
X148915110Y-71571411D01*
G75*
G02*
X148459683Y-70594746I260619J716046D01*
G01*
X148459683Y-70594746D01*
G75*
G02*
X149436348Y-70139319I716046J-260619D01*
G01*
X152232874Y-71157171D01*
G75*
G02*
X152688301Y-72133836I-260619J-716046D01*
G01*
X152688301Y-72133836D01*
G75*
G02*
X151711636Y-72589263I-716046J260619D01*
G01*
G37*
G36*
G01*
X153119352Y-75495281D02*
X151015002Y-73390931D01*
G75*
G02*
X151015002Y-72313301I538815J538815D01*
G01*
X151015002Y-72313301D01*
G75*
G02*
X152092632Y-72313301I538815J-538815D01*
G01*
X154196982Y-74417651D01*
G75*
G02*
X154196982Y-75495281I-538815J-538815D01*
G01*
X154196982Y-75495281D01*
G75*
G02*
X153119352Y-75495281I-538815J538815D01*
G01*
G37*
D19*
X151843992Y-72380291D03*
%TD*%
D13*
%TO.C,SW20*%
X108945534Y-135880426D03*
G36*
G01*
X99416692Y-132036984D02*
X99416692Y-132036984D01*
G75*
G02*
X98365106Y-131898540I-456571J595015D01*
G01*
X97756344Y-131105186D01*
G75*
G02*
X97894788Y-130053600I595015J456571D01*
G01*
X97894788Y-130053600D01*
G75*
G02*
X98946374Y-130192044I456571J-595015D01*
G01*
X99555136Y-130985398D01*
G75*
G02*
X99416692Y-132036984I-595015J-456571D01*
G01*
G37*
G36*
G01*
X102828775Y-129383737D02*
X102828775Y-129383737D01*
G75*
G02*
X103501958Y-128867186I594867J-78316D01*
G01*
X104493402Y-128997712D01*
G75*
G02*
X105009953Y-129670895I-78316J-594867D01*
G01*
X105009953Y-129670895D01*
G75*
G02*
X104336770Y-130187446I-594867J78316D01*
G01*
X103345326Y-130056920D01*
G75*
G02*
X102828775Y-129383737I78316J594867D01*
G01*
G37*
G36*
G01*
X95683581Y-136827271D02*
X95683581Y-136827271D01*
G75*
G02*
X95167030Y-136154088I78316J594867D01*
G01*
X95297556Y-135162644D01*
G75*
G02*
X95970739Y-134646093I594867J-78316D01*
G01*
X95970739Y-134646093D01*
G75*
G02*
X96487290Y-135319276I-78316J-594867D01*
G01*
X96356764Y-136310720D01*
G75*
G02*
X95683581Y-136827271I-594867J78316D01*
G01*
G37*
D14*
X106610875Y-132377889D03*
X97883989Y-139074265D03*
G36*
G01*
X97495765Y-137418364D02*
X97495765Y-137418364D01*
G75*
G02*
X96850076Y-136576885I97895J743584D01*
G01*
X97019760Y-135288007D01*
G75*
G02*
X97861239Y-134642318I743584J-97895D01*
G01*
X97861239Y-134642318D01*
G75*
G02*
X98506928Y-135483797I-97895J-743584D01*
G01*
X98337244Y-136772675D01*
G75*
G02*
X97495765Y-137418364I-743584J97895D01*
G01*
G37*
D15*
X102247432Y-135726077D03*
D16*
X98217197Y-138818585D03*
X106277667Y-132633569D03*
G36*
G01*
X102335831Y-131208841D02*
X102335831Y-131208841D01*
G75*
G02*
X103177310Y-130563152I743584J-97895D01*
G01*
X104466188Y-130732836D01*
G75*
G02*
X105111877Y-131574315I-97895J-743584D01*
G01*
X105111877Y-131574315D01*
G75*
G02*
X104270398Y-132220004I-743584J97895D01*
G01*
X102981520Y-132050320D01*
G75*
G02*
X102335831Y-131208841I97895J743584D01*
G01*
G37*
D17*
X97139806Y-133242096D03*
X101170041Y-130149588D03*
D13*
X100662926Y-142235896D03*
G36*
G01*
X97846314Y-136821009D02*
X95887218Y-136563089D01*
G75*
G02*
X95231198Y-135708147I99461J755481D01*
G01*
X95231198Y-135708147D01*
G75*
G02*
X96086140Y-135052127I755481J-99461D01*
G01*
X98045236Y-135310047D01*
G75*
G02*
X98701256Y-136164989I-99461J-755481D01*
G01*
X98701256Y-136164989D01*
G75*
G02*
X97846314Y-136821009I-755481J99461D01*
G01*
G37*
G36*
G01*
X96049443Y-135686317D02*
X96437889Y-132735777D01*
G75*
G02*
X97292831Y-132079757I755481J-99461D01*
G01*
X97292831Y-132079757D01*
G75*
G02*
X97948851Y-132934699I-99461J-755481D01*
G01*
X97560405Y-135885239D01*
G75*
G02*
X96705463Y-136541259I-755481J99461D01*
G01*
X96705463Y-136541259D01*
G75*
G02*
X96049443Y-135686317I99461J755481D01*
G01*
G37*
G36*
G01*
X101501501Y-130798974D02*
X98663239Y-131693874D01*
G75*
G02*
X97707369Y-131196280I-229138J726732D01*
G01*
X97707369Y-131196280D01*
G75*
G02*
X98204963Y-130240410I726732J229138D01*
G01*
X101043225Y-129345510D01*
G75*
G02*
X101999095Y-129843104I229138J-726732D01*
G01*
X101999095Y-129843104D01*
G75*
G02*
X101501501Y-130798974I-726732J-229138D01*
G01*
G37*
G36*
G01*
X104387389Y-132247510D02*
X101436849Y-131859064D01*
G75*
G02*
X100780829Y-131004122I99461J755481D01*
G01*
X100780829Y-131004122D01*
G75*
G02*
X101635771Y-130348102I755481J-99461D01*
G01*
X104586311Y-130736548D01*
G75*
G02*
X105242331Y-131591490I-99461J-755481D01*
G01*
X105242331Y-131591490D01*
G75*
G02*
X104387389Y-132247510I-755481J99461D01*
G01*
G37*
G36*
G01*
X101340848Y-131604197D02*
X100427706Y-130414167D01*
G75*
G02*
X100566150Y-129362581I595015J456571D01*
G01*
X100566150Y-129362581D01*
G75*
G02*
X101617736Y-129501025I456571J-595015D01*
G01*
X102530878Y-130691055D01*
G75*
G02*
X102392434Y-131742641I-595015J-456571D01*
G01*
X102392434Y-131742641D01*
G75*
G02*
X101340848Y-131604197I-456571J595015D01*
G01*
G37*
%TD*%
%TO.C,SW19*%
X173560969Y-94503093D03*
D18*
X168340969Y-84403093D03*
G36*
G01*
X172663152Y-85625276D02*
X172663152Y-85625276D01*
G75*
G02*
X173511680Y-85625276I424264J-424264D01*
G01*
X174218786Y-86332382D01*
G75*
G02*
X174218786Y-87180910I-424264J-424264D01*
G01*
X174218786Y-87180910D01*
G75*
G02*
X173370258Y-87180910I-424264J424264D01*
G01*
X172663152Y-86473804D01*
G75*
G02*
X172663152Y-85625276I424264J424264D01*
G01*
G37*
G36*
G01*
X162463152Y-87180910D02*
X162463152Y-87180910D01*
G75*
G02*
X162463152Y-86332382I424264J424264D01*
G01*
X163170258Y-85625276D01*
G75*
G02*
X164018786Y-85625276I424264J-424264D01*
G01*
X164018786Y-85625276D01*
G75*
G02*
X164018786Y-86473804I-424264J-424264D01*
G01*
X163311680Y-87180910D01*
G75*
G02*
X162463152Y-87180910I-424264J424264D01*
G01*
G37*
D14*
X173840969Y-90303093D03*
X162840969Y-90303093D03*
G36*
G01*
X163541020Y-88753042D02*
X163541020Y-88753042D01*
G75*
G02*
X163541020Y-87692382I530330J530330D01*
G01*
X164460258Y-86773144D01*
G75*
G02*
X165520918Y-86773144I530330J-530330D01*
G01*
X165520918Y-86773144D01*
G75*
G02*
X165520918Y-87833804I-530330J-530330D01*
G01*
X164601680Y-88753042D01*
G75*
G02*
X163541020Y-88753042I-530330J530330D01*
G01*
G37*
D15*
X168340969Y-90303093D03*
D16*
X163260969Y-90303093D03*
X173420969Y-90303093D03*
G36*
G01*
X171161020Y-86773144D02*
X171161020Y-86773144D01*
G75*
G02*
X172221680Y-86773144I530330J-530330D01*
G01*
X173140918Y-87692382D01*
G75*
G02*
X173140918Y-88753042I-530330J-530330D01*
G01*
X173140918Y-88753042D01*
G75*
G02*
X172080258Y-88753042I-530330J530330D01*
G01*
X171161020Y-87833804D01*
G75*
G02*
X171161020Y-86773144I530330J530330D01*
G01*
G37*
D17*
X165800969Y-85223093D03*
X170880969Y-85223093D03*
D13*
X163120969Y-94503093D03*
G36*
G01*
X164182775Y-88492529D02*
X162785533Y-87095287D01*
G75*
G02*
X162785533Y-86017657I538815J538815D01*
G01*
X162785533Y-86017657D01*
G75*
G02*
X163863163Y-86017657I538815J-538815D01*
G01*
X165260405Y-87414899D01*
G75*
G02*
X165260405Y-88492529I-538815J-538815D01*
G01*
X165260405Y-88492529D01*
G75*
G02*
X164182775Y-88492529I-538815J538815D01*
G01*
G37*
G36*
G01*
X163447979Y-86498453D02*
X165552329Y-84394103D01*
G75*
G02*
X166629959Y-84394103I538815J-538815D01*
G01*
X166629959Y-84394103D01*
G75*
G02*
X166629959Y-85471733I-538815J-538815D01*
G01*
X164525609Y-87576083D01*
G75*
G02*
X163447979Y-87576083I-538815J538815D01*
G01*
X163447979Y-87576083D01*
G75*
G02*
X163447979Y-86498453I538815J538815D01*
G01*
G37*
G36*
G01*
X170748613Y-85940065D02*
X167952087Y-84922213D01*
G75*
G02*
X167496660Y-83945548I260619J716046D01*
G01*
X167496660Y-83945548D01*
G75*
G02*
X168473325Y-83490121I716046J-260619D01*
G01*
X171269851Y-84507973D01*
G75*
G02*
X171725278Y-85484638I-260619J-716046D01*
G01*
X171725278Y-85484638D01*
G75*
G02*
X170748613Y-85940065I-716046J260619D01*
G01*
G37*
G36*
G01*
X172156329Y-88846083D02*
X170051979Y-86741733D01*
G75*
G02*
X170051979Y-85664103I538815J538815D01*
G01*
X170051979Y-85664103D01*
G75*
G02*
X171129609Y-85664103I538815J-538815D01*
G01*
X173233959Y-87768453D01*
G75*
G02*
X173233959Y-88846083I-538815J-538815D01*
G01*
X173233959Y-88846083D01*
G75*
G02*
X172156329Y-88846083I-538815J538815D01*
G01*
G37*
D19*
X170880969Y-85731093D03*
%TD*%
D13*
%TO.C,SW18*%
X173607883Y-75492465D03*
D18*
X168387883Y-65392465D03*
G36*
G01*
X172710066Y-66614648D02*
X172710066Y-66614648D01*
G75*
G02*
X173558594Y-66614648I424264J-424264D01*
G01*
X174265700Y-67321754D01*
G75*
G02*
X174265700Y-68170282I-424264J-424264D01*
G01*
X174265700Y-68170282D01*
G75*
G02*
X173417172Y-68170282I-424264J424264D01*
G01*
X172710066Y-67463176D01*
G75*
G02*
X172710066Y-66614648I424264J424264D01*
G01*
G37*
G36*
G01*
X162510066Y-68170282D02*
X162510066Y-68170282D01*
G75*
G02*
X162510066Y-67321754I424264J424264D01*
G01*
X163217172Y-66614648D01*
G75*
G02*
X164065700Y-66614648I424264J-424264D01*
G01*
X164065700Y-66614648D01*
G75*
G02*
X164065700Y-67463176I-424264J-424264D01*
G01*
X163358594Y-68170282D01*
G75*
G02*
X162510066Y-68170282I-424264J424264D01*
G01*
G37*
D14*
X173887883Y-71292465D03*
X162887883Y-71292465D03*
G36*
G01*
X163587934Y-69742414D02*
X163587934Y-69742414D01*
G75*
G02*
X163587934Y-68681754I530330J530330D01*
G01*
X164507172Y-67762516D01*
G75*
G02*
X165567832Y-67762516I530330J-530330D01*
G01*
X165567832Y-67762516D01*
G75*
G02*
X165567832Y-68823176I-530330J-530330D01*
G01*
X164648594Y-69742414D01*
G75*
G02*
X163587934Y-69742414I-530330J530330D01*
G01*
G37*
D15*
X168387883Y-71292465D03*
D16*
X163307883Y-71292465D03*
X173467883Y-71292465D03*
G36*
G01*
X171207934Y-67762516D02*
X171207934Y-67762516D01*
G75*
G02*
X172268594Y-67762516I530330J-530330D01*
G01*
X173187832Y-68681754D01*
G75*
G02*
X173187832Y-69742414I-530330J-530330D01*
G01*
X173187832Y-69742414D01*
G75*
G02*
X172127172Y-69742414I-530330J530330D01*
G01*
X171207934Y-68823176D01*
G75*
G02*
X171207934Y-67762516I530330J530330D01*
G01*
G37*
D17*
X165847883Y-66212465D03*
X170927883Y-66212465D03*
D13*
X163167883Y-75492465D03*
G36*
G01*
X164229689Y-69481901D02*
X162832447Y-68084659D01*
G75*
G02*
X162832447Y-67007029I538815J538815D01*
G01*
X162832447Y-67007029D01*
G75*
G02*
X163910077Y-67007029I538815J-538815D01*
G01*
X165307319Y-68404271D01*
G75*
G02*
X165307319Y-69481901I-538815J-538815D01*
G01*
X165307319Y-69481901D01*
G75*
G02*
X164229689Y-69481901I-538815J538815D01*
G01*
G37*
G36*
G01*
X163494893Y-67487825D02*
X165599243Y-65383475D01*
G75*
G02*
X166676873Y-65383475I538815J-538815D01*
G01*
X166676873Y-65383475D01*
G75*
G02*
X166676873Y-66461105I-538815J-538815D01*
G01*
X164572523Y-68565455D01*
G75*
G02*
X163494893Y-68565455I-538815J538815D01*
G01*
X163494893Y-68565455D01*
G75*
G02*
X163494893Y-67487825I538815J538815D01*
G01*
G37*
G36*
G01*
X170795527Y-66929437D02*
X167999001Y-65911585D01*
G75*
G02*
X167543574Y-64934920I260619J716046D01*
G01*
X167543574Y-64934920D01*
G75*
G02*
X168520239Y-64479493I716046J-260619D01*
G01*
X171316765Y-65497345D01*
G75*
G02*
X171772192Y-66474010I-260619J-716046D01*
G01*
X171772192Y-66474010D01*
G75*
G02*
X170795527Y-66929437I-716046J260619D01*
G01*
G37*
G36*
G01*
X172203243Y-69835455D02*
X170098893Y-67731105D01*
G75*
G02*
X170098893Y-66653475I538815J538815D01*
G01*
X170098893Y-66653475D01*
G75*
G02*
X171176523Y-66653475I538815J-538815D01*
G01*
X173280873Y-68757825D01*
G75*
G02*
X173280873Y-69835455I-538815J-538815D01*
G01*
X173280873Y-69835455D01*
G75*
G02*
X172203243Y-69835455I-538815J538815D01*
G01*
G37*
D19*
X170927883Y-66720465D03*
%TD*%
D13*
%TO.C,SW17*%
X173588502Y-56367014D03*
D18*
X168368502Y-46267014D03*
G36*
G01*
X172690685Y-47489197D02*
X172690685Y-47489197D01*
G75*
G02*
X173539213Y-47489197I424264J-424264D01*
G01*
X174246319Y-48196303D01*
G75*
G02*
X174246319Y-49044831I-424264J-424264D01*
G01*
X174246319Y-49044831D01*
G75*
G02*
X173397791Y-49044831I-424264J424264D01*
G01*
X172690685Y-48337725D01*
G75*
G02*
X172690685Y-47489197I424264J424264D01*
G01*
G37*
G36*
G01*
X162490685Y-49044831D02*
X162490685Y-49044831D01*
G75*
G02*
X162490685Y-48196303I424264J424264D01*
G01*
X163197791Y-47489197D01*
G75*
G02*
X164046319Y-47489197I424264J-424264D01*
G01*
X164046319Y-47489197D01*
G75*
G02*
X164046319Y-48337725I-424264J-424264D01*
G01*
X163339213Y-49044831D01*
G75*
G02*
X162490685Y-49044831I-424264J424264D01*
G01*
G37*
D14*
X173868502Y-52167014D03*
X162868502Y-52167014D03*
G36*
G01*
X163568553Y-50616963D02*
X163568553Y-50616963D01*
G75*
G02*
X163568553Y-49556303I530330J530330D01*
G01*
X164487791Y-48637065D01*
G75*
G02*
X165548451Y-48637065I530330J-530330D01*
G01*
X165548451Y-48637065D01*
G75*
G02*
X165548451Y-49697725I-530330J-530330D01*
G01*
X164629213Y-50616963D01*
G75*
G02*
X163568553Y-50616963I-530330J530330D01*
G01*
G37*
D15*
X168368502Y-52167014D03*
D16*
X163288502Y-52167014D03*
X173448502Y-52167014D03*
G36*
G01*
X171188553Y-48637065D02*
X171188553Y-48637065D01*
G75*
G02*
X172249213Y-48637065I530330J-530330D01*
G01*
X173168451Y-49556303D01*
G75*
G02*
X173168451Y-50616963I-530330J-530330D01*
G01*
X173168451Y-50616963D01*
G75*
G02*
X172107791Y-50616963I-530330J530330D01*
G01*
X171188553Y-49697725D01*
G75*
G02*
X171188553Y-48637065I530330J530330D01*
G01*
G37*
D17*
X165828502Y-47087014D03*
X170908502Y-47087014D03*
D13*
X163148502Y-56367014D03*
G36*
G01*
X164210308Y-50356450D02*
X162813066Y-48959208D01*
G75*
G02*
X162813066Y-47881578I538815J538815D01*
G01*
X162813066Y-47881578D01*
G75*
G02*
X163890696Y-47881578I538815J-538815D01*
G01*
X165287938Y-49278820D01*
G75*
G02*
X165287938Y-50356450I-538815J-538815D01*
G01*
X165287938Y-50356450D01*
G75*
G02*
X164210308Y-50356450I-538815J538815D01*
G01*
G37*
G36*
G01*
X163475512Y-48362374D02*
X165579862Y-46258024D01*
G75*
G02*
X166657492Y-46258024I538815J-538815D01*
G01*
X166657492Y-46258024D01*
G75*
G02*
X166657492Y-47335654I-538815J-538815D01*
G01*
X164553142Y-49440004D01*
G75*
G02*
X163475512Y-49440004I-538815J538815D01*
G01*
X163475512Y-49440004D01*
G75*
G02*
X163475512Y-48362374I538815J538815D01*
G01*
G37*
G36*
G01*
X170776146Y-47803986D02*
X167979620Y-46786134D01*
G75*
G02*
X167524193Y-45809469I260619J716046D01*
G01*
X167524193Y-45809469D01*
G75*
G02*
X168500858Y-45354042I716046J-260619D01*
G01*
X171297384Y-46371894D01*
G75*
G02*
X171752811Y-47348559I-260619J-716046D01*
G01*
X171752811Y-47348559D01*
G75*
G02*
X170776146Y-47803986I-716046J260619D01*
G01*
G37*
G36*
G01*
X172183862Y-50710004D02*
X170079512Y-48605654D01*
G75*
G02*
X170079512Y-47528024I538815J538815D01*
G01*
X170079512Y-47528024D01*
G75*
G02*
X171157142Y-47528024I538815J-538815D01*
G01*
X173261492Y-49632374D01*
G75*
G02*
X173261492Y-50710004I-538815J-538815D01*
G01*
X173261492Y-50710004D01*
G75*
G02*
X172183862Y-50710004I-538815J538815D01*
G01*
G37*
D19*
X170908502Y-47595014D03*
%TD*%
D13*
%TO.C,SW15*%
X126236740Y-126773182D03*
G36*
G01*
X117765642Y-120958426D02*
X117765642Y-120958426D01*
G75*
G02*
X116768947Y-120595659I-316964J679731D01*
G01*
X116346329Y-119689351D01*
G75*
G02*
X116709096Y-118692656I679731J316964D01*
G01*
X116709096Y-118692656D01*
G75*
G02*
X117705791Y-119055423I316964J-679731D01*
G01*
X118128409Y-119961731D01*
G75*
G02*
X117765642Y-120958426I-679731J-316964D01*
G01*
G37*
G36*
G01*
X121671113Y-119106581D02*
X121671113Y-119106581D01*
G75*
G02*
X122440141Y-118747977I563816J-205212D01*
G01*
X123379833Y-119089997D01*
G75*
G02*
X123738437Y-119859025I-205212J-563816D01*
G01*
X123738437Y-119859025D01*
G75*
G02*
X122969409Y-120217629I-563816J205212D01*
G01*
X122029717Y-119875609D01*
G75*
G02*
X121671113Y-119106581I205212J563816D01*
G01*
G37*
G36*
G01*
X113084214Y-124827172D02*
X113084214Y-124827172D01*
G75*
G02*
X112725610Y-124058144I205212J563816D01*
G01*
X113067630Y-123118452D01*
G75*
G02*
X113836658Y-122759848I563816J-205212D01*
G01*
X113836658Y-122759848D01*
G75*
G02*
X114195262Y-123528876I-205212J-563816D01*
G01*
X113853242Y-124468568D01*
G75*
G02*
X113084214Y-124827172I-563816J205212D01*
G01*
G37*
D14*
X124715510Y-122848357D03*
X114746124Y-127497157D03*
G36*
G01*
X114725506Y-125796480D02*
X114725506Y-125796480D01*
G75*
G02*
X114277252Y-124835196I256515J704769D01*
G01*
X114721878Y-123613596D01*
G75*
G02*
X115683162Y-123165342I704769J-256515D01*
G01*
X115683162Y-123165342D01*
G75*
G02*
X116131416Y-124126626I-256515J-704769D01*
G01*
X115686790Y-125348226D01*
G75*
G02*
X114725506Y-125796480I-704769J256515D01*
G01*
G37*
D15*
X119730817Y-125172757D03*
D16*
X115126773Y-127319658D03*
X124334861Y-123025856D03*
G36*
G01*
X120794830Y-120781732D02*
X120794830Y-120781732D01*
G75*
G02*
X121756114Y-120333478I704769J-256515D01*
G01*
X122977714Y-120778104D01*
G75*
G02*
X123425968Y-121739388I-256515J-704769D01*
G01*
X123425968Y-121739388D01*
G75*
G02*
X122464684Y-122187642I-704769J256515D01*
G01*
X121243084Y-121743016D01*
G75*
G02*
X120794830Y-120781732I256515J704769D01*
G01*
G37*
D17*
X115281894Y-121642164D03*
X119885938Y-119495263D03*
D13*
X116774887Y-131185317D03*
G36*
G01*
X115197037Y-125289159D02*
X113340205Y-124613327D01*
G75*
G02*
X112884778Y-123636662I260619J716046D01*
G01*
X112884778Y-123636662D01*
G75*
G02*
X113861443Y-123181235I716046J-260619D01*
G01*
X115718275Y-123857067D01*
G75*
G02*
X116173702Y-124833732I-260619J-716046D01*
G01*
X116173702Y-124833732D01*
G75*
G02*
X115197037Y-125289159I-716046J260619D01*
G01*
G37*
G36*
G01*
X113688351Y-123792449D02*
X114706203Y-120995923D01*
G75*
G02*
X115682868Y-120540496I716046J-260619D01*
G01*
X115682868Y-120540496D01*
G75*
G02*
X116138295Y-121517161I-260619J-716046D01*
G01*
X115120443Y-124313687D01*
G75*
G02*
X114143778Y-124769114I-716046J260619D01*
G01*
X114143778Y-124769114D01*
G75*
G02*
X113688351Y-123792449I260619J716046D01*
G01*
G37*
G36*
G01*
X120068988Y-120200996D02*
X117104312Y-120460372D01*
G75*
G02*
X116278799Y-119767685I-66413J759100D01*
G01*
X116278799Y-119767685D01*
G75*
G02*
X116971486Y-118942172I759100J66413D01*
G01*
X119936162Y-118682796D01*
G75*
G02*
X120761675Y-119375483I66413J-759100D01*
G01*
X120761675Y-119375483D01*
G75*
G02*
X120068988Y-120200996I-759100J-66413D01*
G01*
G37*
G36*
G01*
X122572949Y-122239817D02*
X119776423Y-121221965D01*
G75*
G02*
X119320996Y-120245300I260619J716046D01*
G01*
X119320996Y-120245300D01*
G75*
G02*
X120297661Y-119789873I716046J-260619D01*
G01*
X123094187Y-120807725D01*
G75*
G02*
X123549614Y-121784390I-260619J-716046D01*
G01*
X123549614Y-121784390D01*
G75*
G02*
X122572949Y-122239817I-716046J260619D01*
G01*
G37*
G36*
G01*
X119737861Y-120952362D02*
X119103933Y-119592900D01*
G75*
G02*
X119466700Y-118596205I679731J316964D01*
G01*
X119466700Y-118596205D01*
G75*
G02*
X120463395Y-118958972I316964J-679731D01*
G01*
X121097323Y-120318434D01*
G75*
G02*
X120734556Y-121315129I-679731J-316964D01*
G01*
X120734556Y-121315129D01*
G75*
G02*
X119737861Y-120952362I-316964J679731D01*
G01*
G37*
%TD*%
%TO.C,SW14*%
X192621400Y-98348575D03*
D18*
X187401400Y-88248575D03*
G36*
G01*
X191723583Y-89470758D02*
X191723583Y-89470758D01*
G75*
G02*
X192572111Y-89470758I424264J-424264D01*
G01*
X193279217Y-90177864D01*
G75*
G02*
X193279217Y-91026392I-424264J-424264D01*
G01*
X193279217Y-91026392D01*
G75*
G02*
X192430689Y-91026392I-424264J424264D01*
G01*
X191723583Y-90319286D01*
G75*
G02*
X191723583Y-89470758I424264J424264D01*
G01*
G37*
G36*
G01*
X181523583Y-91026392D02*
X181523583Y-91026392D01*
G75*
G02*
X181523583Y-90177864I424264J424264D01*
G01*
X182230689Y-89470758D01*
G75*
G02*
X183079217Y-89470758I424264J-424264D01*
G01*
X183079217Y-89470758D01*
G75*
G02*
X183079217Y-90319286I-424264J-424264D01*
G01*
X182372111Y-91026392D01*
G75*
G02*
X181523583Y-91026392I-424264J424264D01*
G01*
G37*
D14*
X192901400Y-94148575D03*
X181901400Y-94148575D03*
G36*
G01*
X182601451Y-92598524D02*
X182601451Y-92598524D01*
G75*
G02*
X182601451Y-91537864I530330J530330D01*
G01*
X183520689Y-90618626D01*
G75*
G02*
X184581349Y-90618626I530330J-530330D01*
G01*
X184581349Y-90618626D01*
G75*
G02*
X184581349Y-91679286I-530330J-530330D01*
G01*
X183662111Y-92598524D01*
G75*
G02*
X182601451Y-92598524I-530330J530330D01*
G01*
G37*
D15*
X187401400Y-94148575D03*
D16*
X182321400Y-94148575D03*
X192481400Y-94148575D03*
G36*
G01*
X190221451Y-90618626D02*
X190221451Y-90618626D01*
G75*
G02*
X191282111Y-90618626I530330J-530330D01*
G01*
X192201349Y-91537864D01*
G75*
G02*
X192201349Y-92598524I-530330J-530330D01*
G01*
X192201349Y-92598524D01*
G75*
G02*
X191140689Y-92598524I-530330J530330D01*
G01*
X190221451Y-91679286D01*
G75*
G02*
X190221451Y-90618626I530330J530330D01*
G01*
G37*
D17*
X184861400Y-89068575D03*
X189941400Y-89068575D03*
D13*
X182181400Y-98348575D03*
G36*
G01*
X183243206Y-92338011D02*
X181845964Y-90940769D01*
G75*
G02*
X181845964Y-89863139I538815J538815D01*
G01*
X181845964Y-89863139D01*
G75*
G02*
X182923594Y-89863139I538815J-538815D01*
G01*
X184320836Y-91260381D01*
G75*
G02*
X184320836Y-92338011I-538815J-538815D01*
G01*
X184320836Y-92338011D01*
G75*
G02*
X183243206Y-92338011I-538815J538815D01*
G01*
G37*
G36*
G01*
X182508410Y-90343935D02*
X184612760Y-88239585D01*
G75*
G02*
X185690390Y-88239585I538815J-538815D01*
G01*
X185690390Y-88239585D01*
G75*
G02*
X185690390Y-89317215I-538815J-538815D01*
G01*
X183586040Y-91421565D01*
G75*
G02*
X182508410Y-91421565I-538815J538815D01*
G01*
X182508410Y-91421565D01*
G75*
G02*
X182508410Y-90343935I538815J538815D01*
G01*
G37*
G36*
G01*
X189809044Y-89785547D02*
X187012518Y-88767695D01*
G75*
G02*
X186557091Y-87791030I260619J716046D01*
G01*
X186557091Y-87791030D01*
G75*
G02*
X187533756Y-87335603I716046J-260619D01*
G01*
X190330282Y-88353455D01*
G75*
G02*
X190785709Y-89330120I-260619J-716046D01*
G01*
X190785709Y-89330120D01*
G75*
G02*
X189809044Y-89785547I-716046J260619D01*
G01*
G37*
G36*
G01*
X191216760Y-92691565D02*
X189112410Y-90587215D01*
G75*
G02*
X189112410Y-89509585I538815J538815D01*
G01*
X189112410Y-89509585D01*
G75*
G02*
X190190040Y-89509585I538815J-538815D01*
G01*
X192294390Y-91613935D01*
G75*
G02*
X192294390Y-92691565I-538815J-538815D01*
G01*
X192294390Y-92691565D01*
G75*
G02*
X191216760Y-92691565I-538815J538815D01*
G01*
G37*
D19*
X189941400Y-89576575D03*
%TD*%
D13*
%TO.C,SW9*%
X211723400Y-112597020D03*
D18*
X206503400Y-102497020D03*
G36*
G01*
X210825583Y-103719203D02*
X210825583Y-103719203D01*
G75*
G02*
X211674111Y-103719203I424264J-424264D01*
G01*
X212381217Y-104426309D01*
G75*
G02*
X212381217Y-105274837I-424264J-424264D01*
G01*
X212381217Y-105274837D01*
G75*
G02*
X211532689Y-105274837I-424264J424264D01*
G01*
X210825583Y-104567731D01*
G75*
G02*
X210825583Y-103719203I424264J424264D01*
G01*
G37*
G36*
G01*
X200625583Y-105274837D02*
X200625583Y-105274837D01*
G75*
G02*
X200625583Y-104426309I424264J424264D01*
G01*
X201332689Y-103719203D01*
G75*
G02*
X202181217Y-103719203I424264J-424264D01*
G01*
X202181217Y-103719203D01*
G75*
G02*
X202181217Y-104567731I-424264J-424264D01*
G01*
X201474111Y-105274837D01*
G75*
G02*
X200625583Y-105274837I-424264J424264D01*
G01*
G37*
D14*
X212003400Y-108397020D03*
X201003400Y-108397020D03*
G36*
G01*
X201703451Y-106846969D02*
X201703451Y-106846969D01*
G75*
G02*
X201703451Y-105786309I530330J530330D01*
G01*
X202622689Y-104867071D01*
G75*
G02*
X203683349Y-104867071I530330J-530330D01*
G01*
X203683349Y-104867071D01*
G75*
G02*
X203683349Y-105927731I-530330J-530330D01*
G01*
X202764111Y-106846969D01*
G75*
G02*
X201703451Y-106846969I-530330J530330D01*
G01*
G37*
D15*
X206503400Y-108397020D03*
D16*
X201423400Y-108397020D03*
X211583400Y-108397020D03*
G36*
G01*
X209323451Y-104867071D02*
X209323451Y-104867071D01*
G75*
G02*
X210384111Y-104867071I530330J-530330D01*
G01*
X211303349Y-105786309D01*
G75*
G02*
X211303349Y-106846969I-530330J-530330D01*
G01*
X211303349Y-106846969D01*
G75*
G02*
X210242689Y-106846969I-530330J530330D01*
G01*
X209323451Y-105927731D01*
G75*
G02*
X209323451Y-104867071I530330J530330D01*
G01*
G37*
D17*
X203963400Y-103317020D03*
X209043400Y-103317020D03*
D13*
X201283400Y-112597020D03*
G36*
G01*
X202345206Y-106586456D02*
X200947964Y-105189214D01*
G75*
G02*
X200947964Y-104111584I538815J538815D01*
G01*
X200947964Y-104111584D01*
G75*
G02*
X202025594Y-104111584I538815J-538815D01*
G01*
X203422836Y-105508826D01*
G75*
G02*
X203422836Y-106586456I-538815J-538815D01*
G01*
X203422836Y-106586456D01*
G75*
G02*
X202345206Y-106586456I-538815J538815D01*
G01*
G37*
G36*
G01*
X201610410Y-104592380D02*
X203714760Y-102488030D01*
G75*
G02*
X204792390Y-102488030I538815J-538815D01*
G01*
X204792390Y-102488030D01*
G75*
G02*
X204792390Y-103565660I-538815J-538815D01*
G01*
X202688040Y-105670010D01*
G75*
G02*
X201610410Y-105670010I-538815J538815D01*
G01*
X201610410Y-105670010D01*
G75*
G02*
X201610410Y-104592380I538815J538815D01*
G01*
G37*
G36*
G01*
X208911044Y-104033992D02*
X206114518Y-103016140D01*
G75*
G02*
X205659091Y-102039475I260619J716046D01*
G01*
X205659091Y-102039475D01*
G75*
G02*
X206635756Y-101584048I716046J-260619D01*
G01*
X209432282Y-102601900D01*
G75*
G02*
X209887709Y-103578565I-260619J-716046D01*
G01*
X209887709Y-103578565D01*
G75*
G02*
X208911044Y-104033992I-716046J260619D01*
G01*
G37*
G36*
G01*
X210318760Y-106940010D02*
X208214410Y-104835660D01*
G75*
G02*
X208214410Y-103758030I538815J538815D01*
G01*
X208214410Y-103758030D01*
G75*
G02*
X209292040Y-103758030I538815J-538815D01*
G01*
X211396390Y-105862380D01*
G75*
G02*
X211396390Y-106940010I-538815J-538815D01*
G01*
X211396390Y-106940010D01*
G75*
G02*
X210318760Y-106940010I-538815J538815D01*
G01*
G37*
D19*
X209043400Y-103825020D03*
%TD*%
D20*
%TO.C,J2*%
X91993977Y-57047227D03*
D21*
X94293977Y-52447227D03*
X94293977Y-59447227D03*
D20*
X91993977Y-54047227D03*
X91993977Y-61047227D03*
X96593977Y-62147227D03*
%TD*%
D22*
%TO.C,RE1*%
X96833977Y-103044227D03*
D23*
X96833977Y-105544227D03*
X96833977Y-108044227D03*
D24*
X104333977Y-99944227D03*
X104333977Y-111144227D03*
D23*
X111333977Y-103044227D03*
X111333977Y-108044227D03*
%TD*%
D12*
%TO.C,D_RE1*%
X100553978Y-114728228D03*
D11*
X108353978Y-114728228D03*
D25*
X105853978Y-114728228D03*
X103053978Y-114728228D03*
%TD*%
D26*
%TO.C,PWM_PAD2*%
X120582978Y-67357228D03*
X120582978Y-64817228D03*
X120582978Y-62277228D03*
%TD*%
D27*
%TO.C,RST1*%
X96270978Y-67305228D03*
X96270978Y-73505228D03*
X92570978Y-67305228D03*
X92570978Y-73505228D03*
%TD*%
D20*
%TO.C,J1*%
X96593978Y-57047228D03*
D21*
X94293978Y-52447228D03*
X94293978Y-59447228D03*
D20*
X96593978Y-54047228D03*
X96593978Y-61047228D03*
X91993978Y-62147228D03*
%TD*%
D12*
%TO.C,D8*%
X197046398Y-85462120D03*
D11*
X197046398Y-93262120D03*
D28*
X197046398Y-90762120D03*
X197046398Y-87962120D03*
%TD*%
D12*
%TO.C,D28*%
X120818223Y-98224868D03*
D11*
X120818223Y-106024868D03*
D28*
X120818223Y-103524868D03*
X120818223Y-100724868D03*
%TD*%
D12*
%TO.C,D27*%
X120726056Y-79371088D03*
D11*
X120726056Y-87171088D03*
D28*
X120726056Y-84671088D03*
X120726056Y-81871088D03*
%TD*%
D12*
%TO.C,D26*%
X126944578Y-67916029D03*
D11*
X134744578Y-67916029D03*
D25*
X132244578Y-67916029D03*
X129444578Y-67916029D03*
%TD*%
D12*
%TO.C,D24*%
X139830586Y-96816388D03*
D11*
X139830586Y-104616388D03*
D28*
X139830586Y-102116388D03*
X139830586Y-99316388D03*
%TD*%
D12*
%TO.C,D23*%
X139992325Y-77739468D03*
D11*
X139992325Y-85539468D03*
D28*
X139992325Y-83039468D03*
X139992325Y-80239468D03*
%TD*%
D12*
%TO.C,D22*%
X139840369Y-58384384D03*
D11*
X139840369Y-66184384D03*
D28*
X139840369Y-63684384D03*
X139840369Y-60884384D03*
%TD*%
D29*
%TO.C,D20*%
G36*
X94692499Y-138070826D02*
G01*
X93423133Y-139044844D01*
X92449115Y-137775478D01*
X93718481Y-136801460D01*
X94692499Y-138070826D01*
G37*
D11*
X98319147Y-144111308D03*
D29*
G36*
X96055732Y-140175961D02*
G01*
X95103708Y-140906475D01*
X94129690Y-139637109D01*
X95081714Y-138906595D01*
X96055732Y-140175961D01*
G37*
G36*
X97760264Y-142397351D02*
G01*
X96808240Y-143127865D01*
X95834222Y-141858499D01*
X96786246Y-141127985D01*
X97760264Y-142397351D01*
G37*
%TD*%
D12*
%TO.C,D19*%
X159015380Y-90944215D03*
D11*
X159015380Y-98744215D03*
D28*
X159015380Y-96244215D03*
X159015380Y-93444215D03*
%TD*%
D12*
%TO.C,D18*%
X158809978Y-71839226D03*
D11*
X158809978Y-79639226D03*
D28*
X158809978Y-77139226D03*
X158809978Y-74339226D03*
%TD*%
D12*
%TO.C,D17*%
X158809976Y-55202229D03*
D11*
X158809976Y-63002229D03*
D28*
X158809976Y-60502229D03*
X158809976Y-57702229D03*
%TD*%
D29*
%TO.C,D15*%
G36*
X110853905Y-126693580D02*
G01*
X109403812Y-127369769D01*
X108727623Y-125919676D01*
X110177716Y-125243487D01*
X110853905Y-126693580D01*
G37*
D11*
X113087186Y-133375828D03*
D29*
G36*
X111729188Y-129043872D02*
G01*
X110641619Y-129551014D01*
X109965430Y-128100922D01*
X111052999Y-127593780D01*
X111729188Y-129043872D01*
G37*
G36*
X112912520Y-131581534D02*
G01*
X111824951Y-132088676D01*
X111148762Y-130638584D01*
X112236331Y-130131442D01*
X112912520Y-131581534D01*
G37*
%TD*%
D12*
%TO.C,D14*%
X177939387Y-94410187D03*
D11*
X177939387Y-102210187D03*
D28*
X177939387Y-99710187D03*
X177939387Y-96910187D03*
%TD*%
D12*
%TO.C,D13*%
X177968541Y-75103627D03*
D11*
X177968541Y-82903627D03*
D28*
X177968541Y-80403627D03*
X177968541Y-77603627D03*
%TD*%
D12*
%TO.C,D12*%
X177968541Y-55761029D03*
D11*
X177968541Y-63561029D03*
D28*
X177968541Y-61061029D03*
X177968541Y-58261029D03*
%TD*%
D29*
%TO.C,D10*%
G36*
X130091051Y-117878557D02*
G01*
X128528978Y-118224860D01*
X128182675Y-116662787D01*
X129744748Y-116316484D01*
X130091051Y-117878557D01*
G37*
D11*
X130825091Y-124885780D03*
D29*
G36*
X130436891Y-120362585D02*
G01*
X129265336Y-120622313D01*
X128919033Y-119060239D01*
X130090588Y-118800511D01*
X130436891Y-120362585D01*
G37*
G36*
X131042921Y-123096213D02*
G01*
X129871366Y-123355941D01*
X129525063Y-121793867D01*
X130696618Y-121534139D01*
X131042921Y-123096213D01*
G37*
%TD*%
D12*
%TO.C,D9*%
X197046397Y-104497019D03*
D11*
X197046397Y-112297019D03*
D28*
X197046397Y-109797019D03*
X197046397Y-106997019D03*
%TD*%
D12*
%TO.C,D7*%
X197046398Y-69157700D03*
D11*
X197046398Y-76957700D03*
D28*
X197046398Y-74457700D03*
X197046398Y-71657700D03*
%TD*%
D30*
%TO.C,JP4*%
X104733378Y-84113608D03*
X104733378Y-83214448D03*
%TD*%
%TO.C,JP3*%
X107019378Y-84113609D03*
X107019378Y-83214449D03*
%TD*%
%TO.C,JP2*%
X109686376Y-84113609D03*
X109686376Y-83214449D03*
%TD*%
%TO.C,JP1*%
X112226377Y-84113606D03*
X112226377Y-83214446D03*
%TD*%
D31*
%TO.C,J3*%
X104707977Y-87042227D03*
X107247977Y-87042227D03*
X109787977Y-87042227D03*
X112327977Y-87042227D03*
%TD*%
M02*
