M48
; DRILL file {KiCad (5.1.7)-1} date 07/11/21 14:26:10
; FORMAT={-:-/ absolute / metric / decimal}
; #@! TF.CreationDate,2021-07-11T14:26:10+05:30
; #@! TF.GenerationSoftware,Kicad,Pcbnew,(5.1.7)-1
; #@! TF.FileFunction,Plated,1,2,PTH
FMAT,2
METRIC
T1C0.400
T2C0.813
T3C0.900
T4C1.000
T5C1.100
T6C1.200
T7C1.500
%
G90
G05
T1
X92.571Y-70.249
X96.199Y-70.685
X107.028Y-81.945
X109.331Y-81.861
X110.724Y-81.712
X113.928Y-83.181
X119.669Y-60.194
X120.583Y-64.817
X123.301Y-66.621
X141.42Y-71.057
X184.08Y-79.298
X184.08Y-76.403
X195.72Y-82.657
X195.818Y-78.355
X209.999Y-94.704
X214.384Y-105.054
T2
X104.708Y-87.042
X107.248Y-87.042
X109.788Y-87.042
X112.328Y-87.042
T4
X93.571Y-137.923
X98.319Y-144.111
X126.945Y-67.916
X134.745Y-67.916
X100.554Y-114.728
X108.354Y-114.728
X139.84Y-58.384
X139.84Y-66.184
X120.818Y-98.225
X120.818Y-106.025
X197.046Y-69.158
X197.046Y-76.958
X177.939Y-94.41
X177.939Y-102.21
X139.831Y-96.816
X139.831Y-104.616
X197.046Y-104.497
X197.046Y-112.297
X96.834Y-103.044
X96.834Y-105.544
X96.834Y-108.044
X111.334Y-103.044
X111.334Y-108.044
X158.81Y-71.839
X158.81Y-79.639
X120.726Y-79.371
X120.726Y-87.171
X109.791Y-126.307
X113.087Y-133.376
X177.969Y-75.104
X177.969Y-82.904
X158.81Y-55.202
X158.81Y-63.002
X197.046Y-85.462
X197.046Y-93.262
X177.969Y-55.761
X177.969Y-63.561
X159.015Y-90.944
X159.015Y-98.744
X139.992Y-77.739
X139.992Y-85.539
X129.137Y-117.271
X130.825Y-124.886
T5
X100.847Y-52.003
X100.847Y-54.543
X100.847Y-57.083
X100.847Y-59.623
X100.847Y-62.163
X100.847Y-64.703
X100.847Y-67.243
X100.847Y-69.783
X100.847Y-72.323
X100.847Y-74.863
X100.847Y-77.403
X100.847Y-79.943
X116.087Y-52.003
X116.087Y-54.543
X116.087Y-57.083
X116.087Y-59.623
X116.087Y-62.163
X116.087Y-64.703
X116.087Y-67.243
X116.087Y-69.783
X116.087Y-72.323
X116.087Y-74.863
X116.087Y-77.403
X116.087Y-79.943
T6
X149.304Y-71.052
X168.388Y-65.392
X168.369Y-46.267
X187.401Y-88.249
X187.429Y-50.113
X137.805Y-112.757
X149.351Y-52.042
X168.341Y-84.403
X98.656Y-131.045
X130.217Y-53.903
X130.28Y-92.063
X206.503Y-102.497
X187.382Y-69.123
X206.416Y-64.427
X149.348Y-90.087
X130.261Y-72.938
X206.46Y-83.462
X117.237Y-119.826
T7
X203.92Y-84.282
X209.0Y-84.282
X210.27Y-86.822
X115.282Y-121.642
X119.886Y-119.495
X122.11Y-121.261
X146.764Y-71.872
X151.844Y-71.872
X153.114Y-74.412
X165.848Y-66.212
X170.928Y-66.212
X172.198Y-68.752
X165.829Y-47.087
X170.909Y-47.087
X172.179Y-49.627
X184.861Y-89.069
X189.941Y-89.069
X191.211Y-91.609
X184.889Y-50.933
X189.969Y-50.933
X191.239Y-53.473
X135.502Y-114.107
X140.462Y-113.007
X142.252Y-115.212
X146.811Y-52.862
X151.891Y-52.862
X153.161Y-55.402
X165.801Y-85.223
X170.881Y-85.223
X172.151Y-87.763
X97.14Y-133.242
X101.17Y-130.15
X103.724Y-131.392
X127.677Y-54.723
X132.757Y-54.723
X134.027Y-57.263
X127.74Y-92.883
X132.82Y-92.883
X134.09Y-95.423
X203.963Y-103.317
X209.043Y-103.317
X210.313Y-105.857
X184.842Y-69.943
X189.922Y-69.943
X191.192Y-72.483
X203.876Y-65.247
X208.956Y-65.247
X210.226Y-67.787
X146.808Y-90.907
X151.888Y-90.907
X153.158Y-93.447
X127.721Y-73.758
X132.801Y-73.758
X134.071Y-76.298
T3
G00X91.994Y-61.947
M15
G01X91.994Y-62.347
M16
G05
G00X96.594Y-53.847
M15
G01X96.594Y-54.247
M16
G05
G00X96.594Y-56.847
M15
G01X96.594Y-57.247
M16
G05
G00X96.594Y-60.847
M15
G01X96.594Y-61.247
M16
G05
G00X91.994Y-54.247
M15
G01X91.994Y-53.847
M16
G05
G00X91.994Y-57.247
M15
G01X91.994Y-56.847
M16
G05
G00X91.994Y-61.247
M15
G01X91.994Y-60.847
M16
G05
G00X96.594Y-62.347
M15
G01X96.594Y-61.947
M16
G05
T6
G00X144.204Y-73.052
M15
G01X144.204Y-73.052
M16
G05
G00X154.404Y-73.052
M15
G01X154.404Y-73.052
M16
G05
G00X163.288Y-67.392
M15
G01X163.288Y-67.392
M16
G05
G00X173.488Y-67.392
M15
G01X173.488Y-67.392
M16
G05
G00X163.269Y-48.267
M15
G01X163.269Y-48.267
M16
G05
G00X173.469Y-48.267
M15
G01X173.469Y-48.267
M16
G05
G00X182.301Y-90.249
M15
G01X182.301Y-90.249
M16
G05
G00X192.501Y-90.249
M15
G01X192.501Y-90.249
M16
G05
G00X182.329Y-52.113
M15
G01X182.329Y-52.113
M16
G05
G00X192.529Y-52.113
M15
G01X192.529Y-52.113
M16
G05
G00X133.258Y-115.813
M15
G01X133.258Y-115.813
M16
G05
G00X143.217Y-113.605
M15
G01X143.217Y-113.605
M16
G05
G00X144.251Y-54.042
M15
G01X144.251Y-54.042
M16
G05
G00X154.451Y-54.042
M15
G01X154.451Y-54.042
M16
G05
G00X163.241Y-86.403
M15
G01X163.241Y-86.403
M16
G05
G00X173.441Y-86.403
M15
G01X173.441Y-86.403
M16
G05
G00X95.827Y-135.737
M15
G01X95.827Y-135.737
M16
G05
G00X103.919Y-129.527
M15
G01X103.919Y-129.527
M16
G05
G00X125.117Y-55.903
M15
G01X125.117Y-55.903
M16
G05
G00X135.317Y-55.903
M15
G01X135.317Y-55.903
M16
G05
G00X125.18Y-94.063
M15
G01X125.18Y-94.063
M16
G05
G00X135.38Y-94.063
M15
G01X135.38Y-94.063
M16
G05
G00X201.403Y-104.497
M15
G01X201.403Y-104.497
M16
G05
G00X211.603Y-104.497
M15
G01X211.603Y-104.497
M16
G05
G00X182.282Y-71.123
M15
G01X182.282Y-71.123
M16
G05
G00X192.482Y-71.123
M15
G01X192.482Y-71.123
M16
G05
G00X201.316Y-66.427
M15
G01X201.316Y-66.427
M16
G05
G00X211.516Y-66.427
M15
G01X211.516Y-66.427
M16
G05
G00X144.248Y-92.087
M15
G01X144.248Y-92.087
M16
G05
G00X154.448Y-92.087
M15
G01X154.448Y-92.087
M16
G05
G00X125.161Y-74.938
M15
G01X125.161Y-74.938
M16
G05
G00X135.361Y-74.938
M15
G01X135.361Y-74.938
M16
G05
G00X201.36Y-85.462
M15
G01X201.36Y-85.462
M16
G05
G00X211.56Y-85.462
M15
G01X211.56Y-85.462
M16
G05
G00X113.46Y-123.794
M15
G01X113.46Y-123.794
M16
G05
G00X122.705Y-119.483
M15
G01X122.705Y-119.483
M16
G05
T7
G00X202.65Y-86.822
M15
G01X202.65Y-86.822
M16
G05
G00X115.204Y-124.481
M15
G01X115.204Y-124.481
M16
G05
G00X103.684Y-99.944
M15
G01X104.984Y-99.944
M16
G05
G00X103.684Y-111.144
M15
G01X104.984Y-111.144
M16
G05
G00X145.494Y-74.412
M15
G01X145.494Y-74.412
M16
G05
G00X164.578Y-68.752
M15
G01X164.578Y-68.752
M16
G05
G00X164.559Y-49.627
M15
G01X164.559Y-49.627
M16
G05
G00X183.591Y-91.609
M15
G01X183.591Y-91.609
M16
G05
G00X183.619Y-53.473
M15
G01X183.619Y-53.473
M16
G05
G00X134.812Y-116.862
M15
G01X134.812Y-116.862
M16
G05
G00X145.541Y-55.402
M15
G01X145.541Y-55.402
M16
G05
G00X164.531Y-87.763
M15
G01X164.531Y-87.763
M16
G05
G00X97.679Y-136.03
M15
G01X97.679Y-136.03
M16
G05
G00X126.407Y-57.263
M15
G01X126.407Y-57.263
M16
G05
G00X126.47Y-95.423
M15
G01X126.47Y-95.423
M16
G05
G00X202.693Y-105.857
M15
G01X202.693Y-105.857
M16
G05
G00X183.572Y-72.483
M15
G01X183.572Y-72.483
M16
G05
G00X202.606Y-67.787
M15
G01X202.606Y-67.787
M16
G05
G00X145.538Y-93.447
M15
G01X145.538Y-93.447
M16
G05
G00X126.451Y-76.298
M15
G01X126.451Y-76.298
M16
G05
T0
M30
