%TF.GenerationSoftware,KiCad,Pcbnew,(5.1.7)-1*%
%TF.CreationDate,2021-07-11T14:26:08+05:30*%
%TF.ProjectId,Pankh,50616e6b-682e-46b6-9963-61645f706362,rev?*%
%TF.SameCoordinates,Original*%
%TF.FileFunction,Soldermask,Bot*%
%TF.FilePolarity,Negative*%
%FSLAX46Y46*%
G04 Gerber Fmt 4.6, Leading zero omitted, Abs format (unit mm)*
G04 Created by KiCad (PCBNEW (5.1.7)-1) date 2021-07-11 14:26:08*
%MOMM*%
%LPD*%
G01*
G04 APERTURE LIST*
%ADD10C,2.200000*%
%ADD11C,1.600000*%
%ADD12R,1.600000X1.600000*%
%ADD13C,1.000000*%
%ADD14C,1.900000*%
%ADD15C,4.000000*%
%ADD16C,1.700000*%
%ADD17C,2.700000*%
%ADD18O,1.500000X2.500000*%
%ADD19O,1.600000X2.000000*%
%ADD20C,0.800000*%
%ADD21R,2.000000X2.000000*%
%ADD22C,2.000000*%
%ADD23R,3.200000X2.000000*%
%ADD24R,1.600000X1.200000*%
%ADD25R,1.100000X1.800000*%
%ADD26O,3.759200X1.879600*%
%ADD27R,1.200000X1.600000*%
%ADD28C,0.100000*%
%ADD29R,1.270000X0.635000*%
%ADD30C,1.397000*%
G04 APERTURE END LIST*
D10*
%TO.C,H1*%
X187401402Y-108225827D03*
%TD*%
%TO.C,H2*%
X187401401Y-65376028D03*
%TD*%
%TO.C,H3*%
X149303992Y-108225828D03*
%TD*%
%TO.C,H4*%
X111134178Y-60677028D03*
%TD*%
%TO.C,H5*%
X149303991Y-67357228D03*
%TD*%
%TO.C,H6*%
X104419931Y-119356724D03*
%TD*%
D11*
%TO.C,U1*%
X116087177Y-52002930D03*
X116087177Y-54542930D03*
X116087177Y-57082930D03*
X116087177Y-59622930D03*
X116087177Y-62162930D03*
X116087177Y-64702930D03*
X116087177Y-67242930D03*
X116087177Y-69782930D03*
X116087177Y-72322930D03*
X116087177Y-74862930D03*
X116087177Y-77402930D03*
X116087177Y-79942930D03*
X100847177Y-79942930D03*
X100847177Y-77402930D03*
X100847177Y-74862930D03*
X100847177Y-72322930D03*
X100847177Y-69782930D03*
X100847177Y-67242930D03*
X100847177Y-64702930D03*
X100847177Y-62162930D03*
X100847177Y-59622930D03*
X100847177Y-57082930D03*
X100847177Y-54542930D03*
D12*
X100847177Y-52002930D03*
%TD*%
D13*
%TO.C,SW10*%
X145086921Y-121487446D03*
G36*
G01*
X138075165Y-113977042D02*
X138075165Y-113977042D01*
G75*
G02*
X137180613Y-113407150I-162330J732222D01*
G01*
X136964173Y-112430854D01*
G75*
G02*
X137534065Y-111536302I732222J162330D01*
G01*
X137534065Y-111536302D01*
G75*
G02*
X138428617Y-112106194I162330J-732222D01*
G01*
X138645057Y-113082490D01*
G75*
G02*
X138075165Y-113977042I-732222J-162330D01*
G01*
G37*
G36*
G01*
X142288873Y-113014392D02*
X142288873Y-113014392D01*
G75*
G02*
X143117288Y-112830737I506035J-322380D01*
G01*
X143960680Y-113368037D01*
G75*
G02*
X144144335Y-114196452I-322380J-506035D01*
G01*
X144144335Y-114196452D01*
G75*
G02*
X143315920Y-114380107I-506035J322380D01*
G01*
X142472528Y-113842807D01*
G75*
G02*
X142288873Y-113014392I322380J506035D01*
G01*
G37*
G36*
G01*
X132667355Y-116740837D02*
X132667355Y-116740837D01*
G75*
G02*
X132483700Y-115912422I322380J506035D01*
G01*
X133021000Y-115069030D01*
G75*
G02*
X133849415Y-114885375I506035J-322380D01*
G01*
X133849415Y-114885375D01*
G75*
G02*
X134033070Y-115713790I-322380J-506035D01*
G01*
X133495770Y-116557182D01*
G75*
G02*
X132667355Y-116740837I-506035J322380D01*
G01*
G37*
D14*
X144451237Y-117326400D03*
X133711981Y-119707236D03*
G36*
G01*
X134059945Y-118042409D02*
X134059945Y-118042409D01*
G75*
G02*
X133830376Y-117006890I402975J632544D01*
G01*
X134528866Y-115910482D01*
G75*
G02*
X135564385Y-115680913I632544J-402975D01*
G01*
X135564385Y-115680913D01*
G75*
G02*
X135793954Y-116716432I-402975J-632544D01*
G01*
X135095464Y-117812840D01*
G75*
G02*
X134059945Y-118042409I-632544J402975D01*
G01*
G37*
D15*
X139081609Y-118516818D03*
D16*
X134122025Y-119616331D03*
X144041193Y-117417305D03*
G36*
G01*
X141070792Y-114460171D02*
X141070792Y-114460171D01*
G75*
G02*
X142106311Y-114230602I632544J-402975D01*
G01*
X143202719Y-114929092D01*
G75*
G02*
X143432288Y-115964611I-402975J-632544D01*
G01*
X143432288Y-115964611D01*
G75*
G02*
X142396769Y-116194180I-632544J402975D01*
G01*
X141300361Y-115495690D01*
G75*
G02*
X141070792Y-114460171I402975J632544D01*
G01*
G37*
D17*
X135502304Y-114106991D03*
X140461888Y-113007478D03*
D13*
X134894390Y-123747076D03*
%TD*%
%TO.C,SW13*%
X192602028Y-79223131D03*
D18*
X187382028Y-69123131D03*
G36*
G01*
X191704211Y-70345314D02*
X191704211Y-70345314D01*
G75*
G02*
X192552739Y-70345314I424264J-424264D01*
G01*
X193259845Y-71052420D01*
G75*
G02*
X193259845Y-71900948I-424264J-424264D01*
G01*
X193259845Y-71900948D01*
G75*
G02*
X192411317Y-71900948I-424264J424264D01*
G01*
X191704211Y-71193842D01*
G75*
G02*
X191704211Y-70345314I424264J424264D01*
G01*
G37*
G36*
G01*
X181504211Y-71900948D02*
X181504211Y-71900948D01*
G75*
G02*
X181504211Y-71052420I424264J424264D01*
G01*
X182211317Y-70345314D01*
G75*
G02*
X183059845Y-70345314I424264J-424264D01*
G01*
X183059845Y-70345314D01*
G75*
G02*
X183059845Y-71193842I-424264J-424264D01*
G01*
X182352739Y-71900948D01*
G75*
G02*
X181504211Y-71900948I-424264J424264D01*
G01*
G37*
D14*
X192882028Y-75023131D03*
X181882028Y-75023131D03*
G36*
G01*
X182582079Y-73473080D02*
X182582079Y-73473080D01*
G75*
G02*
X182582079Y-72412420I530330J530330D01*
G01*
X183501317Y-71493182D01*
G75*
G02*
X184561977Y-71493182I530330J-530330D01*
G01*
X184561977Y-71493182D01*
G75*
G02*
X184561977Y-72553842I-530330J-530330D01*
G01*
X183642739Y-73473080D01*
G75*
G02*
X182582079Y-73473080I-530330J530330D01*
G01*
G37*
D15*
X187382028Y-75023131D03*
D16*
X182302028Y-75023131D03*
X192462028Y-75023131D03*
G36*
G01*
X190202079Y-71493182D02*
X190202079Y-71493182D01*
G75*
G02*
X191262739Y-71493182I530330J-530330D01*
G01*
X192181977Y-72412420D01*
G75*
G02*
X192181977Y-73473080I-530330J-530330D01*
G01*
X192181977Y-73473080D01*
G75*
G02*
X191121317Y-73473080I-530330J530330D01*
G01*
X190202079Y-72553842D01*
G75*
G02*
X190202079Y-71493182I530330J530330D01*
G01*
G37*
D17*
X184842028Y-69943131D03*
X189922028Y-69943131D03*
D13*
X182162028Y-79223131D03*
%TD*%
%TO.C,SW8*%
X211679757Y-93562119D03*
D18*
X206459757Y-83462119D03*
G36*
G01*
X210781940Y-84684302D02*
X210781940Y-84684302D01*
G75*
G02*
X211630468Y-84684302I424264J-424264D01*
G01*
X212337574Y-85391408D01*
G75*
G02*
X212337574Y-86239936I-424264J-424264D01*
G01*
X212337574Y-86239936D01*
G75*
G02*
X211489046Y-86239936I-424264J424264D01*
G01*
X210781940Y-85532830D01*
G75*
G02*
X210781940Y-84684302I424264J424264D01*
G01*
G37*
G36*
G01*
X200581940Y-86239936D02*
X200581940Y-86239936D01*
G75*
G02*
X200581940Y-85391408I424264J424264D01*
G01*
X201289046Y-84684302D01*
G75*
G02*
X202137574Y-84684302I424264J-424264D01*
G01*
X202137574Y-84684302D01*
G75*
G02*
X202137574Y-85532830I-424264J-424264D01*
G01*
X201430468Y-86239936D01*
G75*
G02*
X200581940Y-86239936I-424264J424264D01*
G01*
G37*
D14*
X211959757Y-89362119D03*
X200959757Y-89362119D03*
G36*
G01*
X201659808Y-87812068D02*
X201659808Y-87812068D01*
G75*
G02*
X201659808Y-86751408I530330J530330D01*
G01*
X202579046Y-85832170D01*
G75*
G02*
X203639706Y-85832170I530330J-530330D01*
G01*
X203639706Y-85832170D01*
G75*
G02*
X203639706Y-86892830I-530330J-530330D01*
G01*
X202720468Y-87812068D01*
G75*
G02*
X201659808Y-87812068I-530330J530330D01*
G01*
G37*
D15*
X206459757Y-89362119D03*
D16*
X201379757Y-89362119D03*
X211539757Y-89362119D03*
G36*
G01*
X209279808Y-85832170D02*
X209279808Y-85832170D01*
G75*
G02*
X210340468Y-85832170I530330J-530330D01*
G01*
X211259706Y-86751408D01*
G75*
G02*
X211259706Y-87812068I-530330J-530330D01*
G01*
X211259706Y-87812068D01*
G75*
G02*
X210199046Y-87812068I-530330J530330D01*
G01*
X209279808Y-86892830D01*
G75*
G02*
X209279808Y-85832170I530330J530330D01*
G01*
G37*
D17*
X203919757Y-84282119D03*
X208999757Y-84282119D03*
D13*
X201239757Y-93562119D03*
%TD*%
%TO.C,SW7*%
X211636110Y-74527218D03*
D18*
X206416110Y-64427218D03*
G36*
G01*
X210738293Y-65649401D02*
X210738293Y-65649401D01*
G75*
G02*
X211586821Y-65649401I424264J-424264D01*
G01*
X212293927Y-66356507D01*
G75*
G02*
X212293927Y-67205035I-424264J-424264D01*
G01*
X212293927Y-67205035D01*
G75*
G02*
X211445399Y-67205035I-424264J424264D01*
G01*
X210738293Y-66497929D01*
G75*
G02*
X210738293Y-65649401I424264J424264D01*
G01*
G37*
G36*
G01*
X200538293Y-67205035D02*
X200538293Y-67205035D01*
G75*
G02*
X200538293Y-66356507I424264J424264D01*
G01*
X201245399Y-65649401D01*
G75*
G02*
X202093927Y-65649401I424264J-424264D01*
G01*
X202093927Y-65649401D01*
G75*
G02*
X202093927Y-66497929I-424264J-424264D01*
G01*
X201386821Y-67205035D01*
G75*
G02*
X200538293Y-67205035I-424264J424264D01*
G01*
G37*
D14*
X211916110Y-70327218D03*
X200916110Y-70327218D03*
G36*
G01*
X201616161Y-68777167D02*
X201616161Y-68777167D01*
G75*
G02*
X201616161Y-67716507I530330J530330D01*
G01*
X202535399Y-66797269D01*
G75*
G02*
X203596059Y-66797269I530330J-530330D01*
G01*
X203596059Y-66797269D01*
G75*
G02*
X203596059Y-67857929I-530330J-530330D01*
G01*
X202676821Y-68777167D01*
G75*
G02*
X201616161Y-68777167I-530330J530330D01*
G01*
G37*
D15*
X206416110Y-70327218D03*
D16*
X201336110Y-70327218D03*
X211496110Y-70327218D03*
G36*
G01*
X209236161Y-66797269D02*
X209236161Y-66797269D01*
G75*
G02*
X210296821Y-66797269I530330J-530330D01*
G01*
X211216059Y-67716507D01*
G75*
G02*
X211216059Y-68777167I-530330J-530330D01*
G01*
X211216059Y-68777167D01*
G75*
G02*
X210155399Y-68777167I-530330J530330D01*
G01*
X209236161Y-67857929D01*
G75*
G02*
X209236161Y-66797269I530330J530330D01*
G01*
G37*
D17*
X203876110Y-65247218D03*
X208956110Y-65247218D03*
D13*
X201196110Y-74527218D03*
%TD*%
%TO.C,SW12*%
X192648938Y-60212502D03*
D18*
X187428938Y-50112502D03*
G36*
G01*
X191751121Y-51334685D02*
X191751121Y-51334685D01*
G75*
G02*
X192599649Y-51334685I424264J-424264D01*
G01*
X193306755Y-52041791D01*
G75*
G02*
X193306755Y-52890319I-424264J-424264D01*
G01*
X193306755Y-52890319D01*
G75*
G02*
X192458227Y-52890319I-424264J424264D01*
G01*
X191751121Y-52183213D01*
G75*
G02*
X191751121Y-51334685I424264J424264D01*
G01*
G37*
G36*
G01*
X181551121Y-52890319D02*
X181551121Y-52890319D01*
G75*
G02*
X181551121Y-52041791I424264J424264D01*
G01*
X182258227Y-51334685D01*
G75*
G02*
X183106755Y-51334685I424264J-424264D01*
G01*
X183106755Y-51334685D01*
G75*
G02*
X183106755Y-52183213I-424264J-424264D01*
G01*
X182399649Y-52890319D01*
G75*
G02*
X181551121Y-52890319I-424264J424264D01*
G01*
G37*
D14*
X192928938Y-56012502D03*
X181928938Y-56012502D03*
G36*
G01*
X182628989Y-54462451D02*
X182628989Y-54462451D01*
G75*
G02*
X182628989Y-53401791I530330J530330D01*
G01*
X183548227Y-52482553D01*
G75*
G02*
X184608887Y-52482553I530330J-530330D01*
G01*
X184608887Y-52482553D01*
G75*
G02*
X184608887Y-53543213I-530330J-530330D01*
G01*
X183689649Y-54462451D01*
G75*
G02*
X182628989Y-54462451I-530330J530330D01*
G01*
G37*
D15*
X187428938Y-56012502D03*
D16*
X182348938Y-56012502D03*
X192508938Y-56012502D03*
G36*
G01*
X190248989Y-52482553D02*
X190248989Y-52482553D01*
G75*
G02*
X191309649Y-52482553I530330J-530330D01*
G01*
X192228887Y-53401791D01*
G75*
G02*
X192228887Y-54462451I-530330J-530330D01*
G01*
X192228887Y-54462451D01*
G75*
G02*
X191168227Y-54462451I-530330J530330D01*
G01*
X190248989Y-53543213D01*
G75*
G02*
X190248989Y-52482553I530330J530330D01*
G01*
G37*
D17*
X184888938Y-50932502D03*
X189968938Y-50932502D03*
D13*
X182208938Y-60212502D03*
%TD*%
%TO.C,SW22*%
X154570904Y-62141666D03*
D18*
X149350904Y-52041666D03*
G36*
G01*
X153673087Y-53263849D02*
X153673087Y-53263849D01*
G75*
G02*
X154521615Y-53263849I424264J-424264D01*
G01*
X155228721Y-53970955D01*
G75*
G02*
X155228721Y-54819483I-424264J-424264D01*
G01*
X155228721Y-54819483D01*
G75*
G02*
X154380193Y-54819483I-424264J424264D01*
G01*
X153673087Y-54112377D01*
G75*
G02*
X153673087Y-53263849I424264J424264D01*
G01*
G37*
G36*
G01*
X143473087Y-54819483D02*
X143473087Y-54819483D01*
G75*
G02*
X143473087Y-53970955I424264J424264D01*
G01*
X144180193Y-53263849D01*
G75*
G02*
X145028721Y-53263849I424264J-424264D01*
G01*
X145028721Y-53263849D01*
G75*
G02*
X145028721Y-54112377I-424264J-424264D01*
G01*
X144321615Y-54819483D01*
G75*
G02*
X143473087Y-54819483I-424264J424264D01*
G01*
G37*
D14*
X154850904Y-57941666D03*
X143850904Y-57941666D03*
G36*
G01*
X144550955Y-56391615D02*
X144550955Y-56391615D01*
G75*
G02*
X144550955Y-55330955I530330J530330D01*
G01*
X145470193Y-54411717D01*
G75*
G02*
X146530853Y-54411717I530330J-530330D01*
G01*
X146530853Y-54411717D01*
G75*
G02*
X146530853Y-55472377I-530330J-530330D01*
G01*
X145611615Y-56391615D01*
G75*
G02*
X144550955Y-56391615I-530330J530330D01*
G01*
G37*
D15*
X149350904Y-57941666D03*
D16*
X144270904Y-57941666D03*
X154430904Y-57941666D03*
G36*
G01*
X152170955Y-54411717D02*
X152170955Y-54411717D01*
G75*
G02*
X153231615Y-54411717I530330J-530330D01*
G01*
X154150853Y-55330955D01*
G75*
G02*
X154150853Y-56391615I-530330J-530330D01*
G01*
X154150853Y-56391615D01*
G75*
G02*
X153090193Y-56391615I-530330J530330D01*
G01*
X152170955Y-55472377D01*
G75*
G02*
X152170955Y-54411717I530330J530330D01*
G01*
G37*
D17*
X146810904Y-52861666D03*
X151890904Y-52861666D03*
D13*
X144130904Y-62141666D03*
%TD*%
%TO.C,SW26*%
X135437209Y-64002919D03*
D18*
X130217209Y-53902919D03*
G36*
G01*
X134539392Y-55125102D02*
X134539392Y-55125102D01*
G75*
G02*
X135387920Y-55125102I424264J-424264D01*
G01*
X136095026Y-55832208D01*
G75*
G02*
X136095026Y-56680736I-424264J-424264D01*
G01*
X136095026Y-56680736D01*
G75*
G02*
X135246498Y-56680736I-424264J424264D01*
G01*
X134539392Y-55973630D01*
G75*
G02*
X134539392Y-55125102I424264J424264D01*
G01*
G37*
G36*
G01*
X124339392Y-56680736D02*
X124339392Y-56680736D01*
G75*
G02*
X124339392Y-55832208I424264J424264D01*
G01*
X125046498Y-55125102D01*
G75*
G02*
X125895026Y-55125102I424264J-424264D01*
G01*
X125895026Y-55125102D01*
G75*
G02*
X125895026Y-55973630I-424264J-424264D01*
G01*
X125187920Y-56680736D01*
G75*
G02*
X124339392Y-56680736I-424264J424264D01*
G01*
G37*
D14*
X135717209Y-59802919D03*
X124717209Y-59802919D03*
G36*
G01*
X125417260Y-58252868D02*
X125417260Y-58252868D01*
G75*
G02*
X125417260Y-57192208I530330J530330D01*
G01*
X126336498Y-56272970D01*
G75*
G02*
X127397158Y-56272970I530330J-530330D01*
G01*
X127397158Y-56272970D01*
G75*
G02*
X127397158Y-57333630I-530330J-530330D01*
G01*
X126477920Y-58252868D01*
G75*
G02*
X125417260Y-58252868I-530330J530330D01*
G01*
G37*
D15*
X130217209Y-59802919D03*
D16*
X125137209Y-59802919D03*
X135297209Y-59802919D03*
G36*
G01*
X133037260Y-56272970D02*
X133037260Y-56272970D01*
G75*
G02*
X134097920Y-56272970I530330J-530330D01*
G01*
X135017158Y-57192208D01*
G75*
G02*
X135017158Y-58252868I-530330J-530330D01*
G01*
X135017158Y-58252868D01*
G75*
G02*
X133956498Y-58252868I-530330J530330D01*
G01*
X133037260Y-57333630D01*
G75*
G02*
X133037260Y-56272970I530330J530330D01*
G01*
G37*
D17*
X127677209Y-54722919D03*
X132757209Y-54722919D03*
D13*
X124997209Y-64002919D03*
%TD*%
%TO.C,SW28*%
X135500231Y-102163263D03*
D18*
X130280231Y-92063263D03*
G36*
G01*
X134602414Y-93285446D02*
X134602414Y-93285446D01*
G75*
G02*
X135450942Y-93285446I424264J-424264D01*
G01*
X136158048Y-93992552D01*
G75*
G02*
X136158048Y-94841080I-424264J-424264D01*
G01*
X136158048Y-94841080D01*
G75*
G02*
X135309520Y-94841080I-424264J424264D01*
G01*
X134602414Y-94133974D01*
G75*
G02*
X134602414Y-93285446I424264J424264D01*
G01*
G37*
G36*
G01*
X124402414Y-94841080D02*
X124402414Y-94841080D01*
G75*
G02*
X124402414Y-93992552I424264J424264D01*
G01*
X125109520Y-93285446D01*
G75*
G02*
X125958048Y-93285446I424264J-424264D01*
G01*
X125958048Y-93285446D01*
G75*
G02*
X125958048Y-94133974I-424264J-424264D01*
G01*
X125250942Y-94841080D01*
G75*
G02*
X124402414Y-94841080I-424264J424264D01*
G01*
G37*
D14*
X135780231Y-97963263D03*
X124780231Y-97963263D03*
G36*
G01*
X125480282Y-96413212D02*
X125480282Y-96413212D01*
G75*
G02*
X125480282Y-95352552I530330J530330D01*
G01*
X126399520Y-94433314D01*
G75*
G02*
X127460180Y-94433314I530330J-530330D01*
G01*
X127460180Y-94433314D01*
G75*
G02*
X127460180Y-95493974I-530330J-530330D01*
G01*
X126540942Y-96413212D01*
G75*
G02*
X125480282Y-96413212I-530330J530330D01*
G01*
G37*
D15*
X130280231Y-97963263D03*
D16*
X125200231Y-97963263D03*
X135360231Y-97963263D03*
G36*
G01*
X133100282Y-94433314D02*
X133100282Y-94433314D01*
G75*
G02*
X134160942Y-94433314I530330J-530330D01*
G01*
X135080180Y-95352552D01*
G75*
G02*
X135080180Y-96413212I-530330J-530330D01*
G01*
X135080180Y-96413212D01*
G75*
G02*
X134019520Y-96413212I-530330J530330D01*
G01*
X133100282Y-95493974D01*
G75*
G02*
X133100282Y-94433314I530330J530330D01*
G01*
G37*
D17*
X127740231Y-92883263D03*
X132820231Y-92883263D03*
D13*
X125060231Y-102163263D03*
%TD*%
%TO.C,SW27*%
X135480853Y-83037813D03*
D18*
X130260853Y-72937813D03*
G36*
G01*
X134583036Y-74159996D02*
X134583036Y-74159996D01*
G75*
G02*
X135431564Y-74159996I424264J-424264D01*
G01*
X136138670Y-74867102D01*
G75*
G02*
X136138670Y-75715630I-424264J-424264D01*
G01*
X136138670Y-75715630D01*
G75*
G02*
X135290142Y-75715630I-424264J424264D01*
G01*
X134583036Y-75008524D01*
G75*
G02*
X134583036Y-74159996I424264J424264D01*
G01*
G37*
G36*
G01*
X124383036Y-75715630D02*
X124383036Y-75715630D01*
G75*
G02*
X124383036Y-74867102I424264J424264D01*
G01*
X125090142Y-74159996D01*
G75*
G02*
X125938670Y-74159996I424264J-424264D01*
G01*
X125938670Y-74159996D01*
G75*
G02*
X125938670Y-75008524I-424264J-424264D01*
G01*
X125231564Y-75715630D01*
G75*
G02*
X124383036Y-75715630I-424264J424264D01*
G01*
G37*
D14*
X135760853Y-78837813D03*
X124760853Y-78837813D03*
G36*
G01*
X125460904Y-77287762D02*
X125460904Y-77287762D01*
G75*
G02*
X125460904Y-76227102I530330J530330D01*
G01*
X126380142Y-75307864D01*
G75*
G02*
X127440802Y-75307864I530330J-530330D01*
G01*
X127440802Y-75307864D01*
G75*
G02*
X127440802Y-76368524I-530330J-530330D01*
G01*
X126521564Y-77287762D01*
G75*
G02*
X125460904Y-77287762I-530330J530330D01*
G01*
G37*
D15*
X130260853Y-78837813D03*
D16*
X125180853Y-78837813D03*
X135340853Y-78837813D03*
G36*
G01*
X133080904Y-75307864D02*
X133080904Y-75307864D01*
G75*
G02*
X134141564Y-75307864I530330J-530330D01*
G01*
X135060802Y-76227102D01*
G75*
G02*
X135060802Y-77287762I-530330J-530330D01*
G01*
X135060802Y-77287762D01*
G75*
G02*
X134000142Y-77287762I-530330J530330D01*
G01*
X133080904Y-76368524D01*
G75*
G02*
X133080904Y-75307864I530330J530330D01*
G01*
G37*
D17*
X127720853Y-73757813D03*
X132800853Y-73757813D03*
D13*
X125040853Y-83037813D03*
%TD*%
%TO.C,SW24*%
X154567636Y-100187188D03*
D18*
X149347636Y-90087188D03*
G36*
G01*
X153669819Y-91309371D02*
X153669819Y-91309371D01*
G75*
G02*
X154518347Y-91309371I424264J-424264D01*
G01*
X155225453Y-92016477D01*
G75*
G02*
X155225453Y-92865005I-424264J-424264D01*
G01*
X155225453Y-92865005D01*
G75*
G02*
X154376925Y-92865005I-424264J424264D01*
G01*
X153669819Y-92157899D01*
G75*
G02*
X153669819Y-91309371I424264J424264D01*
G01*
G37*
G36*
G01*
X143469819Y-92865005D02*
X143469819Y-92865005D01*
G75*
G02*
X143469819Y-92016477I424264J424264D01*
G01*
X144176925Y-91309371D01*
G75*
G02*
X145025453Y-91309371I424264J-424264D01*
G01*
X145025453Y-91309371D01*
G75*
G02*
X145025453Y-92157899I-424264J-424264D01*
G01*
X144318347Y-92865005D01*
G75*
G02*
X143469819Y-92865005I-424264J424264D01*
G01*
G37*
D14*
X154847636Y-95987188D03*
X143847636Y-95987188D03*
G36*
G01*
X144547687Y-94437137D02*
X144547687Y-94437137D01*
G75*
G02*
X144547687Y-93376477I530330J530330D01*
G01*
X145466925Y-92457239D01*
G75*
G02*
X146527585Y-92457239I530330J-530330D01*
G01*
X146527585Y-92457239D01*
G75*
G02*
X146527585Y-93517899I-530330J-530330D01*
G01*
X145608347Y-94437137D01*
G75*
G02*
X144547687Y-94437137I-530330J530330D01*
G01*
G37*
D15*
X149347636Y-95987188D03*
D16*
X144267636Y-95987188D03*
X154427636Y-95987188D03*
G36*
G01*
X152167687Y-92457239D02*
X152167687Y-92457239D01*
G75*
G02*
X153228347Y-92457239I530330J-530330D01*
G01*
X154147585Y-93376477D01*
G75*
G02*
X154147585Y-94437137I-530330J-530330D01*
G01*
X154147585Y-94437137D01*
G75*
G02*
X153086925Y-94437137I-530330J530330D01*
G01*
X152167687Y-93517899D01*
G75*
G02*
X152167687Y-92457239I530330J530330D01*
G01*
G37*
D17*
X146807636Y-90907188D03*
X151887636Y-90907188D03*
D13*
X144127636Y-100187188D03*
%TD*%
%TO.C,SW23*%
X154523992Y-81152291D03*
D18*
X149303992Y-71052291D03*
G36*
G01*
X153626175Y-72274474D02*
X153626175Y-72274474D01*
G75*
G02*
X154474703Y-72274474I424264J-424264D01*
G01*
X155181809Y-72981580D01*
G75*
G02*
X155181809Y-73830108I-424264J-424264D01*
G01*
X155181809Y-73830108D01*
G75*
G02*
X154333281Y-73830108I-424264J424264D01*
G01*
X153626175Y-73123002D01*
G75*
G02*
X153626175Y-72274474I424264J424264D01*
G01*
G37*
G36*
G01*
X143426175Y-73830108D02*
X143426175Y-73830108D01*
G75*
G02*
X143426175Y-72981580I424264J424264D01*
G01*
X144133281Y-72274474D01*
G75*
G02*
X144981809Y-72274474I424264J-424264D01*
G01*
X144981809Y-72274474D01*
G75*
G02*
X144981809Y-73123002I-424264J-424264D01*
G01*
X144274703Y-73830108D01*
G75*
G02*
X143426175Y-73830108I-424264J424264D01*
G01*
G37*
D14*
X154803992Y-76952291D03*
X143803992Y-76952291D03*
G36*
G01*
X144504043Y-75402240D02*
X144504043Y-75402240D01*
G75*
G02*
X144504043Y-74341580I530330J530330D01*
G01*
X145423281Y-73422342D01*
G75*
G02*
X146483941Y-73422342I530330J-530330D01*
G01*
X146483941Y-73422342D01*
G75*
G02*
X146483941Y-74483002I-530330J-530330D01*
G01*
X145564703Y-75402240D01*
G75*
G02*
X144504043Y-75402240I-530330J530330D01*
G01*
G37*
D15*
X149303992Y-76952291D03*
D16*
X144223992Y-76952291D03*
X154383992Y-76952291D03*
G36*
G01*
X152124043Y-73422342D02*
X152124043Y-73422342D01*
G75*
G02*
X153184703Y-73422342I530330J-530330D01*
G01*
X154103941Y-74341580D01*
G75*
G02*
X154103941Y-75402240I-530330J-530330D01*
G01*
X154103941Y-75402240D01*
G75*
G02*
X153043281Y-75402240I-530330J530330D01*
G01*
X152124043Y-74483002D01*
G75*
G02*
X152124043Y-73422342I530330J530330D01*
G01*
G37*
D17*
X146763992Y-71872291D03*
X151843992Y-71872291D03*
D13*
X144083992Y-81152291D03*
%TD*%
%TO.C,SW20*%
X108945534Y-135880426D03*
G36*
G01*
X99416692Y-132036984D02*
X99416692Y-132036984D01*
G75*
G02*
X98365106Y-131898540I-456571J595015D01*
G01*
X97756344Y-131105186D01*
G75*
G02*
X97894788Y-130053600I595015J456571D01*
G01*
X97894788Y-130053600D01*
G75*
G02*
X98946374Y-130192044I456571J-595015D01*
G01*
X99555136Y-130985398D01*
G75*
G02*
X99416692Y-132036984I-595015J-456571D01*
G01*
G37*
G36*
G01*
X102828775Y-129383737D02*
X102828775Y-129383737D01*
G75*
G02*
X103501958Y-128867186I594867J-78316D01*
G01*
X104493402Y-128997712D01*
G75*
G02*
X105009953Y-129670895I-78316J-594867D01*
G01*
X105009953Y-129670895D01*
G75*
G02*
X104336770Y-130187446I-594867J78316D01*
G01*
X103345326Y-130056920D01*
G75*
G02*
X102828775Y-129383737I78316J594867D01*
G01*
G37*
G36*
G01*
X95683581Y-136827271D02*
X95683581Y-136827271D01*
G75*
G02*
X95167030Y-136154088I78316J594867D01*
G01*
X95297556Y-135162644D01*
G75*
G02*
X95970739Y-134646093I594867J-78316D01*
G01*
X95970739Y-134646093D01*
G75*
G02*
X96487290Y-135319276I-78316J-594867D01*
G01*
X96356764Y-136310720D01*
G75*
G02*
X95683581Y-136827271I-594867J78316D01*
G01*
G37*
D14*
X106610875Y-132377889D03*
X97883989Y-139074265D03*
G36*
G01*
X97495765Y-137418364D02*
X97495765Y-137418364D01*
G75*
G02*
X96850076Y-136576885I97895J743584D01*
G01*
X97019760Y-135288007D01*
G75*
G02*
X97861239Y-134642318I743584J-97895D01*
G01*
X97861239Y-134642318D01*
G75*
G02*
X98506928Y-135483797I-97895J-743584D01*
G01*
X98337244Y-136772675D01*
G75*
G02*
X97495765Y-137418364I-743584J97895D01*
G01*
G37*
D15*
X102247432Y-135726077D03*
D16*
X98217197Y-138818585D03*
X106277667Y-132633569D03*
G36*
G01*
X102335831Y-131208841D02*
X102335831Y-131208841D01*
G75*
G02*
X103177310Y-130563152I743584J-97895D01*
G01*
X104466188Y-130732836D01*
G75*
G02*
X105111877Y-131574315I-97895J-743584D01*
G01*
X105111877Y-131574315D01*
G75*
G02*
X104270398Y-132220004I-743584J97895D01*
G01*
X102981520Y-132050320D01*
G75*
G02*
X102335831Y-131208841I97895J743584D01*
G01*
G37*
D17*
X97139806Y-133242096D03*
X101170041Y-130149588D03*
D13*
X100662926Y-142235896D03*
%TD*%
%TO.C,SW19*%
X173560969Y-94503093D03*
D18*
X168340969Y-84403093D03*
G36*
G01*
X172663152Y-85625276D02*
X172663152Y-85625276D01*
G75*
G02*
X173511680Y-85625276I424264J-424264D01*
G01*
X174218786Y-86332382D01*
G75*
G02*
X174218786Y-87180910I-424264J-424264D01*
G01*
X174218786Y-87180910D01*
G75*
G02*
X173370258Y-87180910I-424264J424264D01*
G01*
X172663152Y-86473804D01*
G75*
G02*
X172663152Y-85625276I424264J424264D01*
G01*
G37*
G36*
G01*
X162463152Y-87180910D02*
X162463152Y-87180910D01*
G75*
G02*
X162463152Y-86332382I424264J424264D01*
G01*
X163170258Y-85625276D01*
G75*
G02*
X164018786Y-85625276I424264J-424264D01*
G01*
X164018786Y-85625276D01*
G75*
G02*
X164018786Y-86473804I-424264J-424264D01*
G01*
X163311680Y-87180910D01*
G75*
G02*
X162463152Y-87180910I-424264J424264D01*
G01*
G37*
D14*
X173840969Y-90303093D03*
X162840969Y-90303093D03*
G36*
G01*
X163541020Y-88753042D02*
X163541020Y-88753042D01*
G75*
G02*
X163541020Y-87692382I530330J530330D01*
G01*
X164460258Y-86773144D01*
G75*
G02*
X165520918Y-86773144I530330J-530330D01*
G01*
X165520918Y-86773144D01*
G75*
G02*
X165520918Y-87833804I-530330J-530330D01*
G01*
X164601680Y-88753042D01*
G75*
G02*
X163541020Y-88753042I-530330J530330D01*
G01*
G37*
D15*
X168340969Y-90303093D03*
D16*
X163260969Y-90303093D03*
X173420969Y-90303093D03*
G36*
G01*
X171161020Y-86773144D02*
X171161020Y-86773144D01*
G75*
G02*
X172221680Y-86773144I530330J-530330D01*
G01*
X173140918Y-87692382D01*
G75*
G02*
X173140918Y-88753042I-530330J-530330D01*
G01*
X173140918Y-88753042D01*
G75*
G02*
X172080258Y-88753042I-530330J530330D01*
G01*
X171161020Y-87833804D01*
G75*
G02*
X171161020Y-86773144I530330J530330D01*
G01*
G37*
D17*
X165800969Y-85223093D03*
X170880969Y-85223093D03*
D13*
X163120969Y-94503093D03*
%TD*%
%TO.C,SW18*%
X173607883Y-75492465D03*
D18*
X168387883Y-65392465D03*
G36*
G01*
X172710066Y-66614648D02*
X172710066Y-66614648D01*
G75*
G02*
X173558594Y-66614648I424264J-424264D01*
G01*
X174265700Y-67321754D01*
G75*
G02*
X174265700Y-68170282I-424264J-424264D01*
G01*
X174265700Y-68170282D01*
G75*
G02*
X173417172Y-68170282I-424264J424264D01*
G01*
X172710066Y-67463176D01*
G75*
G02*
X172710066Y-66614648I424264J424264D01*
G01*
G37*
G36*
G01*
X162510066Y-68170282D02*
X162510066Y-68170282D01*
G75*
G02*
X162510066Y-67321754I424264J424264D01*
G01*
X163217172Y-66614648D01*
G75*
G02*
X164065700Y-66614648I424264J-424264D01*
G01*
X164065700Y-66614648D01*
G75*
G02*
X164065700Y-67463176I-424264J-424264D01*
G01*
X163358594Y-68170282D01*
G75*
G02*
X162510066Y-68170282I-424264J424264D01*
G01*
G37*
D14*
X173887883Y-71292465D03*
X162887883Y-71292465D03*
G36*
G01*
X163587934Y-69742414D02*
X163587934Y-69742414D01*
G75*
G02*
X163587934Y-68681754I530330J530330D01*
G01*
X164507172Y-67762516D01*
G75*
G02*
X165567832Y-67762516I530330J-530330D01*
G01*
X165567832Y-67762516D01*
G75*
G02*
X165567832Y-68823176I-530330J-530330D01*
G01*
X164648594Y-69742414D01*
G75*
G02*
X163587934Y-69742414I-530330J530330D01*
G01*
G37*
D15*
X168387883Y-71292465D03*
D16*
X163307883Y-71292465D03*
X173467883Y-71292465D03*
G36*
G01*
X171207934Y-67762516D02*
X171207934Y-67762516D01*
G75*
G02*
X172268594Y-67762516I530330J-530330D01*
G01*
X173187832Y-68681754D01*
G75*
G02*
X173187832Y-69742414I-530330J-530330D01*
G01*
X173187832Y-69742414D01*
G75*
G02*
X172127172Y-69742414I-530330J530330D01*
G01*
X171207934Y-68823176D01*
G75*
G02*
X171207934Y-67762516I530330J530330D01*
G01*
G37*
D17*
X165847883Y-66212465D03*
X170927883Y-66212465D03*
D13*
X163167883Y-75492465D03*
%TD*%
%TO.C,SW17*%
X173588502Y-56367014D03*
D18*
X168368502Y-46267014D03*
G36*
G01*
X172690685Y-47489197D02*
X172690685Y-47489197D01*
G75*
G02*
X173539213Y-47489197I424264J-424264D01*
G01*
X174246319Y-48196303D01*
G75*
G02*
X174246319Y-49044831I-424264J-424264D01*
G01*
X174246319Y-49044831D01*
G75*
G02*
X173397791Y-49044831I-424264J424264D01*
G01*
X172690685Y-48337725D01*
G75*
G02*
X172690685Y-47489197I424264J424264D01*
G01*
G37*
G36*
G01*
X162490685Y-49044831D02*
X162490685Y-49044831D01*
G75*
G02*
X162490685Y-48196303I424264J424264D01*
G01*
X163197791Y-47489197D01*
G75*
G02*
X164046319Y-47489197I424264J-424264D01*
G01*
X164046319Y-47489197D01*
G75*
G02*
X164046319Y-48337725I-424264J-424264D01*
G01*
X163339213Y-49044831D01*
G75*
G02*
X162490685Y-49044831I-424264J424264D01*
G01*
G37*
D14*
X173868502Y-52167014D03*
X162868502Y-52167014D03*
G36*
G01*
X163568553Y-50616963D02*
X163568553Y-50616963D01*
G75*
G02*
X163568553Y-49556303I530330J530330D01*
G01*
X164487791Y-48637065D01*
G75*
G02*
X165548451Y-48637065I530330J-530330D01*
G01*
X165548451Y-48637065D01*
G75*
G02*
X165548451Y-49697725I-530330J-530330D01*
G01*
X164629213Y-50616963D01*
G75*
G02*
X163568553Y-50616963I-530330J530330D01*
G01*
G37*
D15*
X168368502Y-52167014D03*
D16*
X163288502Y-52167014D03*
X173448502Y-52167014D03*
G36*
G01*
X171188553Y-48637065D02*
X171188553Y-48637065D01*
G75*
G02*
X172249213Y-48637065I530330J-530330D01*
G01*
X173168451Y-49556303D01*
G75*
G02*
X173168451Y-50616963I-530330J-530330D01*
G01*
X173168451Y-50616963D01*
G75*
G02*
X172107791Y-50616963I-530330J530330D01*
G01*
X171188553Y-49697725D01*
G75*
G02*
X171188553Y-48637065I530330J530330D01*
G01*
G37*
D17*
X165828502Y-47087014D03*
X170908502Y-47087014D03*
D13*
X163148502Y-56367014D03*
%TD*%
%TO.C,SW15*%
X126236740Y-126773182D03*
G36*
G01*
X117765642Y-120958426D02*
X117765642Y-120958426D01*
G75*
G02*
X116768947Y-120595659I-316964J679731D01*
G01*
X116346329Y-119689351D01*
G75*
G02*
X116709096Y-118692656I679731J316964D01*
G01*
X116709096Y-118692656D01*
G75*
G02*
X117705791Y-119055423I316964J-679731D01*
G01*
X118128409Y-119961731D01*
G75*
G02*
X117765642Y-120958426I-679731J-316964D01*
G01*
G37*
G36*
G01*
X121671113Y-119106581D02*
X121671113Y-119106581D01*
G75*
G02*
X122440141Y-118747977I563816J-205212D01*
G01*
X123379833Y-119089997D01*
G75*
G02*
X123738437Y-119859025I-205212J-563816D01*
G01*
X123738437Y-119859025D01*
G75*
G02*
X122969409Y-120217629I-563816J205212D01*
G01*
X122029717Y-119875609D01*
G75*
G02*
X121671113Y-119106581I205212J563816D01*
G01*
G37*
G36*
G01*
X113084214Y-124827172D02*
X113084214Y-124827172D01*
G75*
G02*
X112725610Y-124058144I205212J563816D01*
G01*
X113067630Y-123118452D01*
G75*
G02*
X113836658Y-122759848I563816J-205212D01*
G01*
X113836658Y-122759848D01*
G75*
G02*
X114195262Y-123528876I-205212J-563816D01*
G01*
X113853242Y-124468568D01*
G75*
G02*
X113084214Y-124827172I-563816J205212D01*
G01*
G37*
D14*
X124715510Y-122848357D03*
X114746124Y-127497157D03*
G36*
G01*
X114725506Y-125796480D02*
X114725506Y-125796480D01*
G75*
G02*
X114277252Y-124835196I256515J704769D01*
G01*
X114721878Y-123613596D01*
G75*
G02*
X115683162Y-123165342I704769J-256515D01*
G01*
X115683162Y-123165342D01*
G75*
G02*
X116131416Y-124126626I-256515J-704769D01*
G01*
X115686790Y-125348226D01*
G75*
G02*
X114725506Y-125796480I-704769J256515D01*
G01*
G37*
D15*
X119730817Y-125172757D03*
D16*
X115126773Y-127319658D03*
X124334861Y-123025856D03*
G36*
G01*
X120794830Y-120781732D02*
X120794830Y-120781732D01*
G75*
G02*
X121756114Y-120333478I704769J-256515D01*
G01*
X122977714Y-120778104D01*
G75*
G02*
X123425968Y-121739388I-256515J-704769D01*
G01*
X123425968Y-121739388D01*
G75*
G02*
X122464684Y-122187642I-704769J256515D01*
G01*
X121243084Y-121743016D01*
G75*
G02*
X120794830Y-120781732I256515J704769D01*
G01*
G37*
D17*
X115281894Y-121642164D03*
X119885938Y-119495263D03*
D13*
X116774887Y-131185317D03*
%TD*%
%TO.C,SW14*%
X192621400Y-98348575D03*
D18*
X187401400Y-88248575D03*
G36*
G01*
X191723583Y-89470758D02*
X191723583Y-89470758D01*
G75*
G02*
X192572111Y-89470758I424264J-424264D01*
G01*
X193279217Y-90177864D01*
G75*
G02*
X193279217Y-91026392I-424264J-424264D01*
G01*
X193279217Y-91026392D01*
G75*
G02*
X192430689Y-91026392I-424264J424264D01*
G01*
X191723583Y-90319286D01*
G75*
G02*
X191723583Y-89470758I424264J424264D01*
G01*
G37*
G36*
G01*
X181523583Y-91026392D02*
X181523583Y-91026392D01*
G75*
G02*
X181523583Y-90177864I424264J424264D01*
G01*
X182230689Y-89470758D01*
G75*
G02*
X183079217Y-89470758I424264J-424264D01*
G01*
X183079217Y-89470758D01*
G75*
G02*
X183079217Y-90319286I-424264J-424264D01*
G01*
X182372111Y-91026392D01*
G75*
G02*
X181523583Y-91026392I-424264J424264D01*
G01*
G37*
D14*
X192901400Y-94148575D03*
X181901400Y-94148575D03*
G36*
G01*
X182601451Y-92598524D02*
X182601451Y-92598524D01*
G75*
G02*
X182601451Y-91537864I530330J530330D01*
G01*
X183520689Y-90618626D01*
G75*
G02*
X184581349Y-90618626I530330J-530330D01*
G01*
X184581349Y-90618626D01*
G75*
G02*
X184581349Y-91679286I-530330J-530330D01*
G01*
X183662111Y-92598524D01*
G75*
G02*
X182601451Y-92598524I-530330J530330D01*
G01*
G37*
D15*
X187401400Y-94148575D03*
D16*
X182321400Y-94148575D03*
X192481400Y-94148575D03*
G36*
G01*
X190221451Y-90618626D02*
X190221451Y-90618626D01*
G75*
G02*
X191282111Y-90618626I530330J-530330D01*
G01*
X192201349Y-91537864D01*
G75*
G02*
X192201349Y-92598524I-530330J-530330D01*
G01*
X192201349Y-92598524D01*
G75*
G02*
X191140689Y-92598524I-530330J530330D01*
G01*
X190221451Y-91679286D01*
G75*
G02*
X190221451Y-90618626I530330J530330D01*
G01*
G37*
D17*
X184861400Y-89068575D03*
X189941400Y-89068575D03*
D13*
X182181400Y-98348575D03*
%TD*%
%TO.C,SW9*%
X211723400Y-112597020D03*
D18*
X206503400Y-102497020D03*
G36*
G01*
X210825583Y-103719203D02*
X210825583Y-103719203D01*
G75*
G02*
X211674111Y-103719203I424264J-424264D01*
G01*
X212381217Y-104426309D01*
G75*
G02*
X212381217Y-105274837I-424264J-424264D01*
G01*
X212381217Y-105274837D01*
G75*
G02*
X211532689Y-105274837I-424264J424264D01*
G01*
X210825583Y-104567731D01*
G75*
G02*
X210825583Y-103719203I424264J424264D01*
G01*
G37*
G36*
G01*
X200625583Y-105274837D02*
X200625583Y-105274837D01*
G75*
G02*
X200625583Y-104426309I424264J424264D01*
G01*
X201332689Y-103719203D01*
G75*
G02*
X202181217Y-103719203I424264J-424264D01*
G01*
X202181217Y-103719203D01*
G75*
G02*
X202181217Y-104567731I-424264J-424264D01*
G01*
X201474111Y-105274837D01*
G75*
G02*
X200625583Y-105274837I-424264J424264D01*
G01*
G37*
D14*
X212003400Y-108397020D03*
X201003400Y-108397020D03*
G36*
G01*
X201703451Y-106846969D02*
X201703451Y-106846969D01*
G75*
G02*
X201703451Y-105786309I530330J530330D01*
G01*
X202622689Y-104867071D01*
G75*
G02*
X203683349Y-104867071I530330J-530330D01*
G01*
X203683349Y-104867071D01*
G75*
G02*
X203683349Y-105927731I-530330J-530330D01*
G01*
X202764111Y-106846969D01*
G75*
G02*
X201703451Y-106846969I-530330J530330D01*
G01*
G37*
D15*
X206503400Y-108397020D03*
D16*
X201423400Y-108397020D03*
X211583400Y-108397020D03*
G36*
G01*
X209323451Y-104867071D02*
X209323451Y-104867071D01*
G75*
G02*
X210384111Y-104867071I530330J-530330D01*
G01*
X211303349Y-105786309D01*
G75*
G02*
X211303349Y-106846969I-530330J-530330D01*
G01*
X211303349Y-106846969D01*
G75*
G02*
X210242689Y-106846969I-530330J530330D01*
G01*
X209323451Y-105927731D01*
G75*
G02*
X209323451Y-104867071I530330J530330D01*
G01*
G37*
D17*
X203963400Y-103317020D03*
X209043400Y-103317020D03*
D13*
X201283400Y-112597020D03*
%TD*%
D19*
%TO.C,J2*%
X91993977Y-57047227D03*
D20*
X94293977Y-52447227D03*
X94293977Y-59447227D03*
D19*
X91993977Y-54047227D03*
X91993977Y-61047227D03*
X96593977Y-62147227D03*
%TD*%
D21*
%TO.C,RE1*%
X96833977Y-103044227D03*
D22*
X96833977Y-105544227D03*
X96833977Y-108044227D03*
D23*
X104333977Y-99944227D03*
X104333977Y-111144227D03*
D22*
X111333977Y-103044227D03*
X111333977Y-108044227D03*
%TD*%
D12*
%TO.C,D_RE1*%
X100553978Y-114728228D03*
D11*
X108353978Y-114728228D03*
D24*
X103053978Y-114728228D03*
X105853978Y-114728228D03*
%TD*%
D25*
%TO.C,RST2*%
X96270978Y-73505228D03*
X96270978Y-67305228D03*
X92570978Y-73505228D03*
X92570978Y-67305228D03*
%TD*%
D26*
%TO.C,PWM_PAD1*%
X120582978Y-67357228D03*
X120582978Y-64817228D03*
X120582978Y-62277228D03*
%TD*%
D19*
%TO.C,J1*%
X96593978Y-57047228D03*
D20*
X94293978Y-52447228D03*
X94293978Y-59447228D03*
D19*
X96593978Y-54047228D03*
X96593978Y-61047228D03*
X91993978Y-62147228D03*
%TD*%
D12*
%TO.C,D8*%
X197046398Y-85462120D03*
D11*
X197046398Y-93262120D03*
D27*
X197046398Y-87962120D03*
X197046398Y-90762120D03*
%TD*%
D12*
%TO.C,D28*%
X120818223Y-98224868D03*
D11*
X120818223Y-106024868D03*
D27*
X120818223Y-100724868D03*
X120818223Y-103524868D03*
%TD*%
D12*
%TO.C,D27*%
X120726056Y-79371088D03*
D11*
X120726056Y-87171088D03*
D27*
X120726056Y-81871088D03*
X120726056Y-84671088D03*
%TD*%
D12*
%TO.C,D26*%
X126944578Y-67916029D03*
D11*
X134744578Y-67916029D03*
D24*
X129444578Y-67916029D03*
X132244578Y-67916029D03*
%TD*%
D12*
%TO.C,D24*%
X139830586Y-96816388D03*
D11*
X139830586Y-104616388D03*
D27*
X139830586Y-99316388D03*
X139830586Y-102116388D03*
%TD*%
D12*
%TO.C,D23*%
X139992325Y-77739468D03*
D11*
X139992325Y-85539468D03*
D27*
X139992325Y-80239468D03*
X139992325Y-83039468D03*
%TD*%
D12*
%TO.C,D22*%
X139840369Y-58384384D03*
D11*
X139840369Y-66184384D03*
D27*
X139840369Y-60884384D03*
X139840369Y-63684384D03*
%TD*%
D28*
%TO.C,D20*%
G36*
X94692499Y-138070826D02*
G01*
X93423133Y-139044844D01*
X92449115Y-137775478D01*
X93718481Y-136801460D01*
X94692499Y-138070826D01*
G37*
D11*
X98319147Y-144111308D03*
D28*
G36*
X97760264Y-142397351D02*
G01*
X96808240Y-143127865D01*
X95834222Y-141858499D01*
X96786246Y-141127985D01*
X97760264Y-142397351D01*
G37*
G36*
X96055732Y-140175961D02*
G01*
X95103708Y-140906475D01*
X94129690Y-139637109D01*
X95081714Y-138906595D01*
X96055732Y-140175961D01*
G37*
%TD*%
D12*
%TO.C,D19*%
X159015380Y-90944215D03*
D11*
X159015380Y-98744215D03*
D27*
X159015380Y-93444215D03*
X159015380Y-96244215D03*
%TD*%
D12*
%TO.C,D18*%
X158809978Y-71839226D03*
D11*
X158809978Y-79639226D03*
D27*
X158809978Y-74339226D03*
X158809978Y-77139226D03*
%TD*%
D12*
%TO.C,D17*%
X158809976Y-55202229D03*
D11*
X158809976Y-63002229D03*
D27*
X158809976Y-57702229D03*
X158809976Y-60502229D03*
%TD*%
D28*
%TO.C,D15*%
G36*
X110853905Y-126693580D02*
G01*
X109403812Y-127369769D01*
X108727623Y-125919676D01*
X110177716Y-125243487D01*
X110853905Y-126693580D01*
G37*
D11*
X113087186Y-133375828D03*
D28*
G36*
X112912520Y-131581534D02*
G01*
X111824951Y-132088676D01*
X111148762Y-130638584D01*
X112236331Y-130131442D01*
X112912520Y-131581534D01*
G37*
G36*
X111729188Y-129043872D02*
G01*
X110641619Y-129551014D01*
X109965430Y-128100922D01*
X111052999Y-127593780D01*
X111729188Y-129043872D01*
G37*
%TD*%
D12*
%TO.C,D14*%
X177939387Y-94410187D03*
D11*
X177939387Y-102210187D03*
D27*
X177939387Y-96910187D03*
X177939387Y-99710187D03*
%TD*%
D12*
%TO.C,D13*%
X177968541Y-75103627D03*
D11*
X177968541Y-82903627D03*
D27*
X177968541Y-77603627D03*
X177968541Y-80403627D03*
%TD*%
D12*
%TO.C,D12*%
X177968541Y-55761029D03*
D11*
X177968541Y-63561029D03*
D27*
X177968541Y-58261029D03*
X177968541Y-61061029D03*
%TD*%
D28*
%TO.C,D10*%
G36*
X130091051Y-117878557D02*
G01*
X128528978Y-118224860D01*
X128182675Y-116662787D01*
X129744748Y-116316484D01*
X130091051Y-117878557D01*
G37*
D11*
X130825091Y-124885780D03*
D28*
G36*
X131042921Y-123096213D02*
G01*
X129871366Y-123355941D01*
X129525063Y-121793867D01*
X130696618Y-121534139D01*
X131042921Y-123096213D01*
G37*
G36*
X130436891Y-120362585D02*
G01*
X129265336Y-120622313D01*
X128919033Y-119060239D01*
X130090588Y-118800511D01*
X130436891Y-120362585D01*
G37*
%TD*%
D12*
%TO.C,D9*%
X197046397Y-104497019D03*
D11*
X197046397Y-112297019D03*
D27*
X197046397Y-106997019D03*
X197046397Y-109797019D03*
%TD*%
D12*
%TO.C,D7*%
X197046398Y-69157700D03*
D11*
X197046398Y-76957700D03*
D27*
X197046398Y-71657700D03*
X197046398Y-74457700D03*
%TD*%
D29*
%TO.C,JP5*%
X112226377Y-84113606D03*
X112226377Y-83214446D03*
%TD*%
%TO.C,JP8*%
X104733378Y-84113608D03*
X104733378Y-83214448D03*
%TD*%
%TO.C,JP7*%
X107019378Y-84113609D03*
X107019378Y-83214449D03*
%TD*%
%TO.C,JP6*%
X109686376Y-84113609D03*
X109686376Y-83214449D03*
%TD*%
D30*
%TO.C,J3*%
X104707977Y-87042227D03*
X107247977Y-87042227D03*
X109787977Y-87042227D03*
X112327977Y-87042227D03*
%TD*%
M02*
