M48
; DRILL file {KiCad (5.1.7)-1} date 07/11/21 14:26:10
; FORMAT={-:-/ absolute / metric / decimal}
; #@! TF.CreationDate,2021-07-11T14:26:10+05:30
; #@! TF.GenerationSoftware,Kicad,Pcbnew,(5.1.7)-1
; #@! TF.FileFunction,NonPlated,1,2,NPTH
FMAT,2
METRIC
T1C0.800
T2C1.000
T3C1.700
T4C1.900
T5C2.200
T6C4.000
%
G90
G05
T1
X94.294Y-52.447
X94.294Y-59.447
X94.294Y-52.447
X94.294Y-59.447
T2
X134.894Y-123.747
X145.087Y-121.487
X144.131Y-62.142
X154.571Y-62.142
X163.121Y-94.503
X173.561Y-94.503
X100.663Y-142.236
X108.946Y-135.88
X124.997Y-64.003
X135.437Y-64.003
X125.06Y-102.163
X135.5Y-102.163
X201.283Y-112.597
X211.723Y-112.597
X182.162Y-79.223
X192.602Y-79.223
X201.196Y-74.527
X211.636Y-74.527
X144.128Y-100.187
X154.568Y-100.187
X125.041Y-83.038
X135.481Y-83.038
X201.24Y-93.562
X211.68Y-93.562
X116.775Y-131.185
X126.237Y-126.773
X144.084Y-81.152
X154.524Y-81.152
X163.168Y-75.492
X173.608Y-75.492
X163.149Y-56.367
X173.589Y-56.367
X182.181Y-98.349
X192.621Y-98.349
X182.209Y-60.213
X192.649Y-60.213
T3
X182.302Y-75.023
X192.462Y-75.023
X201.336Y-70.327
X211.496Y-70.327
X144.268Y-95.987
X154.428Y-95.987
X125.181Y-78.838
X135.341Y-78.838
X201.38Y-89.362
X211.54Y-89.362
X115.127Y-127.32
X124.335Y-123.026
X144.224Y-76.952
X154.384Y-76.952
X163.308Y-71.292
X173.468Y-71.292
X163.289Y-52.167
X173.449Y-52.167
X182.321Y-94.149
X192.481Y-94.149
X182.349Y-56.013
X192.509Y-56.013
X134.122Y-119.616
X144.041Y-117.417
X144.271Y-57.942
X154.431Y-57.942
X163.261Y-90.303
X173.421Y-90.303
X98.217Y-138.819
X106.278Y-132.634
X125.137Y-59.803
X135.297Y-59.803
X125.2Y-97.963
X135.36Y-97.963
X201.423Y-108.397
X211.583Y-108.397
T4
X133.712Y-119.707
X144.451Y-117.326
X143.851Y-57.942
X154.851Y-57.942
X162.841Y-90.303
X173.841Y-90.303
X97.884Y-139.074
X106.611Y-132.378
X124.717Y-59.803
X135.717Y-59.803
X124.78Y-97.963
X135.78Y-97.963
X201.003Y-108.397
X212.003Y-108.397
X181.882Y-75.023
X192.882Y-75.023
X200.916Y-70.327
X211.916Y-70.327
X143.848Y-95.987
X154.848Y-95.987
X124.761Y-78.838
X135.761Y-78.838
X200.96Y-89.362
X211.96Y-89.362
X114.746Y-127.497
X124.716Y-122.848
X143.804Y-76.952
X154.804Y-76.952
X162.888Y-71.292
X173.888Y-71.292
X162.869Y-52.167
X173.869Y-52.167
X181.901Y-94.149
X192.901Y-94.149
X181.929Y-56.013
X192.929Y-56.013
T5
X149.304Y-108.226
X104.42Y-119.357
X187.401Y-65.376
X111.134Y-60.677
X149.304Y-67.357
X187.401Y-108.226
T6
X206.46Y-89.362
X119.731Y-125.173
X149.304Y-76.952
X168.388Y-71.292
X168.369Y-52.167
X187.401Y-94.149
X187.429Y-56.013
X139.082Y-118.517
X149.351Y-57.942
X168.341Y-90.303
X102.247Y-135.726
X130.217Y-59.803
X130.28Y-97.963
X206.503Y-108.397
X187.382Y-75.023
X206.416Y-70.327
X149.348Y-95.987
X130.261Y-78.838
T0
M30
