%TF.GenerationSoftware,KiCad,Pcbnew,(5.1.7)-1*%
%TF.CreationDate,2021-07-11T12:46:22+05:30*%
%TF.ProjectId,Pankh,50616e6b-682e-46b6-9963-61645f706362,rev?*%
%TF.SameCoordinates,Original*%
%TF.FileFunction,Paste,Top*%
%TF.FilePolarity,Positive*%
%FSLAX46Y46*%
G04 Gerber Fmt 4.6, Leading zero omitted, Abs format (unit mm)*
G04 Created by KiCad (PCBNEW (5.1.7)-1) date 2021-07-11 12:46:22*
%MOMM*%
%LPD*%
G01*
G04 APERTURE LIST*
%ADD10O,1.500000X3.000000*%
%ADD11R,1.600000X1.200000*%
%ADD12O,3.759200X1.879600*%
%ADD13R,1.100000X1.800000*%
%ADD14R,1.200000X1.600000*%
%ADD15C,0.100000*%
%ADD16R,1.270000X0.635000*%
G04 APERTURE END LIST*
%TO.C,SW10*%
G36*
G01*
X134630104Y-117649170D02*
X132963562Y-116587466D01*
G75*
G02*
X132730320Y-115535380I409422J642664D01*
G01*
X132730320Y-115535380D01*
G75*
G02*
X133782406Y-115302138I642664J-409422D01*
G01*
X135448948Y-116363842D01*
G75*
G02*
X135682190Y-117415928I-409422J-642664D01*
G01*
X135682190Y-117415928D01*
G75*
G02*
X134630104Y-117649170I-642664J409422D01*
G01*
G37*
G36*
G01*
X133481127Y-115861399D02*
X135080131Y-113351467D01*
G75*
G02*
X136132217Y-113118225I642664J-409422D01*
G01*
X136132217Y-113118225D01*
G75*
G02*
X136365459Y-114170311I-409422J-642664D01*
G01*
X134766455Y-116680243D01*
G75*
G02*
X133714369Y-116913485I-642664J409422D01*
G01*
X133714369Y-116913485D01*
G75*
G02*
X133481127Y-115861399I409422J642664D01*
G01*
G37*
G36*
G01*
X140487849Y-113736102D02*
X137537309Y-113347656D01*
G75*
G02*
X136881289Y-112492714I99461J755481D01*
G01*
X136881289Y-112492714D01*
G75*
G02*
X137736231Y-111836694I755481J-99461D01*
G01*
X140686771Y-112225140D01*
G75*
G02*
X141342791Y-113080082I-99461J-755481D01*
G01*
X141342791Y-113080082D01*
G75*
G02*
X140487849Y-113736102I-755481J99461D01*
G01*
G37*
G36*
G01*
X142491174Y-116268550D02*
X139981242Y-114669546D01*
G75*
G02*
X139748000Y-113617460I409422J642664D01*
G01*
X139748000Y-113617460D01*
G75*
G02*
X140800086Y-113384218I642664J-409422D01*
G01*
X143310018Y-114983222D01*
G75*
G02*
X143543260Y-116035308I-409422J-642664D01*
G01*
X143543260Y-116035308D01*
G75*
G02*
X142491174Y-116268550I-642664J409422D01*
G01*
G37*
G36*
G01*
X140001947Y-114397988D02*
X139677287Y-112933544D01*
G75*
G02*
X140247179Y-112038992I732222J162330D01*
G01*
X140247179Y-112038992D01*
G75*
G02*
X141141731Y-112608884I162330J-732222D01*
G01*
X141466391Y-114073328D01*
G75*
G02*
X140896499Y-114967880I-732222J-162330D01*
G01*
X140896499Y-114967880D01*
G75*
G02*
X140001947Y-114397988I-162330J732222D01*
G01*
G37*
%TD*%
%TO.C,SW13*%
G36*
G01*
X183223834Y-73212567D02*
X181826592Y-71815325D01*
G75*
G02*
X181826592Y-70737695I538815J538815D01*
G01*
X181826592Y-70737695D01*
G75*
G02*
X182904222Y-70737695I538815J-538815D01*
G01*
X184301464Y-72134937D01*
G75*
G02*
X184301464Y-73212567I-538815J-538815D01*
G01*
X184301464Y-73212567D01*
G75*
G02*
X183223834Y-73212567I-538815J538815D01*
G01*
G37*
G36*
G01*
X182489038Y-71218491D02*
X184593388Y-69114141D01*
G75*
G02*
X185671018Y-69114141I538815J-538815D01*
G01*
X185671018Y-69114141D01*
G75*
G02*
X185671018Y-70191771I-538815J-538815D01*
G01*
X183566668Y-72296121D01*
G75*
G02*
X182489038Y-72296121I-538815J538815D01*
G01*
X182489038Y-72296121D01*
G75*
G02*
X182489038Y-71218491I538815J538815D01*
G01*
G37*
G36*
G01*
X189789672Y-70660103D02*
X186993146Y-69642251D01*
G75*
G02*
X186537719Y-68665586I260619J716046D01*
G01*
X186537719Y-68665586D01*
G75*
G02*
X187514384Y-68210159I716046J-260619D01*
G01*
X190310910Y-69228011D01*
G75*
G02*
X190766337Y-70204676I-260619J-716046D01*
G01*
X190766337Y-70204676D01*
G75*
G02*
X189789672Y-70660103I-716046J260619D01*
G01*
G37*
G36*
G01*
X191197388Y-73566121D02*
X189093038Y-71461771D01*
G75*
G02*
X189093038Y-70384141I538815J538815D01*
G01*
X189093038Y-70384141D01*
G75*
G02*
X190170668Y-70384141I538815J-538815D01*
G01*
X192275018Y-72488491D01*
G75*
G02*
X192275018Y-73566121I-538815J-538815D01*
G01*
X192275018Y-73566121D01*
G75*
G02*
X191197388Y-73566121I-538815J538815D01*
G01*
G37*
D10*
X189922028Y-70451131D03*
%TD*%
%TO.C,SW8*%
G36*
G01*
X202301563Y-87551555D02*
X200904321Y-86154313D01*
G75*
G02*
X200904321Y-85076683I538815J538815D01*
G01*
X200904321Y-85076683D01*
G75*
G02*
X201981951Y-85076683I538815J-538815D01*
G01*
X203379193Y-86473925D01*
G75*
G02*
X203379193Y-87551555I-538815J-538815D01*
G01*
X203379193Y-87551555D01*
G75*
G02*
X202301563Y-87551555I-538815J538815D01*
G01*
G37*
G36*
G01*
X201566767Y-85557479D02*
X203671117Y-83453129D01*
G75*
G02*
X204748747Y-83453129I538815J-538815D01*
G01*
X204748747Y-83453129D01*
G75*
G02*
X204748747Y-84530759I-538815J-538815D01*
G01*
X202644397Y-86635109D01*
G75*
G02*
X201566767Y-86635109I-538815J538815D01*
G01*
X201566767Y-86635109D01*
G75*
G02*
X201566767Y-85557479I538815J538815D01*
G01*
G37*
G36*
G01*
X208867401Y-84999091D02*
X206070875Y-83981239D01*
G75*
G02*
X205615448Y-83004574I260619J716046D01*
G01*
X205615448Y-83004574D01*
G75*
G02*
X206592113Y-82549147I716046J-260619D01*
G01*
X209388639Y-83566999D01*
G75*
G02*
X209844066Y-84543664I-260619J-716046D01*
G01*
X209844066Y-84543664D01*
G75*
G02*
X208867401Y-84999091I-716046J260619D01*
G01*
G37*
G36*
G01*
X210275117Y-87905109D02*
X208170767Y-85800759D01*
G75*
G02*
X208170767Y-84723129I538815J538815D01*
G01*
X208170767Y-84723129D01*
G75*
G02*
X209248397Y-84723129I538815J-538815D01*
G01*
X211352747Y-86827479D01*
G75*
G02*
X211352747Y-87905109I-538815J-538815D01*
G01*
X211352747Y-87905109D01*
G75*
G02*
X210275117Y-87905109I-538815J538815D01*
G01*
G37*
X208999757Y-84790119D03*
%TD*%
%TO.C,SW7*%
G36*
G01*
X202257916Y-68516654D02*
X200860674Y-67119412D01*
G75*
G02*
X200860674Y-66041782I538815J538815D01*
G01*
X200860674Y-66041782D01*
G75*
G02*
X201938304Y-66041782I538815J-538815D01*
G01*
X203335546Y-67439024D01*
G75*
G02*
X203335546Y-68516654I-538815J-538815D01*
G01*
X203335546Y-68516654D01*
G75*
G02*
X202257916Y-68516654I-538815J538815D01*
G01*
G37*
G36*
G01*
X201523120Y-66522578D02*
X203627470Y-64418228D01*
G75*
G02*
X204705100Y-64418228I538815J-538815D01*
G01*
X204705100Y-64418228D01*
G75*
G02*
X204705100Y-65495858I-538815J-538815D01*
G01*
X202600750Y-67600208D01*
G75*
G02*
X201523120Y-67600208I-538815J538815D01*
G01*
X201523120Y-67600208D01*
G75*
G02*
X201523120Y-66522578I538815J538815D01*
G01*
G37*
G36*
G01*
X208823754Y-65964190D02*
X206027228Y-64946338D01*
G75*
G02*
X205571801Y-63969673I260619J716046D01*
G01*
X205571801Y-63969673D01*
G75*
G02*
X206548466Y-63514246I716046J-260619D01*
G01*
X209344992Y-64532098D01*
G75*
G02*
X209800419Y-65508763I-260619J-716046D01*
G01*
X209800419Y-65508763D01*
G75*
G02*
X208823754Y-65964190I-716046J260619D01*
G01*
G37*
G36*
G01*
X210231470Y-68870208D02*
X208127120Y-66765858D01*
G75*
G02*
X208127120Y-65688228I538815J538815D01*
G01*
X208127120Y-65688228D01*
G75*
G02*
X209204750Y-65688228I538815J-538815D01*
G01*
X211309100Y-67792578D01*
G75*
G02*
X211309100Y-68870208I-538815J-538815D01*
G01*
X211309100Y-68870208D01*
G75*
G02*
X210231470Y-68870208I-538815J538815D01*
G01*
G37*
X208956110Y-65755218D03*
%TD*%
%TO.C,SW12*%
G36*
G01*
X183270744Y-54201938D02*
X181873502Y-52804696D01*
G75*
G02*
X181873502Y-51727066I538815J538815D01*
G01*
X181873502Y-51727066D01*
G75*
G02*
X182951132Y-51727066I538815J-538815D01*
G01*
X184348374Y-53124308D01*
G75*
G02*
X184348374Y-54201938I-538815J-538815D01*
G01*
X184348374Y-54201938D01*
G75*
G02*
X183270744Y-54201938I-538815J538815D01*
G01*
G37*
G36*
G01*
X182535948Y-52207862D02*
X184640298Y-50103512D01*
G75*
G02*
X185717928Y-50103512I538815J-538815D01*
G01*
X185717928Y-50103512D01*
G75*
G02*
X185717928Y-51181142I-538815J-538815D01*
G01*
X183613578Y-53285492D01*
G75*
G02*
X182535948Y-53285492I-538815J538815D01*
G01*
X182535948Y-53285492D01*
G75*
G02*
X182535948Y-52207862I538815J538815D01*
G01*
G37*
G36*
G01*
X189836582Y-51649474D02*
X187040056Y-50631622D01*
G75*
G02*
X186584629Y-49654957I260619J716046D01*
G01*
X186584629Y-49654957D01*
G75*
G02*
X187561294Y-49199530I716046J-260619D01*
G01*
X190357820Y-50217382D01*
G75*
G02*
X190813247Y-51194047I-260619J-716046D01*
G01*
X190813247Y-51194047D01*
G75*
G02*
X189836582Y-51649474I-716046J260619D01*
G01*
G37*
G36*
G01*
X191244298Y-54555492D02*
X189139948Y-52451142D01*
G75*
G02*
X189139948Y-51373512I538815J538815D01*
G01*
X189139948Y-51373512D01*
G75*
G02*
X190217578Y-51373512I538815J-538815D01*
G01*
X192321928Y-53477862D01*
G75*
G02*
X192321928Y-54555492I-538815J-538815D01*
G01*
X192321928Y-54555492D01*
G75*
G02*
X191244298Y-54555492I-538815J538815D01*
G01*
G37*
X189968938Y-51440502D03*
%TD*%
%TO.C,SW22*%
G36*
G01*
X145192710Y-56131102D02*
X143795468Y-54733860D01*
G75*
G02*
X143795468Y-53656230I538815J538815D01*
G01*
X143795468Y-53656230D01*
G75*
G02*
X144873098Y-53656230I538815J-538815D01*
G01*
X146270340Y-55053472D01*
G75*
G02*
X146270340Y-56131102I-538815J-538815D01*
G01*
X146270340Y-56131102D01*
G75*
G02*
X145192710Y-56131102I-538815J538815D01*
G01*
G37*
G36*
G01*
X144457914Y-54137026D02*
X146562264Y-52032676D01*
G75*
G02*
X147639894Y-52032676I538815J-538815D01*
G01*
X147639894Y-52032676D01*
G75*
G02*
X147639894Y-53110306I-538815J-538815D01*
G01*
X145535544Y-55214656D01*
G75*
G02*
X144457914Y-55214656I-538815J538815D01*
G01*
X144457914Y-55214656D01*
G75*
G02*
X144457914Y-54137026I538815J538815D01*
G01*
G37*
G36*
G01*
X151758548Y-53578638D02*
X148962022Y-52560786D01*
G75*
G02*
X148506595Y-51584121I260619J716046D01*
G01*
X148506595Y-51584121D01*
G75*
G02*
X149483260Y-51128694I716046J-260619D01*
G01*
X152279786Y-52146546D01*
G75*
G02*
X152735213Y-53123211I-260619J-716046D01*
G01*
X152735213Y-53123211D01*
G75*
G02*
X151758548Y-53578638I-716046J260619D01*
G01*
G37*
G36*
G01*
X153166264Y-56484656D02*
X151061914Y-54380306D01*
G75*
G02*
X151061914Y-53302676I538815J538815D01*
G01*
X151061914Y-53302676D01*
G75*
G02*
X152139544Y-53302676I538815J-538815D01*
G01*
X154243894Y-55407026D01*
G75*
G02*
X154243894Y-56484656I-538815J-538815D01*
G01*
X154243894Y-56484656D01*
G75*
G02*
X153166264Y-56484656I-538815J538815D01*
G01*
G37*
X151890904Y-53369666D03*
%TD*%
%TO.C,SW26*%
G36*
G01*
X126059015Y-57992355D02*
X124661773Y-56595113D01*
G75*
G02*
X124661773Y-55517483I538815J538815D01*
G01*
X124661773Y-55517483D01*
G75*
G02*
X125739403Y-55517483I538815J-538815D01*
G01*
X127136645Y-56914725D01*
G75*
G02*
X127136645Y-57992355I-538815J-538815D01*
G01*
X127136645Y-57992355D01*
G75*
G02*
X126059015Y-57992355I-538815J538815D01*
G01*
G37*
G36*
G01*
X125324219Y-55998279D02*
X127428569Y-53893929D01*
G75*
G02*
X128506199Y-53893929I538815J-538815D01*
G01*
X128506199Y-53893929D01*
G75*
G02*
X128506199Y-54971559I-538815J-538815D01*
G01*
X126401849Y-57075909D01*
G75*
G02*
X125324219Y-57075909I-538815J538815D01*
G01*
X125324219Y-57075909D01*
G75*
G02*
X125324219Y-55998279I538815J538815D01*
G01*
G37*
G36*
G01*
X132624853Y-55439891D02*
X129828327Y-54422039D01*
G75*
G02*
X129372900Y-53445374I260619J716046D01*
G01*
X129372900Y-53445374D01*
G75*
G02*
X130349565Y-52989947I716046J-260619D01*
G01*
X133146091Y-54007799D01*
G75*
G02*
X133601518Y-54984464I-260619J-716046D01*
G01*
X133601518Y-54984464D01*
G75*
G02*
X132624853Y-55439891I-716046J260619D01*
G01*
G37*
G36*
G01*
X134032569Y-58345909D02*
X131928219Y-56241559D01*
G75*
G02*
X131928219Y-55163929I538815J538815D01*
G01*
X131928219Y-55163929D01*
G75*
G02*
X133005849Y-55163929I538815J-538815D01*
G01*
X135110199Y-57268279D01*
G75*
G02*
X135110199Y-58345909I-538815J-538815D01*
G01*
X135110199Y-58345909D01*
G75*
G02*
X134032569Y-58345909I-538815J538815D01*
G01*
G37*
X132757209Y-55230919D03*
%TD*%
%TO.C,SW28*%
G36*
G01*
X126122037Y-96152699D02*
X124724795Y-94755457D01*
G75*
G02*
X124724795Y-93677827I538815J538815D01*
G01*
X124724795Y-93677827D01*
G75*
G02*
X125802425Y-93677827I538815J-538815D01*
G01*
X127199667Y-95075069D01*
G75*
G02*
X127199667Y-96152699I-538815J-538815D01*
G01*
X127199667Y-96152699D01*
G75*
G02*
X126122037Y-96152699I-538815J538815D01*
G01*
G37*
G36*
G01*
X125387241Y-94158623D02*
X127491591Y-92054273D01*
G75*
G02*
X128569221Y-92054273I538815J-538815D01*
G01*
X128569221Y-92054273D01*
G75*
G02*
X128569221Y-93131903I-538815J-538815D01*
G01*
X126464871Y-95236253D01*
G75*
G02*
X125387241Y-95236253I-538815J538815D01*
G01*
X125387241Y-95236253D01*
G75*
G02*
X125387241Y-94158623I538815J538815D01*
G01*
G37*
G36*
G01*
X132687875Y-93600235D02*
X129891349Y-92582383D01*
G75*
G02*
X129435922Y-91605718I260619J716046D01*
G01*
X129435922Y-91605718D01*
G75*
G02*
X130412587Y-91150291I716046J-260619D01*
G01*
X133209113Y-92168143D01*
G75*
G02*
X133664540Y-93144808I-260619J-716046D01*
G01*
X133664540Y-93144808D01*
G75*
G02*
X132687875Y-93600235I-716046J260619D01*
G01*
G37*
G36*
G01*
X134095591Y-96506253D02*
X131991241Y-94401903D01*
G75*
G02*
X131991241Y-93324273I538815J538815D01*
G01*
X131991241Y-93324273D01*
G75*
G02*
X133068871Y-93324273I538815J-538815D01*
G01*
X135173221Y-95428623D01*
G75*
G02*
X135173221Y-96506253I-538815J-538815D01*
G01*
X135173221Y-96506253D01*
G75*
G02*
X134095591Y-96506253I-538815J538815D01*
G01*
G37*
X132820231Y-93391263D03*
%TD*%
%TO.C,SW27*%
G36*
G01*
X126102659Y-77027249D02*
X124705417Y-75630007D01*
G75*
G02*
X124705417Y-74552377I538815J538815D01*
G01*
X124705417Y-74552377D01*
G75*
G02*
X125783047Y-74552377I538815J-538815D01*
G01*
X127180289Y-75949619D01*
G75*
G02*
X127180289Y-77027249I-538815J-538815D01*
G01*
X127180289Y-77027249D01*
G75*
G02*
X126102659Y-77027249I-538815J538815D01*
G01*
G37*
G36*
G01*
X125367863Y-75033173D02*
X127472213Y-72928823D01*
G75*
G02*
X128549843Y-72928823I538815J-538815D01*
G01*
X128549843Y-72928823D01*
G75*
G02*
X128549843Y-74006453I-538815J-538815D01*
G01*
X126445493Y-76110803D01*
G75*
G02*
X125367863Y-76110803I-538815J538815D01*
G01*
X125367863Y-76110803D01*
G75*
G02*
X125367863Y-75033173I538815J538815D01*
G01*
G37*
G36*
G01*
X132668497Y-74474785D02*
X129871971Y-73456933D01*
G75*
G02*
X129416544Y-72480268I260619J716046D01*
G01*
X129416544Y-72480268D01*
G75*
G02*
X130393209Y-72024841I716046J-260619D01*
G01*
X133189735Y-73042693D01*
G75*
G02*
X133645162Y-74019358I-260619J-716046D01*
G01*
X133645162Y-74019358D01*
G75*
G02*
X132668497Y-74474785I-716046J260619D01*
G01*
G37*
G36*
G01*
X134076213Y-77380803D02*
X131971863Y-75276453D01*
G75*
G02*
X131971863Y-74198823I538815J538815D01*
G01*
X131971863Y-74198823D01*
G75*
G02*
X133049493Y-74198823I538815J-538815D01*
G01*
X135153843Y-76303173D01*
G75*
G02*
X135153843Y-77380803I-538815J-538815D01*
G01*
X135153843Y-77380803D01*
G75*
G02*
X134076213Y-77380803I-538815J538815D01*
G01*
G37*
X132800853Y-74265813D03*
%TD*%
%TO.C,SW24*%
G36*
G01*
X145189442Y-94176624D02*
X143792200Y-92779382D01*
G75*
G02*
X143792200Y-91701752I538815J538815D01*
G01*
X143792200Y-91701752D01*
G75*
G02*
X144869830Y-91701752I538815J-538815D01*
G01*
X146267072Y-93098994D01*
G75*
G02*
X146267072Y-94176624I-538815J-538815D01*
G01*
X146267072Y-94176624D01*
G75*
G02*
X145189442Y-94176624I-538815J538815D01*
G01*
G37*
G36*
G01*
X144454646Y-92182548D02*
X146558996Y-90078198D01*
G75*
G02*
X147636626Y-90078198I538815J-538815D01*
G01*
X147636626Y-90078198D01*
G75*
G02*
X147636626Y-91155828I-538815J-538815D01*
G01*
X145532276Y-93260178D01*
G75*
G02*
X144454646Y-93260178I-538815J538815D01*
G01*
X144454646Y-93260178D01*
G75*
G02*
X144454646Y-92182548I538815J538815D01*
G01*
G37*
G36*
G01*
X151755280Y-91624160D02*
X148958754Y-90606308D01*
G75*
G02*
X148503327Y-89629643I260619J716046D01*
G01*
X148503327Y-89629643D01*
G75*
G02*
X149479992Y-89174216I716046J-260619D01*
G01*
X152276518Y-90192068D01*
G75*
G02*
X152731945Y-91168733I-260619J-716046D01*
G01*
X152731945Y-91168733D01*
G75*
G02*
X151755280Y-91624160I-716046J260619D01*
G01*
G37*
G36*
G01*
X153162996Y-94530178D02*
X151058646Y-92425828D01*
G75*
G02*
X151058646Y-91348198I538815J538815D01*
G01*
X151058646Y-91348198D01*
G75*
G02*
X152136276Y-91348198I538815J-538815D01*
G01*
X154240626Y-93452548D01*
G75*
G02*
X154240626Y-94530178I-538815J-538815D01*
G01*
X154240626Y-94530178D01*
G75*
G02*
X153162996Y-94530178I-538815J538815D01*
G01*
G37*
X151887636Y-91415188D03*
%TD*%
%TO.C,SW23*%
G36*
G01*
X145145798Y-75141727D02*
X143748556Y-73744485D01*
G75*
G02*
X143748556Y-72666855I538815J538815D01*
G01*
X143748556Y-72666855D01*
G75*
G02*
X144826186Y-72666855I538815J-538815D01*
G01*
X146223428Y-74064097D01*
G75*
G02*
X146223428Y-75141727I-538815J-538815D01*
G01*
X146223428Y-75141727D01*
G75*
G02*
X145145798Y-75141727I-538815J538815D01*
G01*
G37*
G36*
G01*
X144411002Y-73147651D02*
X146515352Y-71043301D01*
G75*
G02*
X147592982Y-71043301I538815J-538815D01*
G01*
X147592982Y-71043301D01*
G75*
G02*
X147592982Y-72120931I-538815J-538815D01*
G01*
X145488632Y-74225281D01*
G75*
G02*
X144411002Y-74225281I-538815J538815D01*
G01*
X144411002Y-74225281D01*
G75*
G02*
X144411002Y-73147651I538815J538815D01*
G01*
G37*
G36*
G01*
X151711636Y-72589263D02*
X148915110Y-71571411D01*
G75*
G02*
X148459683Y-70594746I260619J716046D01*
G01*
X148459683Y-70594746D01*
G75*
G02*
X149436348Y-70139319I716046J-260619D01*
G01*
X152232874Y-71157171D01*
G75*
G02*
X152688301Y-72133836I-260619J-716046D01*
G01*
X152688301Y-72133836D01*
G75*
G02*
X151711636Y-72589263I-716046J260619D01*
G01*
G37*
G36*
G01*
X153119352Y-75495281D02*
X151015002Y-73390931D01*
G75*
G02*
X151015002Y-72313301I538815J538815D01*
G01*
X151015002Y-72313301D01*
G75*
G02*
X152092632Y-72313301I538815J-538815D01*
G01*
X154196982Y-74417651D01*
G75*
G02*
X154196982Y-75495281I-538815J-538815D01*
G01*
X154196982Y-75495281D01*
G75*
G02*
X153119352Y-75495281I-538815J538815D01*
G01*
G37*
X151843992Y-72380291D03*
%TD*%
%TO.C,SW20*%
G36*
G01*
X97846314Y-136821009D02*
X95887218Y-136563089D01*
G75*
G02*
X95231198Y-135708147I99461J755481D01*
G01*
X95231198Y-135708147D01*
G75*
G02*
X96086140Y-135052127I755481J-99461D01*
G01*
X98045236Y-135310047D01*
G75*
G02*
X98701256Y-136164989I-99461J-755481D01*
G01*
X98701256Y-136164989D01*
G75*
G02*
X97846314Y-136821009I-755481J99461D01*
G01*
G37*
G36*
G01*
X96049443Y-135686317D02*
X96437889Y-132735777D01*
G75*
G02*
X97292831Y-132079757I755481J-99461D01*
G01*
X97292831Y-132079757D01*
G75*
G02*
X97948851Y-132934699I-99461J-755481D01*
G01*
X97560405Y-135885239D01*
G75*
G02*
X96705463Y-136541259I-755481J99461D01*
G01*
X96705463Y-136541259D01*
G75*
G02*
X96049443Y-135686317I99461J755481D01*
G01*
G37*
G36*
G01*
X101501501Y-130798974D02*
X98663239Y-131693874D01*
G75*
G02*
X97707369Y-131196280I-229138J726732D01*
G01*
X97707369Y-131196280D01*
G75*
G02*
X98204963Y-130240410I726732J229138D01*
G01*
X101043225Y-129345510D01*
G75*
G02*
X101999095Y-129843104I229138J-726732D01*
G01*
X101999095Y-129843104D01*
G75*
G02*
X101501501Y-130798974I-726732J-229138D01*
G01*
G37*
G36*
G01*
X104387389Y-132247510D02*
X101436849Y-131859064D01*
G75*
G02*
X100780829Y-131004122I99461J755481D01*
G01*
X100780829Y-131004122D01*
G75*
G02*
X101635771Y-130348102I755481J-99461D01*
G01*
X104586311Y-130736548D01*
G75*
G02*
X105242331Y-131591490I-99461J-755481D01*
G01*
X105242331Y-131591490D01*
G75*
G02*
X104387389Y-132247510I-755481J99461D01*
G01*
G37*
G36*
G01*
X101340848Y-131604197D02*
X100427706Y-130414167D01*
G75*
G02*
X100566150Y-129362581I595015J456571D01*
G01*
X100566150Y-129362581D01*
G75*
G02*
X101617736Y-129501025I456571J-595015D01*
G01*
X102530878Y-130691055D01*
G75*
G02*
X102392434Y-131742641I-595015J-456571D01*
G01*
X102392434Y-131742641D01*
G75*
G02*
X101340848Y-131604197I-456571J595015D01*
G01*
G37*
%TD*%
%TO.C,SW19*%
G36*
G01*
X164182775Y-88492529D02*
X162785533Y-87095287D01*
G75*
G02*
X162785533Y-86017657I538815J538815D01*
G01*
X162785533Y-86017657D01*
G75*
G02*
X163863163Y-86017657I538815J-538815D01*
G01*
X165260405Y-87414899D01*
G75*
G02*
X165260405Y-88492529I-538815J-538815D01*
G01*
X165260405Y-88492529D01*
G75*
G02*
X164182775Y-88492529I-538815J538815D01*
G01*
G37*
G36*
G01*
X163447979Y-86498453D02*
X165552329Y-84394103D01*
G75*
G02*
X166629959Y-84394103I538815J-538815D01*
G01*
X166629959Y-84394103D01*
G75*
G02*
X166629959Y-85471733I-538815J-538815D01*
G01*
X164525609Y-87576083D01*
G75*
G02*
X163447979Y-87576083I-538815J538815D01*
G01*
X163447979Y-87576083D01*
G75*
G02*
X163447979Y-86498453I538815J538815D01*
G01*
G37*
G36*
G01*
X170748613Y-85940065D02*
X167952087Y-84922213D01*
G75*
G02*
X167496660Y-83945548I260619J716046D01*
G01*
X167496660Y-83945548D01*
G75*
G02*
X168473325Y-83490121I716046J-260619D01*
G01*
X171269851Y-84507973D01*
G75*
G02*
X171725278Y-85484638I-260619J-716046D01*
G01*
X171725278Y-85484638D01*
G75*
G02*
X170748613Y-85940065I-716046J260619D01*
G01*
G37*
G36*
G01*
X172156329Y-88846083D02*
X170051979Y-86741733D01*
G75*
G02*
X170051979Y-85664103I538815J538815D01*
G01*
X170051979Y-85664103D01*
G75*
G02*
X171129609Y-85664103I538815J-538815D01*
G01*
X173233959Y-87768453D01*
G75*
G02*
X173233959Y-88846083I-538815J-538815D01*
G01*
X173233959Y-88846083D01*
G75*
G02*
X172156329Y-88846083I-538815J538815D01*
G01*
G37*
X170880969Y-85731093D03*
%TD*%
%TO.C,SW18*%
G36*
G01*
X164229689Y-69481901D02*
X162832447Y-68084659D01*
G75*
G02*
X162832447Y-67007029I538815J538815D01*
G01*
X162832447Y-67007029D01*
G75*
G02*
X163910077Y-67007029I538815J-538815D01*
G01*
X165307319Y-68404271D01*
G75*
G02*
X165307319Y-69481901I-538815J-538815D01*
G01*
X165307319Y-69481901D01*
G75*
G02*
X164229689Y-69481901I-538815J538815D01*
G01*
G37*
G36*
G01*
X163494893Y-67487825D02*
X165599243Y-65383475D01*
G75*
G02*
X166676873Y-65383475I538815J-538815D01*
G01*
X166676873Y-65383475D01*
G75*
G02*
X166676873Y-66461105I-538815J-538815D01*
G01*
X164572523Y-68565455D01*
G75*
G02*
X163494893Y-68565455I-538815J538815D01*
G01*
X163494893Y-68565455D01*
G75*
G02*
X163494893Y-67487825I538815J538815D01*
G01*
G37*
G36*
G01*
X170795527Y-66929437D02*
X167999001Y-65911585D01*
G75*
G02*
X167543574Y-64934920I260619J716046D01*
G01*
X167543574Y-64934920D01*
G75*
G02*
X168520239Y-64479493I716046J-260619D01*
G01*
X171316765Y-65497345D01*
G75*
G02*
X171772192Y-66474010I-260619J-716046D01*
G01*
X171772192Y-66474010D01*
G75*
G02*
X170795527Y-66929437I-716046J260619D01*
G01*
G37*
G36*
G01*
X172203243Y-69835455D02*
X170098893Y-67731105D01*
G75*
G02*
X170098893Y-66653475I538815J538815D01*
G01*
X170098893Y-66653475D01*
G75*
G02*
X171176523Y-66653475I538815J-538815D01*
G01*
X173280873Y-68757825D01*
G75*
G02*
X173280873Y-69835455I-538815J-538815D01*
G01*
X173280873Y-69835455D01*
G75*
G02*
X172203243Y-69835455I-538815J538815D01*
G01*
G37*
X170927883Y-66720465D03*
%TD*%
%TO.C,SW17*%
G36*
G01*
X164210308Y-50356450D02*
X162813066Y-48959208D01*
G75*
G02*
X162813066Y-47881578I538815J538815D01*
G01*
X162813066Y-47881578D01*
G75*
G02*
X163890696Y-47881578I538815J-538815D01*
G01*
X165287938Y-49278820D01*
G75*
G02*
X165287938Y-50356450I-538815J-538815D01*
G01*
X165287938Y-50356450D01*
G75*
G02*
X164210308Y-50356450I-538815J538815D01*
G01*
G37*
G36*
G01*
X163475512Y-48362374D02*
X165579862Y-46258024D01*
G75*
G02*
X166657492Y-46258024I538815J-538815D01*
G01*
X166657492Y-46258024D01*
G75*
G02*
X166657492Y-47335654I-538815J-538815D01*
G01*
X164553142Y-49440004D01*
G75*
G02*
X163475512Y-49440004I-538815J538815D01*
G01*
X163475512Y-49440004D01*
G75*
G02*
X163475512Y-48362374I538815J538815D01*
G01*
G37*
G36*
G01*
X170776146Y-47803986D02*
X167979620Y-46786134D01*
G75*
G02*
X167524193Y-45809469I260619J716046D01*
G01*
X167524193Y-45809469D01*
G75*
G02*
X168500858Y-45354042I716046J-260619D01*
G01*
X171297384Y-46371894D01*
G75*
G02*
X171752811Y-47348559I-260619J-716046D01*
G01*
X171752811Y-47348559D01*
G75*
G02*
X170776146Y-47803986I-716046J260619D01*
G01*
G37*
G36*
G01*
X172183862Y-50710004D02*
X170079512Y-48605654D01*
G75*
G02*
X170079512Y-47528024I538815J538815D01*
G01*
X170079512Y-47528024D01*
G75*
G02*
X171157142Y-47528024I538815J-538815D01*
G01*
X173261492Y-49632374D01*
G75*
G02*
X173261492Y-50710004I-538815J-538815D01*
G01*
X173261492Y-50710004D01*
G75*
G02*
X172183862Y-50710004I-538815J538815D01*
G01*
G37*
X170908502Y-47595014D03*
%TD*%
%TO.C,SW15*%
G36*
G01*
X115197037Y-125289159D02*
X113340205Y-124613327D01*
G75*
G02*
X112884778Y-123636662I260619J716046D01*
G01*
X112884778Y-123636662D01*
G75*
G02*
X113861443Y-123181235I716046J-260619D01*
G01*
X115718275Y-123857067D01*
G75*
G02*
X116173702Y-124833732I-260619J-716046D01*
G01*
X116173702Y-124833732D01*
G75*
G02*
X115197037Y-125289159I-716046J260619D01*
G01*
G37*
G36*
G01*
X113688351Y-123792449D02*
X114706203Y-120995923D01*
G75*
G02*
X115682868Y-120540496I716046J-260619D01*
G01*
X115682868Y-120540496D01*
G75*
G02*
X116138295Y-121517161I-260619J-716046D01*
G01*
X115120443Y-124313687D01*
G75*
G02*
X114143778Y-124769114I-716046J260619D01*
G01*
X114143778Y-124769114D01*
G75*
G02*
X113688351Y-123792449I260619J716046D01*
G01*
G37*
G36*
G01*
X120068988Y-120200996D02*
X117104312Y-120460372D01*
G75*
G02*
X116278799Y-119767685I-66413J759100D01*
G01*
X116278799Y-119767685D01*
G75*
G02*
X116971486Y-118942172I759100J66413D01*
G01*
X119936162Y-118682796D01*
G75*
G02*
X120761675Y-119375483I66413J-759100D01*
G01*
X120761675Y-119375483D01*
G75*
G02*
X120068988Y-120200996I-759100J-66413D01*
G01*
G37*
G36*
G01*
X122572949Y-122239817D02*
X119776423Y-121221965D01*
G75*
G02*
X119320996Y-120245300I260619J716046D01*
G01*
X119320996Y-120245300D01*
G75*
G02*
X120297661Y-119789873I716046J-260619D01*
G01*
X123094187Y-120807725D01*
G75*
G02*
X123549614Y-121784390I-260619J-716046D01*
G01*
X123549614Y-121784390D01*
G75*
G02*
X122572949Y-122239817I-716046J260619D01*
G01*
G37*
G36*
G01*
X119737861Y-120952362D02*
X119103933Y-119592900D01*
G75*
G02*
X119466700Y-118596205I679731J316964D01*
G01*
X119466700Y-118596205D01*
G75*
G02*
X120463395Y-118958972I316964J-679731D01*
G01*
X121097323Y-120318434D01*
G75*
G02*
X120734556Y-121315129I-679731J-316964D01*
G01*
X120734556Y-121315129D01*
G75*
G02*
X119737861Y-120952362I-316964J679731D01*
G01*
G37*
%TD*%
%TO.C,SW14*%
G36*
G01*
X183243206Y-92338011D02*
X181845964Y-90940769D01*
G75*
G02*
X181845964Y-89863139I538815J538815D01*
G01*
X181845964Y-89863139D01*
G75*
G02*
X182923594Y-89863139I538815J-538815D01*
G01*
X184320836Y-91260381D01*
G75*
G02*
X184320836Y-92338011I-538815J-538815D01*
G01*
X184320836Y-92338011D01*
G75*
G02*
X183243206Y-92338011I-538815J538815D01*
G01*
G37*
G36*
G01*
X182508410Y-90343935D02*
X184612760Y-88239585D01*
G75*
G02*
X185690390Y-88239585I538815J-538815D01*
G01*
X185690390Y-88239585D01*
G75*
G02*
X185690390Y-89317215I-538815J-538815D01*
G01*
X183586040Y-91421565D01*
G75*
G02*
X182508410Y-91421565I-538815J538815D01*
G01*
X182508410Y-91421565D01*
G75*
G02*
X182508410Y-90343935I538815J538815D01*
G01*
G37*
G36*
G01*
X189809044Y-89785547D02*
X187012518Y-88767695D01*
G75*
G02*
X186557091Y-87791030I260619J716046D01*
G01*
X186557091Y-87791030D01*
G75*
G02*
X187533756Y-87335603I716046J-260619D01*
G01*
X190330282Y-88353455D01*
G75*
G02*
X190785709Y-89330120I-260619J-716046D01*
G01*
X190785709Y-89330120D01*
G75*
G02*
X189809044Y-89785547I-716046J260619D01*
G01*
G37*
G36*
G01*
X191216760Y-92691565D02*
X189112410Y-90587215D01*
G75*
G02*
X189112410Y-89509585I538815J538815D01*
G01*
X189112410Y-89509585D01*
G75*
G02*
X190190040Y-89509585I538815J-538815D01*
G01*
X192294390Y-91613935D01*
G75*
G02*
X192294390Y-92691565I-538815J-538815D01*
G01*
X192294390Y-92691565D01*
G75*
G02*
X191216760Y-92691565I-538815J538815D01*
G01*
G37*
X189941400Y-89576575D03*
%TD*%
%TO.C,SW9*%
G36*
G01*
X202345206Y-106586456D02*
X200947964Y-105189214D01*
G75*
G02*
X200947964Y-104111584I538815J538815D01*
G01*
X200947964Y-104111584D01*
G75*
G02*
X202025594Y-104111584I538815J-538815D01*
G01*
X203422836Y-105508826D01*
G75*
G02*
X203422836Y-106586456I-538815J-538815D01*
G01*
X203422836Y-106586456D01*
G75*
G02*
X202345206Y-106586456I-538815J538815D01*
G01*
G37*
G36*
G01*
X201610410Y-104592380D02*
X203714760Y-102488030D01*
G75*
G02*
X204792390Y-102488030I538815J-538815D01*
G01*
X204792390Y-102488030D01*
G75*
G02*
X204792390Y-103565660I-538815J-538815D01*
G01*
X202688040Y-105670010D01*
G75*
G02*
X201610410Y-105670010I-538815J538815D01*
G01*
X201610410Y-105670010D01*
G75*
G02*
X201610410Y-104592380I538815J538815D01*
G01*
G37*
G36*
G01*
X208911044Y-104033992D02*
X206114518Y-103016140D01*
G75*
G02*
X205659091Y-102039475I260619J716046D01*
G01*
X205659091Y-102039475D01*
G75*
G02*
X206635756Y-101584048I716046J-260619D01*
G01*
X209432282Y-102601900D01*
G75*
G02*
X209887709Y-103578565I-260619J-716046D01*
G01*
X209887709Y-103578565D01*
G75*
G02*
X208911044Y-104033992I-716046J260619D01*
G01*
G37*
G36*
G01*
X210318760Y-106940010D02*
X208214410Y-104835660D01*
G75*
G02*
X208214410Y-103758030I538815J538815D01*
G01*
X208214410Y-103758030D01*
G75*
G02*
X209292040Y-103758030I538815J-538815D01*
G01*
X211396390Y-105862380D01*
G75*
G02*
X211396390Y-106940010I-538815J-538815D01*
G01*
X211396390Y-106940010D01*
G75*
G02*
X210318760Y-106940010I-538815J538815D01*
G01*
G37*
X209043400Y-103825020D03*
%TD*%
D11*
%TO.C,D_RE1*%
X105853978Y-114728228D03*
X103053978Y-114728228D03*
%TD*%
D12*
%TO.C,PWM_PAD2*%
X120582978Y-67357228D03*
X120582978Y-64817228D03*
X120582978Y-62277228D03*
%TD*%
D13*
%TO.C,RST1*%
X96270978Y-67305228D03*
X96270978Y-73505228D03*
X92570978Y-67305228D03*
X92570978Y-73505228D03*
%TD*%
D14*
%TO.C,D8*%
X197046398Y-90762120D03*
X197046398Y-87962120D03*
%TD*%
%TO.C,D28*%
X120818223Y-103524868D03*
X120818223Y-100724868D03*
%TD*%
%TO.C,D27*%
X120726056Y-84671088D03*
X120726056Y-81871088D03*
%TD*%
D11*
%TO.C,D26*%
X132244578Y-67916029D03*
X129444578Y-67916029D03*
%TD*%
D14*
%TO.C,D24*%
X139830586Y-102116388D03*
X139830586Y-99316388D03*
%TD*%
%TO.C,D23*%
X139992325Y-83039468D03*
X139992325Y-80239468D03*
%TD*%
%TO.C,D22*%
X139840369Y-63684384D03*
X139840369Y-60884384D03*
%TD*%
D15*
%TO.C,D20*%
G36*
X96055732Y-140175961D02*
G01*
X95103708Y-140906475D01*
X94129690Y-139637109D01*
X95081714Y-138906595D01*
X96055732Y-140175961D01*
G37*
G36*
X97760264Y-142397351D02*
G01*
X96808240Y-143127865D01*
X95834222Y-141858499D01*
X96786246Y-141127985D01*
X97760264Y-142397351D01*
G37*
%TD*%
D14*
%TO.C,D19*%
X159015380Y-96244215D03*
X159015380Y-93444215D03*
%TD*%
%TO.C,D18*%
X158809978Y-77139226D03*
X158809978Y-74339226D03*
%TD*%
%TO.C,D17*%
X158809976Y-60502229D03*
X158809976Y-57702229D03*
%TD*%
D15*
%TO.C,D15*%
G36*
X111729188Y-129043872D02*
G01*
X110641619Y-129551014D01*
X109965430Y-128100922D01*
X111052999Y-127593780D01*
X111729188Y-129043872D01*
G37*
G36*
X112912520Y-131581534D02*
G01*
X111824951Y-132088676D01*
X111148762Y-130638584D01*
X112236331Y-130131442D01*
X112912520Y-131581534D01*
G37*
%TD*%
D14*
%TO.C,D14*%
X177939387Y-99710187D03*
X177939387Y-96910187D03*
%TD*%
%TO.C,D13*%
X177968541Y-80403627D03*
X177968541Y-77603627D03*
%TD*%
%TO.C,D12*%
X177968541Y-61061029D03*
X177968541Y-58261029D03*
%TD*%
D15*
%TO.C,D10*%
G36*
X130436891Y-120362585D02*
G01*
X129265336Y-120622313D01*
X128919033Y-119060239D01*
X130090588Y-118800511D01*
X130436891Y-120362585D01*
G37*
G36*
X131042921Y-123096213D02*
G01*
X129871366Y-123355941D01*
X129525063Y-121793867D01*
X130696618Y-121534139D01*
X131042921Y-123096213D01*
G37*
%TD*%
D14*
%TO.C,D9*%
X197046397Y-109797019D03*
X197046397Y-106997019D03*
%TD*%
%TO.C,D7*%
X197046398Y-74457700D03*
X197046398Y-71657700D03*
%TD*%
D16*
%TO.C,JP4*%
X104733378Y-84113608D03*
X104733378Y-83214448D03*
%TD*%
%TO.C,JP3*%
X107019378Y-84113609D03*
X107019378Y-83214449D03*
%TD*%
%TO.C,JP2*%
X109686376Y-84113609D03*
X109686376Y-83214449D03*
%TD*%
%TO.C,JP1*%
X112226377Y-84113606D03*
X112226377Y-83214446D03*
%TD*%
M02*
