0
SECTION
2
HEADER
9
$INSUNITS
70
4
9
$ACADVER
1
AC1014
9
$HANDSEED
5
FFFF
0
ENDSEC
0
SECTION
2
TABLES
0
TABLE
2
VPORT
5
8
100
AcDbSymbolTable
0
ENDTAB
0
TABLE
2
LTYPE
5
5
100
AcDbSymbolTable
0
LTYPE
5
14
100
AcDbSymbolTableRecord
100
AcDbLinetypeTableRecord
2
BYBLOCK
70
0
0
LTYPE
5
15
100
AcDbSymbolTableRecord
100
AcDbLinetypeTableRecord
2
BYLAYER
70
0
0
ENDTAB
0
TABLE
2
LAYER
5
2
100
AcDbSymbolTable
70
2
0
LAYER
5
50
100
AcDbSymbolTableRecord
100
AcDbLayerTableRecord
2
0
70
0
6
CONTINUOUS
0
ENDTAB
0
TABLE
2
STYLE
5
3
100
AcDbSymbolTable
70
1
0
STYLE
5
11
100
AcDbSymbolTableRecord
100
AcDbTextStyleTableRecord
2
STANDARD
70
0
0
ENDTAB
0
TABLE
2
VIEW
5
6
100
AcDbSymbolTable
70
0
0
ENDTAB
0
TABLE
2
UCS
5
7
100
AcDbSymbolTable
70
0
0
ENDTAB
0
TABLE
2
APPID
5
9
100
AcDbSymbolTable
70
2
0
APPID
5
12
100
AcDbSymbolTableRecord
100
AcDbRegAppTableRecord
2
ACAD
70
0
0
ENDTAB
0
TABLE
2
DIMSTYLE
5
A
100
AcDbSymbolTable
70
1
0
ENDTAB
0
TABLE
2
BLOCK_RECORD
5
1
100
AcDbSymbolTable
70
1
0
BLOCK_RECORD
5
1F
100
AcDbSymbolTableRecord
100
AcDbBlockTableRecord
2
*MODEL_SPACE
0
BLOCK_RECORD
5
1B
100
AcDbSymbolTableRecord
100
AcDbBlockTableRecord
2
*PAPER_SPACE
0
ENDTAB
0
ENDSEC
0
SECTION
2
BLOCKS
0
BLOCK
5
20
100
AcDbEntity
100
AcDbBlockBegin
2
*MODEL_SPACE
0
ENDBLK
5
21
100
AcDbEntity
100
AcDbBlockEnd
0
BLOCK
5
1C
100
AcDbEntity
100
AcDbBlockBegin
2
*PAPER_SPACE
0
ENDBLK
5
1D
100
AcDbEntity
100
AcDbBlockEnd
0
ENDSEC
0
SECTION
2
ENTITIES
0
CIRCLE
5
100
100
AcDbEntity
8
0
100
AcDbCircle
10
71.272580535369684
20
30.31977084124394
30
0
40
1.05
210
0
220
-0
230
1
0
CIRCLE
5
101
100
AcDbEntity
8
0
100
AcDbCircle
10
2.0000000298023224
20
103.0000015348196
30
0
40
1.05
210
0
220
-0
230
1
0
CIRCLE
5
102
100
AcDbEntity
8
0
100
AcDbCircle
10
83.283338847639811
20
114.88655252897354
30
0
40
1.05
210
0
220
-0
230
1
0
CIRCLE
5
103
100
AcDbEntity
8
0
100
AcDbCircle
10
133.62522111213741
20
94.846174321297312
30
0
40
1.05
210
0
220
-0
230
1
0
CIRCLE
5
104
100
AcDbEntity
8
0
100
AcDbCircle
10
38.481207040164193
20
107.01370709895181
30
0
40
1.05
210
0
220
-0
230
1
0
CIRCLE
5
105
100
AcDbEntity
8
0
100
AcDbCircle
10
28.433033808504035
20
9.6124613594934338
30
0
40
1.05
210
0
220
-0
230
1
0
CIRCLE
5
106
100
AcDbEntity
8
0
100
AcDbCircle
10
133.62535037811284
20
32.26201899850065
30
0
40
1.05
210
0
220
-0
230
1
0
CIRCLE
5
107
100
AcDbEntity
8
0
100
AcDbCircle
10
143.40833784763973
20
40.566531528973769
30
0
40
2
210
0
220
-0
230
1
0
CIRCLE
5
108
100
AcDbEntity
8
0
100
AcDbCircle
10
43.173369225428914
20
114.94905252897354
30
0
40
2
210
0
220
-0
230
1
0
CIRCLE
5
109
100
AcDbEntity
8
0
100
AcDbCircle
10
143.4083378476397
20
86.541532528973605
30
0
40
2
210
0
220
-0
230
1
0
CIRCLE
5
110
100
AcDbEntity
8
0
100
AcDbCircle
10
14.228312952373528
20
13.419035196503009
30
0
40
2
210
0
220
-0
230
1
0
LWPOLYLINE
5
111
100
AcDbEntity
8
0
100
AcDbPolyline
90
36
70
1
43
0.0
10
-2.175562875282719
20
41.324153471635938
42
-0.16531261546186132
10
-3.0041601523599715
20
43.761817264909773
10
-3.0041601523599493
20
100.86155252897356
42
-0.41421356237309503
10
7.0833398476400244
20
110.94905252897354
10
39.173369225428914
20
110.94905252897354
10
39.173369225428907
20
114.94905252897354
42
-0.99999999999999989
10
47.173369225428914
20
114.94905252897354
10
47.173369225428914
20
110.94905252897354
10
49.504377206912125
20
110.94905252897354
42
-0.17014599861893981
10
56.295839847639897
20
113.32903252897358
10
66.332686268031907
20
113.32903252897358
42
-0.28351848816447672
10
75.345839847639837
20
118.88655252897352
10
91.220837847639814
20
118.88655252897354
42
-0.23393731839419582
10
99.241691586463389
20
114.91653252897352
10
110.27083784763975
20
114.91653252897358
42
-0.41417242600631854
10
120.35833774814517
20
104.83044932221746
10
120.35881792156675
20
100.62854474284202
10
129.32016303630365
20
100.62903250640258
42
-0.41423315583368009
10
139.4083378476397
20
90.541532528973619
10
143.4083378476397
20
90.541532528973619
42
-0.99999999999999989
10
143.4083378476397
20
82.541532528973605
10
139.4083378476397
20
82.541532528973605
10
139.40833784763976
20
44.566531528973769
10
143.40833784763973
20
44.566531528973776
42
-0.99999999999999989
10
143.40833784763973
20
36.566531528973769
10
139.40833784763973
20
36.566531528973769
42
-0.41421356237309503
10
129.32083784763972
20
26.479031528973756
10
75.113319847639872
20
26.479031528973756
10
75.113319847639858
20
22.855700880864262
42
-0.40094014656490784
10
71.295376872299443
20
18.859846123772606
42
0.14273218174984981
10
30.602497143685504
20
4.9633773428204027
42
-0.40176294747566843
10
25.131015226643573
20
5.7982715247060534
10
19.837379468570113
20
12.685296266854099
10
16.665976745647363
20
10.247632473580261
42
-0.99999999999999989
10
11.790649159099694
20
16.590437919425757
10
14.962051882022438
20
19.028101712699591
0
ENDSEC
0
SECTION
2
OBJECTS
0
DICTIONARY
5
C
100
AcDbDictionary
3
ACAD_GROUP
350
D
3
ACAD_MLINESTYLE
350
17
0
DICTIONARY
5
D
100
AcDbDictionary
0
DICTIONARY
5
1A
330
C
100
AcDbDictionary
0
DICTIONARY
5
17
100
AcDbDictionary
0
ENDSEC
0
EOF
