0
SECTION
2
HEADER
9
$INSUNITS
70
4
9
$ACADVER
1
AC1014
9
$HANDSEED
5
FFFF
0
ENDSEC
0
SECTION
2
TABLES
0
TABLE
2
VPORT
5
8
100
AcDbSymbolTable
0
ENDTAB
0
TABLE
2
LTYPE
5
5
100
AcDbSymbolTable
0
LTYPE
5
14
100
AcDbSymbolTableRecord
100
AcDbLinetypeTableRecord
2
BYBLOCK
70
0
0
LTYPE
5
15
100
AcDbSymbolTableRecord
100
AcDbLinetypeTableRecord
2
BYLAYER
70
0
0
ENDTAB
0
TABLE
2
LAYER
5
2
100
AcDbSymbolTable
70
2
0
LAYER
5
50
100
AcDbSymbolTableRecord
100
AcDbLayerTableRecord
2
0
70
0
6
CONTINUOUS
0
ENDTAB
0
TABLE
2
STYLE
5
3
100
AcDbSymbolTable
70
1
0
STYLE
5
11
100
AcDbSymbolTableRecord
100
AcDbTextStyleTableRecord
2
STANDARD
70
0
0
ENDTAB
0
TABLE
2
VIEW
5
6
100
AcDbSymbolTable
70
0
0
ENDTAB
0
TABLE
2
UCS
5
7
100
AcDbSymbolTable
70
0
0
ENDTAB
0
TABLE
2
APPID
5
9
100
AcDbSymbolTable
70
2
0
APPID
5
12
100
AcDbSymbolTableRecord
100
AcDbRegAppTableRecord
2
ACAD
70
0
0
ENDTAB
0
TABLE
2
DIMSTYLE
5
A
100
AcDbSymbolTable
70
1
0
ENDTAB
0
TABLE
2
BLOCK_RECORD
5
1
100
AcDbSymbolTable
70
1
0
BLOCK_RECORD
5
1F
100
AcDbSymbolTableRecord
100
AcDbBlockTableRecord
2
*MODEL_SPACE
0
BLOCK_RECORD
5
1B
100
AcDbSymbolTableRecord
100
AcDbBlockTableRecord
2
*PAPER_SPACE
0
ENDTAB
0
ENDSEC
0
SECTION
2
BLOCKS
0
BLOCK
5
20
100
AcDbEntity
100
AcDbBlockBegin
2
*MODEL_SPACE
0
ENDBLK
5
21
100
AcDbEntity
100
AcDbBlockEnd
0
BLOCK
5
1C
100
AcDbEntity
100
AcDbBlockBegin
2
*PAPER_SPACE
0
ENDBLK
5
1D
100
AcDbEntity
100
AcDbBlockEnd
0
ENDSEC
0
SECTION
2
ENTITIES
0
CIRCLE
5
100
100
AcDbEntity
8
0
100
AcDbCircle
10
71.272580535369684
20
30.31977084124394
30
0
40
1.05
210
0
220
-0
230
1
0
CIRCLE
5
101
100
AcDbEntity
8
0
100
AcDbCircle
10
2.0000000298023224
20
103.0000015348196
30
0
40
1.05
210
0
220
-0
230
1
0
CIRCLE
5
102
100
AcDbEntity
8
0
100
AcDbCircle
10
83.283338847639811
20
114.88655252897354
30
0
40
1.05
210
0
220
-0
230
1
0
CIRCLE
5
103
100
AcDbEntity
8
0
100
AcDbCircle
10
133.62522111213741
20
94.846174321297312
30
0
40
1.05
210
0
220
-0
230
1
0
CIRCLE
5
104
100
AcDbEntity
8
0
100
AcDbCircle
10
38.481207040164193
20
107.01370709895181
30
0
40
1.05
210
0
220
-0
230
1
0
CIRCLE
5
105
100
AcDbEntity
8
0
100
AcDbCircle
10
28.433033808504035
20
9.6124613594934338
30
0
40
1.05
210
0
220
-0
230
1
0
CIRCLE
5
106
100
AcDbEntity
8
0
100
AcDbCircle
10
133.62535037811284
20
32.26201899850065
30
0
40
1.05
210
0
220
-0
230
1
0
CIRCLE
5
107
100
AcDbEntity
8
0
100
AcDbCircle
10
143.40833784763973
20
40.566531528973769
30
0
40
2
210
0
220
-0
230
1
0
CIRCLE
5
108
100
AcDbEntity
8
0
100
AcDbCircle
10
43.173369225428914
20
114.94905252897354
30
0
40
2
210
0
220
-0
230
1
0
CIRCLE
5
109
100
AcDbEntity
8
0
100
AcDbCircle
10
143.4083378476397
20
86.541532528973605
30
0
40
2
210
0
220
-0
230
1
0
CIRCLE
5
110
100
AcDbEntity
8
0
100
AcDbCircle
10
14.228312952373528
20
13.419035196503009
30
0
40
2
210
0
220
-0
230
1
0
LWPOLYLINE
5
111
100
AcDbEntity
8
0
100
AcDbPolyline
90
39
70
1
43
0.0
10
-2.175562875282719
20
41.324153471635938
42
-0.16531261546186132
10
-3.0041601523599715
20
43.761817264909773
10
-3.0041601523599502
20
100.86155252897355
42
-0.36864959376231643
10
5.4958398476400383
20
110.82335457478834
10
5.4958398476400383
20
64.000000953674316
10
34.04711852291689
20
64.000000953674316
10
34.04711852291689
20
110.94905252897354
10
39.173369225428914
20
110.94905252897354
10
39.173369225428907
20
114.94905252897354
42
-0.99999999999999989
10
47.173369225428914
20
114.94905252897354
10
47.173369225428914
20
110.94905252897354
10
49.504377206912125
20
110.94905252897354
42
-0.17014599861893981
10
56.295839847639897
20
113.32903252897358
10
66.332686268031907
20
113.32903252897358
42
-0.28351848816447672
10
75.345839847639837
20
118.88655252897352
10
91.220837847639814
20
118.88655252897354
42
-0.23393731839419582
10
99.241691586463389
20
114.91653252897352
10
110.27083784763975
20
114.91653252897358
42
-0.41417242600631854
10
120.35833774814517
20
104.83044932221746
10
120.35881792156674
20
100.62854474284202
10
129.32016303630365
20
100.62903250640258
42
-0.41423315583368009
10
139.4083378476397
20
90.541532528973619
10
143.4083378476397
20
90.541532528973619
42
-0.99999999999999989
10
143.4083378476397
20
82.541532528973605
10
139.4083378476397
20
82.541532528973605
10
139.40833784763973
20
44.566531528973769
10
143.40833784763973
20
44.566531528973776
42
-0.99999999999999989
10
143.40833784763973
20
36.566531528973769
10
139.40833784763973
20
36.566531528973769
42
-0.41421356237309503
10
129.32083784763972
20
26.479031528973756
10
75.113319847639872
20
26.479031528973756
10
75.113319847639858
20
22.855700880864262
42
-0.40094014656490784
10
71.295376872299443
20
18.859846123772606
42
0.14273218174984981
10
30.602497143685504
20
4.9633773428204027
42
-0.40176294747566843
10
25.131015226643573
20
5.7982715247060534
10
19.837379468570102
20
12.685296266854099
10
16.665976745647363
20
10.247632473580261
42
-0.99999999999999989
10
11.790649159099694
20
16.590437919425757
10
14.962051882022447
20
19.028101712699591
0
LWPOLYLINE
5
112
100
AcDbEntity
8
0
100
AcDbPolyline
90
4
70
1
43
0.0
10
128.41913784763972
20
51.364572528973724
10
114.41865784763975
20
51.364572528973724
10
114.41865784763975
20
37.364091528973731
10
128.41913784763972
20
37.364091528973731
0
LWPOLYLINE
5
113
100
AcDbEntity
8
0
100
AcDbPolyline
90
4
70
1
43
0.0
10
109.34373784763976
20
103.74953252897359
10
95.343257847639791
20
103.74953252897359
10
95.343257847639791
20
89.749052528973607
10
109.34373784763976
20
89.749052528973607
0
LWPOLYLINE
5
114
100
AcDbEntity
8
0
100
AcDbPolyline
90
4
70
1
43
0.0
10
45.648159847639924
20
39.563731528973705
10
48.67837984763991
20
25.895991528973745
10
62.346119847639869
20
28.926211528973766
10
59.315899847639884
20
42.593952528973738
0
LWPOLYLINE
5
115
100
AcDbEntity
8
0
100
AcDbPolyline
90
4
70
1
43
0.0
10
76.255159847639845
20
69.456992528973672
10
76.255159847639845
20
55.456512528973683
10
90.255637847639818
20
55.456512528973683
10
90.255637847639818
20
69.456992528973672
0
LWPOLYLINE
5
116
100
AcDbEntity
8
0
100
AcDbPolyline
90
4
70
1
43
0.0
10
114.32975784763975
20
89.43409252897365
10
114.32975784763975
20
75.433612528973626
10
128.33023784763975
20
75.433612528973626
10
128.33023784763975
20
89.43409252897365
0
LWPOLYLINE
5
117
100
AcDbEntity
8
0
100
AcDbPolyline
90
4
70
1
43
0.0
10
10.248179847640024
20
54.316052528973664
10
10.248179847640024
20
40.117451528973724
10
27.748779847639966
20
40.117451528973724
10
27.748779847639966
20
54.316052528973664
0
LWPOLYLINE
5
118
100
AcDbEntity
8
0
100
AcDbPolyline
90
4
70
1
43
0.0
10
52.13277984763991
20
99.957312528973574
10
38.132299847639942
20
99.957312528973574
10
38.132299847639942
20
85.956832528973621
10
52.13277984763991
20
85.956832528973621
0
LWPOLYLINE
5
119
100
AcDbEntity
8
0
100
AcDbPolyline
90
4
70
1
43
0.0
10
114.37547784763976
20
56.398852528973684
10
128.3734178476397
20
56.398852528973684
10
128.3734178476397
20
70.39933252897363
10
114.37547784763976
20
70.39933252897363
0
LWPOLYLINE
5
120
100
AcDbEntity
8
0
100
AcDbPolyline
90
4
70
1
43
0.0
10
57.261039847639893
20
63.772472528973694
10
57.261039847639893
20
49.774532528973729
10
71.261519847639846
20
49.774532528973729
10
71.261519847639846
20
63.772472528973694
0
LWPOLYLINE
5
121
100
AcDbEntity
8
0
100
AcDbPolyline
90
4
70
1
43
0.0
10
38.030699847639937
20
36.891651528973739
10
25.343399847639976
20
30.973451528973754
10
31.259059847639961
20
18.286151528973775
10
43.948899847639922
20
24.201811528973778
0
LWPOLYLINE
5
122
100
AcDbEntity
8
0
100
AcDbPolyline
90
4
70
1
43
0.0
10
71.218339847639839
20
82.80977252897361
10
57.217859847639886
20
82.80977252897361
10
57.217859847639886
20
68.809292528973671
10
71.218339847639839
20
68.809292528973671
0
LWPOLYLINE
5
123
100
AcDbEntity
8
0
100
AcDbPolyline
90
4
70
1
43
0.0
10
52.193739847639904
20
61.796352528973664
10
38.19579984763994
20
61.796352528973664
10
38.19579984763994
20
47.798412528973735
10
52.193739847639904
20
47.798412528973735
0
LWPOLYLINE
5
124
100
AcDbEntity
8
0
100
AcDbPolyline
90
4
70
1
43
0.0
10
109.31579784763971
20
65.611432528973666
10
95.31531784763979
20
65.611432528973666
10
95.31531784763979
20
51.613492528973701
10
109.31579784763971
20
51.613492528973701
0
LWPOLYLINE
5
125
100
AcDbEntity
8
0
100
AcDbPolyline
90
4
70
1
43
0.0
10
95.297537847639816
20
70.737152528973652
10
109.29547784763976
20
70.737152528973652
10
109.29547784763976
20
84.737632528973592
10
95.297537847639816
20
84.737632528973592
0
LWPOLYLINE
5
126
100
AcDbEntity
8
0
100
AcDbPolyline
90
4
70
1
43
0.0
10
71.266599847639839
20
87.818652528973587
10
71.266599847639839
20
101.8191325289736
10
57.266119847639899
20
101.8191325289736
10
57.266119847639899
20
87.818652528973587
0
LWPOLYLINE
5
127
100
AcDbEntity
8
0
100
AcDbPolyline
90
4
70
1
43
0.0
10
90.283577847639805
20
107.59255252897354
10
76.283099847639846
20
107.59255252897354
10
76.283099847639846
20
93.594612528973585
10
90.283577847639805
20
93.594612528973585
0
LWPOLYLINE
5
128
100
AcDbEntity
8
0
100
AcDbPolyline
90
4
70
1
43
0.0
10
90.301357847639792
20
74.468412528973644
10
90.301357847639792
20
88.468892528973626
10
76.303419847639844
20
88.468892528973626
10
76.303419847639844
20
74.468412528973644
0
LWPOLYLINE
5
129
100
AcDbEntity
8
0
100
AcDbPolyline
90
4
70
1
43
0.0
10
38.175479847639942
20
80.922552528973597
10
38.175479847639942
20
66.922072528973644
10
52.175959847639902
20
66.922072528973644
10
52.175959847639902
20
80.922552528973597
0
ENDSEC
0
SECTION
2
OBJECTS
0
DICTIONARY
5
C
100
AcDbDictionary
3
ACAD_GROUP
350
D
3
ACAD_MLINESTYLE
350
17
0
DICTIONARY
5
D
100
AcDbDictionary
0
DICTIONARY
5
1A
330
C
100
AcDbDictionary
0
DICTIONARY
5
17
100
AcDbDictionary
0
ENDSEC
0
EOF
