0
SECTION
2
HEADER
9
$INSUNITS
70
4
9
$ACADVER
1
AC1014
9
$HANDSEED
5
FFFF
0
ENDSEC
0
SECTION
2
TABLES
0
TABLE
2
VPORT
5
8
100
AcDbSymbolTable
0
ENDTAB
0
TABLE
2
LTYPE
5
5
100
AcDbSymbolTable
0
LTYPE
5
14
100
AcDbSymbolTableRecord
100
AcDbLinetypeTableRecord
2
BYBLOCK
70
0
0
LTYPE
5
15
100
AcDbSymbolTableRecord
100
AcDbLinetypeTableRecord
2
BYLAYER
70
0
0
ENDTAB
0
TABLE
2
LAYER
5
2
100
AcDbSymbolTable
70
2
0
LAYER
5
50
100
AcDbSymbolTableRecord
100
AcDbLayerTableRecord
2
0
70
0
6
CONTINUOUS
0
ENDTAB
0
TABLE
2
STYLE
5
3
100
AcDbSymbolTable
70
1
0
STYLE
5
11
100
AcDbSymbolTableRecord
100
AcDbTextStyleTableRecord
2
STANDARD
70
0
0
ENDTAB
0
TABLE
2
VIEW
5
6
100
AcDbSymbolTable
70
0
0
ENDTAB
0
TABLE
2
UCS
5
7
100
AcDbSymbolTable
70
0
0
ENDTAB
0
TABLE
2
APPID
5
9
100
AcDbSymbolTable
70
2
0
APPID
5
12
100
AcDbSymbolTableRecord
100
AcDbRegAppTableRecord
2
ACAD
70
0
0
ENDTAB
0
TABLE
2
DIMSTYLE
5
A
100
AcDbSymbolTable
70
1
0
ENDTAB
0
TABLE
2
BLOCK_RECORD
5
1
100
AcDbSymbolTable
70
1
0
BLOCK_RECORD
5
1F
100
AcDbSymbolTableRecord
100
AcDbBlockTableRecord
2
*MODEL_SPACE
0
BLOCK_RECORD
5
1B
100
AcDbSymbolTableRecord
100
AcDbBlockTableRecord
2
*PAPER_SPACE
0
ENDTAB
0
ENDSEC
0
SECTION
2
BLOCKS
0
BLOCK
5
20
100
AcDbEntity
100
AcDbBlockBegin
2
*MODEL_SPACE
0
ENDBLK
5
21
100
AcDbEntity
100
AcDbBlockEnd
0
BLOCK
5
1C
100
AcDbEntity
100
AcDbBlockBegin
2
*PAPER_SPACE
0
ENDBLK
5
1D
100
AcDbEntity
100
AcDbBlockEnd
0
ENDSEC
0
SECTION
2
ENTITIES
0
CIRCLE
5
100
100
AcDbEntity
8
0
100
AcDbCircle
10
92.136364093340603
20
-82.123799495200345
30
0
40
2.3999999999999999
210
0
220
-0
230
1
0
CIRCLE
5
101
100
AcDbEntity
8
0
100
AcDbCircle
10
154.55503491031681
20
-17.981624302764544
30
0
40
2.3999999999999999
210
0
220
-0
230
1
0
CIRCLE
5
102
100
AcDbEntity
8
0
100
AcDbCircle
10
59.803248600735479
20
-5.9445178074707359
30
0
40
2.3999999999999999
210
0
220
-0
230
1
0
CIRCLE
5
103
100
AcDbEntity
8
0
100
AcDbCircle
10
104.37212240561078
20
1.9929821925292923
30
0
40
2.3999999999999999
210
0
220
-0
230
1
0
CIRCLE
5
104
100
AcDbEntity
8
0
100
AcDbCircle
10
22.934376396198736
20
-8.7539378074706775
30
0
40
2.3999999999999999
210
0
220
-0
230
1
0
CIRCLE
5
105
100
AcDbEntity
8
0
100
AcDbCircle
10
154.55503491031681
20
-80.247452312176648
30
0
40
2.3999999999999999
210
0
220
-0
230
1
0
CIRCLE
5
106
100
AcDbEntity
8
0
100
AcDbCircle
10
36.242435958417943
20
-114.12364772541451
30
0
40
2.3999999999999999
210
0
220
-0
230
1
0
ARC
5
107
100
AcDbEntity
8
0
100
AcDbCircle
10
91.752103405610796
20
-89.383598058295291
30
0
40
4.0000000000000373
210
0
220
0
230
1
100
AcDbArc
50
272.91940089658573
51
360
0
LINE
5
108
100
AcDbEntity
8
0
100
AcDbLine
10
95.752103405610839
20
-89.383598058295334
30
0
11
95.752103405610825
21
-85.739538807470524
31
0
0
LINE
5
109
100
AcDbEntity
8
0
100
AcDbLine
10
95.752103405610825
20
-85.739538807470524
30
0
11
150.40962140561066
21
-85.739538807470524
31
0
0
ARC
5
110
100
AcDbEntity
8
0
100
AcDbCircle
10
150.40962140561066
20
-76.102038807470507
30
0
40
9.6375000000000099
210
-0
220
0
230
1
100
AcDbArc
50
-90
51
0
0
LINE
5
111
100
AcDbEntity
8
0
100
AcDbLine
10
160.04712140561068
20
-76.102038807470507
30
0
11
164.04712140561071
21
-76.102038807470507
31
0
0
ARC
5
112
100
AcDbEntity
8
0
100
AcDbCircle
10
164.04712140561065
20
-72.102038807470507
30
0
40
3.9999999999999947
210
0
220
0
230
1
100
AcDbArc
50
-89.99999999999919
51
90.000000000000398
0
LINE
5
113
100
AcDbEntity
8
0
100
AcDbLine
10
164.04712140561062
20
-68.102038807470507
30
0
11
160.04712140561068
21
-68.102038807470521
31
0
0
LINE
5
114
100
AcDbEntity
8
0
100
AcDbLine
10
160.04712140561068
20
-68.102038807470521
30
0
11
160.04712140561065
21
-30.127037807470664
31
0
0
LINE
5
115
100
AcDbEntity
8
0
100
AcDbLine
10
160.04712140561065
20
-30.127037807470664
30
0
11
164.04712140561065
21
-30.127037807470664
31
0
0
ARC
5
116
100
AcDbEntity
8
0
100
AcDbCircle
10
164.04712140561065
20
-26.127037807470664
30
0
40
3.9999999999999991
210
0
220
0
230
1
100
AcDbArc
50
-90
51
90
0
LINE
5
117
100
AcDbEntity
8
0
100
AcDbLine
10
164.04712140561065
20
-22.127037807470664
30
0
11
160.04712140561065
21
-22.127037807470664
31
0
0
ARC
5
118
100
AcDbEntity
8
0
100
AcDbCircle
10
150.40962140561066
20
-22.127037807470664
30
0
40
9.6374999999999744
210
0
220
-0
230
1
100
AcDbArc
50
0
51
90
0
LINE
5
119
100
AcDbEntity
8
0
100
AcDbLine
10
150.40962140561066
20
-12.48953780747069
30
0
11
140.9971214056107
21
-12.489537807470651
31
0
0
LINE
5
120
100
AcDbEntity
8
0
100
AcDbLine
10
140.9971214056107
20
-12.489537807470651
30
0
11
140.9971214056107
21
-7.8395378074706912
31
0
0
ARC
5
121
100
AcDbEntity
8
0
100
AcDbCircle
10
131.35962140561071
20
-7.8395378074706912
30
0
40
9.6375000000000099
210
0
220
-0
230
1
100
AcDbArc
50
0
51
90
0
LINE
5
122
100
AcDbEntity
8
0
100
AcDbLine
10
131.35962140561071
20
1.7979621925293188
30
0
11
120.10456057789426
21
1.7979621925292877
31
0
0
ARC
5
123
100
AcDbEntity
8
0
100
AcDbCircle
10
112.30962140561076
20
-3.869517807470686
30
0
40
9.637499999999978
210
0
220
-0
230
1
100
AcDbArc
50
36.019840821643832
51
90
0
LINE
5
124
100
AcDbEntity
8
0
100
AcDbLine
10
112.30962140561076
20
5.7679821925292929
30
0
11
96.434623405610793
21
5.7679821925292929
31
0
0
ARC
5
125
100
AcDbEntity
8
0
100
AcDbCircle
10
96.434623405610793
20
-3.869517807470686
30
0
40
9.637499999999978
210
0
220
-0
230
1
100
AcDbArc
50
90
51
154.95409661632414
0
LINE
5
126
100
AcDbEntity
8
0
100
AcDbLine
10
87.703348043465823
20
0.21046219252931042
30
0
11
77.384623405610824
21
0.21046219252931042
31
0
0
ARC
5
127
100
AcDbEntity
8
0
100
AcDbCircle
10
77.384623405610824
20
-9.4279018074706755
30
0
40
9.6383639999999851
210
0
220
-0
230
1
100
AcDbArc
50
90
51
131.14279305994049
0
LINE
5
128
100
AcDbEntity
8
0
100
AcDbLine
10
71.043178593500528
20
-2.1695178074707355
30
0
11
69.160280479734269
21
-2.1695178074707355
31
0
0
LINE
5
129
100
AcDbEntity
8
0
100
AcDbLine
10
69.160280479734269
20
-2.1695178074707355
30
0
11
69.160280479734254
21
1.8304821925292647
31
0
0
ARC
5
130
100
AcDbEntity
8
0
100
AcDbCircle
10
65.160280479734269
20
1.8304821925292611
30
0
40
3.9999999999999947
210
0
220
-0
230
1
100
AcDbArc
50
0
51
180
0
LINE
5
131
100
AcDbEntity
8
0
100
AcDbLine
10
61.160280479734261
20
1.8304821925292483
30
0
11
61.160280479734261
21
-2.1695178074707355
31
0
0
LINE
5
132
100
AcDbEntity
8
0
100
AcDbLine
10
61.160280479734261
20
-2.1695178074707355
30
0
11
28.172123405610954
21
-2.1695178074707355
31
0
0
ARC
5
133
100
AcDbEntity
8
0
100
AcDbCircle
10
28.17212340561094
20
-11.807017807470714
30
0
40
9.637499999999978
210
0
220
-0
230
1
100
AcDbArc
50
89.999999999999929
51
180
0
LINE
5
134
100
AcDbEntity
8
0
100
AcDbLine
10
18.534623405610962
20
-11.807017807470714
30
0
11
18.534623405610944
21
-91.501670936005127
31
0
0
ARC
5
135
100
AcDbEntity
8
0
100
AcDbCircle
10
26.156787024661618
20
-94.793755272776991
30
0
40
8.3027222954882927
210
0
220
0
230
1
100
AcDbArc
50
156.64002885931987
51
217.56116975873127
0
LINE
5
136
100
AcDbEntity
8
0
100
AcDbLine
10
19.575194433111342
20
-99.855161843568254
30
0
11
24.292141368580573
21
-106.00256752374432
31
0
0
LINE
5
137
100
AcDbEntity
8
0
100
AcDbLine
10
24.292141368580573
20
-106.00256752374432
30
0
11
21.118697254608168
21
-108.43757316141621
31
0
0
ARC
5
138
100
AcDbEntity
8
0
100
AcDbCircle
10
23.553702892280075
20
-111.61101727538863
30
0
40
4.0000000000000204
210
0
220
0
230
1
100
AcDbArc
50
127.49927639117213
51
307.49927724494569
0
LINE
5
139
100
AcDbEntity
8
0
100
AcDbLine
10
25.988708577239969
20
-114.78446135307664
30
0
11
29.162152643924379
21
-112.34945575168911
31
0
0
LINE
5
140
100
AcDbEntity
8
0
100
AcDbLine
10
29.162152643924379
20
-112.34945575168911
30
0
11
29.320510571859444
21
-112.55583721813487
31
0
0
LINE
5
141
100
AcDbEntity
8
0
100
AcDbLine
10
29.320510571859444
20
-112.55583721813487
30
0
11
29.552454345651942
21
-112.85585144727953
31
0
0
LINE
5
142
100
AcDbEntity
8
0
100
AcDbLine
10
29.552454345651942
20
-112.85585144727953
30
0
11
32.833123180193141
21
-117.13766335339413
31
0
0
ARC
5
143
100
AcDbEntity
8
0
100
AcDbCircle
10
36.008283800678186
20
-114.70489640316626
30
0
40
4.0000000000000018
210
0
220
0
230
1
100
AcDbArc
50
217.4588683512201
51
307.92839562599698
0
LINE
5
144
100
AcDbEntity
8
0
100
AcDbLine
10
38.466988570599987
20
-117.86001460291152
30
0
11
55.019322811403143
21
-104.9611941547621
31
0
0
ARC
5
145
100
AcDbEntity
8
0
100
AcDbCircle
10
95.895241671210727
20
-170.62590600668563
30
0
40
77.347883779905189
210
0
220
0
230
1
100
AcDbArc
50
92.9194008965856
51
121.90203473120525
0
CIRCLE
5
146
100
AcDbEntity
8
0
100
AcDbCircle
10
164.04712140561065
20
-26.127037807470664
30
0
40
1.9999999999999929
210
0
220
0
230
1
0
CIRCLE
5
147
100
AcDbEntity
8
0
100
AcDbCircle
10
65.160280479734269
20
1.8304821925292611
30
0
40
2.0000000000000018
210
0
220
0
230
1
0
CIRCLE
5
148
100
AcDbEntity
8
0
100
AcDbCircle
10
23.553702892280075
20
-111.61101727538863
30
0
40
2.0000000000000018
210
0
220
0
230
1
0
LWPOLYLINE
5
149
100
AcDbEntity
8
0
100
AcDbPolyline
90
35
70
1
43
0.0
10
26.696037999884041
20
-10.330932401743812
42
-0.19891236737965845
10
28.172123405610947
20
-9.7195178074707371
10
59.803248600735479
20
-9.7195178074707371
10
75.002103405610825
20
-9.7220578074706747
42
0.41421356237310386
10
75.29625940561084
20
-9.4279018074706755
42
-0.41421356237309503
10
77.384623405610824
20
-7.3395378074706912
10
93.259623405610768
20
-7.3395378074706912
42
0.41421356237309503
10
94.347123405610745
20
-6.2520378074707139
10
94.347123405610802
20
-3.869517807470686
42
-0.41421356237309503
10
96.434623405610793
20
-1.7820178074707087
10
112.30962140561076
20
-1.7820178074707016
42
-0.41421356237309503
10
114.39712140561073
20
-3.869517807470686
10
114.39712140561073
20
-4.6645378074706656
42
0.41421356237309503
10
115.48462140561074
20
-5.7520378074706713
10
131.35962140561071
20
-5.7520378074706713
42
-0.41421356237309503
10
133.44712140561072
20
-7.8395378074706912
10
133.44712140561072
20
-18.952037807470639
42
0.41421356237309503
10
134.53462140561069
20
-20.039537807470609
10
150.40962140561066
20
-20.03953780747068
42
-0.41421356237309503
10
152.49712140561064
20
-22.127037807470664
10
152.4971214056107
20
-76.102038807470507
42
-0.41421356237309503
10
150.40962140561066
20
-78.189538807470512
10
89.289603405610791
20
-78.189538807470527
42
0.41421356237309503
10
88.202103405610785
20
-79.277038807470532
10
88.202103405610828
20
-86.077302860727883
42
0.11825782864639259
10
50.684677623217041
20
-98.767325664679532
10
36.649392061219501
20
-109.7046729758782
10
35.535589302508122
20
-108.25097735652726
10
35.302017142645532
20
-107.94885684540061
10
25.558658636064223
20
-95.250738078666956
42
-0.41363830535475893
10
25.698630108159946
20
-94.196525757442359
10
26.084623405610952
20
-93.900415979861492
10
26.084623405610966
20
-11.807017807470716
42
-0.17854831301478383
10
26.584623405610945
20
-10.451473636298147
10
26.584623405610941
20
-10.219517807470718
0
CIRCLE
5
150
100
AcDbEntity
8
0
100
AcDbCircle
10
164.04712140561065
20
-72.102038807470507
30
0
40
1.9999999999999929
210
0
220
0
230
1
0
ENDSEC
0
SECTION
2
OBJECTS
0
DICTIONARY
5
C
100
AcDbDictionary
3
ACAD_GROUP
350
D
3
ACAD_MLINESTYLE
350
17
0
DICTIONARY
5
D
100
AcDbDictionary
0
DICTIONARY
5
1A
330
C
100
AcDbDictionary
0
DICTIONARY
5
17
100
AcDbDictionary
0
ENDSEC
0
EOF
