0
SECTION
2
HEADER
9
$INSUNITS
70
4
9
$ACADVER
1
AC1014
9
$HANDSEED
5
FFFF
0
ENDSEC
0
SECTION
2
TABLES
0
TABLE
2
VPORT
5
8
100
AcDbSymbolTable
0
ENDTAB
0
TABLE
2
LTYPE
5
5
100
AcDbSymbolTable
0
LTYPE
5
14
100
AcDbSymbolTableRecord
100
AcDbLinetypeTableRecord
2
BYBLOCK
70
0
0
LTYPE
5
15
100
AcDbSymbolTableRecord
100
AcDbLinetypeTableRecord
2
BYLAYER
70
0
0
ENDTAB
0
TABLE
2
LAYER
5
2
100
AcDbSymbolTable
70
2
0
LAYER
5
50
100
AcDbSymbolTableRecord
100
AcDbLayerTableRecord
2
0
70
0
6
CONTINUOUS
0
ENDTAB
0
TABLE
2
STYLE
5
3
100
AcDbSymbolTable
70
1
0
STYLE
5
11
100
AcDbSymbolTableRecord
100
AcDbTextStyleTableRecord
2
STANDARD
70
0
0
ENDTAB
0
TABLE
2
VIEW
5
6
100
AcDbSymbolTable
70
0
0
ENDTAB
0
TABLE
2
UCS
5
7
100
AcDbSymbolTable
70
0
0
ENDTAB
0
TABLE
2
APPID
5
9
100
AcDbSymbolTable
70
2
0
APPID
5
12
100
AcDbSymbolTableRecord
100
AcDbRegAppTableRecord
2
ACAD
70
0
0
ENDTAB
0
TABLE
2
DIMSTYLE
5
A
100
AcDbSymbolTable
70
1
0
ENDTAB
0
TABLE
2
BLOCK_RECORD
5
1
100
AcDbSymbolTable
70
1
0
BLOCK_RECORD
5
1F
100
AcDbSymbolTableRecord
100
AcDbBlockTableRecord
2
*MODEL_SPACE
0
BLOCK_RECORD
5
1B
100
AcDbSymbolTableRecord
100
AcDbBlockTableRecord
2
*PAPER_SPACE
0
ENDTAB
0
ENDSEC
0
SECTION
2
BLOCKS
0
BLOCK
5
20
100
AcDbEntity
100
AcDbBlockBegin
2
*MODEL_SPACE
0
ENDBLK
5
21
100
AcDbEntity
100
AcDbBlockEnd
0
BLOCK
5
1C
100
AcDbEntity
100
AcDbBlockBegin
2
*PAPER_SPACE
0
ENDBLK
5
1D
100
AcDbEntity
100
AcDbBlockEnd
0
ENDSEC
0
SECTION
2
ENTITIES
0
CIRCLE
5
100
100
AcDbEntity
8
0
100
AcDbCircle
10
92.136364093340603
20
-82.123799495200345
30
0
40
1.05
210
0
220
-0
230
1
0
CIRCLE
5
101
100
AcDbEntity
8
0
100
AcDbCircle
10
22.934376396198736
20
-8.7539378074706775
30
0
40
1.05
210
0
220
-0
230
1
0
CIRCLE
5
102
100
AcDbEntity
8
0
100
AcDbCircle
10
104.37212240561078
20
1.9929821925292923
30
0
40
1.05
210
0
220
-0
230
1
0
CIRCLE
5
103
100
AcDbEntity
8
0
100
AcDbCircle
10
154.55503491031681
20
-17.981624302764544
30
0
40
1.05
210
0
220
-0
230
1
0
CIRCLE
5
104
100
AcDbEntity
8
0
100
AcDbCircle
10
59.803248600735479
20
-5.9445178074707359
30
0
40
1.05
210
0
220
-0
230
1
0
CIRCLE
5
105
100
AcDbEntity
8
0
100
AcDbCircle
10
36.242435958417943
20
-114.12364772541451
30
0
40
1.05
210
0
220
-0
230
1
0
CIRCLE
5
106
100
AcDbEntity
8
0
100
AcDbCircle
10
154.55503491031681
20
-80.247452312176648
30
0
40
1.05
210
0
220
-0
230
1
0
ARC
5
107
100
AcDbEntity
8
0
100
AcDbCircle
10
91.752103405610796
20
-89.383598058295291
30
0
40
4.0000000000000373
210
0
220
0
230
1
100
AcDbArc
50
272.91940089658573
51
360
0
LINE
5
108
100
AcDbEntity
8
0
100
AcDbLine
10
95.752103405610839
20
-89.383598058295334
30
0
11
95.752103405610825
21
-85.739538807470524
31
0
0
LINE
5
109
100
AcDbEntity
8
0
100
AcDbLine
10
95.752103405610825
20
-85.739538807470524
30
0
11
150.40962140561066
21
-85.739538807470524
31
0
0
ARC
5
110
100
AcDbEntity
8
0
100
AcDbCircle
10
150.40962140561066
20
-76.102038807470507
30
0
40
9.6375000000000099
210
-0
220
0
230
1
100
AcDbArc
50
-90
51
0
0
LINE
5
111
100
AcDbEntity
8
0
100
AcDbLine
10
160.04712140561068
20
-76.102038807470507
30
0
11
164.04712140561071
21
-76.102038807470507
31
0
0
ARC
5
112
100
AcDbEntity
8
0
100
AcDbCircle
10
164.04712140561065
20
-72.102038807470507
30
0
40
3.9999999999999947
210
0
220
0
230
1
100
AcDbArc
50
-89.99999999999919
51
90.000000000000398
0
LINE
5
113
100
AcDbEntity
8
0
100
AcDbLine
10
164.04712140561062
20
-68.102038807470507
30
0
11
160.04712140561068
21
-68.102038807470521
31
0
0
LINE
5
114
100
AcDbEntity
8
0
100
AcDbLine
10
160.04712140561068
20
-68.102038807470521
30
0
11
160.04712140561065
21
-30.127037807470664
31
0
0
LINE
5
115
100
AcDbEntity
8
0
100
AcDbLine
10
160.04712140561065
20
-30.127037807470664
30
0
11
164.04712140561065
21
-30.127037807470664
31
0
0
ARC
5
116
100
AcDbEntity
8
0
100
AcDbCircle
10
164.04712140561065
20
-26.127037807470664
30
0
40
3.9999999999999991
210
0
220
0
230
1
100
AcDbArc
50
-90
51
90
0
LINE
5
117
100
AcDbEntity
8
0
100
AcDbLine
10
164.04712140561065
20
-22.127037807470664
30
0
11
160.04712140561065
21
-22.127037807470664
31
0
0
ARC
5
118
100
AcDbEntity
8
0
100
AcDbCircle
10
150.40962140561066
20
-22.127037807470664
30
0
40
9.6374999999999744
210
0
220
-0
230
1
100
AcDbArc
50
0
51
90
0
LINE
5
119
100
AcDbEntity
8
0
100
AcDbLine
10
150.40962140561066
20
-12.48953780747069
30
0
11
140.9971214056107
21
-12.489537807470651
31
0
0
LINE
5
120
100
AcDbEntity
8
0
100
AcDbLine
10
140.9971214056107
20
-12.489537807470651
30
0
11
140.9971214056107
21
-7.8395378074706912
31
0
0
ARC
5
121
100
AcDbEntity
8
0
100
AcDbCircle
10
131.35962140561071
20
-7.8395378074706912
30
0
40
9.6375000000000099
210
0
220
-0
230
1
100
AcDbArc
50
0
51
90
0
LINE
5
122
100
AcDbEntity
8
0
100
AcDbLine
10
131.35962140561071
20
1.7979621925293188
30
0
11
120.10456057789426
21
1.7979621925292877
31
0
0
ARC
5
123
100
AcDbEntity
8
0
100
AcDbCircle
10
112.30962140561076
20
-3.869517807470686
30
0
40
9.637499999999978
210
0
220
-0
230
1
100
AcDbArc
50
36.019840821643832
51
90
0
LINE
5
124
100
AcDbEntity
8
0
100
AcDbLine
10
112.30962140561076
20
5.7679821925292929
30
0
11
96.434623405610793
21
5.7679821925292929
31
0
0
ARC
5
125
100
AcDbEntity
8
0
100
AcDbCircle
10
96.434623405610793
20
-3.869517807470686
30
0
40
9.637499999999978
210
0
220
-0
230
1
100
AcDbArc
50
90
51
154.95409661632414
0
LINE
5
126
100
AcDbEntity
8
0
100
AcDbLine
10
87.703348043465823
20
0.21046219252931042
30
0
11
77.384623405610824
21
0.21046219252931042
31
0
0
ARC
5
127
100
AcDbEntity
8
0
100
AcDbCircle
10
77.384623405610824
20
-9.4279018074706755
30
0
40
9.6383639999999851
210
0
220
-0
230
1
100
AcDbArc
50
90
51
131.14279305994049
0
LINE
5
128
100
AcDbEntity
8
0
100
AcDbLine
10
71.043178593500528
20
-2.1695178074707355
30
0
11
69.160280479734269
21
-2.1695178074707355
31
0
0
LINE
5
129
100
AcDbEntity
8
0
100
AcDbLine
10
69.160280479734269
20
-2.1695178074707355
30
0
11
69.160280479734254
21
1.8304821925292647
31
0
0
ARC
5
130
100
AcDbEntity
8
0
100
AcDbCircle
10
65.160280479734269
20
1.8304821925292611
30
0
40
3.9999999999999947
210
0
220
-0
230
1
100
AcDbArc
50
0
51
180
0
LINE
5
131
100
AcDbEntity
8
0
100
AcDbLine
10
61.160280479734261
20
1.8304821925292483
30
0
11
61.160280479734261
21
-2.1695178074707355
31
0
0
LINE
5
132
100
AcDbEntity
8
0
100
AcDbLine
10
61.160280479734261
20
-2.1695178074707355
30
0
11
53.803248600735465
21
-2.1695178074707355
31
0
0
LINE
5
133
100
AcDbEntity
8
0
100
AcDbLine
10
53.803248600735465
20
-2.1695178074707355
30
0
11
53.803248600735465
21
-47.000000700354576
31
0
0
LINE
5
134
100
AcDbEntity
8
0
100
AcDbLine
10
53.803248600735465
20
-47.000000700354576
30
0
11
26.584623405610941
21
-47.000000700354576
31
0
0
LINE
5
135
100
AcDbEntity
8
0
100
AcDbLine
10
26.584623405610941
20
-47.000000700354576
30
0
11
26.584623405610941
21
-2.3011643476282195
31
0
0
ARC
5
136
100
AcDbEntity
8
0
100
AcDbCircle
10
28.17212340561094
20
-11.807017807470714
30
0
40
9.6374999999999762
210
0
220
0
230
1
100
AcDbArc
50
99.481035392289499
51
180
0
LINE
5
137
100
AcDbEntity
8
0
100
AcDbLine
10
18.534623405610962
20
-11.807017807470711
30
0
11
18.534623405610944
21
-91.501670936005127
31
0
0
ARC
5
138
100
AcDbEntity
8
0
100
AcDbCircle
10
26.156787024661618
20
-94.793755272776991
30
0
40
8.3027222954882927
210
0
220
0
230
1
100
AcDbArc
50
156.64002885931987
51
217.56116975873127
0
LINE
5
139
100
AcDbEntity
8
0
100
AcDbLine
10
19.575194433111342
20
-99.855161843568254
30
0
11
24.292141368580573
21
-106.00256752374432
31
0
0
LINE
5
140
100
AcDbEntity
8
0
100
AcDbLine
10
24.292141368580573
20
-106.00256752374432
30
0
11
21.118697254608168
21
-108.43757316141621
31
0
0
ARC
5
141
100
AcDbEntity
8
0
100
AcDbCircle
10
23.553702892280075
20
-111.61101727538863
30
0
40
4.0000000000000204
210
0
220
0
230
1
100
AcDbArc
50
127.49927639117213
51
307.49927724494569
0
LINE
5
142
100
AcDbEntity
8
0
100
AcDbLine
10
25.988708577239969
20
-114.78446135307664
30
0
11
29.162152643924379
21
-112.34945575168911
31
0
0
LINE
5
143
100
AcDbEntity
8
0
100
AcDbLine
10
29.162152643924379
20
-112.34945575168911
30
0
11
29.320510571859444
21
-112.55583721813487
31
0
0
LINE
5
144
100
AcDbEntity
8
0
100
AcDbLine
10
29.320510571859444
20
-112.55583721813487
30
0
11
29.552454345651942
21
-112.85585144727953
31
0
0
LINE
5
145
100
AcDbEntity
8
0
100
AcDbLine
10
29.552454345651942
20
-112.85585144727953
30
0
11
32.833123180193141
21
-117.13766335339413
31
0
0
ARC
5
146
100
AcDbEntity
8
0
100
AcDbCircle
10
36.008283800678186
20
-114.70489640316626
30
0
40
4.0000000000000018
210
0
220
0
230
1
100
AcDbArc
50
217.4588683512201
51
307.92839562599698
0
LINE
5
147
100
AcDbEntity
8
0
100
AcDbLine
10
38.466988570599987
20
-117.86001460291152
30
0
11
55.019322811403143
21
-104.9611941547621
31
0
0
ARC
5
148
100
AcDbEntity
8
0
100
AcDbCircle
10
95.895241671210727
20
-170.62590600668563
30
0
40
77.347883779905189
210
0
220
0
230
1
100
AcDbArc
50
92.9194008965856
51
121.90203473120525
0
CIRCLE
5
149
100
AcDbEntity
8
0
100
AcDbCircle
10
164.04712140561065
20
-26.127037807470664
30
0
40
1.9999999999999929
210
0
220
0
230
1
0
CIRCLE
5
150
100
AcDbEntity
8
0
100
AcDbCircle
10
65.160280479734269
20
1.8304821925292611
30
0
40
2.0000000000000018
210
0
220
0
230
1
0
CIRCLE
5
151
100
AcDbEntity
8
0
100
AcDbCircle
10
23.553702892280075
20
-111.61101727538863
30
0
40
2.0000000000000018
210
0
220
0
230
1
0
CIRCLE
5
152
100
AcDbEntity
8
0
100
AcDbCircle
10
164.04712140561065
20
-72.102038807470507
30
0
40
1.9999999999999929
210
0
220
0
230
1
0
LWPOLYLINE
5
153
100
AcDbEntity
8
0
100
AcDbPolyline
90
4
70
1
43
0.0
10
97.392203405610786
20
-38.200157807470632
10
111.39014140561073
20
-38.200157807470632
10
111.39014140561073
20
-24.19967780747065
10
97.392203405610786
20
-24.19967780747065
0
LWPOLYLINE
5
154
100
AcDbEntity
8
0
100
AcDbPolyline
90
4
70
1
43
0.0
10
59.264263405610862
20
-45.74649780747059
10
73.264743405610844
20
-45.74649780747059
10
73.264743405610844
20
-31.746017807470643
10
59.264263405610862
20
-31.746017807470643
0
LWPOLYLINE
5
155
100
AcDbEntity
8
0
100
AcDbPolyline
90
4
70
1
43
0.0
10
97.371883405610788
20
-5.0760178074706985
10
97.371883405610788
20
-19.073957807470663
10
111.37236140561075
20
-19.073957807470663
10
111.37236140561075
20
-5.0760178074706985
0
LWPOLYLINE
5
156
100
AcDbEntity
8
0
100
AcDbPolyline
90
4
70
1
43
0.0
10
149.46220140561064
20
-42.26923780747061
10
135.46426140561067
20
-42.26923780747061
10
135.46426140561067
20
-56.269717807470556
10
149.46220140561064
20
-56.269717807470556
0
LWPOLYLINE
5
157
100
AcDbEntity
8
0
100
AcDbPolyline
90
4
70
1
43
0.0
10
78.34982340561082
20
-62.894037807470546
10
92.350303405610788
20
-62.894037807470546
10
92.350303405610788
20
-48.896097807470582
10
78.34982340561082
20
-48.896097807470582
0
LWPOLYLINE
5
158
100
AcDbEntity
8
0
100
AcDbPolyline
90
4
70
1
43
0.0
10
78.354903405610827
20
-10.849437807470679
10
78.354903405610827
20
-24.849917807470696
10
92.35538340561078
20
-24.849917807470696
10
92.35538340561078
20
-10.849437807470679
0
LWPOLYLINE
5
159
100
AcDbEntity
8
0
100
AcDbPolyline
90
4
70
1
43
0.0
10
59.221083405610869
20
-12.711257807470666
10
59.221083405610869
20
-26.711737807470648
10
73.221563405610823
20
-26.711737807470648
10
73.221563405610823
20
-12.711257807470666
0
LWPOLYLINE
5
160
100
AcDbEntity
8
0
100
AcDbPolyline
90
4
70
1
43
0.0
10
92.307123405610767
20
-29.858797807470623
10
78.306643405610828
20
-29.858797807470623
10
78.306643405610828
20
-43.859277807470569
10
92.307123405610767
20
-43.859277807470569
0
LWPOLYLINE
5
161
100
AcDbEntity
8
0
100
AcDbPolyline
90
4
70
1
43
0.0
10
135.50744140561068
20
-75.304478807470545
10
149.50792140561066
20
-75.304478807470545
10
149.50792140561066
20
-61.303997807470552
10
135.50744140561068
20
-61.303997807470552
0
LWPOLYLINE
5
162
100
AcDbEntity
8
0
100
AcDbPolyline
90
4
70
1
43
0.0
10
69.76716340561083
20
-86.772578807470495
10
83.434903405610783
20
-83.742358807470509
10
80.404683405610797
20
-70.074617807470531
10
66.736943405610845
20
-73.104838807470543
0
LWPOLYLINE
5
163
100
AcDbEntity
8
0
100
AcDbPolyline
90
4
70
1
43
0.0
10
116.38632140561074
20
-27.930937807470642
10
116.38632140561074
20
-41.931417807470588
10
130.38426140561072
20
-41.931417807470588
10
130.38426140561072
20
-27.930937807470642
0
LWPOLYLINE
5
164
100
AcDbEntity
8
0
100
AcDbPolyline
90
4
70
1
43
0.0
10
48.837563405610886
20
-72.551118807470516
10
48.837563405610886
20
-58.352517807470576
10
31.336963405610945
20
-58.352517807470576
10
31.336963405610945
20
-72.551118807470516
0
LWPOLYLINE
5
165
100
AcDbEntity
8
0
100
AcDbPolyline
90
4
70
1
43
0.0
10
36.957983405610904
20
-105.44919880747045
10
48.065403405610887
20
-96.92495880747046
10
39.543703405610913
20
-85.820078807470495
10
28.436283405610929
20
-94.341778807470504
0
LWPOLYLINE
5
166
100
AcDbEntity
8
0
100
AcDbPolyline
90
4
70
1
43
0.0
10
130.43252140561069
20
-8.91903780747068
10
116.43204140561075
20
-8.91903780747068
10
116.43204140561075
20
-22.919517807470662
10
130.43252140561069
20
-22.919517807470662
0
LWPOLYLINE
5
167
100
AcDbEntity
8
0
100
AcDbPolyline
90
4
70
1
43
0.0
10
52.347843405610881
20
-94.382418807470501
10
65.037683405610835
20
-88.466758807470498
10
59.119483405610858
20
-75.776918807470537
10
46.432183405610878
20
-81.695118807470521
0
LWPOLYLINE
5
168
100
AcDbEntity
8
0
100
AcDbPolyline
90
4
70
1
43
0.0
10
73.282523405610817
20
-50.872217807470612
10
59.28458340561086
20
-50.872217807470612
10
59.28458340561086
20
-64.870157807470548
10
73.282523405610817
20
-64.870157807470548
0
LWPOLYLINE
5
169
100
AcDbEntity
8
0
100
AcDbPolyline
90
4
70
1
43
0.0
10
130.40458140561068
20
-61.055077807470575
10
130.40458140561068
20
-47.057137807470575
10
116.40410140561073
20
-47.057137807470575
10
116.40410140561073
20
-61.055077807470575
0
LWPOLYLINE
5
170
100
AcDbEntity
8
0
100
AcDbPolyline
90
4
70
1
43
0.0
10
149.41902140561066
20
-37.23495780747065
10
149.41902140561066
20
-23.234477807470633
10
135.41854140561068
20
-23.234477807470633
10
135.41854140561068
20
-37.23495780747065
0
LWPOLYLINE
5
171
100
AcDbEntity
8
0
100
AcDbPolyline
90
4
70
1
43
0.0
10
111.34442140561077
20
-43.211577807470576
10
97.343943405610787
20
-43.211577807470576
10
97.343943405610787
20
-57.212057807470558
10
111.34442140561077
20
-57.212057807470558
0
ENDSEC
0
SECTION
2
OBJECTS
0
DICTIONARY
5
C
100
AcDbDictionary
3
ACAD_GROUP
350
D
3
ACAD_MLINESTYLE
350
17
0
DICTIONARY
5
D
100
AcDbDictionary
0
DICTIONARY
5
1A
330
C
100
AcDbDictionary
0
DICTIONARY
5
17
100
AcDbDictionary
0
ENDSEC
0
EOF
